<svg width="251" height="162" viewBox="0 0 251 162" fill="none" xmlns="http://www.w3.org/2000/svg">
<g clip-path="url(#clip0_4020_2202)">
<path d="M129.571 4.62418C130.709 4.62418 131.631 3.58902 131.631 2.31209C131.631 1.03516 130.709 0 129.571 0C128.433 0 127.511 1.03516 127.511 2.31209C127.511 3.58902 128.433 4.62418 129.571 4.62418Z" fill="#F2F2F2"/>
<path d="M129.571 13.839C130.709 13.839 131.631 12.8039 131.631 11.5269C131.631 10.25 130.709 9.21484 129.571 9.21484C128.433 9.21484 127.511 10.25 127.511 11.5269C127.511 12.8039 128.433 13.839 129.571 13.839Z" fill="#F2F2F2"/>
<path d="M138.173 4.62418C139.311 4.62418 140.233 3.58902 140.233 2.31209C140.233 1.03516 139.311 0 138.173 0C137.035 0 136.113 1.03516 136.113 2.31209C136.113 3.58902 137.035 4.62418 138.173 4.62418Z" fill="#F2F2F2"/>
<path d="M138.173 13.839C139.311 13.839 140.233 12.8039 140.233 11.5269C140.233 10.25 139.311 9.21484 138.173 9.21484C137.035 9.21484 136.113 10.25 136.113 11.5269C136.113 12.8039 137.035 13.839 138.173 13.839Z" fill="#F2F2F2"/>
<path d="M146.775 4.62418C147.913 4.62418 148.836 3.58902 148.836 2.31209C148.836 1.03516 147.913 0 146.775 0C145.637 0 144.715 1.03516 144.715 2.31209C144.715 3.58902 145.637 4.62418 146.775 4.62418Z" fill="#F2F2F2"/>
<path d="M146.775 13.839C147.913 13.839 148.836 12.8039 148.836 11.5269C148.836 10.25 147.913 9.21484 146.775 9.21484C145.637 9.21484 144.715 10.25 144.715 11.5269C144.715 12.8039 145.637 13.839 146.775 13.839Z" fill="#F2F2F2"/>
<path d="M155.377 4.62418C156.515 4.62418 157.438 3.58902 157.438 2.31209C157.438 1.03516 156.515 0 155.377 0C154.239 0 153.317 1.03516 153.317 2.31209C153.317 3.58902 154.239 4.62418 155.377 4.62418Z" fill="#F2F2F2"/>
<path d="M155.377 13.839C156.515 13.839 157.438 12.8039 157.438 11.5269C157.438 10.25 156.515 9.21484 155.377 9.21484C154.239 9.21484 153.317 10.25 153.317 11.5269C153.317 12.8039 154.239 13.839 155.377 13.839Z" fill="#F2F2F2"/>
<path d="M163.979 4.62418C165.117 4.62418 166.04 3.58902 166.04 2.31209C166.04 1.03516 165.117 0 163.979 0C162.841 0 161.919 1.03516 161.919 2.31209C161.919 3.58902 162.841 4.62418 163.979 4.62418Z" fill="#F2F2F2"/>
<path d="M163.979 13.839C165.117 13.839 166.04 12.8039 166.04 11.5269C166.04 10.25 165.117 9.21484 163.979 9.21484C162.841 9.21484 161.919 10.25 161.919 11.5269C161.919 12.8039 162.841 13.839 163.979 13.839Z" fill="#F2F2F2"/>
<path d="M172.582 4.62418C173.72 4.62418 174.642 3.58902 174.642 2.31209C174.642 1.03516 173.72 0 172.582 0C171.444 0 170.521 1.03516 170.521 2.31209C170.521 3.58902 171.444 4.62418 172.582 4.62418Z" fill="#F2F2F2"/>
<path d="M172.582 13.839C173.72 13.839 174.642 12.8039 174.642 11.5269C174.642 10.25 173.72 9.21484 172.582 9.21484C171.444 9.21484 170.521 10.25 170.521 11.5269C170.521 12.8039 171.444 13.839 172.582 13.839Z" fill="#F2F2F2"/>
<path d="M220.506 122.009H205.21C205.21 122.503 189.446 122.903 189.446 122.903C189.198 123.112 188.973 123.352 188.774 123.618C188.175 124.42 187.848 125.433 187.85 126.478V127.193C187.85 128.379 188.27 129.515 189.016 130.353C189.763 131.191 190.776 131.662 191.832 131.663H220.506C221.562 131.661 222.574 131.19 223.321 130.352C224.068 129.515 224.487 128.378 224.488 127.193V126.478C224.487 125.294 224.067 124.158 223.32 123.32C222.574 122.482 221.562 122.011 220.506 122.009Z" fill="#3F3D56"/>
<path d="M208.398 131.485H204.256V161.517H208.398V131.485Z" fill="#3F3D56"/>
<path d="M220.186 161.354C220.186 161.856 213.91 161.548 206.168 161.548C198.426 161.548 192.149 161.856 192.149 161.354C192.149 160.852 198.426 156.87 206.168 156.87C213.91 156.87 220.186 160.852 220.186 161.354Z" fill="#3F3D56"/>
<path d="M185.456 157.404L181.55 157.404L179.691 140.497L185.456 140.497L185.456 157.404Z" fill="#FFB8B8"/>
<path d="M180.034 156.151H187.567V161.474H175.291C175.291 160.062 175.791 158.708 176.68 157.71C177.57 156.712 178.776 156.151 180.034 156.151Z" fill="#2F2E41"/>
<path d="M179.358 154.958L175.632 153.645L178.369 136.89L183.869 138.827L179.358 154.958Z" fill="#FFB8B8"/>
<path d="M173.304 151.513L180.491 154.044L179.071 159.122L167.359 154.997C167.545 154.33 167.847 153.711 168.247 153.175C168.646 152.639 169.136 152.197 169.688 151.873C170.24 151.55 170.844 151.351 171.464 151.289C172.085 151.227 172.71 151.303 173.304 151.513Z" fill="#2F2E41"/>
<path d="M210.046 119.079C209.955 118.227 209.793 117.386 209.561 116.569L208.832 115.539L206.933 112.865L206.85 112.868C206.71 112.875 206.127 112.911 205.225 112.99H205.216C204.658 113.04 203.976 113.104 203.202 113.187C202.998 113.212 202.785 113.233 202.565 113.258V116.991H206.547C206.741 116.991 206.928 117.07 207.073 117.213C207.218 117.357 207.312 117.555 207.337 117.77C207.341 117.809 207.344 117.845 207.344 117.884C207.344 118.121 207.26 118.349 207.11 118.516C206.961 118.684 206.759 118.778 206.547 118.778H183.417C183.122 118.998 182.839 119.237 182.57 119.493C181.755 120.201 181.168 121.188 180.897 122.303C179.546 128.968 177.083 141.395 176.357 145.046C176.304 145.321 176.316 145.606 176.392 145.875C176.467 146.143 176.603 146.385 176.787 146.576C176.923 146.718 177.082 146.828 177.256 146.901L180.129 148.11C180.247 148.159 180.37 148.191 180.496 148.206C180.511 148.206 180.524 148.21 180.54 148.21C180.57 148.213 180.6 148.214 180.629 148.214C180.92 148.212 181.203 148.113 181.443 147.928C181.682 147.743 181.866 147.481 181.971 147.177L184.239 140.498L187.734 130.201L189.117 126.129C190.719 126.551 204.164 129.89 208.666 124.509C209.11 123.979 209.46 123.359 209.698 122.682C210.077 121.532 210.196 120.294 210.046 119.079Z" fill="#2F2E41"/>
<path d="M213.945 120.051C213.875 119.733 213.795 119.404 213.703 119.071L211.074 115.367L210.992 115.371C210.826 115.381 210.039 115.428 208.832 115.539C207.462 115.668 205.547 115.875 203.396 116.2C203.333 116.207 203.266 116.218 203.202 116.229C202.992 116.261 202.778 116.293 202.565 116.329V116.99H206.547C206.741 116.991 206.928 117.07 207.073 117.213C207.218 117.357 207.312 117.554 207.337 117.77C207.34 117.809 207.344 117.845 207.344 117.884C207.344 118.121 207.26 118.348 207.11 118.516C206.961 118.684 206.758 118.778 206.547 118.778H192.472C191.857 119.003 191.264 119.239 190.697 119.493C187.721 120.816 185.494 122.55 185.039 124.806C184.886 125.564 184.717 126.397 184.538 127.284C183.876 130.58 183.07 134.616 182.34 138.285V138.288C182.19 139.046 182.041 139.783 181.897 140.498C181.289 143.573 180.773 146.179 180.499 147.548C180.492 147.588 180.486 147.623 180.479 147.663V147.67C180.448 147.947 180.478 148.228 180.569 148.489L180.572 148.492V148.496C180.659 148.745 180.802 148.965 180.986 149.136C181.109 149.25 181.248 149.34 181.397 149.404L184.271 150.612C184.431 150.679 184.6 150.714 184.771 150.716C185.01 150.717 185.246 150.649 185.456 150.519C185.757 150.336 185.99 150.038 186.112 149.679L192.299 131.459L193.258 128.631C194.861 129.053 208.306 132.389 212.808 127.012C213.697 125.932 214.204 124.524 214.235 123.054C214.266 122.043 214.169 121.031 213.945 120.051Z" fill="#2F2E41"/>
<path d="M213.591 88.5101C213.54 88.4422 213.486 88.3743 213.429 88.3099C212.58 87.3088 211.532 86.5475 210.371 86.0882C209.21 85.629 207.968 85.4849 206.748 85.6678C205.683 85.8247 204.628 86.0576 203.59 86.365C202.249 86.7519 201.022 87.5245 200.028 88.6067C199.255 89.4485 198.645 90.4617 198.239 91.5818C197.832 92.702 197.638 93.9047 197.667 95.1137C197.68 95.6035 197.683 96.104 197.677 96.6117C197.677 96.8477 197.674 97.0872 197.671 97.3268H200.812C200.948 97.3263 201.084 97.3443 201.217 97.3804C201.6 97.4832 201.941 97.7278 202.186 98.0747C202.43 98.4217 202.564 98.8508 202.564 99.2932V115.925C202.778 115.993 202.991 116.061 203.202 116.133C203.269 116.158 203.332 116.179 203.396 116.201C203.469 116.226 203.542 116.251 203.613 116.276C204.259 116.501 204.891 116.739 205.508 116.991H206.547C206.74 116.991 206.927 117.07 207.073 117.214C207.218 117.357 207.312 117.555 207.337 117.77C207.554 117.867 207.764 117.963 207.971 118.06C208.707 118.403 209.405 118.746 210.045 119.079C210.908 119.522 211.676 119.944 212.32 120.312C212.522 120.428 212.746 120.489 212.973 120.491C213.271 120.49 213.561 120.382 213.801 120.183C213.851 120.142 213.899 120.098 213.945 120.051C214.115 119.872 214.244 119.648 214.32 119.4C214.396 119.152 214.417 118.887 214.381 118.628C214.052 115.82 213.956 112.983 214.094 110.155C214.184 107.777 214.375 105.339 214.623 102.983C214.757 101.706 214.907 100.455 215.063 99.2502C215.213 98.099 215.372 96.9942 215.528 95.9503C215.733 94.6265 215.665 93.2676 215.329 91.9779C214.993 90.6882 214.399 89.502 213.591 88.5101Z" fill="#C80000"/>
<path d="M200.532 88.8029C200.368 88.7241 200.2 88.6584 200.029 88.6063C199.18 88.3497 198.277 88.4444 197.485 88.873C196.693 89.3016 196.064 90.0356 195.715 90.9409L193.526 96.6113L193.252 97.3264H200.812C200.949 97.3259 201.084 97.3439 201.217 97.38L201.472 96.7186L202.44 94.2087C202.825 93.2078 202.84 92.0764 202.482 91.0629C202.125 90.0495 201.423 89.2367 200.532 88.8029Z" fill="#C80000"/>
<path d="M207.329 82.876C211.651 82.876 215.155 78.9445 215.155 74.0947C215.155 69.245 211.651 65.3135 207.329 65.3135C203.008 65.3135 199.504 69.245 199.504 74.0947C199.504 78.9445 203.008 82.876 207.329 82.876Z" fill="#FFB8B8"/>
<path d="M215.063 99.2503L210.596 99.3861L210.271 102.908L210.198 103.723L203.202 107.248L202.564 107.57V113.837L203.202 113.634L205.215 112.99H205.225L214.094 110.155L214.196 110.123C214.913 109.89 215.544 109.405 215.995 108.738C216.446 108.072 216.694 107.259 216.701 106.422L216.723 102.264L216.742 99.2002L215.063 99.2503Z" fill="#FFB8B8"/>
<path d="M216.516 92.2854C216.487 91.7464 216.363 91.2192 216.152 90.7339C215.941 90.2486 215.647 89.8147 215.286 89.457C214.558 88.7345 213.604 88.3662 212.634 88.433C211.664 88.4999 210.757 88.9964 210.114 89.8134C209.47 90.6304 209.142 91.7009 209.201 92.7895L209.689 101.713C209.702 101.948 209.761 102.177 209.862 102.383C209.962 102.59 210.102 102.769 210.272 102.908C210.541 103.133 210.873 103.243 211.208 103.219L214.624 102.983L215.659 102.911C215.848 102.901 216.033 102.847 216.202 102.755C216.372 102.662 216.523 102.531 216.647 102.371C216.674 102.337 216.7 102.301 216.723 102.264C216.926 101.96 217.025 101.585 217.004 101.206L216.516 92.2854Z" fill="#C80000"/>
<path d="M203.613 116.275H203.202V116.229C202.992 116.261 202.778 116.293 202.565 116.329V116.99H205.509C204.891 116.74 204.259 116.502 203.613 116.275ZM203.613 116.275H203.202V116.229C202.992 116.261 202.778 116.293 202.565 116.329V116.99H205.509C204.891 116.74 204.259 116.502 203.613 116.275ZM206.547 116.275H203.202V99.2928C203.201 98.7114 203.032 98.1461 202.72 97.6819C202.408 97.2177 201.97 96.8797 201.472 96.7186C201.258 96.6463 201.036 96.6101 200.813 96.6114H172.457C171.824 96.6122 171.217 96.895 170.769 97.3977C170.321 97.9004 170.069 98.5819 170.068 99.2928V116.812C170.068 117.523 170.32 118.205 170.768 118.707C171.216 119.21 171.824 119.493 172.457 119.493H206.547C206.9 119.492 207.241 119.346 207.503 119.081C207.766 118.817 207.933 118.453 207.971 118.059C207.978 118.001 207.981 117.943 207.981 117.884C207.98 117.458 207.829 117.049 207.56 116.747C207.292 116.446 206.927 116.276 206.547 116.275ZM207.344 117.884C207.344 118.121 207.26 118.349 207.11 118.516C206.961 118.684 206.759 118.778 206.547 118.778H172.457C171.993 118.778 171.547 118.57 171.219 118.202C170.89 117.833 170.705 117.333 170.705 116.812V99.2928C170.705 98.7714 170.89 98.2714 171.219 97.9027C171.547 97.534 171.993 97.3267 172.457 97.3264H200.813C200.949 97.326 201.085 97.344 201.217 97.38C201.601 97.4829 201.942 97.7274 202.186 98.0744C202.431 98.4213 202.564 98.8505 202.565 99.2928V116.99H206.547C206.741 116.991 206.928 117.07 207.073 117.213C207.218 117.357 207.312 117.554 207.337 117.77C207.341 117.809 207.344 117.845 207.344 117.884ZM203.613 116.275H203.202V116.229C202.992 116.261 202.778 116.293 202.565 116.329V116.99H205.509C204.891 116.74 204.259 116.502 203.613 116.275Z" fill="#333054"/>
<path d="M186.634 110.198C187.689 110.198 188.545 109.238 188.545 108.053C188.545 106.868 187.689 105.908 186.634 105.908C185.578 105.908 184.722 106.868 184.722 108.053C184.722 109.238 185.578 110.198 186.634 110.198Z" fill="#C80000"/>
<path d="M205.659 70.6111C203.841 72.4332 201.404 74.3889 199.179 73.054C197.717 72.1775 197.067 70.2553 197.408 68.4357C198.022 65.1635 200.542 63.3955 202.983 61.9663C206.156 60.1083 209.657 58.488 213.21 58.971C216.763 59.454 220.234 62.7486 220.067 66.7603C219.932 69.9865 217.584 72.9962 218.327 76.1164C219.075 79.2566 222.472 80.4727 225.365 80.6324C228.258 80.7922 231.442 80.5154 233.737 82.4985C236.665 85.0284 236.618 90.3184 234.534 93.7424C232.45 97.1664 228.93 99.0931 225.474 100.558C220.893 102.498 215.859 103.9 211.131 102.474C206.404 101.047 202.265 95.9571 202.958 90.5185C203.251 88.2213 204.328 86.1591 205.367 84.1529C206.407 82.1466 207.452 80.0547 207.67 77.747C207.852 75.824 207.308 73.7011 206.044 72.4623C205.815 72.2466 205.653 71.9551 205.581 71.6296C205.509 71.3041 205.531 70.9614 205.644 70.6508L205.659 70.6111Z" fill="#2F2E41"/>
<path d="M0.370314 162H241.125C241.223 162 241.317 161.955 241.387 161.875C241.457 161.795 241.496 161.687 241.496 161.574C241.496 161.461 241.457 161.353 241.387 161.273C241.317 161.193 241.223 161.148 241.125 161.148H0.370314C0.321542 161.148 0.273223 161.159 0.228123 161.18C0.183023 161.202 0.142032 161.233 0.107495 161.273C0.0729583 161.312 0.0455552 161.359 0.0268583 161.411C0.00816142 161.463 -0.00146484 161.518 -0.00146484 161.574C-0.00146484 161.63 0.00816142 161.686 0.0268583 161.737C0.0455552 161.789 0.0729583 161.836 0.107495 161.876C0.142032 161.915 0.183023 161.946 0.228123 161.968C0.273223 161.989 0.321542 162 0.370314 162Z" fill="#3F3D56"/>
<path d="M15.6113 126.386V127.101C15.6123 128.286 16.0468 129.422 16.8194 130.26C17.592 131.098 18.6397 131.569 19.7323 131.57H49.4035C50.4963 131.57 51.5442 131.099 52.317 130.261C53.0897 129.423 53.524 128.286 53.5244 127.101V126.386C53.5265 125.34 53.1878 124.327 52.5682 123.526C52.3621 123.26 52.1287 123.02 51.8727 122.811C51.8727 122.811 35.5601 122.41 35.5601 121.917H19.7323C18.6398 121.919 17.5925 122.39 16.82 123.228C16.0475 124.066 15.6128 125.201 15.6113 126.386Z" fill="#3F3D56"/>
<path d="M32.4969 161.603H36.6387V131.57H32.4969V161.603Z" fill="#3F3D56"/>
<path d="M20.0718 161.322C20.0718 161.811 26.5619 161.511 34.568 161.511C42.574 161.511 49.0642 161.811 49.0642 161.322C49.0642 160.833 42.574 156.955 34.568 156.955C26.5619 156.955 20.0718 160.833 20.0718 161.322Z" fill="#3F3D56"/>
<path d="M56.0739 157.67H60.1755L62.1266 140.866L56.0732 140.866L56.0739 157.67Z" fill="#D6A1A1"/>
<path d="M67.9854 161.746L55.3271 161.746L55.3269 156.424L63.0944 156.423C64.3915 156.423 65.6355 156.984 66.5527 157.982C67.47 158.98 67.9853 160.334 67.9854 161.746Z" fill="#2F2E41"/>
<path d="M62.3766 155.167L66.2682 153.868L63.4096 137.291L57.666 139.207L62.3766 155.167Z" fill="#D6A1A1"/>
<path d="M74.8506 155.27L62.773 159.394L61.3087 154.316L68.7199 151.785C69.9575 151.362 71.2987 151.492 72.4484 152.145C73.5981 152.799 74.4622 153.923 74.8506 155.27Z" fill="#2F2E41"/>
<path d="M59.8258 147.336L52.4793 126.261C50.8311 126.684 37.0093 130.026 32.3799 124.639C30.7934 122.793 30.484 120.118 31.4602 116.689L34.1619 112.979L34.2459 112.983C35.2674 113.042 59.2838 114.513 60.9301 122.431C62.3182 129.105 64.8533 141.55 65.5971 145.205C65.6725 145.584 65.6209 145.979 65.4517 146.32C65.2825 146.661 65.007 146.923 64.6753 147.061L61.7209 148.271C61.5563 148.339 61.3818 148.374 61.206 148.374C60.9069 148.374 60.6149 148.275 60.3685 148.089C60.1221 147.904 59.9328 147.642 59.8258 147.336Z" fill="#2F2E41"/>
<path d="M55.6312 149.839L48.2173 128.763C46.5539 129.187 32.6053 132.529 27.9335 127.142C26.3324 125.296 26.0202 122.621 27.0054 119.192L29.7318 115.481L29.8166 115.486C30.8474 115.545 55.0842 117.016 56.7456 124.934C58.1465 131.608 60.7048 144.053 61.4555 147.708C61.5316 148.087 61.4795 148.482 61.3087 148.823C61.138 149.163 60.8599 149.426 60.5252 149.564L57.5437 150.774C57.3775 150.842 57.2015 150.877 57.024 150.877C56.7222 150.877 56.4275 150.777 56.1788 150.592C55.9302 150.407 55.7392 150.145 55.6312 149.839Z" fill="#2F2E41"/>
<path d="M48.5067 109.046C47.4188 109.045 46.3497 108.732 45.4039 108.137C44.4582 107.541 43.6682 106.684 43.1114 105.649L40.7803 101.275L46.3211 97.9205L48.6738 101.493L64.6371 99.6306C64.7148 99.4749 64.8022 99.3254 64.8986 99.1833C65.205 98.7368 65.5927 98.3668 66.0367 98.0974C66.4807 97.828 66.9709 97.6651 67.4755 97.6194C67.9823 97.5713 68.4926 97.6438 68.972 97.8321C69.4515 98.0205 69.8889 98.3203 70.2551 98.7114C70.8421 99.3349 71.2217 100.16 71.3322 101.052C71.4427 101.945 71.2777 102.853 70.8638 103.628C70.6049 104.111 70.2567 104.529 69.8421 104.852C69.4275 105.176 68.9558 105.399 68.4579 105.507C67.9599 105.615 67.4471 105.605 66.9529 105.478C66.4586 105.351 65.9942 105.11 65.59 104.77C65.4963 104.691 65.4065 104.606 65.3207 104.517L50.0314 108.834C49.5331 108.975 49.0209 109.046 48.5067 109.046Z" fill="#D6A1A1"/>
<path d="M27.0573 120.536C26.8363 120.362 26.6637 120.123 26.5586 119.848C26.4535 119.572 26.42 119.27 26.4618 118.975C27.3729 112.39 26.3246 102.957 25.2847 96.2027C25.0718 94.8323 25.1546 93.4263 25.5265 92.0973C25.8984 90.7684 26.5491 89.5533 27.4263 88.5496C28.3036 87.5459 29.3831 86.7814 30.5783 86.3173C31.7735 85.8532 33.0513 85.7025 34.3092 85.8772C35.4036 86.0357 36.4878 86.27 37.5552 86.5787C39.3283 87.0683 40.8967 88.2046 42.0025 89.801C43.1083 91.3974 43.6858 93.3587 43.64 95.3627C43.4845 101.88 44.6916 110.012 45.2178 113.205C45.2537 113.425 45.248 113.65 45.2011 113.867C45.1541 114.084 45.0668 114.288 44.9448 114.466C44.8251 114.642 44.6731 114.789 44.4986 114.897C44.324 115.006 44.1307 115.073 43.9312 115.094C38.0998 115.746 31.8113 118.864 28.5818 120.664C28.3742 120.782 28.1442 120.844 27.9107 120.844C27.6036 120.843 27.3048 120.735 27.0573 120.536Z" fill="#CCCCCC"/>
<path d="M42.7028 103.569C42.5186 103.491 42.3505 103.375 42.2084 103.226C42.0662 103.078 41.9528 102.901 41.8747 102.706L38.5499 94.4513C38.3486 93.9526 38.2408 93.4161 38.2325 92.8725C38.2242 92.3289 38.3156 91.7889 38.5016 91.2833C38.6876 90.7778 38.9644 90.3165 39.3163 89.926C39.6683 89.5355 40.0883 89.2234 40.5525 89.0074C41.0168 88.7915 41.516 88.676 42.0218 88.6675C42.5276 88.659 43.0299 88.7578 43.5002 88.9581C43.9704 89.1584 44.3993 89.4563 44.7624 89.8349C45.1255 90.2134 45.4155 90.6651 45.6161 91.1643L48.9409 99.4189C49.0991 99.8131 49.1054 100.259 48.9584 100.658C48.8114 101.057 48.5232 101.377 48.1569 101.548L43.8558 103.549C43.6743 103.634 43.479 103.68 43.2811 103.683C43.0832 103.686 42.8867 103.647 42.7028 103.569Z" fill="#CCCCCC"/>
<path d="M33.2937 82.9466C37.7806 82.9466 41.4179 79.0249 41.4179 74.1872C41.4179 69.3495 37.7806 65.4277 33.2937 65.4277C28.8068 65.4277 25.1694 69.3495 25.1694 74.1872C25.1694 79.0249 28.8068 82.9466 33.2937 82.9466Z" fill="#D6A1A1"/>
<path d="M28.7815 82.096C28.6685 82.2402 28.5306 82.3579 28.3758 82.4421C28.221 82.5263 28.0525 82.5754 27.8803 82.5863C27.708 82.5972 27.5356 82.5699 27.3731 82.5058C27.2106 82.4418 27.0613 82.3423 26.9342 82.2134C25.1561 80.6215 23.7459 78.5848 22.82 76.2713C21.7834 73.5384 21.6315 70.2034 22.8113 67.6418C23.8086 65.4764 25.599 64.098 27.3863 62.9714C28.0715 62.4939 28.8224 62.1429 29.6095 61.9321C30.007 61.8323 30.4191 61.8257 30.8191 61.9127C31.2192 61.9997 31.5983 62.1784 31.9321 62.4373C32.2862 62.7352 32.5604 63.1341 32.725 63.5913C32.8896 64.0485 32.9385 64.5467 32.8664 65.0323C33.684 63.8411 34.7862 62.9263 36.0487 62.3908C36.8234 62.0221 37.6889 61.958 38.5011 62.2092C39.6489 62.6329 40.4985 63.9148 40.9713 65.2921C41.3537 66.3466 41.4937 67.4894 41.3789 68.6184C41.3289 69.1575 41.1802 69.6797 40.9419 70.1532C40.7037 70.6268 40.3808 71.0418 39.9929 71.373C39.0567 72.0875 37.8505 72.0149 36.7616 71.6987C35.6728 71.3824 34.616 70.8463 33.5082 70.6968C32.4003 70.5473 31.1725 70.8714 30.5124 71.9643C30.0476 72.7339 29.938 73.7477 29.8432 74.7141L29.3499 79.7405C29.315 80.4596 29.1749 81.1678 28.9351 81.8373C28.8945 81.9307 28.8429 82.0177 28.7815 82.096Z" fill="#2F2E41"/>
<path d="M57.8601 136.218H44.7395C44.5269 136.219 44.317 136.167 44.1256 136.067C43.9343 135.966 43.7666 135.82 43.6354 135.638C43.5014 135.455 43.4077 135.24 43.3617 135.012C43.3157 134.783 43.3185 134.546 43.3699 134.318C44.5972 128.751 44.5971 122.949 43.3698 117.381C43.3184 117.154 43.3157 116.917 43.3617 116.688C43.4077 116.459 43.5014 116.245 43.6354 116.061C43.7666 115.88 43.9343 115.733 44.1256 115.633C44.317 115.533 44.5269 115.481 44.7395 115.481H57.8601C58.1954 115.482 58.5195 115.612 58.7748 115.847C59.0301 116.082 59.2001 116.408 59.2544 116.766C60.1101 122.787 60.1101 128.913 59.2544 134.933C59.2001 135.291 59.0301 135.617 58.7748 135.852C58.5195 136.088 58.1954 136.217 57.8601 136.218Z" fill="#CCCCCC"/>
<path d="M47.7896 123.223V122.756C47.7898 122.439 47.8947 122.135 48.081 121.91C48.2674 121.686 48.52 121.56 48.7836 121.56H55.7163C55.9798 121.56 56.2325 121.686 56.4188 121.91C56.6052 122.135 56.71 122.439 56.7103 122.756V123.223C56.71 123.541 56.6052 123.845 56.4188 124.069C56.2325 124.293 55.9798 124.419 55.7163 124.42H48.7836C48.52 124.419 48.2674 124.293 48.081 124.069C47.8947 123.845 47.7898 123.541 47.7896 123.223Z" fill="white"/>
<path d="M47.7896 127.663V127.254C47.7898 126.976 47.8947 126.71 48.081 126.514C48.2674 126.318 48.52 126.207 48.7836 126.207H55.7163C55.9798 126.207 56.2325 126.318 56.4188 126.514C56.6052 126.71 56.71 126.976 56.7103 127.254V127.663C56.71 127.94 56.6052 128.207 56.4188 128.403C56.2325 128.599 55.9798 128.709 55.7163 128.71H48.7836C48.52 128.709 48.2674 128.599 48.081 128.403C47.8947 128.207 47.7898 127.94 47.7896 127.663Z" fill="white"/>
<path d="M46.1266 118.12C45.6436 117.938 45.2014 117.649 44.829 117.272C44.4566 116.894 44.1623 116.436 43.9652 115.928C43.9197 115.81 43.88 115.689 43.8464 115.566L26.5378 110.265C25.794 110.033 25.1393 109.551 24.6708 108.887C24.2023 108.224 23.9451 107.416 23.9373 106.583L23.895 99.3926L30.275 99.5763L30.6907 103.895L45.4913 111.045C45.6307 110.956 45.7757 110.876 45.9252 110.809C46.4704 110.563 47.0631 110.463 47.652 110.519C48.2409 110.574 48.8084 110.783 49.3054 111.128C49.8025 111.472 50.2142 111.941 50.5049 112.495C50.7956 113.049 50.9567 113.671 50.9742 114.307C50.9917 114.942 50.8651 115.573 50.6054 116.145C50.3456 116.716 49.9605 117.211 49.4833 117.586C49.0061 117.962 48.4511 118.206 47.8663 118.299C47.2815 118.392 46.6844 118.331 46.1266 118.12Z" fill="#D6A1A1"/>
<path d="M23.9576 102.484C23.8249 102.327 23.7231 102.145 23.6582 101.947C23.5933 101.749 23.5665 101.539 23.5793 101.33L24.0975 92.4955C24.128 91.9611 24.2587 91.4384 24.4822 90.9571C24.7056 90.4757 25.0174 90.0453 25.3997 89.6905C25.782 89.3356 26.2274 89.0632 26.7102 88.8889C27.1931 88.7146 27.704 88.6418 28.2137 88.6747C28.7234 88.7075 29.2219 88.8454 29.6807 89.0805C30.1396 89.3155 30.5497 89.643 30.8876 90.0444C31.2255 90.4457 31.4847 90.9129 31.6501 91.4193C31.8156 91.9257 31.8842 92.4613 31.852 92.9955L31.3339 101.83C31.3086 102.252 31.1249 102.646 30.823 102.925C30.5211 103.205 30.1257 103.348 29.7234 103.323L25.0032 103.019C24.8038 103.006 24.6087 102.953 24.4292 102.861C24.2498 102.769 24.0894 102.641 23.9576 102.484Z" fill="#CCCCCC"/>
<path d="M77.2648 107.751C77.1609 108.135 76.9637 108.466 76.7016 108.699C76.4395 108.931 76.126 109.053 75.806 109.046L69.5557 108.842C69.2334 108.834 68.9218 108.694 68.6675 108.443C68.4132 108.192 68.2297 107.844 68.1447 107.45L67.2602 95.4693C66.9464 95.6494 66.6048 95.7383 66.2603 95.7295C65.9611 95.72 65.6663 95.6359 65.3927 95.4821C65.1191 95.3282 64.8721 95.1076 64.6658 94.8329C64.4595 94.5581 64.298 94.2345 64.1904 93.8807C64.0828 93.5268 64.0313 93.1496 64.0388 92.7705C64.0463 92.3915 64.1127 92.018 64.2342 91.6714C64.3556 91.3249 64.5298 91.012 64.7467 90.7507C64.9636 90.4894 65.219 90.2847 65.4984 90.1485C65.7777 90.0122 66.0755 89.947 66.3747 89.9565C66.5124 89.9559 66.6497 89.974 66.7844 90.0104C66.9308 89.8098 67.1087 89.6502 67.3068 89.5419C67.5048 89.4337 67.7186 89.3792 67.9343 89.3819L77.5486 89.6964C77.6284 89.7001 77.7077 89.7126 77.7858 89.7337C77.9966 89.7835 78.1966 89.8899 78.3723 90.0458C78.5479 90.2017 78.6952 90.4035 78.8041 90.6375C78.913 90.8715 78.9811 91.1324 79.0038 91.4026C79.0265 91.6727 79.0032 91.9459 78.9355 92.2037L77.2648 107.751ZM67.0788 94.6558L66.4494 91.8008C66.3778 91.471 66.3762 91.1232 66.4446 90.7923C66.4141 90.7922 66.3871 90.7739 66.3566 90.7738C65.9251 90.7625 65.5076 90.9684 65.1957 91.3464C64.8839 91.7244 64.703 92.2437 64.6929 92.7903C64.6828 93.3369 64.8443 93.8663 65.1418 94.2624C65.4394 94.6585 65.8488 94.8889 66.2803 94.9032C66.5593 94.9143 66.8353 94.8287 67.0788 94.6558Z" fill="#2F2E41"/>
<path d="M77.7378 89.7525C77.5284 91.3138 75.1747 92.4113 72.3445 92.2205C69.7419 92.0641 67.6139 90.8722 67.2241 89.4597C67.3684 89.404 67.5184 89.3779 67.6688 89.3823L77.4954 89.7133C77.5769 89.7172 77.658 89.7303 77.7378 89.7525Z" fill="#3F3D56"/>
<path d="M176.075 12.5137H74.9796C74.2122 12.5137 73.4523 12.6833 72.7433 13.0129C72.0343 13.3424 71.39 13.8255 70.8474 14.4345C70.3047 15.0434 69.8743 15.7664 69.5806 16.562C69.2869 17.3577 69.1357 18.2104 69.1357 19.0716V46.3563C69.1357 47.2175 69.2869 48.0703 69.5806 48.866C69.8743 49.6616 70.3047 50.3846 70.8474 50.9935C71.39 51.6025 72.0342 52.0855 72.7433 52.4151C73.4523 52.7447 74.2122 52.9143 74.9796 52.9143H76.4635V57.8437C76.4635 58.1429 76.5425 58.4353 76.6906 58.684C76.8387 58.9327 77.0492 59.1265 77.2955 59.241C77.5417 59.3554 77.8127 59.3854 78.0741 59.327C78.3356 59.2687 78.5757 59.1246 78.7642 58.9131L84.1098 52.9143H176.075C176.843 52.9143 177.603 52.7447 178.312 52.4151C179.021 52.0855 179.665 51.6025 180.208 50.9935C180.75 50.3846 181.181 49.6616 181.474 48.866C181.768 48.0703 181.919 47.2175 181.919 46.3563V19.0716C181.919 18.2104 181.768 17.3577 181.474 16.562C181.181 15.7664 180.75 15.0434 180.208 14.4345C179.665 13.8255 179.021 13.3424 178.312 13.0129C177.603 12.6833 176.843 12.5137 176.075 12.5137Z" fill="#DEDEDE"/>
<path d="M151.762 49.5176H74.9799C74.233 49.5166 73.5169 49.1832 72.9887 48.5905C72.4605 47.9978 72.1634 47.1942 72.1626 46.356V19.0715C72.1635 18.2334 72.4605 17.4298 72.9887 16.8372C73.5168 16.2445 74.2328 15.9111 74.9797 15.9102H176.076C176.822 15.9111 177.539 16.2445 178.067 16.8372C178.595 17.4299 178.892 18.2335 178.893 19.0717C178.885 27.1437 176.024 34.8824 170.937 40.5902C165.851 46.2979 158.955 49.5085 151.762 49.5176Z" fill="white"/>
<path d="M146.98 21.8091H104.288C103.232 21.8091 102.376 22.7695 102.376 23.9542V23.9543C102.376 25.139 103.232 26.0994 104.288 26.0994H146.98C148.035 26.0994 148.891 25.139 148.891 23.9542C148.891 22.7695 148.035 21.8091 146.98 21.8091Z" fill="#C80000"/>
<path d="M156.06 30.3896H95.2075C94.1517 30.3896 93.2959 31.3501 93.2959 32.5348V32.5348C93.2959 33.7196 94.1517 34.68 95.2075 34.68H156.06C157.115 34.68 157.971 33.7196 157.971 32.5348C157.971 31.3501 157.115 30.3896 156.06 30.3896Z" fill="#DEDEDE"/>
<path d="M156.06 38.9707H95.2075C94.1517 38.9707 93.2959 39.9311 93.2959 41.1159V41.1159C93.2959 42.3006 94.1517 43.261 95.2075 43.261H156.06C157.115 43.261 157.971 42.3006 157.971 41.1159C157.971 39.9311 157.115 38.9707 156.06 38.9707Z" fill="#DEDEDE"/>
<path d="M233.209 148.501L233.143 148.354C233.123 148.309 231.152 143.826 232.251 139.407C233.35 134.987 237.129 132.197 237.167 132.169L237.292 132.078L237.358 132.225C237.378 132.27 239.349 136.753 238.25 141.173C237.151 145.592 233.371 148.383 233.333 148.41L233.209 148.501ZM238.092 140.673C238.83 136.905 233.691 135.401 232.615 139.072C232.575 139.206 232.538 139.342 232.504 139.48C231.544 143.338 232.986 147.26 233.315 148.074C233.976 147.551 237.038 144.956 237.998 141.098C238.033 140.957 238.064 140.816 238.092 140.673Z" fill="#3F3D56"/>
<path d="M228.126 141.136C229.225 145.555 232.99 148.292 232.99 148.292C232.99 148.292 234.973 143.864 233.874 139.444C232.775 135.025 229.01 132.288 229.01 132.288C229.01 132.288 227.027 136.716 228.126 141.136Z" fill="#C80000"/>
<path d="M233.269 148.439L233.119 148.43C233.073 148.428 228.514 148.122 225.498 144.929C222.482 141.736 222.079 136.785 222.075 136.735L222.062 136.573L222.213 136.582C222.258 136.584 226.817 136.89 229.833 140.083C232.849 143.276 233.253 148.227 233.256 148.276L233.269 148.439ZM225.681 144.725C228.314 147.515 232.164 148.049 232.978 148.133C232.879 147.249 232.284 143.078 229.65 140.288C229.556 140.188 229.461 140.091 229.363 139.997C226.719 137.435 223.002 141.577 225.401 144.411C225.491 144.518 225.585 144.623 225.681 144.725Z" fill="#3F3D56"/>
<path d="M236.509 140.185C233.493 143.379 233.125 148.288 233.125 148.288C233.125 148.288 237.646 148.019 240.661 144.826C243.677 141.632 244.046 136.723 244.046 136.723C244.046 136.723 239.524 136.992 236.509 140.185Z" fill="#3F3D56"/>
<path d="M233.062 131.558C234.148 131.558 235.028 130.601 235.028 129.419C235.028 128.238 234.148 127.28 233.062 127.28C231.976 127.28 231.095 128.238 231.095 129.419C231.095 130.601 231.976 131.558 233.062 131.558Z" fill="#C80000"/>
<path d="M229.493 147.409H236.995C237.894 147.409 238.756 147.797 239.391 148.489C240.026 149.18 240.383 150.117 240.383 151.095C240.383 153.13 239.323 160.514 237.452 160.514L228.256 160.777C226.385 160.777 226.105 153.13 226.105 151.095C226.105 150.117 226.462 149.18 227.098 148.489C227.733 147.797 228.595 147.409 229.493 147.409Z" fill="#E6E6E6"/>
</g>
<defs>
<clipPath id="clip0_4020_2202">
<rect width="251" height="162" fill="white"/>
</clipPath>
</defs>
</svg>
