<svg width="135" height="131" viewBox="0 0 135 131" fill="none" xmlns="http://www.w3.org/2000/svg">
<g clip-path="url(#clip0_4010_1515)">
<path d="M128.508 131.252V118.115C128.508 118.115 133.61 127.429 128.508 131.252Z" fill="#FFC4C4"/>
<path d="M128.823 131.25L119.18 122.365C119.18 122.365 129.467 124.892 128.823 131.25Z" fill="#FFC4C4"/>
<path d="M87.3575 59.0401L36.1833 89.0555C36.0041 89.1603 35.7909 89.1895 35.5904 89.1367C35.3899 89.084 35.2184 88.9535 35.1135 88.774L2.20516 32.2695C2.10075 32.0898 2.07165 31.8758 2.12424 31.6746C2.17684 31.4733 2.30683 31.3012 2.4857 31.196L53.66 1.18063C53.8391 1.07586 54.0523 1.04665 54.2528 1.09943C54.4534 1.15221 54.6249 1.28266 54.7297 1.46217L87.6381 57.9667C87.7425 58.1464 87.7716 58.3604 87.719 58.5616C87.6664 58.7629 87.5364 58.9349 87.3575 59.0401Z" fill="white"/>
<path d="M87.3575 59.0401L36.1833 89.0555C36.0041 89.1603 35.7909 89.1895 35.5904 89.1367C35.3899 89.084 35.2184 88.9535 35.1135 88.774L2.20516 32.2695C2.10075 32.0898 2.07165 31.8758 2.12424 31.6746C2.17684 31.4733 2.30683 31.3012 2.4857 31.196L53.66 1.18063C53.8391 1.07586 54.0523 1.04665 54.2528 1.09943C54.4534 1.15221 54.6249 1.28266 54.7297 1.46217L87.6381 57.9667C87.7425 58.1464 87.7716 58.3604 87.719 58.5616C87.6664 58.7629 87.5364 58.9349 87.3575 59.0401ZM2.64354 31.467C2.53621 31.5301 2.45821 31.6334 2.42665 31.7542C2.3951 31.8749 2.41256 32.0033 2.47521 32.1111L35.3836 88.6156C35.4465 88.7233 35.5494 88.8016 35.6697 88.8333C35.79 88.8649 35.918 88.8474 36.0254 88.7845L87.1997 58.7691C87.307 58.706 87.385 58.6028 87.4166 58.482C87.4481 58.3613 87.4307 58.2329 87.368 58.125L54.4596 1.62055C54.3967 1.51284 54.2938 1.43457 54.1735 1.4029C54.0532 1.37123 53.9253 1.38876 53.8178 1.45163L2.64354 31.467Z" fill="#3F3D56"/>
<path d="M35.5382 37.0942L22.8459 44.5386C22.6668 44.6434 22.4536 44.6726 22.253 44.6198C22.0525 44.567 21.881 44.4366 21.7762 44.2571L14.358 31.5199C14.2536 31.3401 14.2245 31.1262 14.2771 30.9249C14.3297 30.7237 14.4597 30.5516 14.6385 30.4464L27.3308 23.0019C27.5099 22.8971 27.7231 22.8679 27.9237 22.9207C28.1242 22.9735 28.2957 23.104 28.4005 23.2835L35.8187 36.0207C35.9231 36.2004 35.9522 36.4144 35.8996 36.6156C35.8471 36.8169 35.7171 36.989 35.5382 37.0942ZM14.7964 30.7174C14.689 30.7805 14.611 30.8837 14.5795 31.0045C14.5479 31.1253 14.5654 31.2536 14.628 31.3615L22.0462 44.0987C22.1091 44.2064 22.212 44.2847 22.3323 44.3163C22.4527 44.348 22.5806 44.3305 22.6881 44.2676L35.3804 36.8232C35.4877 36.7601 35.5657 36.6568 35.5972 36.536C35.6288 36.4153 35.6113 36.2869 35.5487 36.1791L28.1305 23.4418C28.0676 23.3341 27.9647 23.2559 27.8444 23.2242C27.7241 23.1925 27.5961 23.2101 27.4887 23.2729L14.7964 30.7174Z" fill="#E8E8E8"/>
<path d="M32.8005 40.7908L20.1082 48.2352C19.947 48.3295 19.7551 48.3558 19.5746 48.3083C19.3941 48.2608 19.2398 48.1434 19.1454 47.9818L11.7272 35.2446C11.6333 35.0828 11.6071 34.8903 11.6544 34.7091C11.7017 34.528 11.8187 34.3731 11.9797 34.2785L24.672 26.834C24.8332 26.7397 25.0251 26.7134 25.2056 26.7609C25.3861 26.8084 25.5404 26.9258 25.6347 27.0874L33.0529 39.8246C33.1469 39.9864 33.1731 40.1789 33.1258 40.3601C33.0784 40.5412 32.9614 40.6961 32.8005 40.7908Z" fill="#C80000"/>
<path d="M63.4353 31.1847L23.7381 54.4684C23.577 54.5629 23.385 54.5893 23.2044 54.5418C23.0239 54.4943 22.8696 54.3767 22.7754 54.215C22.6812 54.0533 22.6549 53.8607 22.7022 53.6795C22.7496 53.4983 22.8667 53.3434 23.0279 53.2489L62.725 29.9652C62.8048 29.9184 62.893 29.8878 62.9846 29.8752C63.0762 29.8626 63.1693 29.8682 63.2587 29.8918C63.3481 29.9153 63.432 29.9563 63.5056 30.0123C63.5793 30.0684 63.6412 30.1385 63.6878 30.2185C63.7344 30.2986 63.7649 30.3871 63.7774 30.479C63.79 30.5709 63.7844 30.6644 63.7609 30.7541C63.7375 30.8438 63.6967 30.928 63.6408 31.0019C63.5849 31.0758 63.5151 31.1379 63.4353 31.1847Z" fill="#CCCCCC"/>
<path d="M56.2953 41.0084L26.1849 58.6692C26.1051 58.716 26.0169 58.7466 25.9253 58.7592C25.8338 58.7718 25.7406 58.7661 25.6512 58.7426C25.4707 58.6951 25.3163 58.5775 25.2221 58.4158C25.128 58.2541 25.1017 58.0615 25.149 57.8803C25.1963 57.6991 25.3135 57.5442 25.4746 57.4497L55.5851 39.7889C55.6649 39.7421 55.7531 39.7115 55.8446 39.6989C55.9362 39.6863 56.0294 39.692 56.1188 39.7155C56.2081 39.739 56.292 39.78 56.3657 39.836C56.4393 39.8921 56.5012 39.9622 56.5478 40.0423C56.5945 40.1223 56.6249 40.2109 56.6375 40.3027C56.65 40.3946 56.6444 40.4881 56.621 40.5778C56.5975 40.6675 56.5567 40.7517 56.5008 40.8256C56.445 40.8995 56.3751 40.9616 56.2953 41.0084Z" fill="#CCCCCC"/>
<path d="M54.304 15.8165L36.7508 26.112C36.5897 26.2066 36.3977 26.233 36.2171 26.1854C36.0366 26.1379 35.8823 26.0204 35.7881 25.8587C35.6939 25.6969 35.6676 25.5043 35.7149 25.3231C35.7623 25.1419 35.8794 24.987 36.0405 24.8925L53.5937 14.597C53.7549 14.5025 53.9468 14.4761 54.1274 14.5236C54.2168 14.5471 54.3007 14.5881 54.3743 14.6442C54.4479 14.7002 54.5098 14.7703 54.5565 14.8504C54.6031 14.9305 54.6336 15.019 54.6461 15.1108C54.6587 15.2027 54.6531 15.2962 54.6296 15.3859C54.6062 15.4756 54.5653 15.5598 54.5095 15.6337C54.4536 15.7076 54.3838 15.7697 54.304 15.8165Z" fill="#CCCCCC"/>
<path d="M52.3696 22.5865L39.1971 30.3126C39.1173 30.3594 39.0291 30.39 38.9375 30.4026C38.846 30.4152 38.7528 30.4096 38.6634 30.3861C38.574 30.3625 38.4901 30.3216 38.4165 30.2655C38.3429 30.2094 38.281 30.1393 38.2344 30.0593C38.1877 29.9792 38.1573 29.8907 38.1447 29.7988C38.1322 29.7069 38.1378 29.6134 38.1612 29.5237C38.1847 29.434 38.2255 29.3498 38.2813 29.2759C38.3372 29.202 38.407 29.1399 38.4868 29.0931L51.6593 21.367C51.8205 21.2725 52.0124 21.2461 52.193 21.2936C52.3735 21.3411 52.5279 21.4587 52.6221 21.6204C52.7163 21.7821 52.7426 21.9748 52.6952 22.1559C52.6479 22.3371 52.5307 22.492 52.3696 22.5865Z" fill="#CCCCCC"/>
<path d="M68.3284 39.5861L28.6312 62.8698C28.47 62.9643 28.2781 62.9907 28.0975 62.9432C27.917 62.8957 27.7626 62.7781 27.6684 62.6164C27.5743 62.4547 27.5479 62.262 27.5953 62.0808C27.6426 61.8997 27.7598 61.7448 27.9209 61.6502L67.6181 38.3665C67.7793 38.272 67.9712 38.2456 68.1518 38.2931C68.3323 38.3406 68.4867 38.4582 68.5809 38.6199C68.675 38.7816 68.7013 38.9743 68.654 39.1555C68.6066 39.3366 68.4895 39.4915 68.3284 39.5861Z" fill="#CCCCCC"/>
<path d="M61.1884 49.4093L31.0779 67.0701C30.9982 67.1169 30.91 67.1474 30.8184 67.16C30.7268 67.1726 30.6337 67.167 30.5443 67.1435C30.4549 67.1199 30.371 67.079 30.2974 67.0229C30.2237 66.9668 30.1618 66.8968 30.1152 66.8167C30.0686 66.7366 30.0381 66.6481 30.0256 66.5562C30.013 66.4643 30.0186 66.3709 30.0421 66.2811C30.0655 66.1914 30.1063 66.1072 30.1622 66.0333C30.2181 65.9595 30.2879 65.8974 30.3677 65.8505L60.4781 48.1898C60.5579 48.143 60.6461 48.1124 60.7377 48.0998C60.8293 48.0872 60.9224 48.0928 61.0118 48.1164C61.1012 48.1399 61.1851 48.1809 61.2587 48.2369C61.3324 48.293 61.3942 48.3631 61.4409 48.4431C61.4875 48.5232 61.518 48.6117 61.5305 48.7036C61.5431 48.7955 61.5375 48.889 61.514 48.9787C61.4906 49.0684 61.4498 49.1526 61.3939 49.2265C61.338 49.3004 61.2682 49.3625 61.1884 49.4093Z" fill="#CCCCCC"/>
<path d="M73.2214 47.9869L33.5242 71.2706C33.4444 71.3174 33.3562 71.348 33.2647 71.3606C33.1731 71.3732 33.08 71.3676 32.9906 71.3441C32.9012 71.3205 32.8173 71.2796 32.7437 71.2235C32.67 71.1674 32.6081 71.0973 32.5615 71.0173C32.5149 70.9372 32.4844 70.8487 32.4719 70.7568C32.4593 70.6649 32.4649 70.5714 32.4884 70.4817C32.5118 70.392 32.5526 70.3078 32.6085 70.2339C32.6644 70.16 32.7342 70.0979 32.814 70.0511L72.5112 46.7674C72.591 46.7206 72.6792 46.69 72.7707 46.6774C72.8623 46.6648 72.9554 46.6705 73.0448 46.694C73.1342 46.7175 73.2181 46.7585 73.2918 46.8146C73.3654 46.8706 73.4273 46.9407 73.4739 47.0208C73.5206 47.1009 73.551 47.1894 73.5636 47.2813C73.5761 47.3731 73.5705 47.4666 73.5471 47.5563C73.5236 47.646 73.4828 47.7302 73.4269 47.8041C73.3711 47.878 73.3012 47.9401 73.2214 47.9869Z" fill="#CCCCCC"/>
<path d="M75.6677 52.1876L35.9705 75.4713C35.8907 75.5181 35.8025 75.5487 35.711 75.5613C35.6194 75.5739 35.5263 75.5683 35.4369 75.5447C35.3475 75.5212 35.2636 75.4802 35.1899 75.4242C35.1163 75.3681 35.0544 75.298 35.0078 75.218C34.9612 75.1379 34.9307 75.0494 34.9181 74.9575C34.9056 74.8656 34.9112 74.7721 34.9346 74.6824C34.9581 74.5927 34.9989 74.5085 35.0548 74.4346C35.1107 74.3607 35.1805 74.2986 35.2603 74.2518L74.9575 50.9681C75.0373 50.9213 75.1255 50.8907 75.217 50.8781C75.3086 50.8655 75.4017 50.8712 75.4911 50.8947C75.5805 50.9182 75.6644 50.9592 75.7381 51.0153C75.8117 51.0713 75.8736 51.1414 75.9202 51.2215C75.9668 51.3015 75.9973 51.3901 76.0099 51.4819C76.0224 51.5738 76.0168 51.6673 75.9934 51.757C75.9699 51.8467 75.9291 51.9309 75.8732 52.0048C75.8173 52.0787 75.7475 52.1408 75.6677 52.1876Z" fill="#CCCCCC"/>
<path d="M67.0494 66.3923C67.6009 65.7406 68.0973 65.0438 68.5335 64.3092C68.9247 63.6466 69.3085 62.9381 69.3947 62.161C69.4388 61.83 69.4045 61.4933 69.2945 61.1782C69.1844 60.8631 69.0019 60.5785 68.7616 60.3475C68.5294 60.1327 68.235 59.9976 67.9212 59.9618C67.6074 59.926 67.2904 59.9914 67.016 60.1484C66.7384 60.3083 66.509 60.5406 66.3521 60.8207C66.1953 61.1007 66.1169 61.4181 66.1251 61.7393C66.1476 62.0928 66.2494 62.4368 66.4229 62.7454C66.5964 63.054 66.837 63.3193 67.1269 63.5215C68.3003 64.3746 70.1327 64.3301 71.3834 63.6808C72.792 62.9496 73.5198 61.0364 72.4131 59.7268C72.1829 59.4544 71.7999 59.7588 71.8575 60.0526C71.9307 60.4495 72.152 60.8034 72.4764 61.042C72.8008 61.2807 73.2038 61.386 73.603 61.3365C74.0021 61.2869 74.3674 61.0864 74.6242 60.7757C74.8809 60.465 75.0098 60.0676 74.9844 59.6648L74.4869 59.9566C75.0969 60.2277 75.7672 60.3329 76.4305 60.2615C77.0938 60.1901 77.7266 59.9446 78.2653 59.5498C78.5318 59.3555 78.7698 59.1247 78.9724 58.8641C79.2159 58.5453 79.625 58.3393 79.9562 58.1096L82.3432 56.4544C82.6943 56.2109 82.3605 55.6307 82.0065 55.8762L79.8447 57.3752C79.4844 57.625 79.1218 57.8718 78.7638 58.1248C78.5078 58.3056 78.3503 58.5975 78.1174 58.8123C77.6765 59.2103 77.1318 59.4744 76.547 59.5737C75.9622 59.6729 75.3614 59.6033 74.8145 59.373C74.7635 59.3455 74.7064 59.3316 74.6486 59.3326C74.5907 59.3337 74.5341 59.3496 74.4842 59.3789C74.4343 59.4082 74.3927 59.4499 74.3634 59.4999C74.3341 59.55 74.3181 59.6068 74.317 59.6648C74.3433 59.9052 74.274 60.1462 74.124 60.3355C73.9741 60.5248 73.7557 60.647 73.5164 60.6754C73.2771 60.7039 73.0363 60.6363 72.8464 60.4874C72.6565 60.3385 72.533 60.1204 72.5026 59.8805L71.9471 60.2063C72.661 61.0512 72.1856 62.347 71.3631 62.9138C70.4433 63.5478 69.0842 63.6579 68.0473 63.2638C67.793 63.176 67.5595 63.0364 67.3613 62.854C67.1631 62.6715 67.0045 62.4499 66.8955 62.2032C66.7944 61.9803 66.7656 61.7312 66.8131 61.491C66.8605 61.2508 66.9819 61.0316 67.1601 60.8642C67.3145 60.7111 67.5221 60.6243 67.7391 60.622C67.9561 60.6196 68.1655 60.702 68.3231 60.8518C68.4948 61.0277 68.6208 61.2432 68.6899 61.4794C68.759 61.7156 68.7692 61.9653 68.7196 62.2064C68.6127 62.8774 68.243 63.4961 67.8992 64.0692C67.5066 64.7222 67.0626 65.3426 66.5715 65.9246C66.2962 66.2516 66.7712 66.7227 67.0494 66.3923Z" fill="#C80000"/>
<path d="M79.2528 75.8979C79.324 75.9662 79.3893 76.0396 79.4481 76.1174L88.5931 75.9087L89.6599 74.0903L92.8125 75.2334L91.2592 78.6237C91.1337 78.8976 90.9164 79.1261 90.6398 79.2749C90.3632 79.4238 90.0423 79.485 89.7253 79.4492L79.3932 78.2851C79.1494 78.5729 78.8176 78.7846 78.4417 78.8922C78.0658 78.9998 77.6637 78.998 77.2888 78.8872C76.914 78.7764 76.5842 78.5618 76.3434 78.272C76.1025 77.9821 75.9619 77.6307 75.9404 77.2645C75.9189 76.8983 76.0174 76.5347 76.2228 76.222C76.4283 75.9093 76.7309 75.6623 77.0905 75.514C77.4501 75.3656 77.8496 75.3229 78.2359 75.3915C78.6221 75.4601 78.9768 75.6367 79.2528 75.8979Z" fill="#FFB7B7"/>
<path d="M108.632 127.779H105.774L104.414 117.041L108.633 117.041L108.632 127.779Z" fill="#FFB7B7"/>
<path d="M109.687 131L99.1406 131V130.865C99.1407 129.761 99.5732 128.703 100.343 127.923C101.113 127.143 102.157 126.705 103.246 126.705H103.246L109.688 126.705L109.687 131Z" fill="#2F2E41"/>
<path d="M81.8898 127.779L79.1016 126.654L82.3692 115.967L86.4844 117.627L81.8898 127.779Z" fill="#FFB7B7"/>
<path d="M81.7749 131L72.7734 127.05L72.8221 126.934C73.2191 125.979 73.9689 125.226 74.9066 124.839C75.8443 124.453 76.8931 124.464 77.8223 124.872L77.8226 124.872L83.3203 127.285L81.7749 131Z" fill="#2F2E41"/>
<path d="M94.228 82.0626L91.7578 66.2285L96.0394 64.9383L97.2969 63.3525L103.417 63.6855L104.315 65.536L107.578 66.9537L107.077 75.517L107.442 82.6804L94.228 82.0626Z" fill="#C80000"/>
<path d="M92.5 77.3114L88.5938 75.8229L88.6104 75.7567C88.6272 75.6899 90.2897 69.0728 90.5105 68.0095C90.7404 66.9016 91.5806 66.5954 91.6163 66.5829L91.6423 66.5737L93.1883 67.0219L93.8672 72.1027L92.5 77.3114Z" fill="#C80000"/>
<path d="M83.7953 125.631L78.0469 124.532L87.2344 100.907L90.3789 92.8489C90.3789 92.8489 92.3732 86.3879 93.2743 83.8876L93.8181 80.5327L106.69 81.8605C106.69 81.8605 110.286 86.7808 109.194 94.8007L109.687 124.944L103.939 125.219L99.1242 94.8177L90.6737 111.483C90.6737 111.483 88.0101 118.595 86.1044 120.137L83.7953 125.631Z" fill="#2F2E41"/>
<path d="M101.07 83.1961C101.175 83.1938 101.28 83.1992 101.384 83.2125L107.608 76.5176L106.884 74.4599L110.011 73.0166L111.665 76.541C111.799 76.8257 111.832 77.1439 111.759 77.4479C111.686 77.7518 111.511 78.025 111.261 78.2265L103.098 84.7944C103.16 85.1736 103.099 85.5619 102.924 85.9075C102.748 86.2532 102.465 86.5398 102.114 86.7293C101.762 86.9187 101.358 87.0021 100.956 86.9683C100.553 86.9344 100.171 86.785 99.8597 86.5398C99.5487 86.2946 99.3237 85.9653 99.2145 85.5957C99.1054 85.2262 99.1174 84.8338 99.2488 84.4708C99.3802 84.1078 99.6249 83.7914 99.9504 83.5638C100.276 83.3361 100.666 83.2078 101.07 83.1961Z" fill="#FFB7B7"/>
<path d="M107.728 77.3114L105.469 72.3056L106.35 68.8188L107.299 67.6889C107.369 67.6609 107.444 67.6468 107.519 67.6475C107.595 67.6481 107.67 67.6636 107.739 67.6928C108.089 67.8256 108.387 68.2324 108.625 68.9021L110.742 74.5829L107.728 77.3114Z" fill="#C80000"/>
<path d="M94.9219 61.5117V57.2507C94.9219 55.7364 95.533 54.2841 96.6209 53.2134C97.7087 52.1426 99.1842 51.541 100.723 51.541C102.261 51.541 103.737 52.1426 104.824 53.2134C105.912 54.2841 106.523 55.7364 106.523 57.2507V61.5117C106.523 61.7151 106.441 61.91 106.295 62.0538C106.149 62.1976 105.951 62.2785 105.744 62.2787H95.7011C95.4945 62.2785 95.2964 62.1976 95.1504 62.0538C95.0043 61.91 94.9221 61.7151 94.9219 61.5117Z" fill="#2F2E41"/>
<path d="M99.668 62.2786C102.289 62.2786 104.414 60.3557 104.414 57.9836C104.414 55.6115 102.289 53.6885 99.668 53.6885C97.0468 53.6885 94.9219 55.6115 94.9219 57.9836C94.9219 60.3557 97.0468 62.2786 99.668 62.2786Z" fill="#FFB7B7"/>
<path d="M92.8125 56.8303C92.8139 55.7126 93.3221 54.6411 94.2255 53.8508C95.1289 53.0606 96.3537 52.616 97.6313 52.6147H98.5406C99.8182 52.616 101.043 53.0605 101.946 53.8508C102.85 54.6411 103.358 55.7127 103.359 56.8303V56.9098H101.438L100.783 55.3045L100.651 56.9098H99.6585L99.3278 56.0998L99.2617 56.9098H92.8125L92.8125 56.8303Z" fill="#2F2E41"/>
<path d="M98.2614 63.0173C98.161 62.896 98.1011 62.7519 98.0884 62.6015C98.0758 62.4512 98.1111 62.3007 98.1901 62.1674C99.2626 60.3476 100.764 56.985 98.7711 54.9112L98.6278 54.7622H104.414V62.5123L99.1577 63.3397C99.1045 63.3481 99.0505 63.3523 98.9965 63.3524C98.853 63.3524 98.7115 63.322 98.5838 63.2638C98.456 63.2055 98.3455 63.1211 98.2614 63.0173Z" fill="#2F2E41"/>
<path d="M40.0781 125.794L42.6646 126.705L47.4609 117.311L43.6435 115.967L40.0781 125.794Z" fill="#D6A1A1"/>
<path d="M37.9688 127.968L39.2943 124.558L44.9311 126.41C45.8831 126.724 46.6608 127.372 47.0936 128.213C47.5264 129.053 47.5789 130.017 47.2397 130.893L47.1979 131L37.9688 127.968Z" fill="#2F2E41"/>
<path d="M56.9536 127.779L59.8119 127.778L61.1719 118.115L56.9531 118.115L56.9536 127.779Z" fill="#D6A1A1"/>
<path d="M55.8984 127.779L61.6958 127.779H61.696C62.1812 127.779 62.6616 127.859 63.1099 128.016C63.5581 128.173 63.9654 128.403 64.3085 128.693C64.6516 128.982 64.9237 129.326 65.1094 129.705C65.295 130.083 65.3906 130.489 65.3906 130.898V131L55.8986 131L55.8984 127.779Z" fill="#2F2E41"/>
<path d="M50.625 61.802L51.8746 59.0576C51.8746 59.0576 56.5299 60.3539 56.9531 63.3527L50.625 61.802Z" fill="#F1F1F1"/>
<path d="M45.633 88.4915L48.9888 106.379L40.0781 121.431L45.4014 123.421L54.4278 108.83L55.585 104.851L56.2793 125.631L61.0802 125.492L63.2812 106.088L59.7509 88.0493L45.633 88.4915Z" fill="#2F2E41"/>
<path d="M51.3171 92.3445C46.4881 92.3445 43.4221 91.4448 43.3534 91.4306L43.2422 91.4075L45.7575 80.0486L45.8707 69.571C45.8707 65.1309 48.8709 61.8575 49.2872 61.5553C49.3573 61.2858 49.4869 61.0345 49.6671 60.8188C49.8472 60.6032 50.0736 60.4284 50.3302 60.3068C51.331 59.8645 52.5539 60.3952 52.6053 60.418L56.2758 61.7585L56.2931 61.8081C56.3373 61.9351 61.1719 77.3942 61.1719 77.3942C61.1719 77.3942 60.8793 90.9015 60.7773 91.344C60.7773 91.344 54.0003 92.3445 51.3171 92.3445Z" fill="#3F3D56"/>
<path d="M55.3711 59.0575C57.9923 59.0575 60.1172 56.8941 60.1172 54.2255C60.1172 51.5569 57.9923 49.3936 55.3711 49.3936C52.7499 49.3936 50.625 51.5569 50.625 54.2255C50.625 56.8941 52.7499 59.0575 55.3711 59.0575Z" fill="#D6A1A1"/>
<path opacity="0.2" d="M51.1489 72.2183L58.612 82.2828L59.6035 77.5009L51.1489 72.2183Z" fill="black"/>
<path d="M77.2155 78.9341C76.969 79.1243 76.6828 79.2595 76.377 79.3301C76.0712 79.4007 75.7533 79.405 75.4456 79.3428C75.1378 79.2806 74.8479 79.1533 74.596 78.9699C74.3442 78.7865 74.1367 78.5515 73.988 78.2814L66.4453 79.4591L68.0794 75.9303L74.9916 75.3529C75.4733 75.1394 76.0185 75.1057 76.524 75.2581C77.0295 75.4105 77.46 75.7385 77.7342 76.18C78.0083 76.6214 78.1069 77.1456 78.0113 77.6532C77.9157 78.1608 77.6325 78.6166 77.2155 78.9341Z" fill="#D6A1A1"/>
<path d="M68.5547 75.4613L71.0322 75.1641L71.7188 79.3917L68.6013 79.4591L68.5547 75.4613Z" fill="#F1F1F1"/>
<path d="M70.6641 80.5328L57.4183 79.3712L50.73 68.8951L50.7094 68.8025C50.5196 67.9467 50.6525 67.0522 51.0833 66.2858C51.5141 65.5195 52.2134 64.9338 53.0506 64.638C53.8878 64.3423 54.8056 64.3567 55.6328 64.6787C56.4599 65.0007 57.1398 65.6081 57.5455 66.3876L61.4717 73.9303L69.3955 75.11L70.6641 80.5328Z" fill="#3F3D56"/>
<path d="M50.7006 57.845L54.6927 57.9838C54.936 57.9922 55.5964 55.4492 55.6829 54.9217C55.7512 54.5783 55.9463 54.2706 56.2317 54.0563C56.5172 53.842 56.8734 53.7356 57.2339 53.757C57.5327 53.7843 58.2863 53.2437 59.0639 52.6035C60.5401 51.3882 60.4633 49.1057 58.8417 48.0787C58.7973 48.0506 58.7538 48.025 58.7112 48.0018C57.6881 47.4473 56.4914 47.2612 55.3191 47.2469C54.2564 47.2341 53.1635 47.3636 52.2273 47.8507C50.5489 48.7239 49.6556 50.6321 49.5771 52.4756C49.4987 54.3191 50.109 56.1216 50.8015 57.8405" fill="#2F2E41"/>
<path d="M134.747 131H0.180965C0.13297 131 0.0869409 130.981 0.0530033 130.947C0.0190658 130.913 0 130.866 0 130.818C0 130.77 0.0190658 130.724 0.0530033 130.69C0.0869409 130.656 0.13297 130.637 0.180965 130.637H134.819C134.867 130.637 134.913 130.656 134.947 130.69C134.981 130.724 135 130.77 135 130.818C135 130.919 134.847 131 134.747 131Z" fill="#CBCBCB"/>
</g>
<defs>
<clipPath id="clip0_4010_1515">
<rect width="135" height="131" fill="white"/>
</clipPath>
</defs>
</svg>
