<svg width="152" height="102" viewBox="0 0 152 102" fill="none" xmlns="http://www.w3.org/2000/svg">
<g clip-path="url(#clip0_4018_965)">
<path d="M110.301 61.8828C110.301 61.8828 106.468 66.0122 109.235 73.1465C112.001 80.2807 110.448 86.659 111.224 87.9379C112.001 89.2169 113.564 90.4315 112.272 91.4012C110.981 92.3708 110.301 93.1593 111.321 93.4222C112.341 93.685 115.741 112.083 115.741 112.083L121.522 112.346C121.522 112.346 123.616 103.799 121.379 96.9024C121.379 96.9024 121.87 91.8955 120.846 90.4248C119.822 88.9541 120.022 90.2806 120.092 88.4346C120.131 87.0996 120.382 85.7733 120.842 84.486C121.182 83.4347 121.379 72.8388 121.379 72.8388L127.006 86.8999C127.232 87.3843 127.316 87.9013 127.254 88.4139C127.115 89.1383 127.114 90.2206 127.284 90.5993C127.455 90.9781 127.645 91.0577 127.55 91.8064C127.455 92.555 138.781 108.337 138.781 108.337L144.408 105.419L138.864 91.5823C138.313 91.1108 137.855 90.5795 137.503 90.0054C136.823 88.9541 136.797 88.8961 137.15 88.1366C137.503 87.3771 137.503 85.8974 137.503 85.4545C137.503 85.0116 137.857 64.9061 133.43 61.9489C129.003 58.9917 110.301 61.8828 110.301 61.8828Z" fill="#2F2E41"/>
<path d="M131.403 91.2681L130.319 101.465L130.27 101.932L118.004 101.884L117.939 101.416L116.641 92.0716L131.403 91.2681Z" fill="#FFB6B6"/>
<path d="M112.649 101.395C112.649 101.549 112.648 101.704 112.646 101.861L99.9131 101.812L99.8715 101.344L99.0864 92.4739L112.253 90.8652C112.253 90.8652 112.677 95.5699 112.649 101.395Z" fill="#FFB6B6"/>
<path d="M44.8638 51.9125C44.8638 51.9125 49.2523 49.3197 50.4342 51.7239C51.616 54.1281 62.5344 82.8092 62.5344 82.8092L55.4986 84.1898L44.8638 51.9125Z" fill="#C80000"/>
<path d="M35.2923 34.7791L35.4992 35.0759C34.7279 35.5246 34.6142 36.6566 34.9759 37.478C35.3375 38.2994 36.0375 38.9082 36.643 39.5681C37.2485 40.228 37.8005 41.0452 37.7444 41.9426C37.6814 42.9517 36.8649 43.7828 36.7512 44.7878C36.5868 46.2511 37.9389 47.535 37.8718 49.0066C37.8211 50.1303 36.9635 51.0332 36.1129 51.762C35.4471 52.3336 34.7224 52.9079 34.2731 53.6451C34.1498 53.848 34.0471 54.0647 33.9718 54.2967C33.6361 55.3431 33.9526 56.4834 34.3786 57.4953C34.8033 58.5072 35.3444 59.4956 35.4772 60.5862C35.6087 61.6768 35.2005 62.9358 34.2046 63.3831C36.1882 63.2119 38.1238 62.5148 39.7663 61.3814C39.9142 61.2792 40.0581 61.1743 40.2006 61.0667C42.5293 59.2996 44.165 56.7471 45.7389 54.2594C45.8691 54.0551 45.9979 53.8494 46.128 53.6451C46.4773 53.0915 46.828 52.5393 47.1787 51.9857C48.1787 50.4037 49.191 48.7981 49.7362 47.0062C50.2376 45.3538 50.3225 43.6074 50.528 41.8915C50.628 41.0508 50.7595 40.2128 50.7842 39.3665C50.8239 38.0647 50.6034 36.7574 50.154 35.5356C49.7143 34.3346 49.054 33.215 48.2033 32.2625C47.3321 31.2864 46.2664 30.4927 45.0937 29.9211C43.9581 29.3675 42.7225 29.0238 41.4636 28.9286C41.0417 28.8968 40.6211 28.8913 40.2006 28.9106C38.5416 28.9796 36.9019 29.4021 35.3074 29.9211C34.1348 30.4927 33.069 31.2864 32.1978 32.2625C31.3471 33.215 30.6868 34.3346 30.2471 35.5356C31.7758 34.7128 33.5923 34.4299 35.2923 34.7791Z" fill="#2F2E41"/>
<path d="M47.1807 49.8819L39.3151 46.7734L39.116 49.8819L32.2207 50.9699L28.9819 65.7351L31.9122 74.9051L53.8125 75.5268L53.0414 72.4184C53.0414 72.4184 56.5886 68.3773 54.4294 61.8495L54.1896 60.1882C53.5627 55.8445 50.9744 52.0385 47.1807 49.8819Z" fill="#C80000"/>
<path d="M42.8032 46.6334C46.6617 46.6334 49.7896 43.4812 49.7896 39.5928C49.7896 35.7044 46.6617 32.5522 42.8032 32.5522C38.9448 32.5522 35.8169 35.7044 35.8169 39.5928C35.8169 43.4812 38.9448 46.6334 42.8032 46.6334Z" fill="#FFB6B6"/>
<path d="M29.6169 39.3665C29.6415 40.2128 29.773 41.0508 29.873 41.8915C30.0785 43.6074 30.1634 45.3538 30.6648 47.0062C31.21 48.7981 32.2224 50.4037 33.2224 51.9857C33.5731 52.5393 33.9237 53.0915 34.2731 53.6451C34.4032 53.8494 34.532 54.0551 34.6621 54.2594C36.2361 56.7471 37.8717 59.2996 40.2005 61.0667C40.343 61.1743 40.4868 61.2792 40.6347 61.3814C42.2772 62.5148 44.2129 63.2119 46.1964 63.3831C45.2005 62.9358 44.7923 61.6768 44.9238 60.5862C45.0567 59.4956 45.5978 58.5072 46.0225 57.4953C46.4485 56.4834 46.7649 55.3431 46.4293 54.2967C46.354 54.0647 46.2512 53.848 46.1279 53.6451C45.6786 52.9079 44.954 52.3336 44.2882 51.7621C43.4375 51.0332 42.58 50.1303 42.5293 49.0066C42.4622 47.535 41.5293 48.0278 41.3649 46.5645C41.2512 45.5595 39.921 43.8463 39.858 42.8371C39.8019 41.9398 40.3485 39.7696 40.9539 39.1098C41.5594 38.4499 41.0032 36.4799 41.3649 35.6585C41.7265 34.8371 45.6731 35.5246 44.9019 35.0759L45.1088 34.7791C46.8088 34.4299 48.6252 34.7128 50.154 35.5356C50.4869 35.7137 50.8047 35.9167 51.106 36.1458C51.8335 34.8067 50.9704 33.1073 49.7965 32.1424C48.6471 31.1953 47.2307 30.6487 45.8252 30.1669C45.5827 30.084 45.3389 30.0012 45.0937 29.9211C43.4992 29.4021 41.8594 28.9796 40.2005 28.9106C39.7799 28.8913 39.3594 28.8968 38.9375 28.9286C37.6786 29.0238 36.4429 29.3675 35.3073 29.9211C34.1347 30.4927 33.0689 31.2864 32.1977 32.2625C31.347 33.215 30.6867 34.3346 30.247 35.5356C29.7977 36.7574 29.5771 38.0647 29.6169 39.3665Z" fill="#2F2E41"/>
<path d="M151.569 95.6496L141.831 75.0295C141.104 73.4908 139.542 72.4961 137.85 72.4961H14.8509C14.3836 72.4961 13.9286 72.5691 13.4998 72.709C12.4157 73.0587 11.4934 73.8234 10.9474 74.8741L0.509296 94.9269C-0.212476 96.3117 -0.164656 97.9405 0.637317 99.2803C1.43775 100.622 2.84277 101.427 4.39585 101.433L99.0002 101.807L99.9133 101.812L112.646 101.862L113.448 101.865L116.408 101.877L118.004 101.884L130.27 101.932L132.872 101.943L147.571 102H147.589C149.107 102 150.497 101.229 151.311 99.9377C152.128 98.6399 152.224 97.036 151.569 95.6496Z" fill="white"/>
<path d="M151.569 95.6496L141.831 75.0295C141.104 73.4908 139.542 72.4961 137.85 72.4961H14.8509C14.3836 72.4961 13.9286 72.5691 13.4998 72.709C12.4157 73.0587 11.4934 73.8234 10.9474 74.8741L0.509296 94.9269C-0.212476 96.3117 -0.164656 97.9405 0.637317 99.2803C1.43775 100.622 2.84277 101.427 4.39585 101.433L99.0002 101.807L99.9133 101.812L112.646 101.862L113.448 101.865L116.408 101.877L118.004 101.884L130.27 101.932L132.872 101.943L147.571 102H147.589C149.107 102 150.497 101.229 151.311 99.9377C152.128 98.6399 152.224 97.036 151.569 95.6496ZM150.921 99.6875C150.191 100.845 148.948 101.534 147.589 101.534H147.573L132.862 101.475L130.319 101.466L117.939 101.416L116.315 101.41L113.462 101.399L112.649 101.396L99.8717 101.344L98.9972 101.341L4.39735 100.967C3.0078 100.96 1.74929 100.241 1.03369 99.0409C0.316511 97.8411 0.273361 96.3832 0.919563 95.1429L11.3576 75.0917C11.7339 74.369 12.3077 73.797 12.994 73.4286C13.5538 73.1271 14.1893 72.9624 14.8509 72.9624H137.85C139.365 72.9624 140.762 73.8529 141.413 75.23L151.151 95.8485C151.738 97.0919 151.652 98.5265 150.921 99.6875Z" fill="#3F3D56"/>
<path d="M43.7106 87.4164L66.9988 78.8681L55.3547 74.1484L32.1436 80.2669L43.7106 87.4164Z" fill="#E8E8E8"/>
<path d="M79.1829 74.5166L76.561 82.9095L107.252 84.7746L104.63 75.2937L79.1829 74.5166Z" fill="#E8E8E8"/>
<path d="M43.0057 75.9519C45.1636 76.1675 46.8023 77.4644 46.6659 78.8483C46.5295 80.2322 44.6698 81.1789 42.5112 80.9629C41.6478 80.8885 40.8145 80.6068 40.0813 80.1414L30.9497 79.1113L31.5207 74.8032L40.4622 76.2761C41.2722 75.9648 42.1444 75.8537 43.0057 75.9519Z" fill="#FFB6B6"/>
<path d="M33.8403 51.8246L32.2209 50.9697C32.2209 50.9697 29.6761 51.0474 27.9796 52.7571C26.2831 54.4668 12.5569 74.0502 12.5569 74.0502C12.5569 74.0502 9.16395 79.3346 17.6464 80.1117C26.1289 80.8888 35.5368 80.8888 35.5368 80.8888L36.3079 74.5164L23.5071 73.1176L32.4711 61.15L33.8403 51.8246Z" fill="#C80000"/>
<path d="M124.756 22.7313C129.525 22.7313 133.391 19.2084 133.391 14.8627C133.391 10.517 129.525 6.99414 124.756 6.99414C119.987 6.99414 116.122 10.517 116.122 14.8627C116.122 19.2084 119.987 22.7313 124.756 22.7313Z" fill="#D6A1A1"/>
<path d="M135.016 17.0184C134.224 18.4888 133.16 19.8129 131.876 20.9281C131.507 21.3254 131.036 21.6262 130.51 21.8015C130.245 21.8833 129.958 21.8745 129.699 21.7766C129.441 21.6787 129.226 21.4979 129.094 21.2657L128.938 21.0641C129.388 20.9337 129.813 20.7347 130.195 20.4749C130.385 20.344 130.539 20.1721 130.645 19.9733C130.75 19.7746 130.805 19.5548 130.803 19.3322C130.789 19.1098 130.685 18.901 130.512 18.7498C130.34 18.5986 130.112 18.5167 129.877 18.5213C129.353 18.5804 128.884 19.161 128.414 18.9372C128.035 18.7543 128.089 18.2305 128.198 17.835C128.782 15.7713 128.538 12.5724 127.697 12.4605C126.861 12.2992 126.064 11.9901 125.349 11.5494C124.633 11.108 123.833 10.803 122.993 10.6512C122.933 10.6437 122.872 10.6396 122.807 10.6346C122.783 10.209 122.704 9.78783 122.574 9.3801C122.482 9.81065 122.343 10.2308 122.158 10.6333C121.431 10.7273 120.697 10.7625 119.964 10.7385C119.183 10.6525 116.937 12.3789 116.92 12.1413C116.896 11.7158 116.818 11.2946 116.687 10.8869C116.596 11.3174 116.457 11.7375 116.272 12.1401C116.263 12.1565 116.259 12.1704 116.251 12.1869C116.012 11.6349 115.944 11.0177 115.95 11.4786C115.448 8.54587 116.443 6.78009 118.981 5.04096C119.488 4.65741 120.09 4.40218 120.729 4.29918C121.049 4.25079 121.376 4.28121 121.679 4.38748C121.983 4.49376 122.252 4.67232 122.462 4.90596C123.436 4.4171 124.531 4.18427 125.633 4.2316C126.734 4.27892 127.803 4.60468 128.727 5.17512C130.553 6.335 131.993 7.1067 131.75 9.1808C133.481 9.33885 134.943 10.6568 135.49 12.2188C136.032 13.7833 135.751 15.5292 135.016 17.0184Z" fill="#2F2E41"/>
<path d="M131.17 29.6947L130.021 27.1581L126.882 24.7244L121.093 24.1885L117.324 26.1098L113.833 28.778L108.678 61.9592C108.678 61.9592 133.029 69.2387 136.219 63.1296L131.17 29.6947Z" fill="#D3D3D3"/>
<path d="M117.164 26.2285L112.795 26.7078L107.601 28.2449C107.601 28.2449 109.973 48.9933 109.478 49.688C108.983 50.3827 108.103 49.9488 108.856 50.6512C109.609 51.3536 110.286 51.042 109.478 51.6833C108.67 52.3245 107.309 51.5122 108.146 52.6465C108.983 53.7808 104.95 69.398 106.036 70.2357C107.122 71.0734 109.92 70.5522 109.921 69.9336C109.835 69.2668 109.51 68.6321 108.983 68.1013C108.832 67.9669 108.748 67.7944 108.748 67.6159C108.748 67.4374 108.832 67.2649 108.983 67.1305C109.426 66.7997 109.731 66.3728 109.857 65.9057C109.922 65.4314 110.4 64.8485 110.631 64.4118C110.861 63.9751 116.666 34.4137 116.666 34.4137L117.164 26.2285Z" fill="#494766"/>
<path d="M133.007 29.3959L129.439 26.6541C129.439 26.6541 127.156 43.4092 127.862 44.6142C128.567 45.8191 129.453 45.5442 128.486 46.1542C127.519 46.7642 126.523 46.0989 127.502 47.3013C128.08 47.9764 128.35 48.7623 128.271 49.5455C128.271 49.5455 132.771 73.5533 135.822 73.6467C138.873 73.7401 140.803 73.1556 140.717 72.4976C140.63 71.8395 138.882 70.1543 139.456 69.7662C140.03 69.3782 141.403 69.7266 140.058 68.9215C138.713 68.1164 138.027 68.3397 138.398 67.3739C138.768 66.408 136.581 53.6733 136.581 53.6733L137.004 32.5269L133.007 29.3959Z" fill="#494766"/>
<path d="M99.6189 47.1772L101.576 46.5913C99.592 44.3946 94.4237 40.5114 94.4237 40.5114L85.6253 33.1206C85.5305 32.7961 85.3436 32.498 85.0836 32.2563C84.8236 32.0146 84.4996 31.8377 84.1443 31.7436C83.7889 31.6494 83.4147 31.6413 83.0593 31.72C82.7039 31.7987 82.3799 31.9614 82.1199 32.1919C81.8599 32.4223 81.673 32.7123 81.5782 33.0326C81.4833 33.3529 81.4837 33.6923 81.5795 34.0166C81.6752 34.3408 81.8628 34.6385 82.1234 34.8797C82.384 35.1209 82.7085 35.297 83.0641 35.3904L92.5811 45.858L99.6189 47.1772Z" fill="#D6A1A1"/>
<path d="M114.872 35.1819L112.852 28.6823L107.675 28.3527L99.013 41.5006L97.9596 41.3034L95.8463 41.9397L92.1912 48.1847C92.1912 48.1847 95.3209 48.6224 96.5101 47.7029C97.6992 46.7833 97.804 47.5585 97.804 47.5585C98.0659 47.6943 98.3885 47.748 98.7198 47.7111C99.0511 47.6741 99.3718 47.5486 99.63 47.3548C100.638 46.6701 103.047 46.9737 103.047 46.9737L114.872 35.1819Z" fill="#494766"/>
<path d="M143.041 48.4311L138.077 47.4435C136.184 49.5036 135.057 55.3215 135.057 55.3215L129.34 63.9718C129 64.1156 128.718 64.3285 128.522 64.5889C128.327 64.8494 128.225 65.1482 128.226 65.4554C128.228 65.7625 128.334 66.0672 128.532 66.3386C128.731 66.61 129.015 66.8387 129.358 67.0016C129.7 67.1645 130.087 67.2558 130.481 67.2665C130.875 67.2771 131.261 67.2066 131.601 67.0621C131.941 66.9176 132.222 66.7042 132.417 66.4433C132.611 66.1825 132.712 65.8834 132.71 65.5763L141.71 55.7084L143.041 48.4311Z" fill="#D6A1A1"/>
<path d="M130.711 33.326L132.835 31.0371L137.141 32.6031L140.723 43.4141C140.723 43.4141 143.339 44.746 142.781 45.6855C142.223 46.6251 141.926 47.3832 142.503 47.9216C143.08 48.4599 144.76 48.4995 143.508 49.3773C142.257 50.2551 143.328 52.5487 143.328 52.5487L142.129 54.6428L134.639 54.3986L130.711 33.326Z" fill="#494766"/>
<path d="M122.185 67.4216C123.559 61.5953 119.841 55.7926 113.88 54.4609C107.918 53.1292 101.971 56.7727 100.597 62.599C99.2223 68.4253 102.94 74.228 108.902 75.5597C114.863 76.8915 120.81 73.2479 122.185 67.4216Z" fill="#FFB6B6"/>
<path d="M141.798 92.1411C141.4 90.2144 140.499 88.4343 139.192 86.9906C137.884 85.5469 136.219 84.4936 134.373 83.943L134.365 83.9385C134.013 83.7608 133.64 83.6297 133.255 83.5484L120.249 80.8218L117.643 77.957L106.555 78.6822L105.398 81.9776L92.6607 87.7773L92.8718 87.6256C92.3262 87.8497 91.7954 88.1103 91.2831 88.4057L91.2186 88.4351C90.8514 88.6039 90.5103 88.8268 90.2061 89.0968C86.9671 91.4 84.827 95.0969 84.7479 99.2191L84.4116 102.583H143.961L141.798 92.1411Z" fill="#2F2E41"/>
<path d="M123.443 58.6493C122.35 55.869 119.488 53.628 116.439 53.8719C116.636 53.1525 116.184 52.3829 115.551 51.9669C114.917 51.5508 114.137 51.4133 113.381 51.3027C111.818 51.0743 110.194 50.9235 108.678 51.3612C107.162 51.7988 105.768 52.9517 105.508 54.47C104.035 53.2702 101.468 53.7658 100.576 55.422C100.117 56.2743 100.108 57.386 100.702 58.1551C101.291 58.9193 102.342 59.2202 103.325 59.2113C104.307 59.2024 105.264 58.9351 106.234 58.7818C108.55 58.4155 111.036 58.7372 112.997 59.9894C114.958 61.2416 116.295 63.5003 116.09 65.7753C116.816 65.2656 117.919 65.5311 118.485 66.2053C119.051 66.8794 119.148 67.8378 118.951 68.6878C118.755 69.5377 118.302 70.3072 117.855 71.062C117.032 72.4518 116.209 73.8417 115.386 75.2316L115.768 75.45C117.158 75.9327 118.567 74.8099 119.494 73.6918C121.058 71.805 122.283 69.6745 123.116 67.3904C124.14 64.5835 124.537 61.4296 123.443 58.6493Z" fill="#1E1D22"/>
</g>
<defs>
<clipPath id="clip0_4018_965">
<rect width="152" height="102" fill="white"/>
</clipPath>
</defs>
</svg>
