<svg width="707" height="454" viewBox="0 0 707 454" fill="none" xmlns="http://www.w3.org/2000/svg">
<g clip-path="url(#clip0_4057_883)">
<path d="M704.495 302.566H255.707V48.2783H704.495V302.566Z" fill="white"/>
<path d="M646.106 95.2439H309.268V261.918H646.106V95.2439Z" fill="white"/>
<path d="M331.659 120.596C331.343 120.596 331.04 120.721 330.817 120.943C330.594 121.164 330.468 121.465 330.468 121.779V181.564C330.468 181.878 330.594 182.178 330.817 182.4C331.04 182.622 331.343 182.747 331.659 182.747H401.17C401.485 182.747 401.788 182.622 402.011 182.4C402.235 182.178 402.36 181.878 402.36 181.564V121.779C402.36 121.465 402.235 121.164 402.011 120.943C401.788 120.721 401.485 120.596 401.17 120.596H331.659Z" fill="#E6E6E6"/>
<path d="M443.267 120.788C442.952 120.789 442.649 120.913 442.425 121.135C442.202 121.357 442.076 121.657 442.076 121.971V181.564C442.076 181.878 442.202 182.179 442.425 182.4C442.649 182.622 442.952 182.747 443.267 182.747H512.557C512.873 182.747 513.175 182.622 513.398 182.4C513.622 182.178 513.747 181.878 513.747 181.564V121.971C513.747 121.658 513.622 121.357 513.398 121.135C513.175 120.913 512.873 120.789 512.557 120.788H443.267Z" fill="#E6E6E6"/>
<path d="M503.822 173.788L452.598 174.452C451.213 174.468 449.884 173.948 448.903 173.005C447.922 172.062 447.369 170.774 447.365 169.423L447.31 133.669C447.309 132.318 447.858 131.015 448.836 130.047C449.814 129.078 451.141 128.524 452.527 128.504L503.751 127.84C505.136 127.823 506.465 128.344 507.446 129.287C508.427 130.23 508.98 131.518 508.984 132.869L509.04 168.623C509.04 169.974 508.491 171.277 507.513 172.245C506.535 173.213 505.207 173.768 503.822 173.788ZM452.53 130.798C451.768 130.809 451.039 131.114 450.501 131.646C449.963 132.179 449.661 132.895 449.661 133.639L449.717 169.392C449.719 170.135 450.023 170.844 450.562 171.362C451.102 171.881 451.833 172.167 452.595 172.158L503.818 171.494C504.58 171.483 505.31 171.178 505.848 170.646C506.386 170.113 506.688 169.397 506.688 168.654L506.633 132.9C506.631 132.157 506.326 131.448 505.787 130.929C505.247 130.411 504.516 130.125 503.754 130.134L452.53 130.798Z" fill="#E6E6E6"/>
<path d="M494.845 144.371L461.24 144.317C460.926 144.316 460.622 144.188 460.397 143.96C460.171 143.733 460.041 143.425 460.036 143.104C460.031 142.783 460.151 142.475 460.369 142.248C460.587 142.022 460.886 141.894 461.201 141.894L494.806 141.948C495.121 141.948 495.425 142.076 495.651 142.304C495.877 142.532 496.007 142.84 496.012 143.161C496.017 143.483 495.897 143.791 495.679 144.018C495.46 144.244 495.16 144.372 494.845 144.371Z" fill="#6C63FF"/>
<path d="M494.621 152.496L461.787 152.214C461.635 152.213 461.483 152.181 461.341 152.119C461.199 152.057 461.07 151.966 460.959 151.853C460.849 151.74 460.761 151.606 460.699 151.459C460.638 151.312 460.604 151.154 460.6 150.995C460.597 150.836 460.623 150.679 460.678 150.533C460.733 150.387 460.815 150.254 460.92 150.143C461.026 150.032 461.151 149.944 461.291 149.884C461.43 149.825 461.58 149.795 461.732 149.796L494.566 150.078C494.874 150.081 495.171 150.211 495.393 150.44C495.615 150.669 495.744 150.977 495.751 151.297C495.758 151.617 495.643 151.924 495.432 152.148C495.22 152.373 494.928 152.498 494.621 152.496Z" fill="#6C63FF"/>
<path d="M494.355 160.632L461.52 160.35C461.213 160.347 460.916 160.217 460.694 159.988C460.472 159.76 460.343 159.452 460.336 159.131C460.329 158.811 460.443 158.505 460.655 158.28C460.867 158.055 461.158 157.93 461.465 157.932L494.3 158.214C494.607 158.217 494.905 158.346 495.127 158.575C495.35 158.804 495.479 159.112 495.486 159.433C495.494 159.754 495.378 160.06 495.166 160.285C494.954 160.51 494.662 160.635 494.355 160.632Z" fill="#6C63FF"/>
<path d="M553.706 120.164C553.39 120.164 553.088 120.289 552.865 120.51C552.641 120.732 552.516 121.033 552.516 121.346V181.564C552.516 181.878 552.641 182.178 552.865 182.4C553.088 182.622 553.39 182.747 553.706 182.747H623.716C624.032 182.747 624.334 182.622 624.558 182.4C624.781 182.178 624.906 181.878 624.906 181.564V121.346C624.906 121.033 624.781 120.732 624.558 120.51C624.334 120.289 624.032 120.164 623.716 120.164H553.706Z" fill="#E6E6E6"/>
<path d="M332.929 212.341C332.277 212.342 331.652 212.6 331.191 213.058C330.73 213.517 330.472 214.138 330.472 214.786C330.472 215.434 330.73 216.055 331.191 216.513C331.652 216.972 332.277 217.23 332.929 217.231H398.283C398.935 217.23 399.56 216.972 400.021 216.513C400.482 216.055 400.74 215.434 400.74 214.786C400.74 214.138 400.482 213.517 400.021 213.058C399.56 212.6 398.935 212.342 398.283 212.341H332.929Z" fill="#E6E6E6"/>
<path d="M332.929 223.972C332.277 223.973 331.652 224.232 331.191 224.69C330.73 225.149 330.472 225.77 330.472 226.418C330.472 227.066 330.73 227.687 331.191 228.145C331.652 228.604 332.277 228.862 332.929 228.863H362.355C363.007 228.862 363.632 228.604 364.092 228.145C364.553 227.687 364.812 227.066 364.812 226.418C364.812 225.77 364.553 225.149 364.092 224.69C363.632 224.232 363.007 223.973 362.355 223.972H332.929Z" fill="#6C63FF"/>
<path d="M445.738 212.341C445.085 212.342 444.46 212.6 444 213.058C443.539 213.517 443.28 214.138 443.28 214.786C443.28 215.434 443.539 216.055 444 216.513C444.46 216.972 445.085 217.23 445.738 217.231H511.092C511.744 217.23 512.369 216.972 512.83 216.513C513.29 216.055 513.549 215.434 513.549 214.786C513.549 214.138 513.29 213.517 512.83 213.058C512.369 212.6 511.744 212.342 511.092 212.341H445.738Z" fill="#E6E6E6"/>
<path d="M445.738 223.972C445.086 223.973 444.461 224.232 444 224.69C443.539 225.149 443.28 225.77 443.28 226.418C443.28 227.066 443.539 227.687 444 228.145C444.461 228.604 445.086 228.862 445.738 228.863H475.164C475.816 228.862 476.441 228.604 476.902 228.145C477.362 227.687 477.621 227.066 477.621 226.418C477.621 225.77 477.362 225.149 476.902 224.69C476.441 224.232 475.816 223.973 475.164 223.972H445.738Z" fill="#6C63FF"/>
<path d="M555.726 212.341C555.074 212.342 554.449 212.6 553.988 213.058C553.527 213.517 553.269 214.138 553.269 214.786C553.269 215.434 553.527 216.055 553.988 216.513C554.449 216.972 555.074 217.23 555.726 217.231H621.08C621.732 217.23 622.357 216.972 622.818 216.513C623.279 216.055 623.537 215.434 623.537 214.786C623.537 214.138 623.279 213.517 622.818 213.058C622.357 212.6 621.732 212.342 621.08 212.341H555.726Z" fill="#E6E6E6"/>
<path d="M332.929 200.328C332.277 200.329 331.652 200.587 331.191 201.046C330.73 201.504 330.472 202.125 330.472 202.773C330.472 203.421 330.73 204.042 331.191 204.501C331.652 204.959 332.277 205.217 332.929 205.219H398.283C398.935 205.217 399.56 204.959 400.021 204.501C400.482 204.042 400.74 203.421 400.74 202.773C400.74 202.125 400.482 201.504 400.021 201.046C399.56 200.587 398.935 200.329 398.283 200.328H332.929Z" fill="#E6E6E6"/>
<path d="M445.738 200.328C445.085 200.329 444.46 200.587 444 201.046C443.539 201.504 443.28 202.125 443.28 202.773C443.28 203.421 443.539 204.042 444 204.501C444.46 204.959 445.085 205.217 445.738 205.219H511.092C511.744 205.217 512.369 204.959 512.83 204.501C513.29 204.042 513.549 203.421 513.549 202.773C513.549 202.125 513.29 201.504 512.83 201.046C512.369 200.587 511.744 200.329 511.092 200.328H445.738Z" fill="#E6E6E6"/>
<path d="M555.726 200.328C555.074 200.329 554.449 200.587 553.988 201.046C553.527 201.504 553.269 202.125 553.269 202.773C553.269 203.421 553.527 204.042 553.988 204.501C554.449 204.959 555.074 205.217 555.726 205.219H621.08C621.732 205.217 622.357 204.959 622.818 204.501C623.279 204.042 623.537 203.421 623.537 202.773C623.537 202.125 623.279 201.504 622.818 201.046C622.357 200.587 621.732 200.329 621.08 200.328H555.726Z" fill="#E6E6E6"/>
<path d="M555.726 223.972C555.074 223.973 554.449 224.232 553.988 224.69C553.527 225.149 553.269 225.77 553.269 226.418C553.269 227.066 553.527 227.687 553.988 228.145C554.449 228.604 555.074 228.862 555.726 228.863H585.151C585.803 228.862 586.428 228.604 586.889 228.145C587.35 227.687 587.609 227.066 587.609 226.418C587.609 225.77 587.35 225.149 586.889 224.69C586.428 224.232 585.803 223.973 585.151 223.972H555.726Z" fill="#6C63FF"/>
<path d="M706.223 304.282H253.979V46.562H706.223V304.282ZM257.435 300.85H702.768V49.9942H257.435V300.85Z" fill="#CACACA"/>
<path d="M494.691 57.396H412.068V41.1865H494.691L502.846 49.2917L494.691 57.396Z" fill="#CACACA"/>
<path d="M416.314 57.396H333.693V41.1865H416.314L424.471 49.2917L416.314 57.396Z" fill="#3F3D56"/>
<path d="M335.738 57.396H253.115V41.1865H335.738L343.894 49.2917L335.738 57.396Z" fill="#6C63FF"/>
<path d="M14.4873 452.512L14.7424 451.378C14.7989 451.129 20.5755 426.318 39.6251 412.431C58.6757 398.543 84.2375 400.508 84.4929 400.53L85.6582 400.628L85.403 401.76C85.3465 402.009 79.5698 426.82 60.5203 440.708C41.4697 454.596 15.908 452.63 15.6525 452.609L14.4873 452.512ZM40.8322 414.065C24.7256 425.806 18.412 445.655 17.0362 450.653C22.2505 450.844 43.2221 450.805 59.3132 439.074C75.4024 427.344 81.7288 407.487 83.1093 402.486C77.8919 402.294 56.9223 402.335 40.8322 414.065Z" fill="#465DA3"/>
<path d="M48.0354 419.861C38.8107 441.353 16.0287 452.295 16.0287 452.295C16.0287 452.295 8.20282 428.392 17.4275 406.9C26.6521 385.409 49.4342 374.467 49.4342 374.467C49.4342 374.467 57.2601 398.37 48.0354 419.861Z" fill="#465DA3"/>
<path d="M265.698 181.622C264.851 180.402 263.746 179.381 262.459 178.632C261.172 177.883 259.735 177.423 258.25 177.284C256.765 177.146 255.268 177.333 253.863 177.832C252.458 178.331 251.181 179.129 250.121 180.172L228.621 171.21L219.951 182.859L250.492 195.091C252.373 196.744 254.799 197.654 257.311 197.65C259.822 197.645 262.244 196.725 264.119 195.065C265.993 193.404 267.189 191.119 267.48 188.641C267.771 186.164 267.137 183.666 265.698 181.622Z" fill="#FFB9B9"/>
<path d="M223.969 439.946L237.103 439.945L238.378 393.549L223.967 389.629L223.969 439.946Z" fill="#FFB9B9"/>
<path d="M220.619 435.687L246.484 435.686H246.485C250.857 435.686 255.049 437.411 258.14 440.481C261.232 443.551 262.968 447.715 262.969 452.057V452.589L220.62 452.591L220.619 435.687Z" fill="#2F2E41"/>
<path d="M125.29 439.946L138.423 439.945L144.672 389.628L125.287 389.629L125.29 439.946Z" fill="#FFB9B9"/>
<path d="M121.938 435.687L147.804 435.686H147.805C152.176 435.686 156.369 437.411 159.46 440.481C162.551 443.551 164.288 447.715 164.288 452.057V452.589L121.939 452.591L121.938 435.687Z" fill="#2F2E41"/>
<path d="M204.225 150.249L247.624 174.675L239.945 194.125C239.945 194.125 213.206 181.326 211.449 182.231C209.692 183.135 204.225 150.249 204.225 150.249Z" fill="#575A89"/>
<path d="M155.286 223.73L145.393 317.088L115.711 424.733L140.446 428.664L211.682 278.762L198.82 198.179L177.053 190.317L155.286 223.73Z" fill="#2F2E41"/>
<path d="M139.456 222.747C139.456 222.747 164.194 237.182 172.261 265.229C180.9 295.26 196.841 341.657 196.841 341.657L218.607 429.647L245.321 422.768L213.66 222.747L186.947 200.145L152.318 196.214L139.456 222.747Z" fill="#2F2E41"/>
<path d="M200.426 68.9879C212.994 68.9879 223.182 58.8684 223.182 46.3853C223.182 33.9022 212.994 23.7827 200.426 23.7827C187.858 23.7827 177.67 33.9022 177.67 46.3853C177.67 58.8684 187.858 68.9879 200.426 68.9879Z" fill="#FFB9B9"/>
<path d="M202.451 90.0799C202.451 90.0799 186.111 72.2322 173.249 72.2322C169.115 72.2322 140.339 104.079 139.434 127.082L130.226 228.644C130.226 228.644 219.271 233.557 220.26 229.626C221.249 225.695 202.451 90.0799 202.451 90.0799Z" fill="#575A89"/>
<path d="M189.089 56.2658C190.915 56.1576 192.697 56.7703 194.509 57.0094C197.773 57.3366 201.046 56.4918 203.736 54.628C206.426 52.7641 208.355 50.0047 209.173 46.8498C209.288 46.0055 209.541 45.1855 209.923 44.4226C210.921 42.804 213.194 42.4954 215.068 42.8676C216.942 43.2398 218.718 44.1109 220.627 44.2103C222.107 44.2159 223.563 43.8379 224.851 43.1138C226.139 42.3896 227.215 41.3443 227.972 40.081C229.456 37.5213 230.087 34.5611 229.775 31.6237L228.363 33.0962C227.789 31.8901 227.567 30.5482 227.723 29.2231C226.975 29.0251 226.187 29.0213 225.437 29.212C224.687 29.4028 223.998 29.7817 223.437 30.3124C222.192 30.4441 223.132 28.0178 222.206 27.1793C221.756 26.9046 221.22 26.805 220.7 26.8994C218.051 26.9248 215.907 24.9118 213.819 23.2913C210.201 20.4898 205.971 18.573 201.469 17.6959C198.484 16.9927 195.36 17.1432 192.458 18.1298C190.167 19.1511 188.1 20.6077 186.373 22.4175C181.93 26.6604 177.996 31.6456 176.148 37.4854C174.646 42.2686 174.603 47.3867 176.026 52.1939C176.771 54.6904 179.015 63.2403 182.301 63.4394C186.429 63.6896 183.95 56.5703 189.089 56.2658Z" fill="#2F2E41"/>
<path opacity="0.1" d="M183.183 114.611L159.88 148.557L152.429 227.407L183.183 114.611Z" fill="black"/>
<path d="M149.362 258.035C150.372 256.944 151.129 255.647 151.579 254.235C152.03 252.822 152.163 251.329 151.969 249.86C151.776 248.391 151.26 246.982 150.459 245.732C149.658 244.482 148.591 243.422 147.333 242.626L151.364 219.816L138.006 214.001L132.768 246.293C131.562 248.482 131.206 251.033 131.768 253.464C132.329 255.896 133.769 258.038 135.814 259.485C137.86 260.933 140.369 261.584 142.866 261.317C145.363 261.05 147.674 259.882 149.362 258.035Z" fill="#FFB9B9"/>
<path d="M162.065 82.6872L138.263 159.383C138.263 159.383 129.422 208.256 133.38 216.118C137.337 223.979 129.562 239.454 129.562 239.454L152.318 241.419L163.381 161.099L182.99 99.9071C182.99 99.9071 190.758 77.7736 162.065 82.6872Z" fill="#575A89"/>
<path d="M260.884 143.295L242.934 228.84L313.837 243.518L331.787 157.973L260.884 143.295Z" fill="#B9B9B9"/>
<path d="M262.737 145.388L245.546 227.314L312.805 241.238L329.996 159.312L262.737 145.388Z" fill="white"/>
<path d="M277.199 156.813L276.696 159.21L293.581 162.705L294.084 160.308L277.199 156.813Z" fill="#E6E6E6"/>
<path d="M275.723 163.85L275.22 166.247L309.577 173.36L310.08 170.963L275.723 163.85Z" fill="#6C63FF"/>
<path d="M274.832 170.658L274.329 173.055L299.513 178.269L300.016 175.872L274.832 170.658Z" fill="#E6E6E6"/>
<path d="M272.773 177.905L272.271 180.302L280.637 182.034L281.14 179.637L272.773 177.905Z" fill="#E6E6E6"/>
<path d="M271.267 185.087L270.764 187.484L291.143 191.703L291.646 189.306L271.267 185.087Z" fill="#6C63FF"/>
<path d="M269.75 192.314L269.247 194.711L286.132 198.207L286.635 195.81L269.75 192.314Z" fill="#E6E6E6"/>
<path d="M268.273 199.351L267.771 201.748L302.128 208.861L302.631 206.464L268.273 199.351Z" fill="#6C63FF"/>
<path d="M267.383 206.159L266.88 208.556L292.064 213.77L292.567 211.373L267.383 206.159Z" fill="#E6E6E6"/>
<path d="M265.324 213.406L264.821 215.803L273.188 217.535L273.691 215.138L265.324 213.406Z" fill="#E6E6E6"/>
<path d="M263.817 220.589L263.314 222.986L283.694 227.204L284.197 224.807L263.817 220.589Z" fill="#E6E6E6"/>
</g>
<defs>
<clipPath id="clip0_4057_883">
<rect width="707" height="454" fill="white"/>
</clipPath>
</defs>
</svg>
