<svg width="165" height="108" viewBox="0 0 165 108" fill="none" xmlns="http://www.w3.org/2000/svg">
<g clip-path="url(#clip0_4010_1357)">
<path d="M136.356 92.3277C137.023 87.2678 140.349 82.2824 145.467 80.6357C143.448 85.8438 143.449 91.5571 145.468 96.7648C146.255 98.7706 147.351 100.924 146.611 102.946C146.151 104.204 145.025 105.166 143.766 105.768C142.507 106.369 141.111 106.656 139.731 106.937L139.46 107.149C137.27 102.487 135.688 97.3876 136.356 92.3277Z" fill="#FFCBCB"/>
<path d="M145.517 80.7313C142.537 83.88 140.684 87.8342 140.223 92.0321C140.107 92.9342 140.142 93.8479 140.327 94.7396C140.538 95.6027 140.99 96.397 141.636 97.0399C142.225 97.6507 142.903 98.2111 143.325 98.9465C143.535 99.3259 143.658 99.7429 143.685 100.17C143.712 100.597 143.643 101.025 143.483 101.425C143.11 102.433 142.376 103.254 141.629 104.033C140.799 104.899 139.922 105.785 139.569 106.932C139.526 107.071 139.3 107.001 139.343 106.862C139.957 104.866 142.012 103.732 142.992 101.934C143.449 101.095 143.641 100.121 143.212 99.236C142.837 98.4616 142.138 97.8831 141.536 97.2695C140.896 96.6511 140.426 95.8943 140.168 95.0653C139.935 94.1853 139.862 93.2744 139.953 92.3716C140.124 90.3358 140.633 88.3381 141.462 86.4515C142.396 84.2934 143.714 82.3018 145.36 80.5628C145.462 80.4552 145.619 80.6244 145.517 80.7313Z" fill="white"/>
<path d="M140.288 90.6721C139.551 90.5035 138.902 90.0936 138.457 89.5155C138.011 88.9374 137.798 88.2288 137.855 87.5163C137.868 87.3722 138.106 87.3832 138.093 87.5275C138.039 88.1909 138.237 88.8509 138.653 89.3885C139.069 89.926 139.675 90.3056 140.362 90.4587C140.511 90.4922 140.436 90.7053 140.288 90.6721Z" fill="white"/>
<path d="M141.293 96.7671C142.624 96.0182 143.606 94.8241 144.044 93.423C144.087 93.2841 144.313 93.3547 144.27 93.4934C143.811 94.9507 142.787 96.1914 141.401 96.9678C141.268 97.0417 141.162 96.8406 141.293 96.7671Z" fill="white"/>
<path d="M142.617 84.5064C142.888 84.6276 143.186 84.6836 143.485 84.6693C143.784 84.6549 144.075 84.5708 144.331 84.4244C144.462 84.3489 144.568 84.5501 144.438 84.6251C144.154 84.7856 143.833 84.8782 143.503 84.8947C143.172 84.9112 142.842 84.8512 142.542 84.7198C142.513 84.7096 142.489 84.6893 142.475 84.663C142.461 84.6366 142.458 84.6062 142.466 84.5779C142.477 84.5497 142.498 84.5263 142.526 84.5129C142.554 84.4996 142.587 84.4972 142.617 84.5064Z" fill="white"/>
<path d="M161.067 89.6733C160.987 89.7226 160.907 89.7719 160.826 89.8231C159.748 90.4914 158.73 91.2411 157.781 92.0649C157.706 92.1275 157.632 92.192 157.559 92.2565C155.295 94.2642 153.446 96.6507 152.106 99.2949C151.574 100.348 151.127 101.437 150.77 102.553C150.277 104.095 149.873 105.804 148.897 107.065C148.797 107.198 148.688 107.325 148.571 107.445H139.755C139.735 107.435 139.714 107.428 139.694 107.418L139.342 107.433C139.356 107.375 139.372 107.314 139.387 107.255C139.395 107.221 139.405 107.187 139.413 107.153C139.419 107.13 139.425 107.107 139.429 107.086C139.431 107.079 139.433 107.071 139.435 107.065C139.439 107.045 139.445 107.026 139.449 107.007C139.537 106.667 139.629 106.328 139.723 105.988C139.723 105.986 139.722 105.986 139.724 105.984C140.447 103.399 141.404 100.848 142.742 98.5154C142.782 98.4452 142.822 98.3731 142.867 98.3029C143.476 97.2546 144.175 96.2549 144.957 95.3138C145.387 94.7999 145.844 94.3067 146.327 93.8364C147.576 92.6232 149.021 91.603 150.607 90.8131C153.769 89.2389 157.431 88.6358 160.81 89.5974C160.896 89.622 160.981 89.6467 161.067 89.6733Z" fill="#FFCBCB"/>
<path d="M161.048 89.7788C156.657 90.6009 152.653 92.7065 149.604 95.7964C148.935 96.4506 148.38 97.2002 147.959 98.0174C147.575 98.826 147.429 99.7166 147.534 100.597C147.615 101.419 147.799 102.252 147.666 103.078C147.591 103.5 147.423 103.903 147.172 104.259C146.921 104.616 146.592 104.918 146.209 105.147C145.268 105.74 144.157 105.979 143.063 106.176C141.848 106.396 140.582 106.606 139.567 107.322C139.444 107.409 139.309 107.224 139.432 107.137C141.196 105.892 143.561 106.153 145.492 105.274C146.392 104.864 147.168 104.196 147.391 103.245C147.586 102.414 147.397 101.555 147.308 100.723C147.192 99.8663 147.3 98.9954 147.623 98.1868C147.999 97.352 148.523 96.5835 149.172 95.9144C150.608 94.3859 152.291 93.0799 154.157 92.0441C156.281 90.8509 158.605 90.0089 161.029 89.5547C161.179 89.5266 161.197 89.7509 161.048 89.7788Z" fill="white"/>
<path d="M150.524 94.7468C150.043 94.1941 149.787 93.4984 149.8 92.784C149.814 92.0695 150.096 91.3828 150.597 90.8465C150.699 90.7383 150.882 90.8822 150.78 90.9906C150.312 91.4892 150.05 92.1289 150.039 92.7942C150.027 93.4596 150.269 94.1067 150.72 94.6189C150.817 94.7303 150.621 94.8576 150.524 94.7468Z" fill="white"/>
<path d="M147.435 100.185C148.975 100.342 150.522 99.9458 151.766 99.0756C151.89 98.9893 152.025 99.1742 151.902 99.2604C150.605 100.164 148.995 100.573 147.393 100.406C147.24 100.39 147.283 100.169 147.435 100.185Z" fill="white"/>
<path d="M156.321 91.1463C156.46 91.3967 156.662 91.6107 156.91 91.7691C157.158 91.9274 157.444 92.0253 157.742 92.0538C157.895 92.0679 157.851 92.289 157.699 92.2749C157.37 92.242 157.055 92.1336 156.78 91.9591C156.506 91.7847 156.281 91.5496 156.125 91.2743C156.108 91.2495 156.102 91.2195 156.107 91.1905C156.113 91.1614 156.13 91.1355 156.155 91.1179C156.181 91.1011 156.213 91.0946 156.244 91.1C156.275 91.1053 156.303 91.1219 156.321 91.1463Z" fill="white"/>
<path d="M107.879 66.7822C108.061 66.6045 108.2 66.3912 108.286 66.1574C108.371 65.9237 108.401 65.675 108.374 65.4291C108.346 65.1831 108.262 64.9458 108.127 64.7339C107.992 64.5219 107.809 64.3405 107.591 64.2024L109.221 58.3906L106.081 59.3866L105.015 64.7529C104.793 65.1129 104.719 65.5371 104.806 65.9452C104.894 66.3533 105.138 66.7168 105.491 66.967C105.844 67.2171 106.282 67.3365 106.722 67.3024C107.162 67.2683 107.574 67.0833 107.879 66.7822Z" fill="#D6A1A1"/>
<path d="M122.408 105.82L120.221 105.819L119.18 97.8643L122.409 97.8644L122.408 105.82Z" fill="#D6A1A1"/>
<path d="M122.966 107.819L115.913 107.818V107.734C115.913 107.048 116.202 106.39 116.717 105.904C117.232 105.419 117.93 105.146 118.658 105.146L122.966 105.146L122.966 107.819Z" fill="#2F2E41"/>
<path d="M112.06 105.82L109.872 105.819L108.832 97.8643L112.06 97.8644L112.06 105.82Z" fill="#D6A1A1"/>
<path d="M112.618 107.819L105.564 107.818V107.734C105.565 107.048 105.854 106.39 106.369 105.904C106.883 105.419 107.582 105.146 108.31 105.146L112.618 105.146L112.618 107.819Z" fill="#2F2E41"/>
<path d="M110.843 57.8884L110.004 58.1071C110.004 58.1071 107.81 71.5148 107.632 78.5804C107.453 85.6459 108.167 103.478 108.167 103.478H112.806L116.553 73.1971L118.337 103.478H123.333C123.333 103.478 126.901 63.7764 125.296 60.5801C123.69 57.3838 110.843 57.8884 110.843 57.8884Z" fill="#2F2E41"/>
<path d="M118 34C120.761 34 123 31.9853 123 29.5C123 27.0147 120.761 25 118 25C115.239 25 113 27.0147 113 29.5C113 31.9853 115.239 34 118 34Z" fill="#D6A1A1"/>
<path d="M128.15 39.3834L121.644 35.3745L114.902 35.6248L108.345 39.0469L110.843 52.1686L109.773 59.7388C109.773 59.7388 119.407 58.7295 121.549 60.2435C122.799 61.1418 124.274 61.7212 125.831 61.9258L125.474 48.9723L128.15 39.3834Z" fill="#3F3D56"/>
<path d="M109.594 38.879L108.92 38.7471L108.345 39.0472C108.345 39.0472 106.74 41.0659 106.74 42.9164C106.74 44.7669 104.777 62.599 104.777 62.599L108.345 64.113L111.2 50.1502L109.594 38.879Z" fill="#3F3D56"/>
<path d="M122.491 26.0712C122.491 26.0712 123.843 23.4578 120.913 23.198C120.913 23.198 118.43 20.8452 115.869 22.7344C115.869 22.7344 114.479 22.7242 113.708 24.3378C113.708 24.3378 112.618 23.903 112.37 25.0434C112.37 25.0434 111.552 27.4222 112.336 29.5742C113.12 31.7262 113.384 31.9666 113.384 31.9666C113.384 31.9666 112.103 27.4575 115.303 27.2424C118.504 27.0272 122.098 24.9952 122.345 27.6202C122.593 30.2453 122.989 30.8945 122.989 30.8945C122.989 30.8945 125.548 27.1667 122.491 26.0712Z" fill="#2F2E41"/>
<path d="M72.6331 52.4303H20.7119V15.7568H72.6331V52.4303Z" fill="white"/>
<path d="M75.2264 51.0734H23.3052V14.3999H75.2264V51.0734ZM23.8404 14.9046V50.5687H74.6911V14.9046H23.8404Z" fill="#C5C4C4"/>
<path d="M49.2495 42.127C54.7096 42.127 59.1358 37.9537 59.1358 32.8057C59.1358 27.6577 54.7096 23.4844 49.2495 23.4844C43.7895 23.4844 39.3633 27.6577 39.3633 32.8057C39.3633 37.9537 43.7895 42.127 49.2495 42.127Z" fill="#C80000"/>
<path d="M53.3553 32.0229H49.9939V28.8537C49.9939 28.6559 49.9106 28.4662 49.7623 28.3263C49.6139 28.1865 49.4128 28.1079 49.203 28.1079C48.9932 28.1079 48.792 28.1865 48.6437 28.3263C48.4954 28.4662 48.412 28.6559 48.412 28.8537V32.0229H45.0507C44.8409 32.0229 44.6398 32.1015 44.4914 32.2413C44.3431 32.3812 44.2598 32.5709 44.2598 32.7686C44.2598 32.9664 44.3431 33.1561 44.4914 33.296C44.6398 33.4358 44.8409 33.5144 45.0507 33.5144H48.412V36.6836C48.412 36.8814 48.4954 37.0711 48.6437 37.2109C48.792 37.3508 48.9932 37.4294 49.203 37.4294C49.4128 37.4294 49.6139 37.3508 49.7623 37.2109C49.9106 37.0711 49.9939 36.8814 49.9939 36.6836V33.5144H53.3553C53.565 33.5144 53.7662 33.4358 53.9145 33.296C54.0629 33.1561 54.1462 32.9664 54.1462 32.7686C54.1462 32.5709 54.0629 32.3812 53.9145 32.2413C53.7662 32.1015 53.565 32.0229 53.3553 32.0229Z" fill="white"/>
<path d="M24.9949 15.6035H5.59326V1.7998H24.9949V15.6035Z" fill="white"/>
<path d="M27.7912 15.6035H8.38965V1.7998H27.7912V15.6035ZM8.7465 15.2671H27.4344V2.13626H8.7465V15.2671Z" fill="#C5C4C4"/>
<path d="M25.2322 5.55957H10.9487V6.4574H25.2322V5.55957Z" fill="#C5C4C4"/>
<path d="M25.2322 8.25293H10.9487V9.15076H25.2322V8.25293Z" fill="#C5C4C4"/>
<path d="M25.2322 10.9463H10.9487V11.8441H25.2322V10.9463Z" fill="#C5C4C4"/>
<path d="M148.402 107.843H129V94.0391H148.402V107.843Z" fill="white"/>
<path d="M148.402 107.843H129V94.0391H148.402V107.843ZM129.357 107.506H148.045V94.3755H129.357V107.506Z" fill="#C5C4C4"/>
<path d="M145.843 97.7983H131.559V98.6962H145.843V97.7983Z" fill="#C5C4C4"/>
<path d="M145.843 100.492H131.559V101.39H145.843V100.492Z" fill="#C5C4C4"/>
<path d="M145.843 103.185H131.559V104.083H145.843V103.185Z" fill="#C5C4C4"/>
<path d="M136.619 83.0744L122.127 70.9116L131.862 60.6011L146.354 72.7639L136.619 83.0744Z" fill="white"/>
<path d="M136.619 83.0744L122.127 70.9116L131.862 60.6011L146.354 72.7639L136.619 83.0744ZM122.631 70.884L136.59 82.5994L145.85 72.7915L131.891 61.0761L122.631 70.884Z" fill="#C5C4C4"/>
<path d="M131.122 65.013L130.489 65.6836L141.158 74.6379L141.791 73.9673L131.122 65.013Z" fill="#C5C4C4"/>
<path d="M129.223 67.0247L128.589 67.6953L139.258 76.6496L139.891 75.979L129.223 67.0247Z" fill="#C5C4C4"/>
<path d="M127.323 69.0369L126.69 69.7075L137.359 78.6618L137.992 77.9912L127.323 69.0369Z" fill="#C5C4C4"/>
<path d="M38.4237 23.4992H16.7798V8.1001H38.4237V23.4992Z" fill="white"/>
<path d="M38.7763 23.6789H17.1323V8.27979H38.7763V23.6789ZM17.5304 23.3035H38.3782V8.65512H17.5304V23.3035Z" fill="#C5C4C4"/>
<path d="M35.9216 12.4736H19.9873V13.4752H35.9216V12.4736Z" fill="#C80000"/>
<path d="M35.9216 15.478H19.9873V16.4796H35.9216V15.478Z" fill="#C80000"/>
<path d="M35.9216 18.4829H19.9873V19.4845H35.9216V18.4829Z" fill="#C80000"/>
<path d="M92.1493 63.9916H59.1201V40.4922H92.1493V63.9916Z" fill="white"/>
<path d="M92.1493 63.9916H59.1201V40.4922H92.1493V63.9916ZM59.7276 63.4188H91.5418V41.065H59.7276V63.4188Z" fill="#C5C4C4"/>
<path d="M87.7927 46.8921H63.4766V48.4205H87.7927V46.8921Z" fill="#C80000"/>
<path d="M87.7927 51.4775H63.4766V53.006H87.7927V51.4775Z" fill="#C80000"/>
<path d="M87.7927 56.063H63.4766V57.5914H87.7927V56.063Z" fill="#C80000"/>
<path d="M164.787 108H79.0917C79.0355 108 78.9816 107.979 78.9419 107.941C78.9022 107.904 78.8799 107.853 78.8799 107.8C78.8799 107.747 78.9022 107.696 78.9419 107.658C78.9816 107.621 79.0355 107.6 79.0917 107.6H164.787C164.844 107.6 164.898 107.621 164.938 107.658C164.978 107.696 165 107.747 165 107.8C165 107.853 164.978 107.904 164.938 107.942C164.898 107.979 164.844 108 164.787 108Z" fill="#CACACA"/>
<path d="M125.932 66.6555C125.805 66.4395 125.729 66.1998 125.71 65.9531C125.691 65.7064 125.73 65.4588 125.823 65.2278C125.917 64.9968 126.063 64.7879 126.251 64.6159C126.44 64.4439 126.666 64.3129 126.914 64.2323L126.925 58.2207L129.688 59.9449L129.254 65.3892C129.37 65.7909 129.326 66.2189 129.13 66.5919C128.933 66.965 128.599 67.2572 128.19 67.4133C127.78 67.5694 127.324 67.5785 126.908 67.4388C126.492 67.2991 126.145 67.0204 125.932 66.6555Z" fill="#D6A1A1"/>
<path d="M126.187 40.0563L127.422 38.9346L128.329 39.5516C128.329 39.5516 129.221 40.561 129.934 43.5891C130.648 46.6172 129.934 63.2716 129.934 63.2716L126.009 62.767L126.544 54.0192L124.938 46.6172L126.187 40.0563Z" fill="#3F3D56"/>
</g>
<defs>
<clipPath id="clip0_4010_1357">
<rect width="165" height="108" fill="white"/>
</clipPath>
</defs>
</svg>
