<svg width="154" height="131" viewBox="0 0 154 131" fill="none" xmlns="http://www.w3.org/2000/svg">
<g clip-path="url(#clip0_4018_992)">
<path d="M83.9941 126.362C83.8707 126.368 83.7485 126.336 83.6442 126.272C83.5398 126.208 83.4583 126.114 83.4106 126.004C83.363 125.893 83.3515 125.771 83.3778 125.654C83.404 125.536 83.4668 125.43 83.5575 125.349L83.5987 125.189C83.5933 125.176 83.5878 125.164 83.5823 125.151C83.458 124.866 83.2497 124.623 82.9836 124.452C82.7175 124.282 82.4054 124.191 82.0866 124.193C81.7677 124.194 81.4564 124.286 81.1915 124.459C80.9267 124.631 80.7203 124.876 80.5982 125.162C80.1101 126.303 79.4887 127.446 79.3357 128.653C79.2683 129.187 79.2967 129.727 79.4197 130.251C78.2734 127.823 77.6781 125.184 77.6743 122.513C77.674 121.843 77.7124 121.174 77.7891 120.507C77.8526 119.961 77.9406 119.419 78.0532 118.881C78.6676 115.96 79.9868 113.223 81.9024 110.893C82.8296 110.402 83.5794 109.647 84.0508 108.729C84.2216 108.399 84.3423 108.047 84.4091 107.684C84.3046 107.697 84.0148 106.15 84.0937 106.056C83.9479 105.841 83.687 105.734 83.5278 105.525C82.7362 104.482 81.6454 104.664 81.076 106.081C79.8596 106.677 79.8478 107.665 80.5942 108.616C81.069 109.221 81.1343 110.039 81.5509 110.687C81.5081 110.74 81.4635 110.792 81.4206 110.845C80.6371 111.823 79.9541 112.874 79.3816 113.982C79.5208 112.741 79.3547 111.485 78.8968 110.319C78.4327 109.232 77.5628 108.317 76.7969 107.377C75.8768 106.248 73.99 106.741 73.8279 108.172C73.8264 108.185 73.8248 108.199 73.8233 108.213C73.9371 108.275 74.0485 108.342 74.1575 108.412C74.2944 108.5 74.4004 108.627 74.4618 108.776C74.5231 108.924 74.5369 109.087 74.5013 109.243C74.4657 109.399 74.3824 109.541 74.2622 109.65C74.1421 109.76 73.9907 109.831 73.828 109.855L73.8113 109.858C73.8519 110.256 73.9235 110.651 74.0257 111.038C73.043 114.728 75.1645 116.072 78.1938 116.132C78.2607 116.166 78.3258 116.199 78.3927 116.231C77.8175 117.813 77.4567 119.462 77.3194 121.135C77.2416 122.122 77.2462 123.114 77.3331 124.1L77.3279 124.065C77.1084 122.968 76.5059 121.979 75.6219 121.263C74.309 120.216 72.4542 119.83 71.0379 118.989C70.8873 118.895 70.7123 118.845 70.5334 118.844C70.3546 118.844 70.1793 118.893 70.0283 118.986C69.8773 119.08 69.7569 119.213 69.6812 119.37C69.6056 119.527 69.5779 119.703 69.6014 119.875C69.6033 119.887 69.6052 119.899 69.6072 119.911C69.8183 119.995 70.0239 120.091 70.2227 120.199C70.3365 120.262 70.4479 120.328 70.5568 120.398C70.6937 120.487 70.7998 120.614 70.8611 120.762C70.9225 120.91 70.9363 121.073 70.9007 121.229C70.8651 121.385 70.7817 121.527 70.6616 121.637C70.5414 121.746 70.3901 121.817 70.2274 121.842L70.2107 121.844C70.1987 121.846 70.1884 121.848 70.1764 121.849C70.5372 122.686 71.0435 123.455 71.6732 124.125C72.2877 127.346 74.9268 127.652 77.7497 126.714H77.7514C78.0612 128.021 78.5099 129.293 79.0905 130.509H83.8742C83.8913 130.458 83.9068 130.404 83.9222 130.353C83.4794 130.38 83.0349 130.354 82.5985 130.276C82.9534 129.853 83.3084 129.427 83.6633 129.004C83.6712 128.997 83.6787 128.988 83.6856 128.979C83.8656 128.763 84.0474 128.548 84.2274 128.332L84.2275 128.332C84.2371 127.668 84.1585 127.006 83.9941 126.362Z" fill="#FFD6D6"/>
<path d="M76.9069 52.9208C71.5169 52.9208 66.248 51.3689 61.7664 48.4614C57.2848 45.5539 53.7919 41.4214 51.7292 36.5864C49.6666 31.7513 49.1269 26.431 50.1784 21.2982C51.23 16.1654 53.8255 11.4506 57.6367 7.75008C61.448 4.04953 66.3039 1.52942 71.5903 0.508441C76.8766 -0.512539 82.3561 0.0114645 87.3358 2.01419C92.3155 4.01691 96.5716 7.40841 99.5661 11.7598C102.561 16.1112 104.159 21.227 104.159 26.4604C104.151 33.4757 101.277 40.2014 96.168 45.1619C91.059 50.1225 84.1321 52.9128 76.9069 52.9208ZM76.9069 0.416711C71.6018 0.416711 66.4159 1.94415 62.0049 4.80586C57.5939 7.66758 54.1559 11.735 52.1257 16.4939C50.0956 21.2528 49.5644 26.4893 50.5994 31.5413C51.6343 36.5933 54.189 41.2338 57.9402 44.8761C61.6915 48.5183 66.4708 50.9988 71.674 52.0037C76.8771 53.0086 82.2703 52.4928 87.1716 50.5216C92.0728 48.5504 96.262 45.2124 99.2093 40.9295C102.157 36.6466 103.73 31.6114 103.73 26.4604C103.722 19.5556 100.893 12.9358 95.8647 8.05335C90.8361 3.1709 84.0183 0.424514 76.9069 0.416711Z" fill="white"/>
<path d="M79.8969 36.0444H74.1032C73.8186 36.0444 73.5457 35.9347 73.3445 35.7393C73.1433 35.5439 73.0303 35.279 73.0303 35.0027C73.0303 34.7264 73.1433 34.4614 73.3445 34.2661C73.5457 34.0707 73.8186 33.9609 74.1032 33.9609H79.8969C80.1815 33.9609 80.4544 34.0707 80.6556 34.2661C80.8568 34.4614 80.9699 34.7264 80.9699 35.0027C80.9699 35.279 80.8568 35.5439 80.6556 35.7393C80.4544 35.9347 80.1815 36.0444 79.8969 36.0444Z" fill="#D0D0D0"/>
<path d="M81.2277 66.2795H72.7719C72.3566 66.2795 71.9583 66.1194 71.6647 65.8342C71.371 65.5491 71.2061 65.1624 71.2061 64.7592C71.2061 64.3559 71.371 63.9692 71.6647 63.6841C71.9583 63.399 72.3566 63.2388 72.7719 63.2388H81.2277C81.643 63.2388 82.0413 63.399 82.3349 63.6841C82.6286 63.9692 82.7936 64.3559 82.7936 64.7592C82.7936 65.1624 82.6286 65.5491 82.3349 65.8342C82.0413 66.1194 81.643 66.2795 81.2277 66.2795Z" fill="#C80000"/>
<path d="M105.206 59.8789H48.6795C48.1759 59.8783 47.693 59.6838 47.3369 59.338C46.9807 58.9922 46.7804 58.5234 46.7798 58.0343V41.6717C46.7804 41.1827 46.9807 40.7138 47.3369 40.368C47.693 40.0222 48.1759 39.8277 48.6795 39.8271H105.206C105.71 39.8277 106.193 40.0222 106.549 40.368C106.905 40.7138 107.105 41.1827 107.106 41.6717V58.0343C107.105 58.5234 106.905 58.9922 106.549 59.338C106.193 59.6838 105.71 59.8783 105.206 59.8789Z" fill="#CECECE"/>
<path d="M99.771 58.6625H50.0184C49.5147 58.6619 49.0319 58.4674 48.6757 58.1216C48.3196 57.7758 48.1192 57.307 48.1187 56.8179V42.9446C48.1192 42.4556 48.3196 41.9868 48.6757 41.641C49.0319 41.2952 49.5147 41.1007 50.0184 41.1001H103.982C104.486 41.1007 104.968 41.2952 105.325 41.641C105.681 41.9868 105.881 42.4556 105.882 42.9446V52.7294C105.88 54.3024 105.235 55.8105 104.09 56.9228C102.944 58.035 101.391 58.6607 99.771 58.6625Z" fill="white"/>
<path d="M82.6092 46.0344H59.8898C59.7599 46.0344 59.6353 45.9843 59.5434 45.8951C59.4515 45.8059 59.3999 45.6849 59.3999 45.5587C59.3999 45.4326 59.4515 45.3116 59.5434 45.2223C59.6353 45.1331 59.7599 45.083 59.8898 45.083H82.6092C82.7392 45.083 82.8638 45.1331 82.9557 45.2223C83.0475 45.3116 83.0991 45.4326 83.0991 45.5587C83.0991 45.6849 83.0475 45.8059 82.9557 45.8951C82.8638 45.9843 82.7392 46.0344 82.6092 46.0344Z" fill="#C80000"/>
<path d="M94.1101 47.9797H59.8898C59.7599 47.9797 59.6353 47.9296 59.5434 47.8404C59.4515 47.7512 59.3999 47.6302 59.3999 47.504C59.3999 47.3779 59.4515 47.2569 59.5434 47.1677C59.6353 47.0784 59.7599 47.0283 59.8898 47.0283H94.1101C94.2401 47.0283 94.3647 47.0784 94.4566 47.1677C94.5485 47.2569 94.6001 47.3779 94.6001 47.504C94.6001 47.6302 94.5485 47.7512 94.4566 47.8404C94.3647 47.9296 94.2401 47.9797 94.1101 47.9797Z" fill="#D1D1D1"/>
<path d="M94.1102 50.2131H59.8899C59.8255 50.2133 59.7617 50.2011 59.7021 50.1772C59.6425 50.1534 59.5884 50.1183 59.5428 50.0742C59.4972 50.03 59.461 49.9775 59.4363 49.9197C59.4116 49.8619 59.3989 49.8 59.3989 49.7374C59.3989 49.6749 59.4116 49.6129 59.4363 49.5552C59.461 49.4974 59.4972 49.4449 59.5428 49.4007C59.5884 49.3565 59.6425 49.3215 59.7021 49.2976C59.7617 49.2738 59.8255 49.2616 59.8899 49.2617H94.1102C94.24 49.262 94.3643 49.3122 94.456 49.4014C94.5476 49.4906 94.5991 49.6114 94.5991 49.7374C94.5991 49.8634 94.5476 49.9843 94.456 50.0735C94.3643 50.1626 94.24 50.2129 94.1102 50.2131Z" fill="#D1D1D1"/>
<path d="M94.1102 52.4465H59.8899C59.8255 52.4467 59.7617 52.4345 59.7021 52.4106C59.6425 52.3868 59.5884 52.3517 59.5428 52.3076C59.4972 52.2634 59.461 52.2109 59.4363 52.1531C59.4116 52.0953 59.3989 52.0334 59.3989 51.9708C59.3989 51.9083 59.4116 51.8463 59.4363 51.7885C59.461 51.7308 59.4972 51.6783 59.5428 51.6341C59.5884 51.5899 59.6425 51.5549 59.7021 51.531C59.7617 51.5072 59.8255 51.495 59.8899 51.4951H94.1102C94.24 51.4954 94.3643 51.5456 94.456 51.6348C94.5476 51.724 94.5991 51.8448 94.5991 51.9708C94.5991 52.0968 94.5476 52.2177 94.456 52.3069C94.3643 52.396 94.24 52.4463 94.1102 52.4465Z" fill="#D1D1D1"/>
<path d="M94.1102 54.6799H59.8899C59.8255 54.6801 59.7617 54.6679 59.7021 54.644C59.6425 54.6202 59.5884 54.5851 59.5428 54.541C59.4972 54.4968 59.461 54.4443 59.4363 54.3865C59.4116 54.3287 59.3989 54.2668 59.3989 54.2042C59.3989 54.1417 59.4116 54.0797 59.4363 54.022C59.461 53.9642 59.4972 53.9117 59.5428 53.8675C59.5884 53.8233 59.6425 53.7883 59.7021 53.7644C59.7617 53.7406 59.8255 53.7284 59.8899 53.7285H94.1102C94.24 53.7288 94.3643 53.779 94.456 53.8682C94.5476 53.9574 94.5991 54.0782 94.5991 54.2042C94.5991 54.3302 94.5476 54.4511 94.456 54.5403C94.3643 54.6294 94.24 54.6797 94.1102 54.6799Z" fill="#D1D1D1"/>
<path d="M124.177 128.309L121.881 128.309L120.788 119.709L124.177 119.709L124.177 128.309Z" fill="#D6A1A1"/>
<path d="M124.258 130.635L117.196 130.635V130.548C117.196 129.84 117.486 129.161 118.001 128.661C118.517 128.161 119.216 127.879 119.945 127.879L121.235 126.929L123.642 127.88L124.258 127.88L124.258 130.635Z" fill="#2F2E41"/>
<path d="M142.951 125.454L140.893 126.444L135.982 119.209L139.019 117.748L142.951 125.454Z" fill="#D6A1A1"/>
<path d="M144.087 127.503L137.759 130.547L137.72 130.469C137.396 129.835 137.345 129.102 137.578 128.431C137.811 127.761 138.309 127.208 138.962 126.893L139.684 125.486L142.275 125.3L142.827 125.034L144.087 127.503Z" fill="#2F2E41"/>
<path d="M117.374 82.0824C117.374 82.0824 114.76 85.6206 116.647 91.7333C118.534 97.846 117.475 103.311 118.004 104.407C118.534 105.503 119.6 106.543 118.719 107.374C117.838 108.205 117.374 108.88 118.07 109.106C118.766 109.331 121.085 125.094 121.085 125.094L125.028 125.32C125.028 125.32 126.456 117.997 124.93 112.088C124.93 112.088 125.265 107.798 124.567 106.537C123.868 105.277 124.005 106.414 124.053 104.832C124.079 103.688 124.251 102.552 124.564 101.449C124.796 100.548 124.93 91.4696 124.93 91.4696L128.769 103.517C128.923 103.932 128.98 104.375 128.938 104.815C128.843 105.435 128.842 106.363 128.959 106.687C129.075 107.012 129.205 107.08 129.14 107.721C129.075 108.363 136.8 121.885 136.8 121.885L140.638 119.384L136.856 107.529C136.481 107.125 136.168 106.67 135.929 106.178C135.465 105.277 135.447 105.228 135.688 104.577C135.929 103.926 135.929 102.658 135.929 102.279C135.929 101.899 136.17 84.6728 133.15 82.139C130.13 79.6053 117.374 82.0824 117.374 82.0824Z" fill="#2F2E41"/>
<path d="M131.553 54.6759L130.767 52.5042L128.621 50.4207L124.663 49.9619L122.086 51.6068L119.7 53.8911L116.175 82.2982C116.175 82.2982 132.823 88.5303 135.005 83.3002L131.553 54.6759Z" fill="#CCCCCC"/>
<path d="M132.903 54.6759L130.59 52.4307C130.59 52.4307 129.486 66.7801 129.956 67.7893C130.427 68.7985 130.981 68.5409 130.382 69.0864C129.783 69.6319 129.139 69.0905 129.783 70.0904C130.162 70.6511 130.348 71.3143 130.314 71.9843C130.314 71.9843 133.645 92.342 135.577 92.342C137.508 92.342 138.717 91.7931 138.649 91.2341C138.581 90.6752 137.442 89.2835 137.797 88.9376C138.152 88.5917 139.027 88.8529 138.16 88.2015C137.293 87.55 136.864 87.7583 137.079 86.9249C137.293 86.0915 135.653 75.2877 135.653 75.2877L135.493 57.2418L132.903 54.6759Z" fill="#3F3D56"/>
<path d="M122.086 51.6064L119.092 52.0179L115.532 53.3373C115.532 53.3373 117.158 71.1475 116.818 71.7438C116.479 72.3401 115.876 71.9677 116.392 72.5706C116.908 73.1735 117.372 72.9061 116.818 73.4565C116.264 74.0069 115.331 73.3097 115.905 74.2834C116.479 75.257 113.714 88.6627 114.459 89.3818C115.203 90.1009 117.121 89.6534 117.122 89.1224C117.063 88.5501 116.84 88.0052 116.479 87.5497C116.375 87.4342 116.318 87.2862 116.318 87.133C116.318 86.9797 116.375 86.8317 116.479 86.7163C116.783 86.4323 116.992 86.0659 117.078 85.665C117.122 85.2578 117.45 84.7574 117.608 84.3826C117.766 84.0077 121.745 58.6326 121.745 58.6326L122.086 51.6064Z" fill="#3F3D56"/>
<path d="M109.309 65.6301L110.66 64.9454C108.973 63.4686 104.789 61.0522 104.789 61.0522L97.5778 56.3317C97.4722 56.0904 97.303 55.8804 97.0872 55.7228C96.8715 55.5651 96.6168 55.4655 96.3487 55.4338C96.0807 55.4021 95.8088 55.4396 95.5604 55.5424C95.312 55.6452 95.0959 55.8097 94.9338 56.0193C94.7717 56.229 94.6693 56.4765 94.637 56.7368C94.6047 56.9971 94.6436 57.261 94.7498 57.5021C94.8559 57.7431 95.0257 57.9528 95.2418 58.1099C95.4579 58.2671 95.7129 58.3661 95.981 58.3972L104.063 65.4271L109.309 65.6301Z" fill="#D6A1A1"/>
<path d="M119.18 60.4215L119.194 54.6639L115.9 53.1343L107.592 61.6716L106.948 61.2549H105.446L101.798 65.4219C101.798 65.4219 103.741 66.5398 104.701 66.085C105.661 65.6302 105.571 66.2837 105.571 66.2837C105.713 66.4575 105.912 66.5798 106.134 66.6306C106.357 66.6815 106.591 66.658 106.798 66.5641C107.592 66.2553 109.094 67.0887 109.094 67.0887L119.18 60.4215Z" fill="#3F3D56"/>
<path d="M127.075 48.6389C129.728 48.6389 131.878 46.5507 131.878 43.9747C131.878 41.3988 129.728 39.3105 127.075 39.3105C124.422 39.3105 122.271 41.3988 122.271 43.9747C122.271 46.5507 124.422 48.6389 127.075 48.6389Z" fill="#D6A1A1"/>
<path d="M132.874 45.1593C132.42 46.021 131.812 46.797 131.077 47.4505C130.866 47.6834 130.596 47.8597 130.295 47.9624C130.143 48.0103 129.979 48.0052 129.831 47.9478C129.683 47.8904 129.561 47.7845 129.485 47.6484L129.396 47.5302C129.653 47.4538 129.896 47.3372 130.115 47.1849C130.224 47.1082 130.312 47.0075 130.372 46.891C130.433 46.7745 130.464 46.6457 130.463 46.5153C130.455 46.3849 130.395 46.2626 130.297 46.174C130.198 46.0853 130.068 46.0373 129.933 46.04C129.633 46.0747 129.365 46.4149 129.096 46.2838C128.879 46.1766 128.91 45.8696 128.972 45.6379C129.306 44.4284 129.167 42.5537 128.685 42.4882C128.207 42.3936 127.751 42.2125 127.342 41.9542C126.932 41.6955 126.474 41.5168 125.994 41.4278C125.959 41.4234 125.924 41.421 125.887 41.4181C125.873 41.1687 125.829 40.9218 125.754 40.6829C125.702 40.9352 125.622 41.1814 125.516 41.4173C125.1 41.4724 124.68 41.493 124.26 41.479C123.813 41.4286 122.528 42.4403 122.518 42.3011C122.505 42.0517 122.46 41.8049 122.385 41.5659C122.333 41.8182 122.253 42.0644 122.147 42.3004C122.143 42.31 122.14 42.3181 122.136 42.3278C121.999 42.0043 121.96 41.6426 121.963 41.9127C121.676 40.194 122.245 39.1592 123.698 38.14C123.988 37.9152 124.332 37.7656 124.698 37.7052C124.881 37.6769 125.068 37.6947 125.242 37.757C125.416 37.8193 125.57 37.9239 125.69 38.0608C126.247 37.7743 126.874 37.6379 127.504 37.6656C128.135 37.6934 128.746 37.8843 129.275 38.2186C130.32 38.8983 131.144 39.3506 131.005 40.5661C131.996 40.6587 132.832 41.4311 133.145 42.3465C133.455 43.2634 133.294 44.2865 132.874 45.1593Z" fill="#2F2E41"/>
<path d="M139.005 69.4627L135.559 68.9834C134.394 70.8758 133.979 75.9127 133.979 75.9127L130.607 83.6964C130.383 83.8437 130.204 84.0455 130.086 84.2816C129.969 84.5176 129.917 84.7796 129.937 85.041C129.957 85.3025 130.048 85.5543 130.2 85.771C130.352 85.9877 130.56 86.1617 130.803 86.2755C131.046 86.3893 131.316 86.4388 131.585 86.4192C131.855 86.3995 132.114 86.3113 132.337 86.1635C132.56 86.0157 132.739 85.8134 132.856 85.5771C132.973 85.3408 133.023 85.0787 133.003 84.8173L138.541 75.7575L139.005 69.4627Z" fill="#D6A1A1"/>
<path d="M131.07 57.8597L132.531 55.9067L135.492 57.2429L137.955 66.4671C137.955 66.4671 139.753 67.6035 139.37 68.4051C138.986 69.2067 138.782 69.8536 139.178 70.3129C139.575 70.7723 140.73 70.8061 139.87 71.555C139.009 72.304 139.746 74.2609 139.746 74.2609L138.921 76.0477L133.771 75.8393L131.07 57.8597Z" fill="#3F3D56"/>
<path d="M11.9606 86.4682C12.2857 86.2205 12.4984 85.8595 12.5535 85.4619C12.6086 85.0643 12.5018 84.6615 12.2557 84.3393C12.2046 84.2745 12.1481 84.214 12.0867 84.1583L14.2858 79.2278L12.1017 77.2642L9.84133 84.3345C9.62321 84.5995 9.50156 84.9271 9.49537 85.2662C9.48917 85.6054 9.59877 85.937 9.80708 86.2093C9.92714 86.3631 10.0772 86.4925 10.2488 86.59C10.4203 86.6875 10.61 86.7513 10.8069 86.7776C11.0039 86.804 11.2042 86.7924 11.3965 86.7436C11.5889 86.6947 11.7694 86.6096 11.9278 86.493C11.9389 86.4849 11.9498 86.4766 11.9606 86.4682Z" fill="#FFB6B6"/>
<path d="M24.7364 54.4833C24.7364 54.4833 23.1086 51.4786 19.3324 54.7235C15.5562 57.9683 11.0938 74.2102 11.1805 74.8208C11.2672 75.4314 12.1901 75.1899 11.0227 76.0691C9.85527 76.9482 9.20978 76.1583 9.85527 76.9482C10.5008 77.7381 11.9442 78.5749 10.6661 78.6924C9.38805 78.8098 14.0734 80.7671 14.0734 80.7671C14.0734 80.7671 14.8104 80.5953 15.0365 78.9442C15.1635 78.0169 14.7332 77.4903 15.4907 77.3358C16.2482 77.1813 15.5381 75.5043 15.6472 75.2404C15.7562 74.9765 21.8048 63.4518 21.8048 63.4518L24.7364 54.4833Z" fill="#C80000"/>
<path d="M32.1701 127.865L34.9043 127.865L36.2053 117.624L32.1694 117.624L32.1701 127.865Z" fill="#FFB6B6"/>
<path d="M32.0734 130.635L40.4825 130.635V130.532C40.4824 129.689 40.1376 128.88 39.5238 128.284C38.91 127.689 38.0775 127.354 37.2094 127.354H37.2092L35.6732 126.222L32.8073 127.354L32.0732 127.354L32.0734 130.635Z" fill="#2F2E41"/>
<path d="M13.0029 122.981L15.2397 124.508L22.3712 116.857L19.0694 114.604L13.0029 122.981Z" fill="#FFB6B6"/>
<path d="M11.2832 125.193L18.1621 129.89L18.2233 129.805C18.7225 129.116 18.9193 128.262 18.7702 127.432C18.6212 126.601 18.1386 125.862 17.4285 125.378L16.8422 123.594L13.8275 122.919L13.227 122.509L11.2832 125.193Z" fill="#2F2E41"/>
<path d="M21.275 76.9155L21.0477 77.3868C19.5542 80.4848 19.1723 83.948 19.7527 87.3218C19.7959 87.4535 19.7877 87.596 19.7296 87.7222C19.3696 88.1321 19.9344 89.9131 20.2581 90.9075L20.5499 92.6661C20.5499 92.6661 20.0661 94.2993 20.8009 94.1793C21.5358 94.0592 20.4415 95.8013 21.1424 96.2378L22.9608 107.198L15.3745 119.338L18.1843 123.293L29.4232 109.244L29.5637 96.5579L31.2495 106.788L31.39 122.884L36.5016 122.357L38.3744 106.751L36.588 85.1702L33.7783 75.813L21.275 76.9155Z" fill="#2F2E41"/>
<path d="M24.7869 48.8184L28.9222 49.0096L30.8997 52.3266C31.7766 52.582 32.5833 53.0254 33.2601 53.624C33.9369 54.2226 34.4666 54.9612 34.8101 55.7851L36.0977 58.874L34.6329 76.7333C34.6329 76.7333 34.3393 77.8136 34.8799 77.6558C35.4206 77.4981 35.2002 78.8519 35.2002 78.8519L37.1929 86.2933L19.0763 84.7637L20.0822 76.8796C20.0822 76.8796 18.6836 76.9234 19.6671 75.9685C20.6505 75.0137 21.1287 75.3179 20.184 74.189C19.2393 73.0602 19.0988 72.2418 19.0988 72.2418L18.6774 66.6491L17.9826 58.7784C17.8723 57.5295 18.0835 56.2735 18.5971 55.1235C19.1108 53.9735 19.9108 52.9655 20.9252 52.1901L24.7869 48.8184Z" fill="#C80000"/>
<path d="M26.9313 47.8973C29.8277 47.8973 32.1756 45.6175 32.1756 42.8053C32.1756 39.9931 29.8277 37.7134 26.9313 37.7134C24.035 37.7134 21.687 39.9931 21.687 42.8053C21.687 45.6175 24.035 47.8973 26.9313 47.8973Z" fill="#FFB6B6"/>
<path d="M24.9049 47.4799C26.4099 47.4319 26.5466 47.046 28.0515 46.998C28.5307 46.9828 29.0961 46.919 29.3278 46.5114C29.3952 46.3587 29.4252 46.1929 29.4155 46.0271C29.4057 45.8612 29.3565 45.6998 29.2716 45.5556C29.0999 45.2692 28.9451 44.9735 28.808 44.6701C28.7254 44.4321 28.7038 44.1781 28.7449 43.9302C28.786 43.6823 28.8887 43.4478 29.0441 43.247C29.1995 43.0463 29.4029 42.8853 29.6368 42.778C29.8706 42.6706 30.1279 42.6202 30.3863 42.6311C30.8442 42.6503 31.2743 42.8594 31.731 42.8976C32.3574 42.95 33.7424 40.9421 33.454 40.3997C33.1733 39.8717 32.6084 39.4734 32.5196 38.8855C32.4615 38.501 32.625 38.119 32.6473 37.731C32.6805 37.1557 31.1785 38.4529 31.4536 37.9423C32.1283 36.6898 25.7698 35.1371 24.723 36.706C24.3318 37.2923 23.6345 37.2523 23.0131 37.6044C22.6058 37.8352 21.5773 38.6314 21.3434 39.1277C21.1286 39.6341 21.0271 40.179 21.0456 40.7264C21.0362 43.272 21.4356 45.6136 23.5504 47.1184" fill="#2F2E41"/>
<path d="M39.7929 86.2495C39.4836 85.9835 39.2935 85.6108 39.2629 85.2107C39.2323 84.8106 39.3638 84.4147 39.6292 84.1073C39.6842 84.0456 39.7443 83.9885 39.809 83.9364L37.917 78.8873L40.2179 77.0537L42.0396 84.2425C42.241 84.5196 42.3423 84.8537 42.3276 85.1926C42.313 85.5315 42.1832 85.8561 41.9585 86.1159C41.8292 86.2625 41.6714 86.3829 41.4942 86.4703C41.3169 86.5577 41.1237 86.6103 40.9255 86.6252C40.7273 86.6401 40.528 86.617 40.339 86.5571C40.15 86.4972 39.9751 86.4017 39.8241 86.2762C39.8135 86.2674 39.8031 86.2585 39.7929 86.2495Z" fill="#FFB6B6"/>
<path d="M29.0063 53.5811C29.0063 53.5811 30.816 50.6761 34.386 54.134C37.956 57.592 41.4118 74.0635 41.2877 74.668C41.1637 75.2725 40.2572 74.978 41.3685 75.9232C42.4798 76.8684 43.1727 76.1174 42.4798 76.8684C41.7869 77.6195 40.2945 78.3712 41.5631 78.5625C42.8317 78.7538 38.0344 80.436 38.0344 80.436C38.0344 80.436 37.3093 80.2218 37.1851 78.5606C37.1153 77.6276 37.5773 77.1269 36.8306 76.9287C36.0839 76.7306 36.8958 75.0977 36.8032 74.828C36.7106 74.5582 31.3814 62.7035 31.3814 62.7035L29.0063 53.5811Z" fill="#C80000"/>
<path d="M81.1875 25.8916C81.1877 26.716 80.9362 27.5219 80.4647 28.2074C79.9932 28.893 79.3229 29.4273 78.5385 29.743C77.7542 30.0587 76.8911 30.1414 76.0584 29.9808C75.2256 29.8202 74.4606 29.4234 73.8601 28.8406C73.2596 28.2579 72.8506 27.5153 72.6847 26.7068C72.5189 25.8983 72.6037 25.0603 72.9284 24.2986C73.2531 23.5369 73.8032 22.8858 74.509 22.4276C75.2148 21.9695 76.0447 21.7248 76.8937 21.7246C77.4576 21.7239 78.0161 21.8311 78.5373 22.0403C79.0584 22.2494 79.532 22.5563 79.9308 22.9433C80.3297 23.3304 80.646 23.79 80.8616 24.2959C81.0773 24.8018 81.188 25.3441 81.1875 25.8916Z" fill="#C80000"/>
<path d="M76.9894 26.4955C77.819 26.4955 78.4915 25.8425 78.4915 25.0371C78.4915 24.2316 77.819 23.5786 76.9894 23.5786C76.1598 23.5786 75.4873 24.2316 75.4873 25.0371C75.4873 25.8425 76.1598 26.4955 76.9894 26.4955Z" fill="white"/>
<path d="M78.5997 27.0166H75.3809C75.1818 27.0168 74.9909 27.0937 74.8501 27.2304C74.7093 27.3671 74.6301 27.5525 74.6299 27.7458C74.6757 28.3704 74.7762 28.99 74.9303 29.5981C75.5758 29.921 76.2952 30.0796 77.0211 30.0588C77.747 30.038 78.4555 29.8386 79.0803 29.4793C79.2181 28.9094 79.3085 28.3297 79.3507 27.7458C79.3505 27.5525 79.2713 27.3671 79.1305 27.2304C78.9897 27.0937 78.7988 27.0168 78.5997 27.0166Z" fill="white"/>
<path d="M1.13021e-06 130.752C-9.88805e-05 130.784 0.0064394 130.817 0.0192375 130.847C0.0320357 130.877 0.0508398 130.904 0.0745729 130.927C0.098306 130.95 0.126499 130.969 0.157527 130.981C0.188554 130.994 0.221806 131 0.255369 131H153.745C153.812 131 153.877 130.974 153.925 130.927C153.973 130.881 154 130.818 154 130.752C154 130.686 153.973 130.623 153.925 130.577C153.877 130.53 153.812 130.504 153.745 130.504H0.255369C0.221806 130.504 0.188554 130.51 0.157527 130.523C0.1265 130.535 0.0983091 130.553 0.0745762 130.576C0.0508433 130.599 0.0320361 130.627 0.0192375 130.657C0.006439 130.687 -9.77413e-05 130.719 1.13021e-06 130.752Z" fill="#CCCCCC"/>
</g>
<defs>
<clipPath id="clip0_4018_992">
<rect width="154" height="131" fill="white"/>
</clipPath>
</defs>
</svg>
