<svg width="177" height="101" viewBox="0 0 177 101" fill="none" xmlns="http://www.w3.org/2000/svg">
<g clip-path="url(#clip0_4010_1560)">
<path d="M17.3007 92.2612C17.9861 92.5667 18.7219 92.6432 19.4374 92.4834C20.1528 92.3236 20.8237 91.9329 21.3855 91.3489C22.8162 89.8264 23.2653 87.3181 23.6297 84.9954L24.7092 78.1255L22.4492 80.0988C20.8238 81.5177 19.1619 82.9822 18.0365 85.0376C16.911 87.093 16.4198 89.8988 17.324 92.1227" fill="#FFCBCB"/>
<path d="M17.4936 100.579C17.2648 98.4658 17.0296 96.3261 17.19 94.1907C17.3326 92.2944 17.7888 90.4422 18.7179 88.9234C19.211 88.1188 19.811 87.4294 20.491 86.8862C20.6684 86.7446 20.8314 87.1007 20.655 87.2418C19.4785 88.1845 18.5685 89.5766 18.0562 91.2174C17.4904 93.042 17.3996 95.0311 17.4978 96.9692C17.5568 98.1413 17.6817 99.3054 17.8077 100.469C17.8179 100.521 17.8118 100.577 17.7907 100.624C17.7696 100.671 17.7351 100.706 17.6942 100.722C17.6526 100.736 17.6083 100.729 17.5709 100.702C17.5335 100.675 17.506 100.631 17.4943 100.578L17.4936 100.579Z" fill="#F2F2F2"/>
<path d="M167.941 89.5734C167.21 89.8988 166.426 89.9803 165.664 89.8101C164.902 89.6398 164.187 89.2236 163.589 88.6014C162.064 86.9792 161.586 84.3075 161.198 81.833L160.047 74.5137L162.455 76.6159C164.187 78.1277 165.958 79.688 167.157 81.8778C168.356 84.0675 168.879 87.0569 167.916 89.4263" fill="#FFCBCB"/>
<path d="M167.569 98.9442C167.872 96.1446 168.184 93.3088 167.971 90.4792C167.782 87.9661 167.177 85.5121 165.946 83.499C165.292 82.4327 164.497 81.5191 163.596 80.7993C163.361 80.6113 163.145 81.0833 163.379 81.2705C164.938 82.5198 166.144 84.3646 166.823 86.539C167.573 88.9568 167.693 91.5927 167.564 94.1612C167.486 95.7145 167.32 97.2576 167.153 98.7988C167.14 98.8685 167.149 98.942 167.176 99.0043C167.204 99.0666 167.25 99.1132 167.304 99.1345C167.359 99.1533 167.418 99.1439 167.467 99.1082C167.517 99.0725 167.553 99.0134 167.569 98.9439L167.569 98.9442Z" fill="#F2F2F2"/>
<path d="M165.387 94.4518C165.074 95.0554 164.644 95.5466 164.137 95.878C163.631 96.2094 163.066 96.3699 162.496 96.344C161.033 96.256 159.813 94.9612 158.715 93.7316L155.467 90.0955L157.616 89.965C159.162 89.8711 160.748 89.7831 162.221 90.3882C163.693 90.9934 165.051 92.4475 165.32 94.3799" fill="#FFCBCB"/>
<path d="M168.425 100.553C166.966 97.2799 165.274 93.6419 162.25 92.4791C161.409 92.1569 160.527 92.0415 159.652 92.1391C159.376 92.1693 159.445 92.7082 159.721 92.6782C161.187 92.5238 162.651 93.0148 163.866 94.0686C165.035 95.0773 165.945 96.4798 166.715 97.9668C167.187 98.8778 167.609 99.8274 168.032 100.776C168.167 101.079 168.562 100.86 168.425 100.553Z" fill="#F2F2F2"/>
<path d="M127.008 60.9465H53.8633V41.124H127.008V60.9465Z" fill="white"/>
<path d="M64.3222 56.1113C67.0936 56.1113 69.3403 53.8084 69.3403 50.9677C69.3403 48.1271 67.0936 45.8242 64.3222 45.8242C61.5509 45.8242 59.3042 48.1271 59.3042 50.9677C59.3042 53.8084 61.5509 56.1113 64.3222 56.1113Z" fill="#C80000"/>
<path d="M74.3387 47.6782C74.1631 47.6782 73.9948 47.7666 73.8706 47.924C73.7465 48.0814 73.6768 48.2949 73.6768 48.5175C73.6768 48.74 73.7465 48.9535 73.8706 49.1109C73.9948 49.2683 74.1631 49.3567 74.3387 49.3567H122.666C122.842 49.3562 123.01 49.2675 123.133 49.1102C123.257 48.9529 123.327 48.7397 123.327 48.5175C123.327 48.2952 123.257 48.0821 123.133 47.9247C123.01 47.7674 122.842 47.6787 122.666 47.6782H74.3387Z" fill="#C80000"/>
<path d="M74.3386 52.7139C74.1631 52.7134 73.9946 52.8014 73.8702 52.9584C73.7458 53.1155 73.6757 53.3288 73.6753 53.5513C73.6749 53.7739 73.7443 53.9876 73.8682 54.1453C73.9921 54.303 74.1603 54.3919 74.3358 54.3924H104.889C104.976 54.3925 105.062 54.371 105.143 54.3289C105.223 54.2868 105.296 54.225 105.358 54.147C105.419 54.0691 105.468 53.9765 105.502 53.8746C105.535 53.7727 105.552 53.6634 105.552 53.5531C105.552 53.4428 105.535 53.3335 105.502 53.2316C105.468 53.1297 105.419 53.0371 105.358 52.9592C105.296 52.8812 105.223 52.8194 105.143 52.7774C105.062 52.7353 104.976 52.7137 104.889 52.7139H74.3386Z" fill="#C80000"/>
<path d="M127.732 61.7221H52.9175V40.2129H127.732V61.7221ZM54.98 59.5304H125.892V42.5398H54.98V59.5304Z" fill="#CCCCCC"/>
<path d="M147.607 56.0227C147.536 55.7577 147.511 55.4761 147.535 55.1978C147.559 54.9196 147.631 54.6514 147.746 54.4122C147.861 54.173 148.015 53.9686 148.199 53.8134C148.383 53.6582 148.591 53.5559 148.809 53.5138L149.637 49.2661L151.796 49.2745L150.56 55.2522C150.592 55.7218 150.486 56.1897 150.264 56.5673C150.041 56.9449 149.717 57.2059 149.353 57.3008C148.989 57.3958 148.61 57.3181 148.288 57.0826C147.967 56.847 147.724 56.4699 147.607 56.0227Z" fill="#FFB7B7"/>
<path d="M152.636 52.3711L149.215 51.9714L151.25 40.0782L150.605 26.8875L154.126 25.2858L155.981 39.9717L155.974 39.9981L152.636 52.3711Z" fill="#3F3D56"/>
<path d="M125.907 51.4195C125.903 51.1423 125.954 50.8674 126.056 50.6141C126.158 50.3609 126.31 50.1355 126.5 49.9538C126.689 49.7721 126.913 49.6385 127.154 49.5625C127.396 49.4865 127.65 49.4699 127.898 49.5138L129.958 45.8242L132.294 46.6595L129.318 51.8248C129.224 52.2798 128.981 52.6808 128.637 52.9517C128.293 53.2227 127.87 53.3447 127.45 53.2947C127.029 53.2448 126.64 53.0263 126.356 52.6807C126.072 52.3351 125.912 51.8863 125.907 51.4195Z" fill="#FFB7B7"/>
<path d="M136.855 99.1296H135.001L134.119 90.7129L136.856 90.7131L136.855 99.1296Z" fill="#FFB7B7"/>
<path d="M137.768 101L131.381 101V100.882C131.381 99.9212 131.643 98.9998 132.109 98.3204C132.576 97.641 133.208 97.2593 133.867 97.2593L137.768 97.2595L137.768 101Z" fill="#2F2E41"/>
<path d="M149.978 98.4289H148.219L147.382 89.8281L149.978 89.8284L149.978 98.4289Z" fill="#FFB7B7"/>
<path d="M151.454 101L145.979 101V100.882C145.98 99.9212 146.204 98.9998 146.604 98.3204C147.003 97.641 147.545 97.2593 148.11 97.2593L151.454 97.2595L151.454 101Z" fill="#2F2E41"/>
<path d="M146.892 15.8984C149.411 15.8984 151.454 13.5955 151.454 10.7548C151.454 7.91416 149.411 5.61133 146.892 5.61133C144.372 5.61133 142.33 7.91416 142.33 10.7548C142.33 13.5955 144.372 15.8984 146.892 15.8984Z" fill="#FFB8B8"/>
<path d="M147.256 10.5009C146.592 10.8393 145.849 10.8643 145.17 10.5713C144.492 10.2782 143.928 9.68791 143.587 8.91549C143.246 8.14306 143.154 7.24381 143.328 6.39296C143.502 5.54211 143.93 4.80061 144.528 4.31295C145.71 3.34868 147.477 3.66783 148.623 4.78616C149.396 4.35779 150.261 4.2402 151.092 4.45043C151.924 4.66066 152.679 5.1878 153.248 5.95554C154.355 7.51544 154.476 9.99152 153.669 11.81C153.317 12.758 153.16 13.7969 153.213 14.8357C153.267 15.8745 153.529 16.8815 153.976 17.7685C153.629 17.7513 152.865 17.6729 151.909 17.5725C151.632 17.5434 151.513 16.5536 151.21 16.5218C150.942 16.4937 150.493 17.4238 150.213 17.3949C148.137 17.1812 145.814 16.9642 144.76 17.0066C145.554 14.7433 146.348 12.4799 147.256 10.5009Z" fill="#2F2E41"/>
<path d="M152.613 49.6601C152.613 49.6601 154.126 51.4528 153.102 60.6197L152.265 80.0983L150.997 96.7916L147.348 96.324L144.444 57.2828L139.783 71.7677L137.115 95.7663L133.592 95.4548L133.224 71.5585L134.95 53.1116L152.613 49.6601Z" fill="#2F2E41"/>
<path d="M137.639 54.2406C135.875 54.2408 135.165 53.9849 135.113 53.9652L135.031 53.9341L135.045 53.8321C135.057 53.7482 136.242 45.411 137.869 41.0339L139.012 23.2832C139.045 22.7558 139.225 22.2574 139.523 21.8691C139.82 21.4808 140.218 21.2255 140.651 21.1449L143.56 20.5939L145.34 18.7036L149.603 18.988L149.979 21.1635C150.489 21.3354 153.853 22.5793 154.186 25.5581L154.191 25.5955L154.176 25.6288L148.012 39.9338C148.533 40.554 152.65 45.6553 152.929 52.177L152.936 52.3338L152.809 52.2988C152.797 52.2959 151.48 51.9939 144.552 53.4067C141.349 54.0599 139.122 54.2406 137.639 54.2406Z" fill="#3F3D56"/>
<path d="M130.247 51.4351L127.732 49.1574L133.346 35.9497L138.567 23.005C138.64 22.8241 138.758 22.6738 138.906 22.5743C139.054 22.4747 139.224 22.4307 139.393 22.448C139.563 22.4654 139.724 22.5434 139.855 22.6715C139.986 22.7997 140.08 22.9718 140.125 23.1648L141.418 28.6781L137.376 41.0426L130.247 51.4351Z" fill="#3F3D56"/>
<path d="M176.814 101H105.902C105.853 101 105.806 100.975 105.771 100.931C105.736 100.886 105.716 100.826 105.716 100.764C105.716 100.701 105.736 100.641 105.771 100.597C105.806 100.553 105.853 100.528 105.902 100.528H176.814C176.863 100.528 176.911 100.553 176.946 100.597C176.981 100.641 177 100.701 177 100.764C177 100.826 176.981 100.886 176.946 100.931C176.911 100.975 176.863 101 176.814 101Z" fill="#CBCBCB"/>
<path d="M103.098 32.7314H82.1133V11.2222H92.6055V12.8847H83.7353V31.0689H101.476V21.9768H103.098V32.7314Z" fill="#3F3D56"/>
<path d="M92.1495 26.1854L86.7666 20.3081L88.0437 19.1714L92.1495 23.3799L102.833 11.4238L104.01 12.6252L92.1495 26.1854Z" fill="#C80000"/>
<path d="M29.3026 16.1786L29.4681 14.6572C29.4681 14.6572 33.9354 12.6854 34.7485 15.6084L29.3026 16.1786Z" fill="#E6E6E6"/>
<path d="M38.3197 98.1944H40.7924L41.9688 86.9722H38.3193L38.3197 98.1944Z" fill="#D6A1A1"/>
<path d="M37.4072 97.2595L42.4223 97.2593H42.4225C43.2702 97.2593 44.083 97.641 44.6824 98.3204C45.2818 98.9998 45.6185 99.9212 45.6186 100.882V101L37.4074 101L37.4072 97.2595Z" fill="#2F2E41"/>
<path d="M24.6342 98.1944H27.1069L28.2833 86.9722H24.6338L24.6342 98.1944Z" fill="#D6A1A1"/>
<path d="M23.7217 97.2595L29.294 97.2593H29.2943C30.236 97.2593 31.1393 97.641 31.8052 98.3204C32.4712 98.9998 32.8453 99.9212 32.8454 100.882V101L23.7219 101L23.7217 97.2595Z" fill="#2F2E41"/>
<path d="M26.1143 22.7689L23.1463 22.4146L21.0817 32.2658L21.1949 41.258L23.9588 53.2956L28.0603 50.6737L26.1126 38.3516L26.1143 22.7689Z" fill="#3F3D56"/>
<path d="M23.8755 51.697L24.5797 57.9815L25.2408 72.6453L23.7217 94.4969L29.1551 94.1919L31.8181 71.4481L33.4446 60.974L35.7323 72.9444L37.1622 95.3889L42.7385 94.9212V72.8655L42.8815 56.7845L40.8798 50.5L23.8755 51.697Z" fill="#2F2E41"/>
<path d="M35.2225 16.5752C35.2225 16.5752 33.3335 13.6368 29.8253 15.6937L28.2062 18.0444L23.0789 22.1582L24.1584 35.9688L22.8091 53.3055L41.9689 53.0116L38.7306 35.6749V17.1629L35.2225 16.5752Z" fill="#3F3D56"/>
<path opacity="0.25" d="M24.2554 27.1206L22.8091 46.7595L24.6338 36.1159L24.2554 27.1206Z" fill="black"/>
<path d="M58.8766 42.8954C58.6071 43.0043 58.3208 43.0416 58.0378 43.0046C57.7548 42.9677 57.4821 42.8574 57.2388 42.6816C56.9956 42.5058 56.7877 42.2687 56.6298 41.987C56.472 41.7053 56.368 41.3859 56.3252 41.0513L52.0054 39.7818L52.0139 36.4722L58.0931 38.3668C58.5707 38.3185 59.0465 38.4802 59.4305 38.8213C59.8145 39.1623 60.08 39.659 60.1765 40.2172C60.2731 40.7755 60.1942 41.3564 59.9546 41.85C59.715 42.3436 59.3315 42.7156 58.8766 42.8954Z" fill="#D6A1A1"/>
<path d="M54.152 36.828L53.3853 41.5239L55.307 41.8825L56.0738 37.1867L54.152 36.828Z" fill="#E6E6E6"/>
<path d="M33.3015 13.0925C36.5768 13.0925 39.2319 10.3709 39.2319 7.01376C39.2319 3.65659 36.5768 0.935059 33.3015 0.935059C30.0262 0.935059 27.3711 3.65659 27.3711 7.01376C27.3711 10.3709 30.0262 13.0925 33.3015 13.0925Z" fill="#D6A1A1"/>
<path d="M32.8475 12.9125C31.4198 13.2899 29.9157 13.0696 28.6273 12.2943C27.3389 11.5191 26.3581 10.2442 25.8754 8.71733C25.3927 7.19044 25.4426 5.52051 26.0154 4.03186C26.5881 2.5432 27.6429 1.34208 28.9748 0.661753C30.0005 0.157669 31.1222 -0.0639848 32.2431 0.0159265C33.9883 0.116964 35.6846 0.827246 37.4316 0.774905L37.6848 1.2231L38.6391 0.968248L38.8436 1.80253L39.0949 1.79295C39.5452 2.71434 38.8207 4.03346 37.8706 4.0223C37.4969 3.97487 37.1285 3.8865 36.7708 3.75851C36.403 3.67171 35.9698 3.69335 35.7161 3.99927C35.3865 4.39684 35.53 5.01725 35.5987 5.55026C35.6675 6.08327 35.4958 6.80123 35.0072 6.81863C34.7575 6.82752 34.5201 6.63041 34.2749 6.68223C33.9892 6.74259 33.8447 7.12245 33.8864 7.43946C33.9572 7.75051 34.0726 8.04713 34.2282 8.31813C34.5586 9.11144 34.6112 10.0112 34.3758 10.8446C34.1405 11.6779 33.6338 12.3862 32.9532 12.8333" fill="#2F2E41"/>
<path d="M37.3128 18.3233L38.6252 17.1229C38.6252 17.1229 41.3657 16.7996 41.4473 19.8092L46.4661 33.8063L55.0392 36.5039L54.1669 42.6186L42.0228 38.4728L35.5054 28.3784L37.3128 18.3233Z" fill="#3F3D56"/>
<path d="M71.0978 101H0.18612C0.136758 101 0.0894174 100.975 0.0545131 100.931C0.0196089 100.886 0 100.826 0 100.764C0 100.701 0.0196089 100.641 0.0545131 100.597C0.0894174 100.553 0.136758 100.528 0.18612 100.528H71.0978C71.1472 100.528 71.1945 100.553 71.2294 100.597C71.2643 100.641 71.2839 100.701 71.2839 100.764C71.2839 100.826 71.2643 100.886 71.2294 100.931C71.1945 100.975 71.1472 101 71.0978 101Z" fill="#CBCBCB"/>
</g>
<defs>
<clipPath id="clip0_4010_1560">
<rect width="177" height="101" fill="white"/>
</clipPath>
</defs>
</svg>
