<svg width="185" height="104" viewBox="0 0 185 104" fill="none" xmlns="http://www.w3.org/2000/svg">
<g clip-path="url(#clip0_4020_1098)">
<path d="M105.821 34.5133C105.726 34.6135 105.638 34.7227 105.557 34.8399L94.2099 33.2909L93.0631 30.2277L89.0312 31.6461L90.6276 37.2995C90.7566 37.7563 91.0042 38.1523 91.3334 38.4282C91.6625 38.7041 92.0554 38.8449 92.4531 38.8296L105.412 38.3301C105.687 38.8252 106.078 39.2097 106.535 39.4326C106.992 39.6555 107.492 39.7062 107.969 39.5779C108.446 39.4496 108.878 39.1485 109.206 38.7146C109.534 38.2807 109.743 37.7345 109.806 37.1487C109.869 36.563 109.783 35.9654 109.558 35.4356C109.333 34.9057 108.981 34.4686 108.549 34.1825C108.116 33.8964 107.624 33.7748 107.136 33.8338C106.649 33.8929 106.191 34.1299 105.822 34.5132L105.821 34.5133Z" fill="#FFB6B6"/>
<path d="M108.167 16.8403C108.169 16.4336 108.277 16.041 108.474 15.7321C108.671 15.4231 108.942 15.2179 109.24 15.1526L127.596 11.0973C127.772 11.0581 127.953 11.0689 128.125 11.1289L132.427 12.6254L134.895 13.4851L139.451 15.0692C139.726 15.1653 139.969 15.3814 140.143 15.6837C140.317 15.986 140.411 16.3574 140.411 16.7396V36.9801C140.41 37.3746 140.308 37.7567 140.124 38.0633C139.939 38.3698 139.683 38.5826 139.396 38.6663L120.699 44.0183C120.611 44.0437 120.522 44.0562 120.432 44.0557C120.301 44.056 120.171 44.0294 120.046 43.9766L108.938 39.2572C108.676 39.1471 108.447 38.9263 108.286 38.6275C108.124 38.3286 108.039 37.9677 108.042 37.5983L108.167 16.8403Z" fill="white"/>
<path d="M127.816 12.5186C127.83 12.5185 127.843 12.5208 127.856 12.5254L139.219 16.4511C139.253 16.463 139.284 16.4899 139.306 16.5275C139.328 16.5651 139.339 16.6113 139.339 16.6588V36.8238C139.339 36.8729 139.327 36.9205 139.303 36.9587C139.28 36.9969 139.248 37.0234 139.212 37.0338L120.453 42.3658C120.426 42.3734 120.398 42.3716 120.371 42.3605L109.226 37.6587C109.193 37.645 109.164 37.6175 109.144 37.5803C109.124 37.5431 109.113 37.4982 109.113 37.4522L109.238 16.7714C109.239 16.7208 109.252 16.6719 109.277 16.6335C109.302 16.5951 109.336 16.5696 109.373 16.5614L127.79 12.5213C127.799 12.5195 127.807 12.5186 127.816 12.5186Z" fill="#C80000"/>
<path d="M108.167 16.8403C108.169 16.4336 108.277 16.041 108.474 15.7321C108.671 15.4231 108.942 15.2179 109.24 15.1526L127.596 11.0973C127.772 11.0581 127.953 11.0689 128.125 11.1289L132.427 12.6254L134.895 13.4851L139.451 15.0692C139.726 15.1653 139.969 15.3814 140.143 15.6837C140.317 15.986 140.411 16.3574 140.411 16.7396V36.9801C140.41 37.3746 140.308 37.7567 140.124 38.0633C139.939 38.3698 139.683 38.5826 139.396 38.6663L120.699 44.0183C120.611 44.0437 120.522 44.0562 120.432 44.0557C120.301 44.056 120.171 44.0294 120.046 43.9766L108.938 39.2572C108.676 39.1471 108.447 38.9263 108.286 38.6275C108.124 38.3286 108.039 37.9677 108.042 37.5983L108.167 16.8403ZM109.034 38.8461L120.142 43.5655C120.301 43.6319 120.469 43.6428 120.632 43.5971L139.33 38.2452C139.545 38.1821 139.737 38.0225 139.875 37.7925C140.014 37.5625 140.09 37.276 140.091 36.9801V16.7397C140.09 16.4747 140.03 16.2163 139.917 15.9991C139.804 15.7819 139.645 15.6164 139.46 15.5249C139.431 15.5101 139.401 15.4976 139.37 15.4876L134.551 13.8114L131.702 12.8195L128.045 11.5473C127.967 11.5191 127.886 11.5051 127.805 11.5056C127.753 11.5056 127.7 11.5113 127.649 11.5228L109.293 15.5781C109.145 15.6107 109.005 15.6892 108.884 15.8072C108.762 15.9252 108.663 16.0796 108.594 16.2581C108.525 16.4391 108.488 16.6395 108.487 16.8432L108.362 37.6012C108.36 37.8783 108.424 38.149 108.545 38.3733C108.666 38.5975 108.838 38.7633 109.034 38.8461Z" fill="#3F3D56"/>
<path d="M108.762 16.2193C108.774 16.2301 108.788 16.2381 108.802 16.2432L114.163 18.1613L115.832 18.7581L120.579 20.4558C120.592 20.4602 120.606 20.4625 120.62 20.4628C120.63 20.4625 120.639 20.4616 120.649 20.46L139.788 15.8416L139.852 15.8261C139.894 15.8159 139.93 15.7843 139.954 15.7382C139.978 15.6922 139.987 15.6355 139.98 15.5806C139.972 15.5256 139.949 15.4769 139.914 15.445C139.879 15.4131 139.836 15.4007 139.795 15.4105L139.41 15.5032L120.627 20.0359L116.536 18.5727L114.247 17.7541L108.969 15.8654L108.885 15.836C108.849 15.8233 108.81 15.8279 108.776 15.849C108.743 15.87 108.715 15.9062 108.699 15.9511C108.695 15.9618 108.692 15.9731 108.69 15.9848C108.681 16.029 108.683 16.0757 108.696 16.118C108.709 16.1602 108.732 16.1958 108.762 16.2193Z" fill="#3F3D56"/>
<path d="M114.044 41.2751L115.737 41.8889L116.45 18.589L134.653 13.7274C134.671 13.7232 134.688 13.7174 134.706 13.7101C134.846 13.6567 134.968 13.5411 135.052 13.3822L132.567 12.5186L131.836 12.7135L114.564 17.3253C114.473 17.3494 114.387 17.3995 114.312 17.4723C114.237 17.5451 114.175 17.6388 114.129 17.747C114.075 17.8727 114.045 41.1249 114.044 41.2751Z" fill="#3F3D56"/>
<path d="M132.754 31.0554C132.774 31.0553 132.794 31.0523 132.814 31.0464L138.483 29.3613C138.554 29.3401 138.615 29.2827 138.654 29.2018C138.693 29.1209 138.706 29.023 138.69 28.9296C138.674 28.8363 138.63 28.7551 138.569 28.7039C138.507 28.6528 138.433 28.6358 138.362 28.6567L132.693 30.3418C132.628 30.3614 132.57 30.4122 132.531 30.4846C132.491 30.5569 132.474 30.6457 132.481 30.734C132.489 30.8223 132.521 30.9039 132.571 30.9632C132.621 31.0224 132.686 31.0553 132.754 31.0554Z" fill="white"/>
<path d="M138.823 30.9155L133.157 32.5139C133.101 32.5295 133.041 32.5042 132.988 32.4436C132.936 32.3829 132.896 32.292 132.877 32.1906C132.859 32.0893 132.863 31.9859 132.888 31.9033C132.914 31.8206 132.96 31.7654 133.015 31.7498L138.681 30.1515C138.737 30.1359 138.797 30.1612 138.849 30.2218C138.902 30.2824 138.942 30.3734 138.961 30.4747C138.979 30.576 138.975 30.6794 138.949 30.7621C138.924 30.8447 138.878 30.8999 138.823 30.9155Z" fill="white"/>
<path d="M2.81871 71.0926C-1.34443 60.3394 -1.19093 46.7093 5.27011 37.6353C7.43171 50.2178 13.335 61.5021 21.9354 69.4914C25.2618 72.5585 29.2351 75.5654 30.1438 80.3996C30.7093 83.4076 29.9078 86.5892 28.5222 89.2094C27.1365 91.8296 25.205 93.985 23.2955 96.1092L23.0813 96.8362C14.7725 90.1186 6.98185 81.8458 2.81871 71.0926Z" fill="#FFD6D6"/>
<path d="M5.44979 37.7666C3.96286 47.2745 5.06748 57.3987 8.68165 66.1097C9.46302 67.993 10.396 69.824 11.6452 71.3387C12.8725 72.8042 14.4135 73.8592 16.108 74.3941C17.6794 74.9299 19.34 75.2654 20.7725 76.2379C22.2824 77.263 23.2195 78.983 23.5846 80.9554C24.0312 83.3687 23.7086 85.8255 23.3217 88.2153C22.892 90.8686 22.4098 93.6167 23.0324 96.284C23.1078 96.6072 22.6739 96.725 22.5986 96.4023C21.5154 91.7616 23.6214 87.1846 23.3271 82.5189C23.1897 80.3418 22.4896 78.1998 20.8911 76.9384C19.4932 75.8354 17.7811 75.4877 16.186 74.9613C14.5111 74.4085 13.0069 73.5642 11.727 72.1637C10.4177 70.731 9.42139 68.9387 8.60222 67.087C6.77144 62.8718 5.51961 58.3467 4.89258 53.6774C4.15165 48.3531 4.19615 42.92 5.02415 37.6131C5.07552 37.2847 5.50082 37.4403 5.44979 37.7666Z" fill="white"/>
<path d="M7.3789 63.3508C6.03017 63.8556 4.5717 63.7841 3.26396 63.149C1.95622 62.514 0.88436 61.3568 0.239807 59.8841C0.110263 59.5856 0.501409 59.3365 0.631124 59.6354C1.22916 61.0081 2.22769 62.0859 3.44649 62.6743C4.6653 63.2627 6.02408 63.323 7.27761 62.8443C7.55012 62.7407 7.64986 63.2478 7.3789 63.3508Z" fill="white"/>
<path d="M15.2806 74.245C16.6284 71.2528 16.9608 67.7774 16.2116 64.5117C16.1371 64.1882 16.571 64.0703 16.6453 64.3934C17.4195 67.7935 17.0673 71.4094 15.659 74.5195C15.5246 74.8159 15.147 74.5398 15.2806 74.245Z" fill="white"/>
<path d="M4.72457 48.5221C5.28128 48.4537 5.81473 48.225 6.27704 47.8565C6.73934 47.4879 7.11601 46.991 7.37322 46.4104C7.50435 46.1123 7.88181 46.3887 7.75154 46.6849C7.46481 47.3248 7.04824 47.873 6.53824 48.2815C6.02824 48.6901 5.44032 48.9465 4.82586 49.0286C4.76849 49.042 4.70891 49.0293 4.65922 48.9933C4.60954 48.9572 4.57347 48.9004 4.55835 48.8344C4.54522 48.7673 4.55532 48.6968 4.58645 48.6383C4.61757 48.5798 4.66721 48.5381 4.72457 48.5221Z" fill="white"/>
<path d="M39.4864 37.7407C39.409 37.9296 39.3317 38.1185 39.2561 38.3113C38.2276 40.8573 37.3779 43.4967 36.7153 46.2034C36.6613 46.4117 36.6092 46.6238 36.5603 46.8335C35.0237 53.3744 34.5404 60.1916 35.1349 66.9386C35.3736 69.6231 35.7869 72.2826 36.3711 74.8939C37.1781 78.5001 38.2988 82.3353 38.0459 85.9362C38.0231 86.3123 37.9804 86.6863 37.9181 87.0562L23.8571 97.0851C23.8154 97.0892 23.7754 97.0971 23.7335 97.1012L23.1878 97.5316C23.1496 97.3994 23.1124 97.2613 23.0742 97.1291C23.0518 97.0525 23.0325 96.9737 23.0101 96.8971C22.9961 96.8453 22.9823 96.7934 22.9672 96.7477C22.9625 96.7305 22.958 96.7131 22.9552 96.6996C22.9401 96.6539 22.9302 96.6095 22.917 96.5674C22.7074 95.7962 22.5021 95.0219 22.301 94.2446C22.2991 94.2408 22.2991 94.2408 22.3003 94.2348C20.7813 88.3073 19.6728 82.1796 19.396 76.0503C19.3877 75.8658 19.3773 75.6778 19.3755 75.4888C19.2638 72.7252 19.3458 69.9555 19.6205 67.2074C19.7752 65.7033 19.9949 64.2092 20.2788 62.731C21.0189 58.9131 22.2686 55.2549 23.9821 51.8905C27.3989 45.1842 32.6144 39.8285 38.9974 37.8837C39.1607 37.8341 39.3211 37.7866 39.4864 37.7407Z" fill="#FFD6D6"/>
<path d="M39.5637 37.9717C33.4744 44.5178 29.1365 53.378 27.5309 62.8742C27.1838 64.9273 26.9846 67.0453 27.2011 69.1329C27.4254 71.1659 28.1119 73.0916 29.1891 74.71C30.1676 76.2426 31.3204 77.678 31.9628 79.4616C32.6399 81.3417 32.5013 83.3738 31.7758 85.2053C30.8881 87.4462 29.3639 89.1811 27.8228 90.8171C26.1117 92.6336 24.3098 94.4887 23.4317 97.0561C23.3253 97.3672 22.9181 97.1562 23.0244 96.8456C24.5522 92.3787 28.5935 90.2049 30.7641 86.2727C31.7769 84.4378 32.3223 82.2354 31.6963 80.1043C31.1489 78.2408 29.9611 76.7595 28.9589 75.2177C27.9066 73.5988 27.1409 71.8672 26.8411 69.849C26.5343 67.7846 26.6629 65.6531 26.9636 63.5987C27.6751 58.946 29.0087 54.4528 30.9154 50.2838C33.069 45.5117 35.9058 41.205 39.303 37.5499C39.5134 37.3238 39.7727 37.7471 39.5637 37.9717Z" fill="white"/>
<path d="M27.9137 59.7552C26.5766 59.21 25.4489 58.1275 24.7322 56.7011C24.0154 55.2746 23.7563 53.5971 24.0009 51.9681C24.0514 51.6387 24.4921 51.7148 24.4416 52.0446C24.2114 53.5611 24.4529 55.1237 25.1227 56.4504C25.7924 57.7771 26.8463 58.7806 28.094 59.2796C28.365 59.3885 28.1832 59.8634 27.9137 59.7552Z" fill="white"/>
<path d="M28.6054 74.0094C31.2242 72.5678 33.2815 70.0266 34.3671 66.8924C34.4744 66.5817 34.8816 66.7926 34.7744 67.1029C33.6395 70.3619 31.4939 73.0014 28.7659 74.4946C28.5058 74.6367 28.3467 74.1508 28.6054 74.0094Z" fill="white"/>
<path d="M33.4395 46.0492C33.9192 46.386 34.4631 46.5785 35.0222 46.6092C35.5814 46.64 36.1383 46.508 36.643 46.2253C36.9015 46.0794 37.0603 46.5655 36.8036 46.7105C36.2447 47.0198 35.6295 47.1646 35.0116 47.1322C34.3938 47.0999 33.7921 46.8913 33.2592 46.5248C33.2065 46.4952 33.1655 46.4432 33.1444 46.3795C33.1233 46.3158 33.1238 46.2451 33.1457 46.1817C33.1699 46.1189 33.2143 46.0697 33.2693 46.0449C33.3243 46.0201 33.3855 46.0216 33.4395 46.0492Z" fill="white"/>
<path d="M89.2285 31.8998L91.9503 34.6417L95.7583 38.4748L97.4402 28.4262L97.6161 27.3812L97.7546 26.552L93.8961 18.7036L90.6796 18.9193L90.4597 18.9347L90.4553 18.9912L90.4047 19.5175L89.7452 26.4442L89.7298 26.611L89.2285 31.8998Z" fill="#E6E6E6"/>
<path d="M107.019 100.621H109.714L110.997 88.4805H107.019L107.019 100.621Z" fill="#FFB6B6"/>
<path d="M78.8774 100.878H81.5728L82.8553 88.7373H78.877L78.8774 100.878Z" fill="#FFB6B6"/>
<path d="M76.7227 95.5314L83.9779 96.8151L94.5332 55.1008L105.744 97.0718L113.878 95.7881L103.325 47.0085V43.1575L101.896 37.381L102.046 35.8175L103.086 24.8831L103.536 20.1412L103.566 19.835C103.59 19.5779 103.532 19.3194 103.402 19.1098C103.272 18.9001 103.08 18.7544 102.864 18.701L99.4778 17.8691H93.9449L90.6801 18.9192L90.4558 18.9911L90.3547 19.0244L90.4052 19.5174L91.1703 27.0089L91.2121 27.4197L91.9508 34.6416L92.1135 36.2257C85.7377 41.6171 85.5178 47.0085 85.5178 47.0085L76.7227 95.5314Z" fill="#2F2E41"/>
<path d="M97.3799 14.6216C100.362 14.6216 102.78 11.7984 102.78 8.31592C102.78 4.83339 100.362 2.01025 97.3799 2.01025C94.3976 2.01025 91.98 4.83339 91.98 8.31592C91.98 11.7984 94.3976 14.6216 97.3799 14.6216Z" fill="#FFB6B6"/>
<path d="M91.7084 34.7766L91.5088 36.5586L102.191 38.1899L102.39 36.408L91.7084 34.7766Z" fill="#C80000"/>
<path d="M41.2278 103.659H18.7691C18.3675 103.659 17.9825 103.472 17.6985 103.141C17.4145 102.809 17.2548 102.359 17.2544 101.89V85.5394C17.2559 83.9712 17.7901 82.4677 18.7397 81.3589C19.6893 80.25 20.9768 79.6263 22.3198 79.6245H41.2278C41.6294 79.6251 42.0144 79.8116 42.2983 80.1432C42.5823 80.4748 42.7421 80.9244 42.7425 81.3933V101.89C42.7421 102.359 42.5824 102.809 42.2984 103.141C42.0144 103.472 41.6294 103.659 41.2278 103.659ZM22.3198 80.138C21.0934 80.1396 19.9177 80.7092 19.0505 81.7218C18.1833 82.7344 17.6955 84.1074 17.6941 85.5394V101.89C17.6944 102.223 17.8078 102.542 18.0093 102.778C18.2108 103.013 18.4841 103.145 18.7691 103.146H41.2278C41.5128 103.145 41.7861 103.013 41.9876 102.778C42.1891 102.542 42.3025 102.223 42.3028 101.89V81.3933C42.3025 81.0605 42.1891 80.7414 41.9876 80.5061C41.7861 80.2707 41.5128 80.1383 41.2278 80.138H22.3198Z" fill="#3F3D56"/>
<path d="M23.0629 80.7876C21.8301 80.7892 20.6482 81.3618 19.7765 82.3797C18.9048 83.3977 18.4145 84.7778 18.4131 86.2174V101.212C18.4134 101.552 18.5294 101.879 18.7354 102.119C18.9415 102.36 19.2209 102.495 19.5124 102.496H40.485C40.7764 102.495 41.0558 102.36 41.2619 102.119C41.468 101.879 41.5839 101.552 41.5842 101.212V82.0713C41.5839 81.7309 41.468 81.4047 41.2619 81.164C41.0558 80.9234 40.7764 80.788 40.485 80.7876H23.0629Z" fill="#C80000"/>
<path d="M31.6143 85.6852H28.4998C28.3541 85.685 28.2144 85.6173 28.1114 85.497C28.0083 85.3767 27.9503 85.2135 27.9502 85.0434V79.1187H32.164V85.0434C32.1638 85.2135 32.1059 85.3767 32.0028 85.497C31.8998 85.6173 31.76 85.685 31.6143 85.6852Z" fill="#3F3D56"/>
<path d="M156.341 74.0361L157.303 71.0423L157.337 71.0193L165.085 65.8497C165.168 65.7942 165.258 65.7542 165.352 65.7311C165.568 65.6781 165.793 65.717 165.986 65.841C166.179 65.9649 166.328 66.1656 166.406 66.4067C166.483 66.6478 166.484 66.9133 166.408 67.1551C166.333 67.3969 166.185 67.5991 165.993 67.7248L156.341 74.0361Z" fill="#3F3D56"/>
<path d="M127.851 74.0362L118.201 67.7253C118.008 67.5995 117.861 67.3974 117.785 67.1555C117.709 66.9136 117.71 66.648 117.788 66.4069C117.865 66.1657 118.014 65.965 118.208 65.841C118.401 65.717 118.626 65.6781 118.842 65.7311C118.936 65.7542 119.026 65.7942 119.109 65.8497L126.891 71.0423L127.851 74.0362Z" fill="#3F3D56"/>
<path d="M157.111 74.4079H127.082L124.556 60.6436H159.637L157.111 74.4079Z" fill="#3F3D56"/>
<path d="M158.1 73.3242H126.093L123.891 61.6115C123.824 61.2549 123.827 60.8854 123.898 60.5301C123.97 60.1747 124.108 59.8426 124.304 59.5582C124.5 59.2738 124.748 59.0443 125.03 58.8866C125.312 58.7289 125.621 58.647 125.933 58.647H158.26C158.573 58.647 158.881 58.7289 159.163 58.8866C159.445 59.0443 159.693 59.2738 159.889 59.5582C160.085 59.8426 160.224 60.1747 160.295 60.5301C160.367 60.8854 160.369 61.2549 160.302 61.6115L158.1 73.3242ZM126.447 72.8108H157.747L159.872 61.5011C159.925 61.2196 159.924 60.9278 159.867 60.6473C159.811 60.3667 159.701 60.1044 159.547 59.8798C159.392 59.6552 159.196 59.474 158.973 59.3495C158.751 59.225 158.507 59.1604 158.26 59.1604H125.933C125.686 59.1604 125.443 59.2251 125.22 59.3496C124.997 59.4741 124.801 59.6553 124.647 59.88C124.492 60.1046 124.382 60.3668 124.326 60.6474C124.27 60.928 124.268 61.2199 124.321 61.5014L126.447 72.8108Z" fill="#3F3D56"/>
<path opacity="0.1" d="M157.111 74.4079H127.082L124.556 60.6436H159.637L157.111 74.4079Z" fill="black"/>
<path d="M156.82 103.698H127.373C126.973 103.697 126.59 103.512 126.308 103.182C126.026 102.852 125.867 102.405 125.866 101.939V72.5361H158.327V101.939C158.327 102.405 158.168 102.852 157.885 103.182C157.603 103.512 157.22 103.697 156.82 103.698ZM126.306 73.0496V101.939C126.306 102.269 126.419 102.586 126.619 102.819C126.819 103.053 127.09 103.184 127.373 103.184H156.82C157.103 103.184 157.374 103.053 157.574 102.819C157.774 102.586 157.887 102.269 157.887 101.939V73.0496H126.306Z" fill="#3F3D56"/>
<path d="M127.052 73.7168V101.105C127.052 101.479 127.18 101.838 127.406 102.103C127.633 102.367 127.94 102.516 128.261 102.517H155.933C156.253 102.516 156.56 102.367 156.787 102.103C157.014 101.838 157.141 101.479 157.142 101.105V73.7168H127.052Z" fill="#3F3D56"/>
<path d="M159.747 60.7722H124.446V60.6439C124.447 60.2064 124.596 59.7869 124.861 59.4775C125.126 59.1682 125.485 58.9942 125.859 58.9937H158.334C158.708 58.9941 159.068 59.1682 159.332 59.4775C159.597 59.7869 159.746 60.2063 159.747 60.6439V60.7722Z" fill="#C80000"/>
<path d="M48.7655 85.4902C47.6822 85.4917 46.6435 85.9948 45.8775 86.8894C45.1114 87.7839 44.6805 88.9968 44.6792 90.2619V101.212C44.6795 101.553 44.7955 101.879 45.0016 102.12C45.2076 102.36 45.487 102.496 45.7785 102.496H61.7548C62.0462 102.496 62.3257 102.36 62.5317 102.12C62.7378 101.879 62.8537 101.553 62.8541 101.212V86.7739C62.8537 86.4336 62.7378 86.1073 62.5317 85.8667C62.3257 85.626 62.0462 85.4906 61.7548 85.4902H48.7655Z" fill="#3F3D56"/>
<path d="M65.335 84.3951H49.1875C48.7778 84.3946 48.385 84.2043 48.0953 83.8661C47.8056 83.5278 47.6426 83.0691 47.6421 82.5907V66.7632C47.6426 66.2847 47.8055 65.826 48.0952 65.4877C48.385 65.1493 48.7778 64.959 49.1875 64.9585H63.597C64.8296 64.9601 66.0113 65.5326 66.8829 66.5503C67.7544 67.5681 68.2447 68.948 68.246 70.3873V80.9959C68.2451 81.8971 67.9381 82.7611 67.3924 83.3984C66.8467 84.0357 66.1067 84.3941 65.335 84.3951ZM49.1875 65.472C48.8944 65.4724 48.6133 65.6085 48.406 65.8506C48.1987 66.0926 48.0821 66.4208 48.0818 66.7632V82.5907C48.0822 82.933 48.1988 83.2611 48.4061 83.5031C48.6134 83.7452 48.8944 83.8813 49.1875 83.8816H65.335C65.9902 83.8808 66.6183 83.5765 67.0817 83.0355C67.545 82.4945 67.8056 81.761 67.8063 80.9959V70.3873C67.805 69.0841 67.3611 67.8348 66.572 66.9133C65.7829 65.9918 64.713 65.4735 63.597 65.472L49.1875 65.472Z" fill="#3F3D56"/>
<path d="M62.5233 103.712H45.0103C44.6006 103.711 44.2078 103.521 43.9181 103.182C43.6283 102.844 43.4653 102.386 43.4648 101.907V89.5678C43.4662 88.1645 43.9441 86.8192 44.7938 85.8269C45.6436 84.8346 46.7956 84.2765 47.9973 84.2749H62.5233C62.9331 84.2754 63.3259 84.4657 63.6156 84.8041C63.9053 85.1424 64.0683 85.6011 64.0688 86.0796V101.907C64.0683 102.386 63.9053 102.844 63.6156 103.182C63.3258 103.521 62.933 103.711 62.5233 103.712ZM47.9973 84.7884C46.9122 84.7898 45.8719 85.2939 45.1047 86.1899C44.3374 87.0859 43.9058 88.3007 43.9046 89.5678V101.907C43.9049 102.249 44.0216 102.578 44.2288 102.82C44.4361 103.062 44.7172 103.198 45.0103 103.198H62.5233C62.8165 103.198 63.0975 103.062 63.3048 102.82C63.5121 102.578 63.6287 102.249 63.6291 101.907V86.0796C63.6287 85.7372 63.5121 85.409 63.3048 85.167C63.0976 84.9249 62.8165 84.7888 62.5233 84.7884H47.9973Z" fill="#3F3D56"/>
<path d="M49.9557 66.1738C49.6643 66.1742 49.3849 66.3096 49.1788 66.5502C48.9727 66.7909 48.8568 67.1172 48.8564 67.4575V81.8961C48.8568 82.2364 48.9727 82.5627 49.1788 82.8033C49.3849 83.044 49.6643 83.1793 49.9557 83.1797H64.5664C65.22 83.1789 65.8465 82.8753 66.3086 82.3357C66.7707 81.7961 67.0306 81.0644 67.0313 80.3013V71.0816C67.0301 69.7804 66.5869 68.5329 65.7989 67.6129C65.011 66.6928 63.9427 66.1753 62.8284 66.1738H49.9557Z" fill="#E6E6E6"/>
<path d="M59.1247 69.9929H56.8553C56.7096 69.9928 56.5699 69.9251 56.4668 69.8048C56.3638 69.6844 56.3058 69.5213 56.3057 69.3511V64.7617H59.6744V69.3511C59.6742 69.5213 59.6163 69.6844 59.5132 69.8048C59.4102 69.9251 59.2705 69.9928 59.1247 69.9929Z" fill="#3F3D56"/>
<path d="M106.908 98.0456L110.132 97.8208V99.4341L113.198 101.906C113.349 102.029 113.463 102.204 113.523 102.407C113.583 102.61 113.586 102.83 113.531 103.036C113.477 103.241 113.367 103.42 113.219 103.547C113.071 103.675 112.891 103.743 112.707 103.743H108.868L108.207 102.148L107.948 103.743H106.501L106.908 98.0456Z" fill="#2F2E41"/>
<path d="M78.766 98.0456L81.9905 97.8208V99.4341L85.0561 101.906C85.2076 102.029 85.3216 102.204 85.3816 102.407C85.4416 102.61 85.4444 102.83 85.3897 103.036C85.3349 103.241 85.2254 103.42 85.0772 103.547C84.929 103.675 84.7498 103.743 84.5658 103.743H80.7269L80.0652 102.148L79.8068 103.743H78.3594L78.766 98.0456Z" fill="#2F2E41"/>
<path d="M24.1681 98.7439H18.193C18.1347 98.7439 18.0788 98.7169 18.0375 98.6687C17.9963 98.6206 17.9731 98.5553 17.9731 98.4872C17.9731 98.4191 17.9963 98.3538 18.0375 98.3057C18.0788 98.2575 18.1347 98.2305 18.193 98.2305H24.1681C24.2264 98.2305 24.2823 98.2575 24.3236 98.3057C24.3648 98.3538 24.388 98.4191 24.388 98.4872C24.388 98.5553 24.3648 98.6206 24.3236 98.6687C24.2823 98.7169 24.2264 98.7439 24.1681 98.7439Z" fill="#3F3D56"/>
<path d="M50.5509 98.2303H44.5758C44.5175 98.2303 44.4616 98.2032 44.4204 98.1551C44.3791 98.1069 44.356 98.0416 44.356 97.9735C44.356 97.9054 44.3791 97.8401 44.4204 97.792C44.4616 97.7438 44.5175 97.7168 44.5758 97.7168H50.5509C50.6092 97.7168 50.6651 97.7438 50.7064 97.792C50.7476 97.8401 50.7708 97.9054 50.7708 97.9735C50.7708 98.0416 50.7476 98.1069 50.7064 98.1551C50.6651 98.2032 50.6092 98.2303 50.5509 98.2303Z" fill="#C80000"/>
<path d="M133.217 96.2981H127.242C127.184 96.2981 127.128 96.2711 127.086 96.2229C127.045 96.1748 127.022 96.1095 127.022 96.0414C127.022 95.9733 127.045 95.908 127.086 95.8599C127.128 95.8117 127.184 95.7847 127.242 95.7847H133.217C133.275 95.7847 133.331 95.8117 133.372 95.8599C133.414 95.908 133.437 95.9733 133.437 96.0414C133.437 96.1095 133.414 96.1748 133.372 96.2229C133.331 96.2711 133.275 96.2981 133.217 96.2981Z" fill="#C80000"/>
<path d="M135.635 93.7308H129.66C129.602 93.7308 129.546 93.7037 129.505 93.6556C129.464 93.6074 129.44 93.5421 129.44 93.474C129.44 93.4059 129.464 93.3406 129.505 93.2925C129.546 93.2443 129.602 93.2173 129.66 93.2173H135.635C135.694 93.2173 135.75 93.2443 135.791 93.2925C135.832 93.3406 135.855 93.4059 135.855 93.474C135.855 93.5421 135.832 93.6074 135.791 93.6556C135.75 93.7037 135.694 93.7308 135.635 93.7308Z" fill="#C80000"/>
<path d="M54.7282 79.7454H48.7531C48.6948 79.7454 48.6388 79.7184 48.5976 79.6702C48.5564 79.6221 48.5332 79.5568 48.5332 79.4887C48.5332 79.4206 48.5564 79.3553 48.5976 79.3071C48.6388 79.259 48.6948 79.2319 48.7531 79.2319H54.7282C54.7865 79.2319 54.8424 79.259 54.8836 79.3071C54.9249 79.3553 54.948 79.4206 54.948 79.4887C54.948 79.5568 54.9249 79.6221 54.8836 79.6702C54.8424 79.7184 54.7865 79.7454 54.7282 79.7454Z" fill="#3F3D56"/>
<path d="M54.7282 77.6917H48.7531C48.6948 77.6917 48.6388 77.6646 48.5976 77.6165C48.5564 77.5683 48.5332 77.503 48.5332 77.435C48.5332 77.3669 48.5564 77.3016 48.5976 77.2534C48.6388 77.2053 48.6948 77.1782 48.7531 77.1782H54.7282C54.7865 77.1782 54.8424 77.2053 54.8836 77.2534C54.9249 77.3016 54.948 77.3669 54.948 77.435C54.948 77.503 54.9249 77.5683 54.8836 77.6165C54.8424 77.6646 54.7865 77.6917 54.7282 77.6917Z" fill="#3F3D56"/>
<path d="M143.319 65.0349H141.05C140.904 65.0348 140.764 64.9671 140.661 64.8467C140.558 64.7264 140.5 64.5633 140.5 64.3931V59.8037H143.869V64.3931C143.869 64.5633 143.811 64.7264 143.708 64.8467C143.604 64.9671 143.465 65.0348 143.319 65.0349Z" fill="#C80000"/>
<path d="M168.35 103.08H0.924805V104H168.35V103.08Z" fill="#CCCCCC"/>
<path d="M54.9475 89.1922H52.6781C52.5323 89.192 52.3926 89.1243 52.2896 89.004C52.1865 88.8836 52.1286 88.7205 52.1284 88.5503V83.9609H55.4971V88.5503C55.497 88.7205 55.439 88.8836 55.336 89.004C55.2329 89.1243 55.0932 89.192 54.9475 89.1922Z" fill="#C80000"/>
<path d="M121.69 44.0555C121.727 44.0555 121.764 44.0332 121.79 43.9933C121.817 43.9535 121.832 43.8994 121.833 43.8427L121.976 20.4388C121.976 20.3819 121.961 20.3271 121.935 20.2865C121.908 20.2458 121.872 20.2227 121.834 20.2222H121.833C121.795 20.2222 121.759 20.2445 121.732 20.2844C121.705 20.3242 121.69 20.3783 121.69 20.4349L121.547 43.8388C121.547 43.8958 121.561 43.9506 121.588 43.9912C121.614 44.0318 121.651 44.055 121.688 44.0555H121.69Z" fill="#3F3D56"/>
<path d="M118.715 34.1418C118.629 34.2544 118.551 34.3737 118.482 34.4987L106.52 35.5643L104.943 33.0109L100.942 35.1921L103.314 40.0187C103.505 40.4086 103.812 40.717 104.188 40.8975C104.565 41.0781 104.99 41.121 105.4 41.0199L118.774 37.726C119.122 38.1191 119.577 38.3854 120.079 38.4895C120.58 38.5935 121.106 38.5305 121.584 38.3086C122.062 38.0867 122.472 37.7166 122.757 37.2475C123.042 36.7784 123.19 36.2325 123.181 35.6824C123.172 35.1324 123.007 34.6042 122.706 34.1683C122.406 33.7323 121.986 33.4092 121.501 33.242C121.016 33.0747 120.49 33.0712 119.992 33.2319C119.495 33.3926 119.049 33.7099 118.716 34.1417L118.715 34.1418Z" fill="#FFB6B6"/>
<path d="M100.468 20.3079L102.336 18.6391C102.842 18.4153 103.534 19.0512 103.655 19.6661L106.294 32.2461L100.797 36.8673L100.028 35.4553L100.468 20.3079Z" fill="#E6E6E6"/>
<path d="M101.518 3.09506C102.528 2.95052 103.636 3.0527 104.423 3.80545C105.21 4.55819 105.464 6.12325 104.719 6.93197C104.059 7.648 103.028 7.47958 102.144 7.68317C101.382 7.88239 100.7 8.37411 100.207 9.07962C99.7131 9.78513 99.4364 10.6636 99.421 11.5745C99.4342 14.1865 101.581 16.1647 101.967 18.7374C102.23 20.4935 101.595 22.3414 100.499 23.582C99.4026 24.8225 97.8952 25.4929 96.3765 25.6744C94.8577 25.8559 93.322 25.5786 91.8461 25.1229C90.364 24.6654 88.9048 24.0161 87.6613 22.9694C86.4178 21.9227 85.3984 20.4467 84.9991 18.7184C84.5998 16.9901 84.8865 15.0083 85.9155 13.6813C87.0937 12.1617 89.0537 11.6392 90.0729 9.9699C91.2162 8.09882 90.7925 5.43443 91.7172 3.40597C92.3346 2.05169 93.5036 1.12796 94.7495 0.641194C95.9955 0.154425 97.326 0.0584059 98.6392 0.0114234C99.3296 -0.01425 100.041 -0.0216937 100.684 0.272268C101.327 0.566229 101.893 1.23579 101.926 2.04142C101.958 2.84706 101.518 3.09506 101.518 3.09506Z" fill="#2F2E41"/>
</g>
<defs>
<clipPath id="clip0_4020_1098">
<rect width="185" height="104" fill="white"/>
</clipPath>
</defs>
</svg>
