<svg width="250" height="205" viewBox="0 0 250 205" fill="none" xmlns="http://www.w3.org/2000/svg">
<g clip-path="url(#clip0_1146_1567)">
<path d="M12.0636 69.8578L0.00922757 63.4965C-0.153373 56.6905 1.45969 49.9503 4.70834 43.861C7.48753 55.6795 22.1135 61.3024 28.8617 71.6215C30.9401 74.855 32.2152 78.4853 32.5926 82.2434C32.9699 86.0014 32.4399 89.7908 31.0416 93.3308L31.8344 102.494C25.6043 100.746 19.8528 97.7527 14.9762 93.7212C10.0995 89.6897 6.21364 84.7156 3.58633 79.1415C2.14548 76.0008 1.13249 72.7026 0.571287 69.3247C6.19156 69.8851 12.0636 69.8578 12.0636 69.8578Z" fill="#F2F2F2"/>
<path d="M228.76 185.587L229.13 177.8C232.983 175.87 237.281 174.851 241.65 174.83C235.637 179.437 236.389 188.316 232.312 194.51C231.024 196.433 229.292 198.06 227.242 199.27C225.193 200.48 222.879 201.242 220.472 201.501L215.44 204.387C214.749 200.781 214.901 197.077 215.886 193.531C216.87 189.985 218.664 186.68 221.142 183.846C222.55 182.269 224.163 180.864 225.945 179.665C227.15 182.642 228.76 185.587 228.76 185.587Z" fill="#F2F2F2"/>
<path d="M215.795 200.38L211.238 200.38L209.07 183.913L215.795 183.913L215.795 200.38Z" fill="#FFB6B6"/>
<path d="M216.957 204.518L202.265 204.518V204.344C202.265 202.923 202.867 201.56 203.94 200.555C205.012 199.551 206.467 198.986 207.983 198.986L210.667 197.078L215.674 198.986L216.957 198.986L216.957 204.518Z" fill="#2F2E41"/>
<path d="M194.625 200.38L190.069 200.38L187.901 183.913L194.627 183.913L194.625 200.38Z" fill="#FFB6B6"/>
<path d="M195.788 204.518L181.096 204.518V204.344C181.096 202.923 181.698 201.56 182.771 200.555C183.843 199.551 185.298 198.986 186.814 198.986L189.498 197.078L194.506 198.986L195.788 198.986L195.788 204.518Z" fill="#2F2E41"/>
<path d="M192.654 110.355L222.291 111.05C227.92 113.914 228.006 120.114 226.161 127.475C226.161 127.475 226.784 131.85 225.539 133.016C224.294 134.183 223.671 134.183 224.294 136.225C224.916 138.267 221.627 141.601 222.026 141.976C222.426 142.35 223.36 144.392 223.36 144.392L220.247 161.017C220.247 161.017 218.067 189.892 217.445 190.476C216.822 191.059 216.2 190.476 216.822 191.934C217.445 193.393 218.067 192.809 217.445 193.393C216.893 193.95 216.374 194.534 215.888 195.143H208.362C208.362 195.143 207.794 192.226 207.794 191.934C207.794 191.643 207.172 189.892 207.172 189.601C207.172 189.309 207.722 188.794 207.722 188.794C207.912 188.201 208.041 187.592 208.106 186.976C208.106 186.392 209.973 163.934 209.973 163.934L206.238 134.766L197.21 163.35C197.21 163.35 197.21 188.434 196.587 189.017C195.965 189.601 195.965 189.309 196.276 190.476C196.587 191.643 197.833 191.351 196.899 192.226C195.965 193.101 195.653 191.643 195.965 193.101L196.276 194.559L186.937 194.684C186.937 194.684 185.692 192.226 186.314 191.351C186.937 190.476 186.9 190.715 186.14 189.283C185.38 187.851 185.069 187.559 185.38 187.267C185.692 186.976 185.692 185.424 185.692 185.424L187.248 157.517C187.248 157.517 187.559 128.058 187.559 127.183C187.583 126.733 187.494 126.284 187.301 125.871V124.683L188.493 120.475L192.654 110.355Z" fill="#2F2E41"/>
<path d="M210.458 52.6152C215.543 52.6152 219.666 48.7524 219.666 43.9874C219.666 39.2224 215.543 35.3596 210.458 35.3596C205.372 35.3596 201.249 39.2224 201.249 43.9874C201.249 48.7524 205.372 52.6152 210.458 52.6152Z" fill="#FFB6B6"/>
<path d="M205.853 58.3177C203.869 59.4227 202.682 61.453 202.001 63.5191C200.74 67.3441 199.981 71.2989 199.74 75.296L199.021 87.2626L190.109 112.743C197.833 118.866 226.863 114.134 226.863 114.134C226.863 114.134 227.755 113.856 226.863 113.021C225.972 112.186 225.105 112.926 225.996 112.091C226.887 111.256 226.273 112.186 225.976 111.351C225.679 110.516 225.976 111.073 226.273 110.795C226.57 110.516 223.973 108.011 223.973 108.011L226.35 93.3855L229.32 63.8839C225.755 59.7092 218.587 57.2482 218.587 57.2482L216.734 54.1243L207.472 54.8185L205.853 58.3177Z" fill="#E6E6E6"/>
<path d="M204.59 38.9239C204.947 38.9265 205.301 38.9701 205.646 39.0537C206.326 39.2069 207.017 39.3154 207.713 39.3785C209.845 39.5664 211.848 40.4182 213.403 41.7978C214.957 43.1775 215.973 45.0054 216.289 46.9897C216.824 46.5526 218.042 45.7485 219.04 46.4958C219.055 46.5077 219.064 46.5138 219.099 46.4982C219.761 46.2036 220.938 42.5777 220.974 39.3851C220.992 37.6905 220.708 35.5267 219.245 34.8415L219.168 34.8054L219.148 34.7269C219.05 34.3458 217.958 33.6951 216.061 33.1887C212.612 32.2684 207.472 30.4756 204.577 33.114C204.358 34.0034 203.645 35.9069 202.925 36.1226C202.128 36.3615 201.439 36.5675 201.331 37.4838C201.24 38.7877 201.247 40.0959 201.351 41.3989C201.621 40.6016 202.151 39.9037 202.867 39.4035C203.376 39.0826 203.977 38.9152 204.59 38.9239Z" fill="#2F2E41"/>
<path d="M187.451 86.5963L202.493 77.5704L194.917 68.1343L187.435 76.7564L164.126 78.0958C163.513 77.528 162.737 77.1396 161.892 76.9779C161.047 76.8163 160.171 76.8884 159.369 77.1854C158.567 77.4825 157.875 77.9916 157.377 78.6508C156.879 79.31 156.596 80.0908 156.564 80.8979C156.531 81.705 156.75 82.5036 157.193 83.1964C157.636 83.8891 158.285 84.446 159.06 84.7991C159.836 85.1523 160.704 85.2865 161.559 85.1853C162.415 85.0842 163.22 84.752 163.877 84.2294L187.451 86.5963Z" fill="#FFB6B6"/>
<path d="M216.453 64.9721C217.326 69.9224 200.84 79.3753 200.84 79.3753C200.839 78.2134 190.999 86.9851 190.555 86.0215C189.293 83.2827 188.405 76.7958 186.641 75.7575C185.633 75.1637 192.717 69.5857 192.717 69.5857C192.717 69.5857 196.425 66.0856 201.291 61.6707C202.642 60.3986 204.315 59.4675 206.153 58.964C207.992 58.4605 209.936 58.401 211.806 58.791C211.806 58.791 215.58 60.0218 216.453 64.9721Z" fill="#E6E6E6"/>
<path d="M247.458 88.9656L237.508 75.0663L227.6 82.363L236.958 89.1881L238.881 110.994C238.288 111.581 237.89 112.316 237.736 113.111C237.581 113.905 237.677 114.725 238.011 115.469C238.344 116.214 238.902 116.852 239.616 117.304C240.33 117.757 241.17 118.005 242.031 118.019C242.893 118.032 243.741 117.81 244.471 117.381C245.201 116.951 245.781 116.331 246.141 115.597C246.502 114.864 246.627 114.047 246.501 113.248C246.375 112.449 246.003 111.702 245.432 111.097L247.458 88.9656Z" fill="#FFB6B6"/>
<path d="M223.77 62.2552C229.033 61.3326 239.47 76.5759 239.47 76.5759C238.23 76.6008 247.798 85.6325 246.779 86.0689C243.884 87.3094 236.98 88.2781 235.91 89.9524C235.298 90.9099 229.195 84.3921 229.195 84.3921C229.195 84.3921 225.382 80.9927 220.568 76.5278C219.182 75.2892 218.153 73.7421 217.577 72.0307C217 70.3192 216.896 68.499 217.272 66.7394C217.272 66.7394 218.506 63.1778 223.77 62.2552Z" fill="#E6E6E6"/>
<path d="M250 204.587C250 204.641 249.989 204.695 249.967 204.745C249.945 204.795 249.912 204.841 249.871 204.879C249.83 204.918 249.782 204.948 249.728 204.969C249.675 204.99 249.617 205 249.559 205H145.72C145.603 205 145.491 204.956 145.408 204.879C145.326 204.802 145.279 204.696 145.279 204.587C145.279 204.477 145.326 204.372 145.408 204.295C145.491 204.217 145.603 204.174 145.72 204.174H249.559C249.617 204.174 249.675 204.184 249.728 204.205C249.782 204.226 249.83 204.256 249.871 204.294C249.912 204.333 249.945 204.378 249.967 204.429C249.989 204.479 250 204.533 250 204.587Z" fill="#CCCCCC"/>
<path d="M153.805 79.415H27.7818C25.8129 79.4171 23.9253 80.1509 22.5331 81.4553C21.1408 82.7597 20.3577 84.5283 20.3555 86.373V159.886C20.3577 161.731 21.1408 163.499 22.5331 164.804C23.9253 166.108 25.8129 166.842 27.7818 166.844H153.805C155.774 166.842 157.661 166.108 159.053 164.804C160.446 163.499 161.229 161.731 161.231 159.886V86.373C161.229 84.5283 160.446 82.7597 159.053 81.4553C157.661 80.1508 155.774 79.4171 153.805 79.415Z" fill="#465DA3"/>
<path d="M153.805 79.415H27.7818C25.8129 79.4171 23.9253 80.1509 22.5331 81.4553C21.1408 82.7597 20.3577 84.5283 20.3555 86.373V159.886C20.3577 161.731 21.1408 163.499 22.5331 164.804C23.9253 166.108 25.8129 166.842 27.7818 166.844H153.805C155.774 166.842 157.661 166.108 159.053 164.804C160.446 163.499 161.229 161.731 161.231 159.886V86.373C161.229 84.5283 160.446 82.7597 159.053 81.4553C157.661 80.1508 155.774 79.4171 153.805 79.415ZM156.242 132.22C156.212 139.704 153.052 146.879 147.441 152.206C141.83 157.532 134.214 160.586 126.227 160.712C113.44 160.868 133.302 160.929 117.88 160.929C82.6135 160.929 45.8408 160.613 32.1205 160.408C30.3153 160.373 28.5962 159.679 27.3302 158.472C26.0642 157.266 25.3517 155.644 25.3447 153.953V86.3785C25.3454 85.7727 25.6022 85.1918 26.0588 84.7629C26.5154 84.3341 27.1348 84.0921 27.7813 84.0899H153.8C154.446 84.0906 155.066 84.3311 155.524 84.7589C155.981 85.1866 156.239 85.7667 156.242 86.3724V132.22Z" fill="#3F3D56"/>
<path d="M138.292 37.084H42.2754C41.4258 37.0851 40.5974 37.3319 39.9031 37.7906C39.2088 38.2493 38.6826 38.8976 38.3962 39.6469L23.5671 78.6268C23.3458 79.2086 23.2768 79.8317 23.3659 80.4437C23.455 81.0557 23.6996 81.6387 24.0791 82.1438C24.4587 82.6488 24.9621 83.0611 25.547 83.346C26.1319 83.6308 26.7813 83.78 27.4406 83.7809L156.214 83.995H156.22C156.901 83.995 157.572 83.8365 158.172 83.5338C158.772 83.2311 159.283 82.7936 159.658 82.2605C160.033 81.7275 160.261 81.1155 160.322 80.4795C160.382 79.8436 160.273 79.2034 160.005 78.6165L142.077 39.4226C141.76 38.7281 141.232 38.1363 140.559 37.7205C139.886 37.3047 139.098 37.0834 138.292 37.084Z" fill="#3F3D56"/>
<path d="M160.339 79.4631C160.338 79.9857 160.225 80.5029 160.005 80.9834L142.078 111.154C141.759 111.847 141.23 112.437 140.558 112.852C139.885 113.267 139.097 113.489 138.292 113.49H42.2772C41.4273 113.489 40.5985 113.243 39.9036 112.784C39.2088 112.326 38.6818 111.678 38.3946 110.928L23.5684 80.973C23.3867 80.4958 23.3071 79.9896 23.3343 79.4836C23.3614 78.9775 23.4948 78.4814 23.7267 78.0237C23.9586 77.5659 24.2845 77.1555 24.6858 76.8158C25.0871 76.4761 25.5559 76.2139 26.0654 76.0441C26.5062 75.895 26.9712 75.8186 27.4399 75.8185L43.17 75.7907L49.5903 75.7803L134.072 75.6415L140.496 75.631L156.215 75.6033H156.219C157.312 75.6034 158.359 76.0102 159.132 76.734C159.904 77.4578 160.338 78.4394 160.339 79.4631Z" fill="#3F3D56"/>
<path d="M37.2297 134.558C39.1337 134.558 65.2794 136.055 65.2794 137.839C65.2794 139.623 39.1336 141.018 37.2297 141.018C36.3154 141.018 35.4385 140.678 34.792 140.072C34.1454 139.466 33.7822 138.645 33.7822 137.788C33.7822 136.931 34.1454 136.11 34.792 135.504C35.4385 134.898 36.3154 134.558 37.2297 134.558Z" fill="#3F3D56"/>
<path d="M132.312 13.3707H51.3536C49.1839 13.3731 47.1038 14.1817 45.5696 15.6191C44.0354 17.0565 43.1724 19.0054 43.1699 21.0383V113.49H138.292C139.073 113.492 139.838 113.284 140.496 112.889V21.0383C140.494 19.0054 139.631 17.0565 138.096 15.6191C136.562 14.1817 134.482 13.3731 132.312 13.3707Z" fill="#E6E6E6"/>
<path d="M101.411 19.5873H57.0437C55.0681 19.5891 53.1738 20.325 51.7765 21.6335C50.3791 22.9421 49.5927 24.7165 49.5898 26.5676V113.49H134.072V50.1881C134.062 42.0751 130.618 34.2971 124.495 28.5604C118.372 22.8236 110.07 19.5966 101.411 19.5873Z" fill="white"/>
<path d="M119.68 105.77H63.9833C63.5018 105.77 63.0401 105.949 62.6997 106.268C62.3592 106.587 62.168 107.02 62.168 107.471C62.168 107.922 62.3592 108.355 62.6997 108.674C63.0401 108.993 63.5018 109.172 63.9833 109.172H119.68C120.161 109.172 120.623 108.993 120.963 108.674C121.304 108.355 121.495 107.922 121.495 107.471C121.495 107.02 121.304 106.587 120.963 106.268C120.623 105.949 120.161 105.77 119.68 105.77Z" fill="#E4E4E4"/>
<path d="M119.68 99.0432H63.9832C63.5012 99.0432 63.039 99.2226 62.6982 99.5419C62.3575 99.8612 62.166 100.294 62.166 100.746C62.166 101.197 62.3575 101.63 62.6982 101.95C63.039 102.269 63.5012 102.448 63.9832 102.448H119.68C120.162 102.448 120.624 102.269 120.965 101.95C121.305 101.63 121.497 101.197 121.497 100.746C121.497 100.294 121.305 99.8612 120.965 99.5419C120.624 99.2226 120.162 99.0432 119.68 99.0432Z" fill="#E4E4E4"/>
<path d="M88.1268 92.3198H63.9833C63.5018 92.3198 63.0401 92.499 62.6997 92.818C62.3592 93.1369 62.168 93.5696 62.168 94.0206C62.168 94.4717 62.3592 94.9043 62.6997 95.2233C63.0401 95.5423 63.5018 95.7215 63.9833 95.7215H88.1268C88.6082 95.7215 89.07 95.5423 89.4104 95.2233C89.7509 94.9043 89.9421 94.4717 89.9421 94.0206C89.9421 93.5696 89.7509 93.1369 89.4104 92.818C89.07 92.499 88.6082 92.3198 88.1268 92.3198Z" fill="#E4E4E4"/>
<path d="M119.68 78.2343H63.9832C63.5012 78.2343 63.039 78.4136 62.6982 78.7329C62.3575 79.0522 62.166 79.4853 62.166 79.9368C62.166 80.3883 62.3575 80.8214 62.6982 81.1407C63.039 81.46 63.5012 81.6394 63.9832 81.6394H119.68C120.162 81.6394 120.624 81.46 120.965 81.1407C121.305 80.8214 121.497 80.3883 121.497 79.9368C121.497 79.4853 121.305 79.0522 120.965 78.7329C120.624 78.4136 120.162 78.2343 119.68 78.2343Z" fill="#E4E4E4"/>
<path d="M119.68 71.5109H63.9833C63.5018 71.5109 63.0401 71.6901 62.6997 72.009C62.3592 72.328 62.168 72.7606 62.168 73.2117C62.168 73.6628 62.3592 74.0954 62.6997 74.4143C63.0401 74.7333 63.5018 74.9125 63.9833 74.9125H119.68C120.161 74.9125 120.623 74.7333 120.963 74.4143C121.304 74.0954 121.495 73.6628 121.495 73.2117C121.495 72.7606 121.304 72.328 120.963 72.009C120.623 71.6901 120.161 71.5109 119.68 71.5109Z" fill="#E4E4E4"/>
<path d="M88.1267 64.7839H63.9832C63.5012 64.7839 63.039 64.9633 62.6982 65.2826C62.3575 65.6019 62.166 66.0349 62.166 66.4865C62.166 66.938 62.3575 67.3711 62.6982 67.6904C63.039 68.0097 63.5012 68.189 63.9832 68.189H88.1267C88.6086 68.189 89.0709 68.0097 89.4116 67.6904C89.7524 67.3711 89.9439 66.938 89.9439 66.4865C89.9439 66.0349 89.7524 65.6019 89.4116 65.2826C89.0709 64.9633 88.6086 64.7839 88.1267 64.7839Z" fill="#E4E4E4"/>
<path d="M119.68 50.6984H63.9832C63.5012 50.6984 63.039 50.8777 62.6982 51.197C62.3575 51.5163 62.166 51.9494 62.166 52.4009C62.166 52.8525 62.3575 53.2855 62.6982 53.6048C63.039 53.9241 63.5012 54.1035 63.9832 54.1035H119.68C120.162 54.1035 120.624 53.9241 120.965 53.6048C121.305 53.2855 121.497 52.8525 121.497 52.4009C121.497 51.9494 121.305 51.5163 120.965 51.197C120.624 50.8777 120.162 50.6984 119.68 50.6984Z" fill="#465DA3"/>
<path d="M119.68 43.975H63.9832C63.5012 43.975 63.039 44.1544 62.6982 44.4736C62.3575 44.7929 62.166 45.226 62.166 45.6775C62.166 46.1291 62.3575 46.5621 62.6982 46.8814C63.039 47.2007 63.5012 47.3801 63.9832 47.3801H119.68C120.162 47.3801 120.624 47.2007 120.965 46.8814C121.305 46.5621 121.497 46.1291 121.497 45.6775C121.497 45.226 121.305 44.7929 120.965 44.4736C120.624 44.1544 120.162 43.975 119.68 43.975Z" fill="#465DA3"/>
<path d="M88.1267 37.248H63.9832C63.5012 37.248 63.039 37.4274 62.6982 37.7467C62.3575 38.066 62.166 38.4991 62.166 38.9506C62.166 39.4021 62.3575 39.8352 62.6982 40.1545C63.039 40.4738 63.5012 40.6532 63.9832 40.6532H88.1267C88.6086 40.6532 89.0709 40.4738 89.4116 40.1545C89.7524 39.8352 89.9439 39.4021 89.9439 38.9506C89.9439 38.4991 89.7524 38.066 89.4116 37.7467C89.0709 37.4274 88.6086 37.248 88.1267 37.248Z" fill="#465DA3"/>
<path d="M137.461 26.493C145.27 26.493 151.6 20.5624 151.6 13.2465C151.6 5.93067 145.27 0 137.461 0C129.653 0 123.323 5.93067 123.323 13.2465C123.323 20.5624 129.653 26.493 137.461 26.493Z" fill="#465DA3"/>
<path d="M135.532 20.1407C135.288 20.1407 135.047 20.0874 134.829 19.9851C134.61 19.8828 134.42 19.7342 134.274 19.5512L130.417 14.7326C130.292 14.5779 130.201 14.4016 130.15 14.2139C130.098 14.0263 130.086 13.8308 130.115 13.6389C130.144 13.447 130.213 13.2623 130.319 13.0955C130.424 12.9286 130.563 12.7828 130.729 12.6665C130.894 12.5503 131.083 12.4657 131.283 12.4177C131.484 12.3698 131.692 12.3593 131.897 12.387C132.102 12.4147 132.299 12.4799 132.476 12.579C132.654 12.6782 132.809 12.8092 132.933 12.9645L135.456 16.1167L141.938 7.00821C142.169 6.68304 142.529 6.45731 142.938 6.38067C143.347 6.30403 143.772 6.38276 144.119 6.59953C144.466 6.81631 144.707 7.15338 144.788 7.5366C144.87 7.91981 144.786 8.31777 144.555 8.64294L136.841 19.4845C136.701 19.6806 136.513 19.8425 136.293 19.9565C136.073 20.0706 135.827 20.1336 135.576 20.1402C135.561 20.1405 135.546 20.1407 135.532 20.1407Z" fill="white"/>
</g>
<defs>
<clipPath id="clip0_1146_1567">
<rect width="250" height="205" fill="white"/>
</clipPath>
</defs>
</svg>
