<svg width="221" height="197" viewBox="0 0 221 197" fill="none" xmlns="http://www.w3.org/2000/svg">
<g clip-path="url(#clip0_2531_341)">
<path d="M140.3 44.3049H80.7498C79.3928 44.3064 78.0918 44.7993 77.1322 45.6756C76.1726 46.5519 75.6328 47.74 75.6312 48.9792V169.842L74.9487 170.032L60.3402 174.118C59.6478 174.311 58.9 174.245 58.2609 173.934C57.6218 173.624 57.1436 173.095 56.9313 172.463L13.4775 42.8433C13.2661 42.2111 13.3381 41.528 13.6779 40.9443C14.0177 40.3605 14.5974 39.9239 15.2895 39.7302L37.8013 33.4354L103.064 15.193L125.575 8.89823C125.918 8.80194 126.278 8.7683 126.635 8.79922C126.991 8.83014 127.338 8.92502 127.655 9.07842C127.971 9.23183 128.252 9.44075 128.48 9.69323C128.708 9.94572 128.879 10.2368 128.984 10.5498L140.092 43.6816L140.3 44.3049Z" fill="#C80000" fill-opacity="0.45"/>
<path d="M153.294 43.6813L139.907 3.74992C139.685 3.08459 139.321 2.46586 138.836 1.92908C138.351 1.3923 137.756 0.948002 137.083 0.621563C136.41 0.295125 135.673 0.0929451 134.915 0.0265854C134.157 -0.0397744 133.391 0.0309861 132.663 0.234816L101.013 9.0818L35.754 27.3273L4.10389 36.1774C2.63359 36.5897 1.40249 37.5179 0.680812 38.7583C-0.0408646 39.9986 -0.194159 41.4498 0.254584 42.7932L46.0082 179.262C46.3727 180.347 47.1083 181.296 48.1069 181.971C49.1055 182.645 50.3147 183.01 51.5569 183.011C52.1318 183.011 52.7035 182.933 53.2527 182.777L74.9489 176.713L75.6313 176.52V175.869L74.9489 176.059L53.0515 182.182C51.7537 182.544 50.3519 182.42 49.1537 181.839C47.9555 181.257 47.0587 180.266 46.66 179.082L0.909907 42.6093C0.712359 42.0225 0.643508 41.4059 0.707295 40.7947C0.771081 40.1836 0.966247 39.5899 1.28163 39.0478C1.59701 38.5056 2.02641 38.0256 2.54523 37.6352C3.06406 37.2448 3.66211 36.9517 4.30515 36.7726L35.9553 27.9225L101.214 9.68012L132.864 0.830022C133.352 0.694092 133.859 0.624784 134.369 0.62435C135.464 0.626594 136.528 0.948798 137.408 1.54377C138.287 2.13874 138.935 2.97522 139.256 3.93067L152.581 43.6813L152.793 44.3046H153.503L153.294 43.6813Z" fill="#142D79"/>
<path d="M41.864 39.8319C41.2063 39.8314 40.566 39.6385 40.0372 39.2815C39.5083 38.9244 39.1187 38.4219 38.9254 37.8478L34.5301 24.7373C34.412 24.3851 34.371 24.0152 34.4095 23.6485C34.448 23.2819 34.5652 22.9258 34.7544 22.6005C34.9436 22.2752 35.2012 21.9872 35.5123 21.7528C35.8234 21.5185 36.1821 21.3424 36.5677 21.2346L96.6054 4.44938C97.3842 4.23235 98.2255 4.30637 98.9446 4.6552C99.6638 5.00403 100.202 5.59917 100.441 6.30999L104.836 19.4207C105.074 20.1319 104.993 20.9002 104.611 21.5569C104.229 22.2135 103.577 22.705 102.799 22.9236L42.7612 39.7088C42.4705 39.7902 42.1681 39.8317 41.864 39.8319Z" fill="#465DA3"/>
<path d="M64.8883 14.0089C68.6575 14.0089 71.7131 11.2185 71.7131 7.77641C71.7131 4.33431 68.6575 1.54395 64.8883 1.54395C61.1191 1.54395 58.0635 4.33431 58.0635 7.77641C58.0635 11.2185 61.1191 14.0089 64.8883 14.0089Z" fill="#465DA3"/>
<path d="M64.8881 11.7233C67.2749 11.7233 69.2098 9.95631 69.2098 7.77667C69.2098 5.59703 67.2749 3.83008 64.8881 3.83008C62.5013 3.83008 60.5664 5.59703 60.5664 7.77667C60.5664 9.95631 62.5013 11.7233 64.8881 11.7233Z" fill="white"/>
<path d="M205.644 181.419H90.3048C89.5358 181.418 88.7986 181.139 88.2548 180.642C87.7111 180.146 87.4052 179.472 87.4043 178.77V52.5629C87.4052 51.8606 87.711 51.1873 88.2548 50.6907C88.7986 50.1942 89.5358 49.9148 90.3048 49.9141H205.644C206.413 49.9149 207.151 50.1942 207.694 50.6908C208.238 51.1873 208.544 51.8606 208.545 52.5629V178.77C208.544 179.472 208.238 180.146 207.694 180.642C207.151 181.139 206.413 181.418 205.644 181.419Z" fill="#C80000" fill-opacity="0.45"/>
<path d="M152.581 43.6816H80.7498C79.2119 43.6836 77.7377 44.2424 76.6502 45.2355C75.5628 46.2285 74.9509 47.5748 74.9487 48.9792V176.059L75.6312 175.869V48.9792C75.6329 47.74 76.1727 46.5519 77.1322 45.6756C78.0918 44.7994 79.3928 44.3064 80.7498 44.3049H152.793L152.581 43.6816ZM215.199 43.6816H80.7498C79.2119 43.6836 77.7377 44.2424 76.6502 45.2355C75.5628 46.2285 74.9509 47.5748 74.9487 48.9792V191.703C74.9509 193.107 75.5628 194.453 76.6502 195.446C77.7377 196.439 79.2119 196.998 80.7498 197H215.199C216.737 196.998 218.211 196.439 219.298 195.446C220.386 194.453 220.998 193.107 221 191.703V48.9792C220.998 47.5748 220.386 46.2285 219.298 45.2355C218.211 44.2424 216.737 43.6836 215.199 43.6816ZM220.317 191.703C220.316 192.942 219.776 194.13 218.816 195.006C217.857 195.883 216.556 196.375 215.199 196.377H80.7498C79.3928 196.375 78.0918 195.883 77.1322 195.006C76.1727 194.13 75.6329 192.942 75.6312 191.703V48.9792C75.6329 47.74 76.1727 46.5519 77.1322 45.6756C78.0918 44.7994 79.3928 44.3064 80.7498 44.3049H215.199C216.556 44.3064 217.857 44.7994 218.816 45.6756C219.776 46.5519 220.316 47.74 220.317 48.9792V191.703Z" fill="#142D79"/>
<path d="M179.369 57.3929H116.58C115.766 57.3921 114.986 57.0963 114.41 56.5705C113.834 56.0447 113.51 55.3319 113.509 54.5883V40.8769C113.51 40.1333 113.834 39.4204 114.41 38.8946C114.986 38.3689 115.766 38.0731 116.58 38.0723H179.369C180.183 38.0731 180.964 38.3689 181.539 38.8946C182.115 39.4204 182.439 40.1333 182.44 40.8769V54.5883C182.439 55.3319 182.115 56.0447 181.539 56.5705C180.964 57.0963 180.183 57.3921 179.369 57.3929Z" fill="#465DA3"/>
<path d="M147.974 39.0069C151.743 39.0069 154.799 36.2165 154.799 32.7745C154.799 29.3324 151.743 26.542 147.974 26.542C144.205 26.542 141.149 29.3324 141.149 32.7745C141.149 36.2165 144.205 39.0069 147.974 39.0069Z" fill="#465DA3"/>
<path d="M147.974 36.5708C150.27 36.5708 152.131 34.8712 152.131 32.7747C152.131 30.6781 150.27 28.9785 147.974 28.9785C145.679 28.9785 143.817 30.6781 143.817 32.7747C143.817 34.8712 145.679 36.5708 147.974 36.5708Z" fill="white"/>
</g>
<defs>
<clipPath id="clip0_2531_341">
<rect width="221" height="197" fill="white"/>
</clipPath>
</defs>
</svg>
