<svg width="340" height="341" viewBox="0 0 340 341" fill="none" xmlns="http://www.w3.org/2000/svg">
<g clip-path="url(#clip0_4058_1169)">
<path d="M323.65 341.656V307.459C323.65 307.459 336.499 331.703 323.65 341.656Z" fill="#CBD5F2"/>
<path d="M324.444 341.65L300.156 318.523C300.156 318.523 326.064 325.102 324.444 341.65Z" fill="#CBD5F2"/>
<path d="M220.011 153.685L91.1279 231.816C90.6768 232.089 90.1398 232.165 89.6348 232.028C89.1297 231.89 88.6978 231.551 88.4338 231.084L5.55345 83.9994C5.29049 83.5315 5.2172 82.9746 5.34966 82.4507C5.48211 81.9269 5.8095 81.4789 6.25999 81.2051L135.143 3.07338C135.594 2.80064 136.131 2.72462 136.636 2.86201C137.142 2.99939 137.573 3.33896 137.837 3.80622L220.718 150.89C220.981 151.358 221.054 151.915 220.922 152.439C220.789 152.963 220.462 153.411 220.011 153.685Z" fill="white"/>
<path d="M220.011 153.685L91.1279 231.816C90.6768 232.089 90.1398 232.165 89.6348 232.028C89.1297 231.89 88.6978 231.551 88.4338 231.084L5.55345 83.9994C5.29049 83.5315 5.2172 82.9746 5.34966 82.4507C5.48211 81.9269 5.8095 81.4789 6.25999 81.2051L135.143 3.07338C135.594 2.80064 136.131 2.72462 136.636 2.86201C137.142 2.99939 137.573 3.33896 137.837 3.80622L220.718 150.89C220.981 151.358 221.054 151.915 220.922 152.439C220.789 152.963 220.462 153.411 220.011 153.685ZM6.6575 81.9105C6.3872 82.0748 6.19076 82.3436 6.11128 82.6579C6.03181 82.9722 6.07579 83.3064 6.23358 83.5871L89.114 230.671C89.2723 230.952 89.5315 231.155 89.8345 231.238C90.1376 231.32 90.4598 231.275 90.7304 231.111L219.614 152.979C219.884 152.815 220.08 152.546 220.16 152.232C220.239 151.918 220.195 151.583 220.038 151.303L137.157 4.2185C136.999 3.93813 136.74 3.73438 136.437 3.65195C136.134 3.56951 135.811 3.61513 135.541 3.7788L6.6575 81.9105Z" fill="#3F3D56"/>
<path d="M89.5046 96.5586L57.5388 115.937C57.0877 116.21 56.5507 116.286 56.0457 116.148C55.5406 116.011 55.1087 115.671 54.8447 115.204L36.1618 82.0484C35.8989 81.5805 35.8256 81.0236 35.9581 80.4997C36.0905 79.9759 36.4179 79.5279 36.8684 79.2541L68.8342 59.8758C69.2853 59.603 69.8222 59.527 70.3273 59.6644C70.8324 59.8018 71.2643 60.1413 71.5282 60.6086L90.2111 93.7643C90.4741 94.2321 90.5474 94.7891 90.4149 95.313C90.2824 95.8368 89.9551 96.2848 89.5046 96.5586ZM37.2659 79.9595C36.9956 80.1238 36.7991 80.3926 36.7197 80.7069C36.6402 81.0212 36.6842 81.3554 36.842 81.6361L55.5249 114.792C55.6832 115.072 55.9424 115.276 56.2454 115.358C56.5485 115.441 56.8706 115.395 57.1413 115.231L89.1071 95.8532C89.3774 95.6889 89.5738 95.4201 89.6533 95.1058C89.7328 94.7915 89.6888 94.4573 89.531 94.1766L70.8481 61.0209C70.6898 60.7405 70.4306 60.5368 70.1276 60.4543C69.8245 60.3719 69.5023 60.4175 69.2317 60.5812L37.2659 79.9595Z" fill="#E1E1E1"/>
<path d="M82.6087 106.181L50.6429 125.559C50.237 125.804 49.7537 125.873 49.2991 125.749C48.8446 125.625 48.4559 125.32 48.2183 124.899L29.5354 91.7437C29.2987 91.3226 29.2328 90.8213 29.352 90.3498C29.4712 89.8784 29.7658 89.4752 30.1713 89.2287L62.1371 69.8504C62.5431 69.605 63.0264 69.5365 63.4809 69.6602C63.9355 69.7838 64.3242 70.0895 64.5618 70.51L83.2446 103.666C83.4813 104.087 83.5473 104.588 83.428 105.059C83.3088 105.531 83.0142 105.934 82.6087 106.181Z" fill="#465DA3"/>
<path d="M159.763 81.1748L59.785 141.784C59.3792 142.03 58.8957 142.098 58.441 141.975C57.9863 141.851 57.5976 141.545 57.3604 141.124C57.1232 140.703 57.0569 140.202 57.1761 139.73C57.2954 139.258 57.5904 138.855 57.9963 138.609L157.974 78.0004C158.175 77.8785 158.397 77.799 158.628 77.7662C158.859 77.7334 159.093 77.748 159.318 77.8093C159.544 77.8705 159.755 77.9772 159.94 78.1231C160.126 78.2691 160.282 78.4515 160.399 78.6599C160.517 78.8684 160.593 79.0988 160.625 79.3379C160.656 79.5771 160.642 79.8204 160.583 80.054C160.524 80.2875 160.421 80.5067 160.281 80.699C160.14 80.8913 159.964 81.053 159.763 81.1748Z" fill="#CCCCCC"/>
<path d="M141.781 106.747L65.9471 152.719C65.7462 152.841 65.5241 152.92 65.2935 152.953C65.0629 152.986 64.8283 152.971 64.6031 152.91C64.1484 152.786 63.7597 152.48 63.5225 152.059C63.2853 151.638 63.219 151.137 63.3383 150.665C63.4575 150.194 63.7525 149.79 64.1584 149.544L139.992 103.572C140.193 103.451 140.415 103.371 140.646 103.338C140.876 103.305 141.111 103.32 141.336 103.381C141.561 103.443 141.773 103.549 141.958 103.695C142.143 103.841 142.299 104.023 142.417 104.232C142.534 104.44 142.611 104.671 142.643 104.91C142.674 105.149 142.66 105.392 142.601 105.626C142.542 105.86 142.439 106.079 142.298 106.271C142.158 106.463 141.982 106.625 141.781 106.747Z" fill="#CCCCCC"/>
<path d="M136.766 41.1716L92.5575 67.9714C92.1516 68.2174 91.6682 68.2862 91.2135 68.1625C90.7587 68.0388 90.37 67.7328 90.1328 67.3118C89.8956 66.8909 89.8294 66.3894 89.9486 65.9178C90.0679 65.4461 90.3629 65.043 90.7687 64.7969L134.977 37.9971C135.383 37.7511 135.866 37.6824 136.321 37.8061C136.546 37.8673 136.757 37.9739 136.943 38.1199C137.128 38.2658 137.284 38.4482 137.401 38.6567C137.519 38.8651 137.596 39.0955 137.627 39.3347C137.659 39.5739 137.645 39.8172 137.586 40.0507C137.527 40.2843 137.424 40.5035 137.283 40.6958C137.142 40.8881 136.966 41.0498 136.766 41.1716Z" fill="#CCCCCC"/>
<path d="M131.894 58.7937L98.7186 78.9051C98.5177 79.027 98.2956 79.1066 98.0649 79.1393C97.8343 79.1721 97.5998 79.1575 97.3746 79.0962C97.1495 79.035 96.9381 78.9283 96.7527 78.7824C96.5673 78.6364 96.4114 78.454 96.294 78.2456C96.1765 78.0372 96.0998 77.8068 96.0682 77.5676C96.0366 77.3284 96.0507 77.0851 96.1097 76.8515C96.1688 76.618 96.2716 76.3988 96.4123 76.2065C96.553 76.0142 96.7289 75.8525 96.9298 75.7307L130.105 55.6192C130.511 55.3732 130.994 55.3044 131.449 55.4281C131.904 55.5518 132.292 55.8578 132.53 56.2788C132.767 56.6997 132.833 57.2012 132.714 57.6728C132.595 58.1445 132.3 58.5476 131.894 58.7937Z" fill="#CCCCCC"/>
<path d="M172.086 103.044L72.1083 163.653C71.7024 163.899 71.219 163.968 70.7643 163.844C70.3095 163.72 69.9208 163.414 69.6836 162.993C69.4464 162.572 69.3801 162.071 69.4994 161.599C69.6186 161.128 69.9136 160.724 70.3195 160.478L170.298 99.8697C170.703 99.6237 171.187 99.5549 171.642 99.6786C172.096 99.8023 172.485 100.108 172.722 100.529C172.96 100.95 173.026 101.452 172.907 101.923C172.787 102.395 172.492 102.798 172.086 103.044Z" fill="#CCCCCC"/>
<path d="M154.104 128.615L78.2704 174.587C78.0694 174.709 77.8473 174.788 77.6167 174.821C77.3861 174.854 77.1515 174.839 76.9264 174.778C76.7012 174.717 76.4899 174.61 76.3045 174.464C76.1191 174.318 75.9632 174.136 75.8457 173.927C75.7283 173.719 75.6515 173.488 75.6199 173.249C75.5883 173.01 75.6024 172.767 75.6615 172.533C75.7205 172.3 75.8234 172.08 75.9641 171.888C76.1048 171.696 76.2806 171.534 76.4816 171.412L152.315 125.44C152.516 125.318 152.738 125.239 152.969 125.206C153.2 125.173 153.434 125.188 153.659 125.249C153.885 125.31 154.096 125.417 154.281 125.563C154.467 125.709 154.623 125.891 154.74 126.1C154.857 126.308 154.934 126.539 154.966 126.778C154.997 127.017 154.983 127.26 154.924 127.494C154.865 127.727 154.762 127.947 154.622 128.139C154.481 128.331 154.305 128.493 154.104 128.615Z" fill="#CCCCCC"/>
<path d="M184.409 124.912L84.4306 185.521C84.2296 185.643 84.0075 185.722 83.7769 185.755C83.5462 185.788 83.3117 185.773 83.0865 185.712C82.8614 185.651 82.65 185.544 82.4646 185.398C82.2792 185.252 82.1233 185.07 82.0059 184.861C81.8884 184.653 81.8117 184.423 81.7801 184.183C81.7485 183.944 81.7626 183.701 81.8217 183.467C81.8807 183.234 81.9835 183.015 82.1242 182.822C82.265 182.63 82.4408 182.468 82.6418 182.346L182.62 121.738C182.821 121.616 183.043 121.536 183.274 121.503C183.504 121.471 183.739 121.485 183.964 121.547C184.189 121.608 184.4 121.714 184.586 121.86C184.771 122.006 184.927 122.189 185.045 122.397C185.162 122.606 185.239 122.836 185.27 123.075C185.302 123.314 185.288 123.558 185.229 123.791C185.17 124.025 185.067 124.244 184.926 124.436C184.785 124.629 184.61 124.79 184.409 124.912Z" fill="#CCCCCC"/>
<path d="M190.571 135.847L90.5927 196.456C90.3917 196.577 90.1696 196.657 89.939 196.69C89.7083 196.723 89.4738 196.708 89.2486 196.647C89.0235 196.585 88.8122 196.479 88.6267 196.333C88.4413 196.187 88.2854 196.004 88.168 195.796C88.0505 195.588 87.9738 195.357 87.9422 195.118C87.9106 194.879 87.9247 194.636 87.9838 194.402C88.0428 194.168 88.1456 193.949 88.2863 193.757C88.427 193.565 88.6029 193.403 88.8039 193.281L188.782 132.672C188.983 132.551 189.205 132.471 189.436 132.438C189.666 132.405 189.901 132.42 190.126 132.481C190.351 132.543 190.562 132.649 190.748 132.795C190.933 132.941 191.089 133.123 191.207 133.332C191.324 133.54 191.401 133.771 191.432 134.01C191.464 134.249 191.45 134.492 191.391 134.726C191.332 134.96 191.229 135.179 191.088 135.371C190.948 135.563 190.772 135.725 190.571 135.847Z" fill="#CCCCCC"/>
<path d="M168.865 172.822C170.254 171.126 171.505 169.312 172.603 167.4C173.588 165.675 174.555 163.831 174.772 161.808C174.883 160.946 174.797 160.07 174.52 159.249C174.243 158.429 173.783 157.688 173.178 157.087C172.593 156.528 171.852 156.176 171.061 156.083C170.271 155.99 169.472 156.16 168.781 156.569C168.082 156.985 167.504 157.59 167.109 158.319C166.714 159.048 166.517 159.874 166.538 160.71C166.594 161.63 166.851 162.526 167.288 163.329C167.724 164.132 168.331 164.823 169.061 165.349C172.016 167.57 176.631 167.454 179.781 165.764C183.328 163.86 185.161 158.88 182.374 155.471C181.794 154.762 180.83 155.555 180.975 156.32C181.159 157.353 181.717 158.274 182.534 158.895C183.351 159.516 184.365 159.79 185.371 159.661C186.376 159.533 187.296 159.01 187.943 158.202C188.589 157.393 188.914 156.359 188.85 155.31L187.597 156.07C189.133 156.775 190.821 157.049 192.492 156.863C194.162 156.677 195.756 156.038 197.113 155.011C197.784 154.505 198.384 153.904 198.894 153.226C199.507 152.396 200.537 151.86 201.372 151.262L207.383 146.953C208.268 146.319 207.427 144.809 206.535 145.448L201.091 149.35C200.183 150 199.27 150.643 198.368 151.301C197.724 151.772 197.327 152.532 196.741 153.091C195.63 154.127 194.258 154.814 192.785 155.073C191.313 155.331 189.799 155.15 188.422 154.55C188.294 154.479 188.15 154.443 188.004 154.445C187.858 154.448 187.716 154.49 187.59 154.566C187.464 154.642 187.36 154.75 187.286 154.881C187.212 155.011 187.172 155.159 187.169 155.31C187.235 155.936 187.061 156.563 186.683 157.056C186.305 157.549 185.755 157.867 185.153 157.941C184.55 158.015 183.944 157.839 183.465 157.451C182.987 157.064 182.676 156.496 182.6 155.871L181.2 156.72C182.998 158.919 181.801 162.292 179.73 163.767C177.413 165.418 173.99 165.704 171.379 164.678C170.738 164.45 170.15 164.087 169.651 163.612C169.152 163.137 168.752 162.56 168.478 161.918C168.223 161.337 168.151 160.689 168.27 160.064C168.39 159.438 168.695 158.868 169.144 158.432C169.533 158.034 170.056 157.808 170.602 157.802C171.149 157.795 171.676 158.01 172.073 158.4C172.506 158.858 172.823 159.419 172.997 160.034C173.171 160.648 173.197 161.298 173.072 161.926C172.803 163.673 171.872 165.283 171.006 166.775C170.017 168.475 168.899 170.09 167.662 171.605C166.969 172.456 168.165 173.682 168.865 172.822Z" fill="#465DA3"/>
<path d="M199.6 197.566C199.779 197.744 199.943 197.935 200.091 198.137L223.123 197.594L225.81 192.861L233.75 195.836L229.838 204.661C229.522 205.374 228.975 205.969 228.278 206.356C227.581 206.744 226.773 206.903 225.975 206.81L199.953 203.78C199.339 204.529 198.503 205.08 197.557 205.36C196.61 205.64 195.597 205.636 194.653 205.347C193.709 205.059 192.879 204.5 192.272 203.746C191.666 202.991 191.312 202.076 191.257 201.123C191.203 200.17 191.451 199.223 191.969 198.409C192.486 197.595 193.248 196.953 194.154 196.566C195.06 196.18 196.066 196.069 197.038 196.248C198.011 196.426 198.905 196.886 199.6 197.566Z" fill="#FFB7B7"/>
<path d="M273.593 332.615H266.394L262.969 304.664L273.594 304.665L273.593 332.615Z" fill="#FFB7B7"/>
<path d="M276.25 341L249.688 340.999V340.647C249.688 337.776 250.777 335.022 252.716 332.991C254.655 330.961 257.284 329.82 260.026 329.82H260.027L276.25 329.82L276.25 341Z" fill="#2F2E41"/>
<path d="M206.241 332.615L199.219 329.688L207.448 301.869L217.812 306.189L206.241 332.615Z" fill="#FFB7B7"/>
<path d="M205.952 341L183.281 330.718L183.404 330.414C184.404 327.93 186.292 325.969 188.654 324.963C191.015 323.956 193.657 323.987 195.997 325.048L195.998 325.048L209.844 331.328L205.952 341Z" fill="#2F2E41"/>
<path d="M237.315 213.613L231.094 172.396L241.877 169.038L245.044 164.91L260.457 165.777L262.719 170.593L270.938 174.284L269.675 196.574L270.596 215.221L237.315 213.613Z" fill="#465DA3"/>
<path d="M232.963 201.246L223.125 197.371L223.167 197.199C223.209 197.025 227.396 179.8 227.952 177.032C228.531 174.149 230.647 173.351 230.737 173.319L230.803 173.295L234.696 174.462L236.406 187.687L232.963 201.246Z" fill="#465DA3"/>
<path d="M211.04 327.025L196.562 324.164L219.702 262.667L227.621 241.691C227.621 241.691 232.644 224.872 234.913 218.364L236.283 209.631L268.702 213.087C268.702 213.087 277.757 225.895 275.006 246.771L276.25 325.237L261.773 325.952L249.646 246.816L228.363 290.198C228.363 290.198 221.655 308.71 216.856 312.723L211.04 327.025Z" fill="#2F2E41"/>
<path d="M254.548 216.563C254.812 216.557 255.076 216.572 255.338 216.606L271.012 199.179L269.189 193.823L277.065 190.066L281.232 199.24C281.568 199.981 281.651 200.809 281.467 201.6C281.283 202.391 280.843 203.103 280.212 203.627L259.654 220.724C259.811 221.711 259.658 222.722 259.215 223.621C258.772 224.521 258.061 225.267 257.175 225.76C256.29 226.254 255.273 226.471 254.259 226.382C253.245 226.294 252.282 225.905 251.499 225.267C250.715 224.629 250.148 223.772 249.874 222.81C249.599 221.848 249.629 220.826 249.96 219.881C250.291 218.937 250.907 218.113 251.727 217.52C252.546 216.928 253.53 216.594 254.548 216.563Z" fill="#FFB7B7"/>
<path d="M271.315 201.246L265.625 188.216L267.844 179.139L270.235 176.198C270.41 176.125 270.599 176.089 270.79 176.09C270.98 176.092 271.168 176.132 271.342 176.208C272.224 176.554 272.975 177.613 273.574 179.356L278.906 194.144L271.315 201.246Z" fill="#465DA3"/>
<path d="M239.062 160.118V149.027C239.062 145.085 240.602 141.304 243.342 138.517C246.081 135.73 249.797 134.164 253.672 134.164C257.547 134.164 261.262 135.73 264.002 138.517C266.742 141.304 268.281 145.085 268.281 149.027V160.118C268.281 160.648 268.074 161.155 267.706 161.529C267.338 161.904 266.839 162.114 266.319 162.115H241.025C240.505 162.114 240.006 161.904 239.638 161.529C239.27 161.155 239.063 160.648 239.062 160.118Z" fill="#2F2E41"/>
<path d="M251.016 162.115C257.617 162.115 262.969 157.109 262.969 150.934C262.969 144.76 257.617 139.754 251.016 139.754C244.414 139.754 239.062 144.76 239.062 150.934C239.062 157.109 244.414 162.115 251.016 162.115Z" fill="#FFB7B7"/>
<path d="M233.75 147.932C233.754 145.023 235.033 142.234 237.309 140.177C239.584 138.119 242.669 136.962 245.886 136.959H248.176C251.394 136.962 254.479 138.119 256.754 140.177C259.029 142.234 260.309 145.023 260.313 147.932V148.139H255.473L253.823 143.96L253.493 148.139H250.992L250.159 146.031L249.992 148.139H233.75L233.75 147.932Z" fill="#2F2E41"/>
<path d="M247.473 164.038C247.22 163.722 247.069 163.347 247.038 162.955C247.006 162.564 247.095 162.172 247.294 161.825C249.995 157.088 253.776 148.335 248.757 142.937L248.396 142.549H262.969V162.723L249.73 164.877C249.596 164.899 249.461 164.91 249.324 164.91C248.963 164.91 248.607 164.831 248.285 164.679C247.963 164.528 247.685 164.308 247.473 164.038Z" fill="#2F2E41"/>
<path d="M100.938 327.45L107.452 329.82L119.531 305.367L109.917 301.869L100.938 327.45Z" fill="#D6A1A1"/>
<path d="M95.625 333.106L98.9635 324.229L113.16 329.051C115.558 329.868 117.516 331.556 118.606 333.743C119.696 335.931 119.828 338.44 118.974 340.721L118.869 341L95.625 333.106Z" fill="#2F2E41"/>
<path d="M143.439 332.615L150.637 332.614L154.062 307.459L143.438 307.459L143.439 332.615Z" fill="#D6A1A1"/>
<path d="M140.781 332.615L155.382 332.615H155.383C156.604 332.615 157.814 332.825 158.943 333.233C160.072 333.641 161.098 334.239 161.962 334.993C162.826 335.747 163.512 336.642 163.979 337.628C164.447 338.613 164.687 339.669 164.688 340.735V340.999L140.782 341L140.781 332.615Z" fill="#2F2E41"/>
<path d="M127.5 160.873L130.647 153.729C130.647 153.729 142.372 157.104 143.438 164.91L127.5 160.873Z" fill="#F1F1F1"/>
<path d="M114.927 230.348L123.379 276.91L100.938 316.091L114.344 321.27L137.078 283.29L139.992 272.931L141.74 327.025L153.832 326.662L159.375 276.152L150.484 229.197L114.927 230.348Z" fill="#2F2E41"/>
<path d="M129.243 240.377C117.081 240.377 109.359 238.035 109.186 237.998L108.906 237.938L115.241 208.37L115.526 181.096C115.526 169.539 123.082 161.018 124.131 160.231C124.307 159.53 124.634 158.876 125.088 158.314C125.541 157.753 126.111 157.298 126.758 156.981C129.278 155.83 132.358 157.211 132.488 157.271L141.732 160.76L141.775 160.889C141.887 161.22 154.062 201.461 154.062 201.461C154.062 201.461 153.326 236.621 153.069 237.773C153.069 237.773 136.001 240.377 129.243 240.377Z" fill="#3F3D56"/>
<path d="M139.453 153.729C146.055 153.729 151.406 148.098 151.406 141.152C151.406 134.205 146.055 128.574 139.453 128.574C132.852 128.574 127.5 134.205 127.5 141.152C127.5 148.098 132.852 153.729 139.453 153.729Z" fill="#D6A1A1"/>
<path opacity="0.2" d="M128.819 187.988L147.615 214.186L150.112 201.739L128.819 187.988Z" fill="black"/>
<path d="M194.469 205.469C193.848 205.964 193.127 206.316 192.357 206.5C191.587 206.684 190.786 206.695 190.011 206.533C189.236 206.371 188.506 206.04 187.872 205.563C187.237 205.085 186.715 204.474 186.34 203.77L167.344 206.836L171.459 197.65L188.868 196.147C190.081 195.592 191.454 195.504 192.727 195.901C194 196.297 195.085 197.151 195.775 198.3C196.465 199.449 196.714 200.814 196.473 202.135C196.232 203.456 195.519 204.643 194.469 205.469Z" fill="#D6A1A1"/>
<path d="M172.656 196.43L178.896 195.656L180.625 206.661L172.774 206.836L172.656 196.43Z" fill="#F1F1F1"/>
<path d="M177.969 209.631L144.609 206.607L127.764 179.338L127.712 179.097C127.234 176.869 127.569 174.54 128.654 172.545C129.739 170.551 131.5 169.026 133.609 168.256C135.717 167.486 138.029 167.524 140.112 168.362C142.195 169.2 143.908 170.781 144.93 172.81L154.818 192.444L174.774 195.515L177.969 209.631Z" fill="#3F3D56"/>
<path d="M127.69 150.573L137.745 150.934C138.357 150.956 140.021 144.337 140.238 142.964C140.41 142.07 140.902 141.269 141.621 140.711C142.34 140.153 143.237 139.876 144.145 139.932C144.897 140.003 146.795 138.596 148.753 136.929C152.471 133.766 152.278 127.824 148.194 125.151C148.082 125.078 147.973 125.011 147.865 124.951C145.289 123.507 142.275 123.023 139.322 122.986C136.646 122.952 133.893 123.289 131.535 124.557C127.308 126.83 125.059 131.798 124.861 136.596C124.663 141.395 126.2 146.087 127.945 150.561" fill="#2F2E41"/>
<path d="M339.363 341H0.455764C0.334888 341 0.218962 340.95 0.13349 340.862C0.0480175 340.773 0 340.653 0 340.527C0 340.402 0.0480175 340.282 0.13349 340.193C0.218962 340.104 0.334888 340.055 0.455764 340.055H339.544C339.665 340.055 339.781 340.104 339.867 340.193C339.952 340.282 340 340.402 340 340.527C340 340.788 339.615 341 339.363 341Z" fill="#CBCBCB"/>
</g>
<defs>
<clipPath id="clip0_4058_1169">
<rect width="340" height="341" fill="white"/>
</clipPath>
</defs>
</svg>
