<svg width="405" height="279" viewBox="0 0 405 279" fill="none" xmlns="http://www.w3.org/2000/svg">
<g clip-path="url(#clip0_4058_990)">
<path d="M334.69 238.513C336.329 225.442 344.492 212.563 357.055 208.309C352.1 221.763 352.101 236.522 357.058 249.976C358.988 255.157 361.679 260.721 359.863 265.943C358.733 269.192 355.97 271.678 352.88 273.233C349.791 274.787 346.362 275.528 342.976 276.254L342.31 276.801C336.935 264.757 333.052 251.584 334.69 238.513Z" fill="#CBD5F2"/>
<path d="M357.179 208.556C349.863 216.69 345.316 226.905 344.184 237.75C343.898 240.08 343.985 242.44 344.44 244.744C344.956 246.974 346.065 249.026 347.651 250.686C349.098 252.264 350.763 253.712 351.798 255.612C352.314 256.592 352.615 257.669 352.681 258.773C352.748 259.877 352.579 260.982 352.185 262.016C351.27 264.618 349.468 266.739 347.633 268.753C345.596 270.988 343.444 273.278 342.578 276.242C342.473 276.601 341.918 276.419 342.023 276.06C343.53 270.904 348.574 267.975 350.979 263.33C352.102 261.163 352.573 258.647 351.521 256.36C350.6 254.359 348.885 252.865 347.406 251.28C345.835 249.682 344.682 247.727 344.048 245.585C343.476 243.312 343.298 240.959 343.522 238.627C343.941 233.368 345.191 228.207 347.226 223.333C349.517 217.758 352.752 212.613 356.792 208.121C357.042 207.843 357.427 208.28 357.179 208.556Z" fill="white"/>
<path d="M344.342 234.236C342.534 233.801 340.941 232.742 339.848 231.249C338.754 229.755 338.231 227.925 338.372 226.084C338.402 225.712 338.986 225.74 338.957 226.113C338.822 227.827 339.31 229.532 340.331 230.92C341.352 232.309 342.84 233.29 344.525 233.685C344.892 233.772 344.706 234.322 344.342 234.236Z" fill="white"/>
<path d="M346.811 249.982C350.077 248.048 352.487 244.963 353.562 241.343C353.668 240.985 354.223 241.167 354.117 241.525C352.992 245.29 350.477 248.495 347.075 250.501C346.75 250.692 346.489 250.172 346.811 249.982Z" fill="white"/>
<path d="M350.061 218.308C350.725 218.621 351.457 218.766 352.191 218.729C352.925 218.692 353.639 218.474 354.268 218.096C354.589 217.901 354.85 218.421 354.531 218.615C353.834 219.029 353.046 219.268 352.235 219.311C351.423 219.354 350.614 219.199 349.877 218.859C349.805 218.833 349.746 218.781 349.711 218.713C349.676 218.644 349.669 218.566 349.691 218.493C349.716 218.42 349.768 218.36 349.838 218.325C349.907 218.29 349.987 218.284 350.061 218.308Z" fill="white"/>
<path d="M395.347 231.656C395.149 231.783 394.952 231.911 394.754 232.043C392.109 233.769 389.609 235.706 387.279 237.834C387.096 237.996 386.914 238.163 386.736 238.329C381.178 243.516 376.64 249.681 373.35 256.512C372.044 259.231 370.948 262.045 370.072 264.929C368.862 268.913 367.87 273.327 365.475 276.586C365.229 276.928 364.962 277.256 364.675 277.565H343.034C342.984 277.541 342.935 277.521 342.886 277.497L342.021 277.536C342.056 277.384 342.095 277.227 342.13 277.076C342.15 276.987 342.175 276.899 342.194 276.811C342.209 276.752 342.224 276.693 342.234 276.639C342.239 276.62 342.244 276.6 342.249 276.586C342.258 276.532 342.273 276.483 342.283 276.434C342.501 275.557 342.724 274.68 342.955 273.803C342.955 273.798 342.955 273.798 342.96 273.793C344.732 267.115 347.082 260.524 350.366 254.498C350.465 254.317 350.563 254.13 350.672 253.949C352.167 251.241 353.883 248.658 355.802 246.227C356.857 244.9 357.98 243.626 359.165 242.411C362.233 239.277 365.778 236.641 369.672 234.601C377.434 230.534 386.42 228.976 394.715 231.46C394.927 231.524 395.135 231.587 395.347 231.656Z" fill="#CBD5F2"/>
<path d="M395.298 231.928C384.522 234.052 374.694 239.492 367.21 247.474C365.568 249.164 364.205 251.1 363.171 253.212C362.23 255.301 361.87 257.601 362.129 259.875C362.327 261.999 362.778 264.15 362.452 266.285C362.269 267.376 361.856 268.416 361.239 269.337C360.623 270.258 359.817 271.039 358.875 271.629C356.566 273.161 353.841 273.778 351.154 274.289C348.171 274.857 345.063 275.4 342.574 277.249C342.272 277.473 341.939 276.995 342.241 276.772C346.572 273.555 352.377 274.23 357.115 271.959C359.326 270.899 361.229 269.172 361.777 266.716C362.256 264.569 361.793 262.351 361.573 260.202C361.288 257.988 361.554 255.738 362.347 253.649C363.27 251.493 364.555 249.507 366.149 247.779C369.675 243.83 373.804 240.456 378.386 237.781C383.597 234.698 389.302 232.523 395.253 231.35C395.622 231.277 395.664 231.856 395.298 231.928Z" fill="white"/>
<path d="M369.467 244.763C368.288 243.335 367.659 241.538 367.692 239.692C367.725 237.847 368.418 236.073 369.647 234.687C369.897 234.408 370.346 234.78 370.096 235.059C368.949 236.347 368.303 238 368.276 239.719C368.249 241.438 368.842 243.109 369.948 244.432C370.188 244.72 369.706 245.049 369.467 244.763Z" fill="white"/>
<path d="M361.886 258.811C365.667 259.217 369.463 258.194 372.517 255.946C372.82 255.723 373.152 256.2 372.85 256.423C369.667 258.756 365.715 259.813 361.782 259.382C361.407 259.34 361.513 258.769 361.886 258.811Z" fill="white"/>
<path d="M383.697 235.461C384.038 236.108 384.534 236.661 385.143 237.07C385.752 237.479 386.453 237.732 387.185 237.806C387.56 237.842 387.453 238.413 387.08 238.377C386.273 238.292 385.498 238.012 384.825 237.561C384.151 237.111 383.599 236.503 383.216 235.792C383.175 235.728 383.159 235.651 383.173 235.576C383.187 235.501 383.229 235.434 383.29 235.388C383.354 235.345 383.433 235.328 383.509 235.342C383.585 235.355 383.653 235.398 383.697 235.461Z" fill="white"/>
<path d="M264.793 172.521C265.241 172.062 265.582 171.511 265.792 170.907C266.002 170.303 266.076 169.661 266.009 169.026C265.941 168.39 265.735 167.777 265.403 167.23C265.071 166.682 264.622 166.214 264.088 165.857L268.089 150.843L260.381 153.416L257.763 167.279C257.219 168.209 257.037 169.305 257.252 170.359C257.468 171.413 258.065 172.352 258.932 172.998C259.798 173.645 260.874 173.953 261.954 173.865C263.034 173.777 264.045 173.299 264.793 172.521Z" fill="#D6A1A1"/>
<path d="M300.457 273.368L295.087 273.367L292.533 252.816L300.457 252.817L300.457 273.368Z" fill="#D6A1A1"/>
<path d="M301.826 278.532L284.514 278.531V278.314C284.514 276.541 285.224 274.84 286.487 273.586C287.751 272.332 289.465 271.628 291.252 271.627L301.826 271.628L301.826 278.532Z" fill="#2F2E41"/>
<path d="M275.056 273.368L269.687 273.367L267.133 252.816L275.057 252.817L275.056 273.368Z" fill="#D6A1A1"/>
<path d="M276.425 278.532L259.112 278.531V278.314C259.112 276.541 259.822 274.84 261.086 273.586C262.35 272.332 264.064 271.628 265.851 271.627L276.425 271.628L276.425 278.532Z" fill="#2F2E41"/>
<path d="M272.07 149.545L270.009 150.11C270.009 150.11 264.624 184.747 264.186 202.999C263.749 221.252 265.5 267.318 265.5 267.318H276.887L286.084 189.093L290.463 267.318H302.726C302.726 267.318 311.485 164.756 307.543 156.499C303.602 148.241 272.07 149.545 272.07 149.545Z" fill="#2F2E41"/>
<path d="M289.636 87.8333C296.414 87.8333 301.909 82.6286 301.909 76.2083C301.909 69.788 296.414 64.5833 289.636 64.5833C282.858 64.5833 277.363 69.788 277.363 76.2083C277.363 82.6286 282.858 87.8333 289.636 87.8333Z" fill="#D6A1A1"/>
<path d="M314.551 101.741L298.581 91.3845L282.033 92.0312L265.938 100.872L272.07 134.769L269.442 154.326C269.442 154.326 293.091 151.718 298.347 155.629C301.416 157.95 305.036 159.447 308.857 159.975L307.982 126.512L314.551 101.741Z" fill="#3F3D56"/>
<path d="M269.004 100.437L267.35 100.096L265.939 100.872C265.939 100.872 261.997 106.087 261.997 110.867C261.997 115.647 257.18 161.714 257.18 161.714L265.939 165.625L272.946 129.554L269.004 100.437Z" fill="#3F3D56"/>
<path d="M300.66 67.3506C300.66 67.3506 303.978 60.5994 296.786 59.9281C296.786 59.9281 290.693 53.8502 284.406 58.7304C284.406 58.7304 280.995 58.7042 279.101 62.8725C279.101 62.8725 276.426 61.7494 275.816 64.6955C275.816 64.6955 273.811 70.8407 275.735 76.4001C277.659 81.9595 278.307 82.5805 278.307 82.5805C278.307 82.5805 275.162 70.9318 283.018 70.3761C290.873 69.8204 299.695 64.5709 300.302 71.3523C300.91 78.1336 301.883 79.8108 301.883 79.8108C301.883 79.8108 308.164 70.1805 300.66 67.3506Z" fill="#2F2E41"/>
<path d="M184.779 132.213H57.3359V37.4728H184.779V132.213Z" fill="white"/>
<path d="M184.646 131.94H57.2031V37.2H184.646V131.94ZM58.517 38.5038V130.636H183.332V38.5038H58.517Z" fill="#C5C4C4"/>
<path d="M120.885 108.828C134.287 108.828 145.152 98.047 145.152 84.748C145.152 71.449 134.287 60.668 120.885 60.668C107.484 60.668 96.6191 71.449 96.6191 84.748C96.6191 98.047 107.484 108.828 120.885 108.828Z" fill="#465DA3"/>
<path d="M130.963 82.7257H122.712V74.5385C122.712 74.0276 122.508 73.5376 122.144 73.1763C121.78 72.815 121.286 72.612 120.771 72.612C120.256 72.612 119.762 72.815 119.398 73.1763C119.034 73.5376 118.83 74.0276 118.83 74.5385V82.7257H110.579C110.064 82.7257 109.57 82.9287 109.206 83.29C108.842 83.6513 108.638 84.1413 108.638 84.6522C108.638 85.1632 108.842 85.6532 109.206 86.0145C109.57 86.3758 110.064 86.5787 110.579 86.5787H118.83V94.7659C118.83 95.2769 119.034 95.7669 119.398 96.1282C119.762 96.4895 120.256 96.6924 120.771 96.6924C121.286 96.6924 121.78 96.4895 122.144 96.1282C122.508 95.7669 122.712 95.2769 122.712 94.7659V86.5787H130.963C131.478 86.5787 131.972 86.3758 132.336 86.0145C132.7 85.6532 132.904 85.1632 132.904 84.6522C132.904 84.1413 132.7 83.6513 132.336 83.29C131.972 82.9287 131.478 82.7257 130.963 82.7257Z" fill="white"/>
<path d="M68.9307 40.3097H21.3086V4.65002H68.9307V40.3097Z" fill="white"/>
<path d="M68.2149 40.3097H20.5928V4.64999H68.2149V40.3097ZM21.4687 39.4405H67.339V5.51917H21.4687V39.4405Z" fill="#C5C4C4"/>
<path d="M61.9336 14.3621H26.874V16.6815H61.9336V14.3621Z" fill="#C5C4C4"/>
<path d="M61.9336 21.3201H26.874V23.6395H61.9336V21.3201Z" fill="#C5C4C4"/>
<path d="M61.9336 28.278H26.874V30.5974H61.9336V28.278Z" fill="#C5C4C4"/>
<path d="M364.259 278.594H316.637V242.934H364.259V278.594Z" fill="white"/>
<path d="M364.259 278.594H316.637V242.934H364.259V278.594ZM317.513 277.724H363.383V243.803H317.513V277.724Z" fill="#C5C4C4"/>
<path d="M357.978 252.646H322.918V254.965H357.978V252.646Z" fill="#C5C4C4"/>
<path d="M357.978 259.604H322.918V261.923H357.978V259.604Z" fill="#C5C4C4"/>
<path d="M357.978 266.562H322.918V268.881H357.978V266.562Z" fill="#C5C4C4"/>
<path d="M335.338 214.608L299.768 183.188L323.661 156.552L359.232 187.973L335.338 214.608Z" fill="white"/>
<path d="M335.338 214.608L299.768 183.188L323.661 156.552L359.232 187.973L335.338 214.608ZM301.004 183.116L335.266 213.381L357.995 188.044L323.733 157.779L301.004 183.116Z" fill="#C5C4C4"/>
<path d="M321.844 167.951L320.29 169.683L346.477 192.815L348.031 191.083L321.844 167.951Z" fill="#C5C4C4"/>
<path d="M317.183 173.148L315.629 174.88L341.816 198.012L343.37 196.28L317.183 173.148Z" fill="#C5C4C4"/>
<path d="M312.52 178.345L310.966 180.077L337.153 203.209L338.707 201.477L312.52 178.345Z" fill="#C5C4C4"/>
<path d="M94.3125 60.706H41.1865V20.925H94.3125V60.706Z" fill="white"/>
<path d="M95.1788 61.1704H42.0527V21.3893H95.1788V61.1704ZM43.0299 60.2007H94.2016V22.359H43.0299V60.2007Z" fill="#C5C4C4"/>
<path d="M88.1711 32.223H49.0596V34.8105H88.1711V32.223Z" fill="#465DA3"/>
<path d="M88.1711 39.9848H49.0596V42.5723H88.1711V39.9848Z" fill="#465DA3"/>
<path d="M88.1711 47.7476H49.0596V50.3351H88.1711V47.7476Z" fill="#465DA3"/>
<path d="M226.185 165.311H145.113V104.605H226.185V165.311Z" fill="white"/>
<path d="M226.185 165.311H145.113V104.605H226.185V165.311ZM146.604 163.832H224.694V106.084H146.604V163.832Z" fill="#C5C4C4"/>
<path d="M215.492 121.138H155.807V125.087H215.492V121.138Z" fill="#465DA3"/>
<path d="M215.492 132.984H155.807V136.932H215.492V132.984Z" fill="#465DA3"/>
<path d="M215.492 144.829H155.807V148.777H215.492V144.829Z" fill="#465DA3"/>
<path d="M404.478 279H194.134C193.996 279 193.864 278.945 193.766 278.848C193.669 278.751 193.614 278.62 193.614 278.483C193.614 278.346 193.669 278.214 193.766 278.117C193.864 278.02 193.996 277.965 194.134 277.965H404.478C404.617 277.965 404.749 278.02 404.847 278.117C404.945 278.214 405 278.345 405 278.483C405 278.62 404.945 278.751 404.847 278.848C404.749 278.945 404.617 279 404.478 279Z" fill="#CACACA"/>
<path d="M309.107 172.194C308.793 171.636 308.607 171.016 308.56 170.379C308.514 169.742 308.609 169.102 308.839 168.505C309.068 167.909 309.427 167.369 309.89 166.925C310.352 166.48 310.907 166.142 311.516 165.934L311.543 150.404L318.324 154.858L317.259 168.922C317.544 169.96 317.436 171.066 316.955 172.029C316.473 172.993 315.652 173.748 314.647 174.151C313.642 174.555 312.523 174.578 311.502 174.217C310.481 173.856 309.629 173.136 309.107 172.194Z" fill="#D6A1A1"/>
<path d="M309.734 103.479L312.763 100.581L314.989 102.175C314.989 102.175 317.179 104.783 318.931 112.605C320.682 120.428 318.931 163.452 318.931 163.452L309.296 162.148L310.61 139.55L306.668 120.428L309.734 103.479Z" fill="#3F3D56"/>
</g>
<defs>
<clipPath id="clip0_4058_990">
<rect width="405" height="279" fill="white"/>
</clipPath>
</defs>
</svg>
