<svg width="476" height="298" viewBox="0 0 476 298" fill="none" xmlns="http://www.w3.org/2000/svg">
<g clip-path="url(#clip0_4058_1213)">
<path d="M245.72 8.50621C247.878 8.50621 249.627 6.60203 249.627 4.25311C249.627 1.90418 247.878 0 245.72 0C243.562 0 241.812 1.90418 241.812 4.25311C241.812 6.60203 243.562 8.50621 245.72 8.50621Z" fill="#F2F2F2"/>
<path d="M245.72 25.4567C247.878 25.4567 249.627 23.5525 249.627 21.2035C249.627 18.8546 247.878 16.9504 245.72 16.9504C243.562 16.9504 241.812 18.8546 241.812 21.2035C241.812 23.5525 243.562 25.4567 245.72 25.4567Z" fill="#F2F2F2"/>
<path d="M262.033 8.50621C264.191 8.50621 265.94 6.60203 265.94 4.25311C265.94 1.90418 264.191 0 262.033 0C259.875 0 258.126 1.90418 258.126 4.25311C258.126 6.60203 259.875 8.50621 262.033 8.50621Z" fill="#F2F2F2"/>
<path d="M262.033 25.4567C264.191 25.4567 265.94 23.5525 265.94 21.2035C265.94 18.8546 264.191 16.9504 262.033 16.9504C259.875 16.9504 258.126 18.8546 258.126 21.2035C258.126 23.5525 259.875 25.4567 262.033 25.4567Z" fill="#F2F2F2"/>
<path d="M278.347 8.50621C280.505 8.50621 282.254 6.60203 282.254 4.25311C282.254 1.90418 280.505 0 278.347 0C276.189 0 274.439 1.90418 274.439 4.25311C274.439 6.60203 276.189 8.50621 278.347 8.50621Z" fill="#F2F2F2"/>
<path d="M278.347 25.4567C280.505 25.4567 282.254 23.5525 282.254 21.2035C282.254 18.8546 280.505 16.9504 278.347 16.9504C276.189 16.9504 274.439 18.8546 274.439 21.2035C274.439 23.5525 276.189 25.4567 278.347 25.4567Z" fill="#F2F2F2"/>
<path d="M294.66 8.50621C296.818 8.50621 298.567 6.60203 298.567 4.25311C298.567 1.90418 296.818 0 294.66 0C292.502 0 290.753 1.90418 290.753 4.25311C290.753 6.60203 292.502 8.50621 294.66 8.50621Z" fill="#F2F2F2"/>
<path d="M294.66 25.4567C296.818 25.4567 298.567 23.5525 298.567 21.2035C298.567 18.8546 296.818 16.9504 294.66 16.9504C292.502 16.9504 290.753 18.8546 290.753 21.2035C290.753 23.5525 292.502 25.4567 294.66 25.4567Z" fill="#F2F2F2"/>
<path d="M310.973 8.50621C313.131 8.50621 314.88 6.60203 314.88 4.25311C314.88 1.90418 313.131 0 310.973 0C308.815 0 307.065 1.90418 307.065 4.25311C307.065 6.60203 308.815 8.50621 310.973 8.50621Z" fill="#F2F2F2"/>
<path d="M310.973 25.4567C313.131 25.4567 314.88 23.5525 314.88 21.2035C314.88 18.8546 313.131 16.9504 310.973 16.9504C308.815 16.9504 307.065 18.8546 307.065 21.2035C307.065 23.5525 308.815 25.4567 310.973 25.4567Z" fill="#F2F2F2"/>
<path d="M327.286 8.50621C329.444 8.50621 331.193 6.60203 331.193 4.25311C331.193 1.90418 329.444 0 327.286 0C325.128 0 323.379 1.90418 323.379 4.25311C323.379 6.60203 325.128 8.50621 327.286 8.50621Z" fill="#F2F2F2"/>
<path d="M327.286 25.4567C329.444 25.4567 331.193 23.5525 331.193 21.2035C331.193 18.8546 329.444 16.9504 327.286 16.9504C325.128 16.9504 323.379 18.8546 323.379 21.2035C323.379 23.5525 325.128 25.4567 327.286 25.4567Z" fill="#F2F2F2"/>
<path d="M418.171 224.437H389.164C389.164 225.344 359.268 226.081 359.268 226.081C358.799 226.466 358.372 226.907 357.994 227.396C356.858 228.87 356.237 230.734 356.241 232.658V233.973C356.242 236.153 357.038 238.244 358.454 239.785C359.87 241.327 361.791 242.193 363.794 242.194H418.171C420.174 242.192 422.093 241.325 423.509 239.784C424.925 238.243 425.722 236.153 425.723 233.973V232.658C425.721 230.478 424.924 228.389 423.508 226.848C422.093 225.307 420.173 224.44 418.171 224.437Z" fill="#3F3D56"/>
<path d="M395.208 241.867H387.354V297.112H395.208V241.867Z" fill="#3F3D56"/>
<path d="M417.564 296.812C417.564 297.735 405.661 297.169 390.979 297.169C376.297 297.169 364.395 297.735 364.395 296.812C364.395 295.888 376.297 288.562 390.979 288.562C405.661 288.562 417.564 295.888 417.564 296.812Z" fill="#3F3D56"/>
<path d="M351.701 289.546L344.294 289.545L340.77 258.445L351.702 258.446L351.701 289.546Z" fill="#FFB8B8"/>
<path d="M341.418 287.241H355.704V297.032H332.424C332.424 294.435 333.371 291.945 335.058 290.109C336.745 288.273 339.033 287.241 341.418 287.241Z" fill="#2F2E41"/>
<path d="M340.138 285.045L333.07 282.631L338.262 251.809L348.692 255.372L340.138 285.045Z" fill="#FFB8B8"/>
<path d="M328.656 278.709L342.286 283.365L339.593 292.706L317.381 285.119C317.735 283.892 318.307 282.753 319.065 281.767C319.823 280.781 320.752 279.967 321.799 279.372C322.846 278.777 323.99 278.412 325.167 278.298C326.343 278.184 327.529 278.324 328.656 278.709Z" fill="#2F2E41"/>
<path d="M398.333 219.046C398.162 217.479 397.855 215.933 397.415 214.429L396.031 212.535L392.431 207.615L392.274 207.622C392.007 207.635 390.902 207.701 389.192 207.846H389.174C388.116 207.938 386.823 208.056 385.355 208.207C384.969 208.253 384.564 208.293 384.147 208.339V215.205H391.699C392.066 215.205 392.421 215.351 392.696 215.615C392.972 215.879 393.15 216.243 393.198 216.639C393.204 216.711 393.21 216.777 393.21 216.849C393.21 217.285 393.051 217.703 392.767 218.012C392.484 218.32 392.1 218.493 391.699 218.493H347.835C347.276 218.897 346.739 219.336 346.228 219.809C344.682 221.111 343.569 222.925 343.056 224.978C340.494 237.237 335.824 260.098 334.446 266.813C334.346 267.319 334.369 267.844 334.512 268.337C334.655 268.831 334.913 269.276 335.262 269.627C335.519 269.888 335.821 270.092 336.15 270.226L341.6 272.449C341.824 272.539 342.057 272.599 342.295 272.626C342.325 272.626 342.349 272.633 342.379 272.633C342.435 272.639 342.492 272.641 342.548 272.64C343.099 272.637 343.637 272.454 344.091 272.114C344.545 271.773 344.893 271.292 345.092 270.732L349.394 258.447L356.022 239.506L358.644 232.015C361.683 232.791 387.18 238.934 395.717 229.036C396.56 228.061 397.224 226.92 397.675 225.675C398.393 223.558 398.62 221.281 398.333 219.046Z" fill="#2F2E41"/>
<path d="M405.728 220.835C405.595 220.249 405.444 219.644 405.269 219.033L400.284 212.219L400.127 212.226C399.813 212.245 398.32 212.331 396.031 212.535C393.433 212.771 389.801 213.153 385.723 213.751C385.602 213.765 385.475 213.784 385.355 213.804C384.956 213.863 384.551 213.922 384.146 213.988V215.205H391.699C392.066 215.205 392.42 215.351 392.696 215.615C392.971 215.879 393.149 216.242 393.197 216.639C393.203 216.711 393.209 216.777 393.209 216.849C393.209 217.285 393.05 217.703 392.766 218.011C392.483 218.32 392.099 218.493 391.699 218.493H365.005C363.839 218.908 362.715 219.342 361.64 219.809C355.997 222.242 351.773 225.432 350.909 229.582C350.619 230.976 350.299 232.508 349.961 234.139C348.704 240.203 347.176 247.628 345.792 254.376V254.383C345.508 255.777 345.224 257.132 344.952 258.447C343.798 264.103 342.819 268.897 342.3 271.416C342.288 271.489 342.276 271.554 342.263 271.627V271.64C342.203 272.149 342.261 272.667 342.433 273.146L342.439 273.152V273.159C342.605 273.618 342.875 274.023 343.224 274.336C343.458 274.546 343.721 274.712 344.004 274.83L349.453 277.053C349.757 277.176 350.078 277.241 350.402 277.243C350.856 277.244 351.303 277.12 351.701 276.882C352.272 276.545 352.713 275.996 352.945 275.336L364.679 241.821L366.498 236.619C369.537 237.395 395.034 243.531 403.571 233.639C405.257 231.652 406.22 229.064 406.278 226.359C406.337 224.498 406.152 222.638 405.728 220.835Z" fill="#2F2E41"/>
<path d="M405.058 162.815C404.961 162.69 404.858 162.565 404.75 162.446C403.14 160.605 401.153 159.204 398.951 158.359C396.749 157.515 394.394 157.25 392.08 157.586C390.061 157.875 388.061 158.303 386.092 158.869C383.549 159.58 381.221 161.002 379.337 162.992C377.87 164.541 376.714 166.404 375.943 168.465C375.173 170.525 374.804 172.738 374.86 174.962C374.884 175.863 374.89 176.784 374.878 177.717C374.878 178.151 374.872 178.592 374.866 179.033H380.824C381.082 179.032 381.34 179.065 381.591 179.131C382.318 179.321 382.965 179.77 383.429 180.409C383.892 181.047 384.145 181.836 384.147 182.65V213.245C384.551 213.37 384.956 213.495 385.355 213.626C385.482 213.672 385.603 213.712 385.724 213.751C385.862 213.797 386.001 213.843 386.134 213.889C387.361 214.304 388.559 214.742 389.729 215.205H391.699C392.066 215.205 392.42 215.351 392.696 215.615C392.972 215.879 393.15 216.242 393.197 216.639C393.608 216.816 394.007 216.994 394.4 217.171C395.795 217.803 397.119 218.434 398.333 219.046C399.97 219.861 401.427 220.637 402.647 221.315C403.031 221.527 403.455 221.64 403.886 221.643C404.451 221.641 405.001 221.443 405.457 221.078C405.551 221.002 405.642 220.921 405.728 220.835C406.052 220.505 406.296 220.094 406.44 219.637C406.585 219.181 406.624 218.694 406.556 218.217C405.932 213.051 405.75 207.833 406.012 202.63C406.181 198.257 406.544 193.771 407.015 189.437C407.269 187.089 407.553 184.787 407.849 182.571C408.133 180.453 408.435 178.421 408.731 176.501C409.12 174.066 408.991 171.566 408.354 169.194C407.717 166.821 406.589 164.639 405.058 162.815Z" fill="#465DA3"/>
<path d="M380.291 163.354C379.981 163.209 379.662 163.088 379.337 162.992C377.726 162.52 376.014 162.694 374.512 163.483C373.01 164.271 371.819 165.621 371.156 167.287L367.005 177.718L366.485 179.033H380.823C381.081 179.032 381.339 179.065 381.59 179.132L382.073 177.915L383.91 173.298C384.64 171.457 384.668 169.376 383.99 167.511C383.312 165.647 381.981 164.152 380.291 163.354Z" fill="#465DA3"/>
<path d="M393.182 152.451C401.378 152.451 408.022 145.219 408.022 136.297C408.022 127.376 401.378 120.144 393.182 120.144C384.987 120.144 378.343 127.376 378.343 136.297C378.343 145.219 384.987 152.451 393.182 152.451Z" fill="#FFB8B8"/>
<path d="M407.849 182.571L399.378 182.821L398.762 189.299L398.623 190.799L385.355 197.283L384.146 197.875V209.404L385.355 209.029L389.173 207.846H389.192L406.012 202.63L406.205 202.571C407.565 202.144 408.761 201.251 409.616 200.024C410.472 198.798 410.941 197.304 410.955 195.764L410.997 188.115L411.033 182.479L407.849 182.571Z" fill="#FFB8B8"/>
<path d="M410.604 169.76C410.548 168.768 410.313 167.798 409.913 166.906C409.513 166.013 408.955 165.215 408.271 164.557C406.891 163.228 405.082 162.55 403.242 162.673C401.402 162.796 399.683 163.71 398.462 165.212C397.241 166.715 396.619 168.685 396.732 170.687L397.656 187.102C397.681 187.534 397.793 187.955 397.984 188.335C398.175 188.714 398.441 189.044 398.762 189.299C399.273 189.714 399.902 189.916 400.538 189.871L407.015 189.437L408.979 189.306C409.336 189.287 409.687 189.189 410.009 189.018C410.331 188.847 410.618 188.607 410.852 188.313C410.904 188.25 410.952 188.184 410.997 188.115C411.381 187.556 411.569 186.866 411.528 186.169L410.604 169.76Z" fill="#C80000"/>
<path d="M386.134 213.89H385.355V213.804C384.956 213.863 384.551 213.922 384.146 213.988V215.205H389.729C388.557 214.745 387.359 214.306 386.134 213.89ZM386.134 213.89H385.355V213.804C384.956 213.863 384.551 213.922 384.146 213.988V215.205H389.729C388.557 214.745 387.359 214.306 386.134 213.89ZM391.699 213.89H385.355V182.65C385.352 181.58 385.031 180.541 384.44 179.687C383.848 178.833 383.018 178.211 382.074 177.915C381.668 177.782 381.247 177.715 380.823 177.717H327.05C325.849 177.719 324.697 178.239 323.847 179.164C322.998 180.089 322.52 181.342 322.519 182.65V214.876C322.519 216.184 322.997 217.438 323.846 218.363C324.696 219.288 325.848 219.808 327.05 219.809H391.699C392.368 219.807 393.013 219.538 393.512 219.051C394.01 218.565 394.326 217.895 394.399 217.171C394.412 217.064 394.418 216.957 394.418 216.849C394.416 216.065 394.13 215.312 393.62 214.758C393.11 214.203 392.419 213.891 391.699 213.89ZM393.209 216.849C393.209 217.285 393.05 217.703 392.767 218.011C392.483 218.32 392.099 218.493 391.699 218.493H327.05C326.169 218.493 325.324 218.111 324.701 217.433C324.078 216.755 323.727 215.835 323.727 214.876V182.65C323.727 181.691 324.078 180.771 324.701 180.093C325.324 179.415 326.169 179.033 327.05 179.033H380.823C381.082 179.032 381.339 179.065 381.591 179.131C382.318 179.321 382.965 179.77 383.428 180.409C383.892 181.047 384.145 181.836 384.146 182.65V215.205H391.699C392.066 215.205 392.42 215.351 392.696 215.615C392.971 215.879 393.15 216.242 393.197 216.639C393.203 216.711 393.209 216.777 393.209 216.849ZM386.134 213.89H385.355V213.804C384.956 213.863 384.551 213.922 384.146 213.988V215.205H389.729C388.557 214.745 387.359 214.306 386.134 213.89Z" fill="white"/>
<path d="M353.935 202.71C355.937 202.71 357.56 200.943 357.56 198.764C357.56 196.585 355.937 194.818 353.935 194.818C351.933 194.818 350.31 196.585 350.31 198.764C350.31 200.943 351.933 202.71 353.935 202.71Z" fill="#C80000"/>
<path d="M390.014 129.89C386.567 133.242 381.946 136.839 377.725 134.384C374.954 132.771 373.72 129.235 374.367 125.888C375.531 119.869 380.311 116.617 384.94 113.988C390.957 110.57 397.597 107.589 404.335 108.478C411.073 109.366 417.656 115.427 417.337 122.806C417.082 128.741 412.629 134.277 414.039 140.017C415.457 145.793 421.898 148.03 427.385 148.324C432.871 148.618 438.911 148.109 443.263 151.757C448.815 156.41 448.726 166.142 444.774 172.44C440.821 178.739 434.147 182.283 427.591 184.977C418.905 188.547 409.358 191.126 400.392 188.501C391.427 185.877 383.577 176.514 384.893 166.51C385.448 162.284 387.49 158.49 389.461 154.8C391.432 151.109 393.415 147.261 393.829 143.016C394.174 139.479 393.142 135.574 390.745 133.295C390.311 132.898 390.004 132.362 389.867 131.763C389.731 131.165 389.772 130.534 389.986 129.963L390.014 129.89Z" fill="#2F2E41"/>
<path d="M0.702116 298H457.273C457.459 298 457.638 297.918 457.77 297.771C457.902 297.624 457.976 297.425 457.976 297.217C457.976 297.009 457.902 296.81 457.77 296.663C457.638 296.516 457.459 296.434 457.273 296.434H0.702116C0.609625 296.434 0.517992 296.454 0.432464 296.493C0.346936 296.532 0.2692 296.59 0.203704 296.662C0.138207 296.735 0.0862399 296.822 0.0507828 296.917C0.0153257 297.012 -0.00292969 297.114 -0.00292969 297.217C-0.00292969 297.32 0.0153257 297.422 0.0507828 297.517C0.0862399 297.612 0.138207 297.699 0.203704 297.771C0.2692 297.844 0.346936 297.902 0.432464 297.941C0.517992 297.98 0.609625 298 0.702116 298Z" fill="#3F3D56"/>
<path d="M42.3838 232.488V233.803C42.3856 235.983 43.2095 238.073 44.6748 239.614C46.14 241.155 48.1268 242.022 50.1989 242.024H106.468C108.54 242.023 110.527 241.157 111.993 239.615C113.458 238.074 114.282 235.983 114.283 233.803V232.488C114.287 230.564 113.644 228.701 112.469 227.226C112.078 226.737 111.636 226.296 111.15 225.911C111.15 225.911 80.215 225.174 80.215 224.267H50.1989C48.1271 224.27 46.1409 225.137 44.6759 226.678C43.211 228.219 42.3867 230.308 42.3838 232.488Z" fill="#3F3D56"/>
<path d="M74.4062 297.269H82.2607V242.024H74.4062V297.269Z" fill="#3F3D56"/>
<path d="M50.8428 296.753C50.8428 297.653 63.1508 297.101 78.3336 297.101C93.5163 297.101 105.824 297.653 105.824 296.753C105.824 295.854 93.5163 288.719 78.3336 288.719C63.1508 288.719 50.8428 295.854 50.8428 296.753Z" fill="#3F3D56"/>
<path d="M119.117 290.034H126.896L130.596 259.124L119.116 259.124L119.117 290.034Z" fill="#D6A1A1"/>
<path d="M141.707 297.532L117.702 297.533L117.701 287.743L132.432 287.742C134.892 287.742 137.251 288.773 138.99 290.609C140.73 292.445 141.707 294.936 141.707 297.532Z" fill="#2F2E41"/>
<path d="M131.071 285.431L138.451 283.042L133.03 252.547L122.138 256.072L131.071 285.431Z" fill="#D6A1A1"/>
<path d="M154.727 285.62L131.823 293.207L129.045 283.866L143.1 279.21C145.447 278.432 147.991 278.671 150.171 279.873C152.351 281.075 153.99 283.142 154.727 285.62Z" fill="#2F2E41"/>
<path d="M126.233 271.027L112.301 232.257C109.175 233.036 82.9632 239.184 74.1841 229.275C71.1754 225.879 70.5886 220.959 72.44 214.65L77.5635 207.825L77.7227 207.834C79.6599 207.942 125.205 210.648 128.327 225.212C130.96 237.49 135.767 260.382 137.178 267.106C137.321 267.802 137.223 268.53 136.902 269.157C136.581 269.783 136.059 270.267 135.43 270.519L129.827 272.746C129.515 272.871 129.184 272.935 128.85 272.935C128.283 272.935 127.729 272.752 127.262 272.412C126.795 272.071 126.436 271.588 126.233 271.027Z" fill="#2F2E41"/>
<path d="M118.278 275.63L104.218 236.861C101.064 237.639 74.6115 243.787 65.7518 233.879C62.7155 230.483 62.1233 225.562 63.9917 219.254L69.1621 212.429L69.3228 212.438C71.2778 212.546 117.241 215.252 120.392 229.816C123.048 242.094 127.9 264.986 129.323 271.709C129.468 272.406 129.369 273.134 129.045 273.76C128.721 274.387 128.194 274.871 127.559 275.123L121.905 277.35C121.59 277.475 121.256 277.538 120.919 277.538C120.347 277.538 119.788 277.356 119.317 277.015C118.845 276.675 118.483 276.192 118.278 275.63Z" fill="#2F2E41"/>
<path d="M104.768 200.591C102.705 200.59 100.677 200.013 98.8836 198.918C97.09 197.823 95.592 196.246 94.5361 194.341L90.1152 186.296L100.623 180.125L105.085 186.698L135.358 183.271C135.505 182.985 135.671 182.71 135.854 182.448C136.435 181.627 137.17 180.946 138.012 180.451C138.854 179.955 139.784 179.656 140.74 179.572C141.702 179.483 142.669 179.616 143.578 179.963C144.488 180.309 145.317 180.861 146.012 181.58C147.125 182.727 147.845 184.245 148.054 185.887C148.264 187.528 147.951 189.198 147.166 190.625C146.675 191.514 146.015 192.281 145.229 192.877C144.442 193.472 143.548 193.883 142.603 194.081C141.659 194.28 140.687 194.261 139.749 194.028C138.812 193.794 137.931 193.351 137.165 192.726C136.987 192.58 136.817 192.424 136.654 192.259L107.659 200.201C106.714 200.46 105.743 200.591 104.768 200.591Z" fill="#D6A1A1"/>
<path d="M64.09 221.727C63.6708 221.406 63.3435 220.968 63.1441 220.461C62.9448 219.954 62.8813 219.398 62.9606 218.855C64.6885 206.742 62.7005 189.389 60.7283 176.965C60.3246 174.445 60.4817 171.858 61.187 169.414C61.8923 166.969 63.1261 164.734 64.7898 162.888C66.4534 161.041 68.5005 159.635 70.7672 158.781C73.0338 157.928 75.457 157.65 77.8425 157.972C79.918 158.263 81.974 158.694 83.9983 159.262C87.3608 160.163 90.3351 162.253 92.4322 165.189C94.5294 168.126 95.6245 171.734 95.5376 175.42C95.2428 187.409 97.5319 202.368 98.5298 208.242C98.5979 208.646 98.5871 209.06 98.498 209.459C98.4089 209.857 98.2435 210.233 98.0121 210.56C97.7851 210.885 97.4969 211.155 97.1658 211.354C96.8348 211.553 96.4683 211.677 96.0898 211.716C85.0311 212.916 73.1054 218.651 66.981 221.963C66.5874 222.179 66.1512 222.292 65.7082 222.294C65.126 222.292 64.5594 222.093 64.09 221.727Z" fill="#CCCCCC"/>
<path d="M93.7599 190.515C93.4105 190.372 93.0918 190.158 92.8222 189.885C92.5526 189.613 92.3376 189.288 92.1895 188.928L85.8843 173.743C85.5026 172.826 85.298 171.839 85.2822 170.839C85.2665 169.839 85.4399 168.846 85.7926 167.916C86.1453 166.986 86.6704 166.138 87.3377 165.419C88.0051 164.701 88.8017 164.127 89.6821 163.729C90.5624 163.332 91.5092 163.12 92.4684 163.104C93.4275 163.089 94.3802 163.27 95.272 163.639C96.1638 164.007 96.9772 164.555 97.6657 165.252C98.3542 165.948 98.9043 166.779 99.2846 167.697L105.59 182.881C105.89 183.606 105.902 184.426 105.623 185.16C105.344 185.894 104.798 186.483 104.103 186.798L95.9463 190.479C95.6023 190.635 95.2319 190.719 94.8566 190.725C94.4813 190.731 94.1085 190.66 93.7599 190.515Z" fill="#CCCCCC"/>
<path d="M75.9167 152.58C84.4257 152.58 91.3236 145.366 91.3236 136.467C91.3236 127.568 84.4257 120.354 75.9167 120.354C67.4077 120.354 60.5098 127.568 60.5098 136.467C60.5098 145.366 67.4077 152.58 75.9167 152.58Z" fill="#D6A1A1"/>
<path d="M67.3598 151.016C67.1456 151.282 66.884 151.498 66.5904 151.653C66.2968 151.808 65.9773 151.898 65.6507 151.918C65.324 151.939 64.997 151.888 64.6888 151.77C64.3806 151.653 64.0976 151.47 63.8565 151.232C60.4846 148.304 57.8103 144.558 56.0544 140.302C54.0885 135.275 53.8004 129.14 56.0378 124.428C57.9291 120.445 61.3244 117.909 64.7139 115.837C66.0133 114.958 67.4373 114.313 68.93 113.925C69.6839 113.741 70.4654 113.729 71.224 113.889C71.9826 114.049 72.7015 114.378 73.3346 114.854C74.0062 115.402 74.5261 116.136 74.8383 116.977C75.1505 117.818 75.2432 118.734 75.1065 119.628C76.6569 117.437 78.7471 115.754 81.1415 114.769C82.6105 114.09 84.2519 113.972 85.7922 114.435C87.9689 115.214 89.5802 117.572 90.4768 120.106C91.2019 122.045 91.4674 124.148 91.2497 126.224C91.1548 127.216 90.8728 128.177 90.421 129.048C89.9691 129.919 89.3568 130.682 88.6213 131.291C86.8458 132.606 84.5583 132.472 82.4934 131.891C80.4285 131.309 78.4244 130.323 76.3235 130.048C74.2225 129.773 71.8941 130.369 70.6424 132.379C69.7609 133.795 69.553 135.66 69.3732 137.437L68.4377 146.683C68.3716 148.006 68.1059 149.309 67.6511 150.541C67.5741 150.712 67.4761 150.872 67.3598 151.016Z" fill="#2F2E41"/>
<path d="M122.506 250.574H97.624C97.2208 250.575 96.8226 250.48 96.4598 250.295C96.0969 250.11 95.779 249.841 95.5302 249.508C95.2759 249.17 95.0983 248.775 95.0111 248.355C94.9238 247.934 94.9291 247.498 95.0265 247.079C97.354 236.838 97.3539 226.165 95.0263 215.923C94.929 215.505 94.9237 215.069 95.011 214.648C95.0983 214.227 95.2759 213.833 95.5302 213.495C95.779 213.161 96.0969 212.892 96.4598 212.707C96.8226 212.523 97.2208 212.427 97.624 212.429H122.506C123.142 212.43 123.756 212.668 124.241 213.101C124.725 213.534 125.047 214.133 125.15 214.792C126.773 225.866 126.773 237.136 125.15 248.21C125.047 248.869 124.725 249.468 124.241 249.901C123.756 250.334 123.142 250.572 122.506 250.574Z" fill="#CCCCCC"/>
<path d="M103.407 226.67V225.81C103.408 225.227 103.607 224.667 103.96 224.255C104.313 223.842 104.792 223.61 105.292 223.609H118.44C118.939 223.61 119.419 223.842 119.772 224.255C120.125 224.667 120.324 225.227 120.325 225.81V226.67C120.324 227.253 120.125 227.813 119.772 228.225C119.419 228.638 118.939 228.87 118.44 228.871H105.292C104.792 228.87 104.313 228.638 103.96 228.225C103.607 227.813 103.408 227.253 103.407 226.67Z" fill="white"/>
<path d="M103.407 234.837V234.085C103.408 233.574 103.607 233.085 103.96 232.724C104.313 232.363 104.792 232.16 105.292 232.159H118.44C118.939 232.16 119.419 232.363 119.772 232.724C120.125 233.085 120.324 233.574 120.325 234.085V234.837C120.324 235.348 120.125 235.837 119.772 236.198C119.419 236.559 118.939 236.762 118.44 236.763H105.292C104.792 236.762 104.313 236.559 103.96 236.198C103.607 235.837 103.408 235.348 103.407 234.837Z" fill="white"/>
<path d="M100.253 217.283C99.337 216.949 98.4985 216.417 97.7923 215.722C97.0861 215.028 96.5279 214.186 96.1541 213.251C96.0678 213.033 95.9926 212.81 95.9288 212.584L63.1045 202.832C61.694 202.407 60.4524 201.519 59.564 200.299C58.6756 199.079 58.1877 197.593 58.1729 196.061L58.0928 182.833L70.1918 183.171L70.9803 191.116L99.0484 204.268C99.3126 204.103 99.5875 203.958 99.8711 203.833C100.905 203.381 102.029 203.198 103.146 203.3C104.263 203.402 105.339 203.787 106.281 204.42C107.224 205.054 108.005 205.917 108.556 206.936C109.107 207.955 109.413 209.098 109.446 210.268C109.479 211.437 109.239 212.598 108.747 213.649C108.254 214.7 107.524 215.61 106.619 216.301C105.714 216.991 104.661 217.441 103.552 217.613C102.443 217.784 101.311 217.671 100.253 217.283Z" fill="#D6A1A1"/>
<path d="M58.2126 188.519C57.9609 188.231 57.768 187.895 57.6448 187.531C57.5217 187.167 57.4708 186.782 57.4952 186.397L58.4779 170.146C58.5357 169.163 58.7836 168.201 59.2074 167.316C59.6311 166.43 60.2224 165.639 60.9475 164.986C61.6725 164.333 62.517 163.832 63.4327 163.511C64.3484 163.191 65.3173 163.057 66.2839 163.117C67.2505 163.178 68.1959 163.431 69.0661 163.864C69.9362 164.296 70.7139 164.899 71.3548 165.637C71.9956 166.375 72.487 167.235 72.8008 168.166C73.1146 169.098 73.2447 170.083 73.1836 171.066L72.2011 187.317C72.1532 188.093 71.8048 188.817 71.2322 189.332C70.6597 189.846 69.9098 190.109 69.147 190.063L60.1955 189.503C59.8174 189.481 59.4474 189.382 59.107 189.213C58.7667 189.044 58.4626 188.808 58.2126 188.519Z" fill="#CCCCCC"/>
<path d="M159.304 198.209C159.107 198.914 158.733 199.525 158.236 199.952C157.739 200.38 157.145 200.603 156.538 200.59L144.685 200.215C144.074 200.201 143.483 199.943 143 199.482C142.518 199.02 142.17 198.38 142.009 197.655L140.331 175.616C139.736 175.948 139.089 176.111 138.435 176.095C137.868 176.078 137.309 175.923 136.79 175.64C136.271 175.357 135.803 174.951 135.411 174.446C135.02 173.94 134.714 173.345 134.51 172.694C134.306 172.043 134.208 171.349 134.222 170.652C134.237 169.955 134.363 169.268 134.593 168.63C134.823 167.993 135.154 167.417 135.565 166.937C135.976 166.456 136.461 166.079 136.99 165.829C137.52 165.578 138.085 165.458 138.652 165.476C138.913 165.475 139.174 165.508 139.429 165.575C139.707 165.206 140.044 164.912 140.42 164.713C140.795 164.514 141.201 164.414 141.61 164.419L159.843 164.997C159.994 165.004 160.144 165.027 160.292 165.066C160.692 165.157 161.071 165.353 161.405 165.64C161.738 165.927 162.017 166.298 162.223 166.728C162.43 167.159 162.559 167.639 162.602 168.136C162.645 168.633 162.601 169.135 162.473 169.609L159.304 198.209ZM139.988 174.12L138.794 168.868C138.658 168.262 138.655 167.622 138.785 167.013C138.727 167.013 138.676 166.979 138.618 166.979C137.8 166.958 137.008 167.337 136.416 168.032C135.825 168.728 135.482 169.683 135.463 170.688C135.444 171.694 135.75 172.668 136.314 173.396C136.878 174.125 137.655 174.549 138.473 174.575C139.002 174.596 139.526 174.438 139.988 174.12Z" fill="#465DA3"/>
<path d="M160.201 165.1C159.804 167.972 155.34 169.991 149.973 169.64C145.038 169.353 141.002 167.16 140.263 164.562C140.536 164.459 140.821 164.411 141.106 164.419L159.741 165.028C159.896 165.035 160.05 165.06 160.201 165.1Z" fill="#3F3D56"/>
<path d="M333.912 23.0186H142.193C140.737 23.0186 139.296 23.3306 137.952 23.9369C136.607 24.5431 135.385 25.4317 134.356 26.5519C133.327 27.6721 132.511 29.0019 131.954 30.4655C131.397 31.9291 131.11 33.4978 131.11 35.082V85.2724C131.11 86.8566 131.397 88.4252 131.954 89.8888C132.511 91.3524 133.327 92.6823 134.356 93.8025C135.385 94.9227 136.607 95.8113 137.952 96.4175C139.296 97.0237 140.737 97.3358 142.193 97.3358H145.007V106.404C145.007 106.954 145.157 107.492 145.438 107.949C145.718 108.407 146.118 108.763 146.585 108.974C147.052 109.184 147.565 109.239 148.061 109.132C148.557 109.025 149.012 108.76 149.37 108.371L159.507 97.3358H333.912C335.368 97.3358 336.809 97.0237 338.153 96.4175C339.498 95.8113 340.72 94.9227 341.749 93.8025C342.778 92.6823 343.594 91.3524 344.151 89.8888C344.708 88.4252 344.995 86.8566 344.995 85.2724V35.082C344.995 33.4978 344.708 31.9291 344.151 30.4655C343.594 29.0019 342.778 27.6721 341.749 26.5519C340.72 25.4317 339.498 24.5431 338.153 23.9369C336.809 23.3306 335.368 23.0186 333.912 23.0186Z" fill="#DEDEDE"/>
<path d="M287.803 91.0876H142.192C140.776 91.0859 139.418 90.4726 138.416 89.3824C137.415 88.2921 136.851 86.8139 136.85 85.272V35.0819C136.851 33.5402 137.415 32.062 138.416 30.9718C139.418 29.8816 140.776 29.2684 142.192 29.2666H333.912C335.328 29.2683 336.686 29.8816 337.688 30.9719C338.689 32.0622 339.253 33.5404 339.254 35.0823C339.239 49.9307 333.813 64.1662 324.168 74.6656C314.522 85.165 301.444 91.0709 287.803 91.0876Z" fill="white"/>
<path d="M278.735 40.1181H197.773C195.77 40.1181 194.147 41.8848 194.147 44.0641V44.0642C194.147 46.2435 195.77 48.0102 197.773 48.0102H278.735C280.737 48.0102 282.36 46.2435 282.36 44.0641C282.36 41.8848 280.737 40.1181 278.735 40.1181Z" fill="#465DA3"/>
<path d="M295.954 55.9023H180.553C178.551 55.9023 176.928 57.669 176.928 59.8483V59.8483C176.928 62.0277 178.551 63.7944 180.553 63.7944H295.954C297.956 63.7944 299.579 62.0277 299.579 59.8483C299.579 57.669 297.956 55.9023 295.954 55.9023Z" fill="#DEDEDE"/>
<path d="M295.954 71.6865H180.553C178.551 71.6865 176.928 73.4532 176.928 75.6325V75.6325C176.928 77.8118 178.551 79.5786 180.553 79.5786H295.954C297.956 79.5786 299.579 77.8118 299.579 75.6325C299.579 73.4532 297.956 71.6865 295.954 71.6865Z" fill="#DEDEDE"/>
<path d="M442.262 273.168L442.137 272.898C442.099 272.815 438.361 264.568 440.445 256.439C442.529 248.31 449.697 243.176 449.768 243.125L450.005 242.958L450.13 243.229C450.168 243.311 453.906 251.559 451.822 259.688C449.738 267.817 442.57 272.951 442.498 273.001L442.262 273.168ZM451.522 258.769C452.921 251.837 443.175 249.071 441.135 255.823C441.06 256.07 440.99 256.321 440.925 256.574C439.105 263.672 441.839 270.885 442.462 272.383C443.717 271.42 449.523 266.648 451.343 259.55C451.409 259.292 451.469 259.031 451.522 258.769Z" fill="#3F3D56"/>
<path d="M432.622 259.619C434.706 267.749 441.847 272.783 441.847 272.783C441.847 272.783 445.607 264.638 443.523 256.508C441.439 248.379 434.298 243.344 434.298 243.344C434.298 243.344 430.538 251.49 432.622 259.619Z" fill="#CBD5F2"/>
<path d="M442.375 273.055L442.09 273.038C442.004 273.033 433.358 272.471 427.638 266.597C421.918 260.724 421.154 251.617 421.146 251.526L421.123 251.226L421.408 251.243C421.494 251.248 430.14 251.81 435.859 257.684C441.579 263.558 442.344 272.664 442.351 272.755L442.375 273.055ZM427.985 266.222C432.979 271.355 440.279 272.337 441.824 272.491C441.636 270.866 440.507 263.193 435.513 258.06C435.334 257.877 435.153 257.699 434.969 257.526C429.953 252.813 422.904 260.432 427.453 265.645C427.626 265.842 427.803 266.035 427.985 266.222Z" fill="#3F3D56"/>
<path d="M448.519 257.872C442.8 263.746 442.102 272.777 442.102 272.777C442.102 272.777 450.675 272.283 456.394 266.408C462.112 260.534 462.812 251.503 462.812 251.503C462.812 251.503 454.238 251.997 448.519 257.872Z" fill="#3F3D56"/>
<path d="M441.982 242.002C444.042 242.002 445.711 240.241 445.711 238.067C445.711 235.894 444.042 234.132 441.982 234.132C439.923 234.132 438.253 235.894 438.253 238.067C438.253 240.241 439.923 242.002 441.982 242.002Z" fill="#CBD5F2"/>
<path d="M435.215 271.16H449.442C451.146 271.16 452.78 271.874 453.985 273.146C455.19 274.417 455.867 276.142 455.867 277.94C455.867 281.684 453.856 295.266 450.308 295.266L432.868 295.75C429.32 295.75 428.79 281.684 428.79 277.94C428.79 276.142 429.467 274.417 430.672 273.146C431.877 271.874 433.511 271.16 435.215 271.16Z" fill="#E6E6E6"/>
</g>
<defs>
<clipPath id="clip0_4058_1213">
<rect width="476" height="298" fill="white"/>
</clipPath>
</defs>
</svg>
