<svg width="346" height="244" viewBox="0 0 346 244" fill="none" xmlns="http://www.w3.org/2000/svg">
<g clip-path="url(#clip0_4058_1142)">
<path d="M251.078 148.033C251.078 148.033 242.355 157.911 248.652 174.978C254.948 192.044 251.413 207.302 253.181 210.361C254.948 213.421 258.506 216.326 255.566 218.646C252.626 220.965 251.078 222.852 253.4 223.48C255.722 224.109 263.463 268.12 263.463 268.12L276.621 268.749C276.621 268.749 281.388 248.304 276.295 231.806C276.295 231.806 277.413 219.828 275.082 216.31C272.751 212.792 273.208 215.965 273.367 211.549C273.454 208.356 274.027 205.183 275.073 202.104C275.847 199.589 276.295 174.242 276.295 174.242L289.105 207.878C289.619 209.037 289.812 210.274 289.67 211.5C289.353 213.233 289.35 215.822 289.739 216.728C290.127 217.634 290.56 217.824 290.343 219.615C290.127 221.406 315.908 259.158 315.908 259.158L328.717 252.178L316.097 219.079C314.843 217.951 313.8 216.68 313 215.307C311.452 212.792 311.392 212.653 312.196 210.837C313 209.02 313 205.48 313 204.421C313 203.361 313.805 155.265 303.727 148.191C293.65 141.117 251.078 148.033 251.078 148.033Z" fill="#2F2E41"/>
<path d="M299.116 218.327L296.648 242.721L296.536 243.836L268.615 243.721L268.468 242.602L265.512 220.25L299.116 218.327Z" fill="#FFB6B6"/>
<path d="M256.426 242.554C256.426 242.922 256.422 243.294 256.419 243.669L227.434 243.55L227.34 242.431L225.553 221.212L255.523 217.364C255.523 217.364 256.489 228.619 256.426 242.554Z" fill="#FFB6B6"/>
<path d="M102.124 124.183C102.124 124.183 112.114 117.981 114.804 123.732C117.494 129.483 142.348 198.093 142.348 198.093L126.332 201.395L102.124 124.183Z" fill="#465DA3"/>
<path d="M80.3361 83.1973L80.807 83.9073C79.0514 84.9806 78.7926 87.6885 79.6158 89.6534C80.439 91.6183 82.0324 93.0747 83.4107 94.6532C84.789 96.2318 86.0456 98.1868 85.9178 100.333C85.7744 102.747 83.9159 104.735 83.6571 107.14C83.2829 110.64 86.3606 113.711 86.2078 117.232C86.0924 119.92 84.1404 122.079 82.2039 123.823C80.6885 125.19 79.0389 126.564 78.0161 128.328C77.7355 128.813 77.5016 129.331 77.3301 129.886C76.5661 132.389 77.2865 135.117 78.2562 137.538C79.2229 139.959 80.4546 142.323 80.7571 144.932C81.0564 147.541 80.1272 150.553 77.8602 151.623C82.3755 151.213 86.7816 149.545 90.5203 146.834C90.8571 146.59 91.1845 146.339 91.5088 146.081C96.8099 141.854 100.533 135.748 104.116 129.797C104.412 129.308 104.705 128.816 105.002 128.328C105.797 127.003 106.595 125.682 107.393 124.358C109.67 120.574 111.974 116.733 113.215 112.446C114.356 108.493 114.55 104.316 115.017 100.211C115.245 98.2 115.544 96.1954 115.601 94.1711C115.691 91.0569 115.189 87.9296 114.166 85.007C113.165 82.1339 111.662 79.4557 109.726 77.177C107.743 74.8422 105.317 72.9434 102.647 71.5762C100.062 70.2519 97.2495 69.4296 94.3839 69.2018C93.4235 69.1258 92.4661 69.1126 91.5088 69.1589C87.7326 69.324 84.0001 70.3345 80.3704 71.5762C77.7012 72.9434 75.2752 74.8422 73.292 77.177C71.3555 79.4557 69.8525 82.1339 68.8516 85.007C72.3315 83.0387 76.4664 82.3618 80.3361 83.1973Z" fill="#2F2E41"/>
<path d="M107.399 119.325L89.4943 111.889L89.041 119.325L73.3451 121.927L65.9727 157.248L72.643 179.184L122.495 180.672L120.739 173.236C120.739 173.236 128.814 163.569 123.899 147.953L123.353 143.979C121.926 133.588 116.034 124.484 107.399 119.325Z" fill="#465DA3"/>
<path d="M97.4334 111.555C106.216 111.555 113.337 104.014 113.337 94.7127C113.337 85.411 106.216 77.8705 97.4334 77.8705C88.6503 77.8705 81.5303 85.411 81.5303 94.7127C81.5303 104.014 88.6503 111.555 97.4334 111.555Z" fill="#FFB6B6"/>
<path d="M67.4166 94.1711C67.4728 96.1954 67.7721 98.2 67.9998 100.211C68.4675 104.316 68.6608 108.493 69.8021 112.446C71.0432 116.733 73.3476 120.574 75.6239 124.358C76.4222 125.682 77.2205 127.003 78.0156 128.328C78.3118 128.816 78.605 129.308 78.9012 129.797C82.4841 135.748 86.2073 141.854 91.5083 146.081C91.8326 146.339 92.1601 146.59 92.4968 146.834C96.2356 149.545 100.642 151.213 105.157 151.623C102.89 150.553 101.961 147.541 102.26 144.932C102.563 142.323 103.794 139.959 104.761 137.538C105.731 135.117 106.451 132.389 105.687 129.886C105.516 129.331 105.282 128.813 105.001 128.328C103.978 126.564 102.329 125.19 100.813 123.823C98.8768 122.079 96.9247 119.92 96.8094 117.232C96.6566 113.711 94.533 114.89 94.1589 111.39C93.9 108.986 90.8722 104.887 90.7288 102.473C90.6009 100.327 91.8451 95.1353 93.2234 93.5568C94.6017 91.9783 93.3356 87.2658 94.1588 85.3009C94.9821 83.336 103.966 84.9806 102.21 83.9073L102.681 83.1973C106.551 82.3618 110.686 83.0387 114.166 85.007C114.923 85.433 115.647 85.9184 116.333 86.4666C117.989 83.2633 116.024 79.1981 113.352 76.8897C110.736 74.6243 107.511 73.3165 104.312 72.164C103.76 71.9659 103.205 71.7677 102.647 71.5762C99.0171 70.3345 95.2845 69.324 91.5083 69.1589C90.551 69.1126 89.5937 69.1258 88.6333 69.2018C85.7676 69.4296 82.9549 70.2519 80.3699 71.5762C77.7007 72.9434 75.2747 74.8422 73.2914 77.177C71.355 79.4557 69.852 82.1339 68.851 85.007C67.8282 87.9296 67.3262 91.0569 67.4166 94.1711Z" fill="#2F2E41"/>
<path d="M345.018 228.808L322.851 179.482C321.198 175.801 317.641 173.422 313.79 173.422H33.8054C32.7415 173.422 31.706 173.596 30.7299 173.931C28.2619 174.767 26.1626 176.597 24.9198 179.11L1.15932 227.079C-0.483662 230.392 -0.37481 234.289 1.45073 237.493C3.27276 240.702 6.47105 242.628 10.0063 242.643L225.356 243.539L227.434 243.55L256.418 243.669L258.244 243.676L264.981 243.706L268.615 243.721L296.535 243.836L302.458 243.862L335.918 244H335.96C339.415 244 342.578 242.156 344.432 239.066C346.292 235.962 346.51 232.125 345.018 228.808Z" fill="white"/>
<path d="M345.018 228.808L322.851 179.482C321.198 175.801 317.641 173.422 313.79 173.422H33.8054C32.7415 173.422 31.706 173.596 30.7299 173.931C28.2619 174.767 26.1626 176.597 24.9198 179.11L1.15932 227.079C-0.483662 230.392 -0.37481 234.289 1.45073 237.493C3.27276 240.702 6.47105 242.628 10.0063 242.643L225.356 243.539L227.434 243.55L256.418 243.669L258.244 243.676L264.981 243.706L268.615 243.721L296.535 243.836L302.458 243.862L335.918 244H335.96C339.415 244 342.578 242.156 344.432 239.066C346.292 235.962 346.51 232.125 345.018 228.808ZM343.543 238.468C341.883 241.238 339.053 242.885 335.96 242.885H335.922L302.437 242.743L296.648 242.721L268.467 242.602L264.77 242.587L258.276 242.561L256.425 242.554L227.339 242.431L225.349 242.424L10.0098 241.528C6.84671 241.513 3.98193 239.791 2.353 236.921C0.720478 234.051 0.622256 230.563 2.09322 227.596L25.8536 179.631C26.7102 177.902 28.0161 176.533 29.5785 175.652C30.8528 174.931 32.2992 174.537 33.8054 174.537H313.79C317.238 174.537 320.418 176.667 321.9 179.961L344.066 229.284C345.404 232.259 345.207 235.69 343.543 238.468Z" fill="#3F3D56"/>
<path d="M99.4991 209.114L152.511 188.665L126.005 177.375L73.1689 192.012L99.4991 209.114Z" fill="#E1E1E1"/>
<path d="M180.246 178.255L174.277 198.332L244.14 202.794L238.172 180.114L180.246 178.255Z" fill="#E1E1E1"/>
<path d="M97.8945 181.689C102.807 182.205 106.537 185.307 106.226 188.618C105.916 191.928 101.683 194.193 96.7688 193.676C94.8033 193.498 92.9066 192.825 91.2375 191.711L70.4512 189.247L71.7509 178.941L92.1046 182.465C93.9484 181.72 95.9337 181.454 97.8945 181.689Z" fill="#FFB6B6"/>
<path d="M77.0308 123.972L73.3446 121.927C73.3446 121.927 67.552 122.113 63.6902 126.203C59.8284 130.293 28.5833 177.14 28.5833 177.14C28.5833 177.14 20.8597 189.781 40.1685 191.64C59.4774 193.499 80.8926 193.499 80.8926 193.499L82.648 178.255L53.5092 174.909L73.9141 146.28L77.0308 123.972Z" fill="#465DA3"/>
<path d="M283.984 54.3772C294.84 54.3772 303.64 45.9499 303.64 35.5543C303.64 25.1587 294.84 16.7314 283.984 16.7314C273.129 16.7314 264.329 25.1587 264.329 35.5543C264.329 45.9499 273.129 54.3772 283.984 54.3772Z" fill="#D6A1A1"/>
<path d="M307.339 40.711C305.536 44.2285 303.114 47.3959 300.191 50.0636C299.351 51.0141 298.28 51.7336 297.081 52.1528C296.478 52.3486 295.825 52.3275 295.237 52.0933C294.648 51.8591 294.16 51.4266 293.858 50.8711L293.504 50.389C294.528 50.077 295.494 49.6009 296.365 48.9794C296.797 48.6664 297.148 48.255 297.389 47.7796C297.629 47.3042 297.753 46.7785 297.748 46.246C297.717 45.7139 297.48 45.2146 297.087 44.8528C296.695 44.4911 296.176 44.2951 295.641 44.3061C294.448 44.4476 293.381 45.8364 292.311 45.3011C291.447 44.8635 291.571 43.6105 291.819 42.6646C293.149 37.7277 292.592 30.0754 290.679 29.8079C288.776 29.4219 286.962 28.6825 285.334 27.6283C283.703 26.5725 281.882 25.8427 279.972 25.4797C279.834 25.4616 279.695 25.4519 279.546 25.4399C279.492 24.422 279.314 23.4143 279.016 22.439C278.809 23.4689 278.492 24.4739 278.07 25.437C276.416 25.6617 274.745 25.7458 273.076 25.6885C271.297 25.4828 266.185 29.6125 266.147 29.0443C266.092 28.0263 265.914 27.0188 265.617 26.0434C265.409 27.0733 265.092 28.0783 264.671 29.0414C264.651 29.0807 264.643 29.1139 264.624 29.1532C264.08 27.8329 263.924 26.3565 263.938 27.459C262.796 20.4434 265.06 16.2194 270.839 12.0591C271.993 11.1416 273.362 10.531 274.818 10.2846C275.545 10.1689 276.29 10.2416 276.981 10.4959C277.671 10.7501 278.285 11.1772 278.761 11.7361C280.98 10.5667 283.473 10.0097 285.98 10.123C288.488 10.2362 290.919 11.0154 293.023 12.38C297.179 15.1546 300.459 17.0007 299.906 21.9622C303.845 22.3403 307.174 25.4932 308.418 29.2296C309.653 32.9721 309.012 37.1486 307.339 40.711Z" fill="#2F2E41"/>
<path d="M298.585 71.0345L295.969 64.9666L288.824 59.1449L275.645 57.8629L267.066 62.4589L259.12 68.8416L247.385 148.216C247.385 148.216 302.815 165.63 310.078 151.016L298.585 71.0345Z" fill="#CBD5F2"/>
<path d="M266.701 62.7429L256.757 63.8894L244.935 67.5664C244.935 67.5664 250.334 117.2 249.207 118.862C248.08 120.523 246.077 119.486 247.791 121.166C249.505 122.846 251.047 122.101 249.207 123.635C247.367 125.168 244.27 123.225 246.175 125.939C248.08 128.652 238.9 166.011 241.372 168.015C243.844 170.019 250.212 168.772 250.215 167.292C250.02 165.697 249.28 164.179 248.08 162.909C247.735 162.588 247.545 162.175 247.545 161.748C247.545 161.321 247.735 160.908 248.08 160.587C249.089 159.795 249.783 158.774 250.07 157.657C250.217 156.522 251.306 155.128 251.831 154.083C252.355 153.039 265.568 82.3232 265.568 82.3232L266.701 62.7429Z" fill="#494766"/>
<path d="M302.766 70.3192L294.642 63.7603C294.642 63.7603 289.447 103.841 291.053 106.724C292.659 109.606 294.674 108.949 292.474 110.408C290.273 111.867 288.004 110.275 290.234 113.152C291.551 114.767 292.164 116.647 291.984 118.52C291.984 118.52 302.228 175.951 309.172 176.174C316.117 176.397 320.512 174.999 320.315 173.425C320.118 171.851 316.14 167.82 317.446 166.891C318.752 165.963 321.877 166.796 318.816 164.871C315.754 162.945 314.193 163.479 315.036 161.168C315.878 158.858 310.9 128.394 310.9 128.394L311.863 77.8091L302.766 70.3192Z" fill="#494766"/>
<path d="M226.765 112.855L231.22 111.454C226.703 106.199 214.939 96.9095 214.939 96.9095L194.911 79.2295C194.695 78.4534 194.27 77.7403 193.678 77.162C193.086 76.5838 192.348 76.1608 191.539 75.9356C190.731 75.7103 189.879 75.6909 189.07 75.8791C188.261 76.0674 187.523 76.4567 186.931 77.008C186.34 77.5592 185.914 78.2529 185.698 79.0191C185.482 79.7854 185.483 80.5972 185.701 81.3729C185.919 82.1486 186.346 82.8607 186.939 83.4377C187.533 84.0146 188.271 84.436 189.081 84.6593L210.744 109.699L226.765 112.855Z" fill="#D6A1A1"/>
<path d="M261.486 84.1606L256.887 68.6126L245.103 67.824L225.385 99.276L222.987 98.8042L218.177 100.326L209.856 115.265C209.856 115.265 216.981 116.312 219.688 114.113C222.394 111.913 222.633 113.767 222.633 113.767C223.229 114.092 223.963 114.221 224.718 114.132C225.472 114.044 226.202 113.744 226.79 113.28C229.084 111.642 234.567 112.368 234.567 112.368L261.486 84.1606Z" fill="#494766"/>
<path d="M325.607 115.855L314.307 113.493C309.999 118.421 307.434 132.338 307.434 132.338L294.419 153.031C293.645 153.375 293.003 153.884 292.558 154.507C292.113 155.13 291.88 155.845 291.884 156.58C291.888 157.315 292.128 158.043 292.58 158.693C293.032 159.342 293.68 159.889 294.459 160.279C295.238 160.668 296.12 160.887 297.016 160.912C297.913 160.938 298.792 160.769 299.565 160.423C300.339 160.078 300.98 159.567 301.423 158.943C301.866 158.319 302.096 157.604 302.09 156.869L322.576 133.264L325.607 115.855Z" fill="#D6A1A1"/>
<path d="M297.54 79.7211L302.374 74.2457L312.177 77.9917L320.331 103.853C320.331 103.853 326.285 107.04 325.015 109.287C323.745 111.535 323.069 113.348 324.382 114.636C325.695 115.924 329.519 116.019 326.671 118.118C323.822 120.218 326.261 125.705 326.261 125.705L323.531 130.714L306.482 130.13L297.54 79.7211Z" fill="#494766"/>
<path d="M278.13 161.283C281.259 147.346 272.795 133.465 259.226 130.279C245.656 127.094 232.119 135.81 228.99 149.747C225.861 163.684 234.325 177.565 247.894 180.751C261.464 183.937 275.001 175.221 278.13 161.283Z" fill="#FFB6B6"/>
<path d="M322.776 220.416C321.87 215.807 319.82 211.549 316.843 208.095C313.867 204.642 310.076 202.122 305.875 200.805L305.857 200.794C305.055 200.369 304.206 200.056 303.331 199.861L273.724 193.339L267.792 186.486L242.552 188.22L239.917 196.104L210.924 209.977L211.405 209.614C210.162 210.151 208.954 210.774 207.788 211.481L207.641 211.551C206.805 211.955 206.029 212.488 205.337 213.134C197.964 218.643 193.092 227.487 192.912 237.348L192.146 245.394H327.7L322.776 220.416Z" fill="#2F2E41"/>
<path d="M280.995 140.298C278.506 133.647 271.991 128.286 265.051 128.87C265.5 127.149 264.472 125.308 263.029 124.313C261.586 123.317 259.812 122.988 258.09 122.724C254.532 122.177 250.835 121.817 247.384 122.864C243.933 123.911 240.76 126.669 240.168 130.3C236.817 127.43 230.973 128.616 228.942 132.578C227.896 134.617 227.878 137.276 229.228 139.116C230.571 140.944 232.963 141.664 235.198 141.642C237.434 141.621 239.614 140.982 241.821 140.615C247.092 139.739 252.753 140.508 257.216 143.504C261.68 146.499 264.723 151.902 264.256 157.344C265.908 156.125 268.419 156.76 269.708 158.373C270.997 159.986 271.217 162.278 270.77 164.312C270.323 166.345 269.292 168.186 268.275 169.991C266.401 173.316 264.527 176.641 262.654 179.965L263.524 180.488C266.688 181.643 269.895 178.957 272.006 176.282C275.566 171.769 278.353 166.672 280.251 161.208C282.58 154.494 283.485 146.949 280.995 140.298Z" fill="#1E1D22"/>
</g>
<defs>
<clipPath id="clip0_4058_1142">
<rect width="346" height="244" fill="white"/>
</clipPath>
</defs>
</svg>
