<svg width="377" height="341" viewBox="0 0 377 341" fill="none" xmlns="http://www.w3.org/2000/svg">
<g clip-path="url(#clip0_4058_1277)">
<path d="M205.622 328.928C205.32 328.943 205.021 328.861 204.765 328.694C204.51 328.527 204.31 328.283 204.194 327.995C204.077 327.707 204.049 327.389 204.113 327.084C204.178 326.778 204.331 326.501 204.553 326.289L204.654 325.875C204.641 325.841 204.628 325.808 204.614 325.775C204.31 325.033 203.8 324.4 203.148 323.956C202.497 323.512 201.733 323.277 200.952 323.28C200.172 323.283 199.41 323.524 198.761 323.973C198.113 324.422 197.608 325.059 197.309 325.803C196.114 328.774 194.593 331.75 194.218 334.891C194.053 336.28 194.123 337.688 194.424 339.052C191.618 332.731 190.16 325.862 190.151 318.91C190.15 317.165 190.244 315.422 190.432 313.688C190.587 312.266 190.803 310.855 191.079 309.454C192.583 301.851 195.812 294.726 200.502 288.662C202.771 287.383 204.607 285.417 205.761 283.028C206.179 282.17 206.475 281.253 206.638 280.307C206.382 280.342 205.673 276.316 205.866 276.069C205.509 275.51 204.87 275.232 204.481 274.686C202.543 271.973 199.872 272.447 198.479 276.134C195.501 277.685 195.472 280.259 197.299 282.734C198.461 284.308 198.621 286.439 199.641 288.124C199.536 288.263 199.427 288.397 199.322 288.536C197.404 291.083 195.732 293.817 194.331 296.701C194.671 293.47 194.265 290.203 193.144 287.167C192.008 284.337 189.878 281.954 188.003 279.508C185.751 276.57 181.132 277.852 180.735 281.577C180.731 281.613 180.727 281.649 180.724 281.685C181.002 281.847 181.275 282.019 181.542 282.201C181.877 282.433 182.136 282.763 182.287 283.149C182.437 283.535 182.47 283.959 182.383 284.365C182.296 284.772 182.092 285.141 181.798 285.426C181.504 285.71 181.133 285.896 180.735 285.96L180.694 285.966C180.793 287.003 180.969 288.03 181.219 289.039C178.813 298.644 184.007 302.142 191.423 302.299C191.586 302.386 191.746 302.473 191.91 302.555C190.502 306.675 189.618 310.966 189.282 315.321C189.092 317.891 189.103 320.472 189.316 323.039L189.303 322.948C188.766 320.093 187.291 317.517 185.127 315.655C181.913 312.929 177.372 311.926 173.905 309.735C173.536 309.49 173.108 309.36 172.67 309.359C172.232 309.358 171.803 309.486 171.433 309.728C171.063 309.971 170.769 310.317 170.584 310.727C170.398 311.137 170.331 311.592 170.388 312.041C170.393 312.072 170.397 312.104 170.402 312.136C170.919 312.354 171.422 312.604 171.909 312.886C172.188 313.048 172.46 313.22 172.727 313.402C173.062 313.634 173.322 313.964 173.472 314.35C173.622 314.736 173.656 315.16 173.569 315.566C173.482 315.973 173.278 316.342 172.983 316.627C172.689 316.911 172.319 317.098 171.921 317.161L171.88 317.167C171.85 317.172 171.825 317.176 171.796 317.18C172.679 319.358 173.918 321.361 175.46 323.104C176.964 331.489 183.425 332.285 190.336 329.843H190.34C191.098 333.245 192.197 336.556 193.618 339.723H205.329C205.371 339.589 205.408 339.45 205.446 339.316C204.362 339.386 203.274 339.319 202.206 339.117C203.075 338.016 203.943 336.906 204.812 335.806C204.832 335.785 204.85 335.763 204.867 335.741C205.308 335.177 205.753 334.618 206.193 334.055L206.193 334.054C206.217 332.328 206.025 330.605 205.622 328.928Z" fill="#CBD5F2"/>
<path d="M188.272 137.756C175.077 137.756 162.179 133.716 151.208 126.148C140.236 118.579 131.685 107.822 126.636 95.2362C121.587 82.6504 120.265 68.8014 122.84 55.4404C125.414 42.0794 131.768 29.8066 141.098 20.1739C150.428 10.5411 162.315 3.98116 175.257 1.3235C188.198 -1.33417 201.612 0.0298426 213.803 5.24304C225.993 10.4562 236.413 19.2845 243.743 30.6114C251.074 41.9383 254.987 55.2551 254.987 68.8778C254.967 87.139 247.931 104.646 235.424 117.559C222.917 130.472 205.96 137.735 188.272 137.756ZM188.272 1.08472C175.285 1.08472 162.59 5.06072 151.791 12.5099C140.993 19.9591 132.577 30.547 127.607 42.9345C122.637 55.3221 121.336 68.953 123.87 82.1036C126.404 95.2542 132.658 107.334 141.841 116.815C151.024 126.296 162.724 132.752 175.462 135.368C188.199 137.984 201.402 136.642 213.401 131.51C225.399 126.379 235.654 117.69 242.87 106.542C250.085 95.3931 253.936 82.286 253.936 68.8778C253.916 50.9042 246.992 33.6726 234.682 20.9633C222.372 8.25402 205.681 1.10503 188.272 1.08472Z" fill="white"/>
<path d="M195.591 93.8257H181.408C180.711 93.8257 180.043 93.54 179.551 93.0314C179.058 92.5229 178.781 91.8331 178.781 91.1139C178.781 90.3948 179.058 89.705 179.551 89.1965C180.043 88.6879 180.711 88.4022 181.408 88.4022H195.591C196.288 88.4022 196.956 88.6879 197.448 89.1965C197.941 89.705 198.218 90.3948 198.218 91.1139C198.218 91.8331 197.941 92.5229 197.448 93.0314C196.956 93.54 196.288 93.8257 195.591 93.8257Z" fill="#D0D0D0"/>
<path d="M198.85 172.529H178.15C177.133 172.529 176.158 172.112 175.439 171.37C174.72 170.628 174.316 169.621 174.316 168.571C174.316 167.522 174.72 166.515 175.439 165.773C176.158 165.031 177.133 164.614 178.15 164.614H198.85C199.867 164.614 200.842 165.031 201.56 165.773C202.279 166.515 202.683 167.522 202.683 168.571C202.683 169.621 202.279 170.628 201.56 171.37C200.842 172.112 199.867 172.529 198.85 172.529Z" fill="#465DA3"/>
<path d="M257.549 155.868H119.169C117.936 155.866 116.754 155.36 115.882 154.46C115.01 153.56 114.52 152.339 114.519 151.066V108.474C114.52 107.201 115.01 105.98 115.882 105.08C116.754 104.18 117.936 103.674 119.169 103.672H257.549C258.782 103.674 259.964 104.18 260.836 105.08C261.708 105.98 262.198 107.201 262.2 108.474V151.066C262.198 152.339 261.708 153.56 260.836 154.46C259.964 155.36 258.782 155.866 257.549 155.868Z" fill="#CECECE"/>
<path d="M244.244 152.702H122.448C121.215 152.7 120.032 152.194 119.161 151.294C118.289 150.394 117.798 149.173 117.797 147.9V111.788C117.798 110.515 118.289 109.294 119.161 108.394C120.032 107.494 121.215 106.988 122.448 106.986H254.553C255.786 106.988 256.968 107.494 257.84 108.394C258.712 109.294 259.202 110.515 259.204 111.788V137.258C259.199 141.352 257.622 145.278 254.817 148.173C252.013 151.069 248.211 152.697 244.244 152.702Z" fill="white"/>
<path d="M202.232 119.83H146.613C146.295 119.83 145.99 119.699 145.765 119.467C145.54 119.235 145.414 118.92 145.414 118.591C145.414 118.263 145.54 117.948 145.765 117.716C145.99 117.484 146.295 117.353 146.613 117.353H202.232C202.55 117.353 202.855 117.484 203.08 117.716C203.305 117.948 203.431 118.263 203.431 118.591C203.431 118.92 203.305 119.235 203.08 119.467C202.855 119.699 202.55 119.83 202.232 119.83Z" fill="#465DA3"/>
<path d="M230.387 124.894H146.613C146.295 124.894 145.99 124.764 145.765 124.532C145.54 124.299 145.414 123.984 145.414 123.656C145.414 123.328 145.54 123.013 145.765 122.78C145.99 122.548 146.295 122.418 146.613 122.418H230.387C230.705 122.418 231.01 122.548 231.235 122.78C231.46 123.013 231.586 123.328 231.586 123.656C231.586 123.984 231.46 124.299 231.235 124.532C231.01 124.764 230.705 124.894 230.387 124.894Z" fill="#D1D1D1"/>
<path d="M230.387 130.708H146.614C146.456 130.708 146.3 130.676 146.154 130.614C146.008 130.552 145.876 130.461 145.764 130.346C145.653 130.231 145.564 130.094 145.504 129.944C145.443 129.794 145.412 129.632 145.412 129.47C145.412 129.307 145.443 129.145 145.504 128.995C145.564 128.845 145.653 128.708 145.764 128.593C145.876 128.478 146.008 128.387 146.154 128.325C146.3 128.263 146.456 128.231 146.614 128.231H230.387C230.705 128.232 231.009 128.363 231.234 128.595C231.458 128.827 231.584 129.142 231.584 129.47C231.584 129.798 231.458 130.112 231.234 130.344C231.009 130.576 230.705 130.707 230.387 130.708Z" fill="#D1D1D1"/>
<path d="M230.387 136.521H146.614C146.456 136.522 146.3 136.49 146.154 136.428C146.008 136.366 145.876 136.275 145.764 136.16C145.653 136.045 145.564 135.908 145.504 135.758C145.443 135.607 145.412 135.446 145.412 135.283C145.412 135.12 145.443 134.959 145.504 134.809C145.564 134.658 145.653 134.522 145.764 134.407C145.876 134.292 146.008 134.2 146.154 134.138C146.3 134.076 146.456 134.045 146.614 134.045H230.387C230.705 134.046 231.009 134.176 231.234 134.408C231.458 134.641 231.584 134.955 231.584 135.283C231.584 135.611 231.458 135.926 231.234 136.158C231.009 136.39 230.705 136.521 230.387 136.521Z" fill="#D1D1D1"/>
<path d="M230.387 142.335H146.614C146.456 142.335 146.3 142.304 146.154 142.241C146.008 142.179 145.876 142.088 145.764 141.973C145.653 141.858 145.564 141.722 145.504 141.571C145.443 141.421 145.412 141.26 145.412 141.097C145.412 140.934 145.443 140.773 145.504 140.622C145.564 140.472 145.653 140.335 145.764 140.22C145.876 140.105 146.008 140.014 146.154 139.952C146.3 139.89 146.456 139.858 146.614 139.858H230.387C230.705 139.859 231.009 139.99 231.234 140.222C231.458 140.454 231.584 140.769 231.584 141.097C231.584 141.425 231.458 141.739 231.234 141.971C231.009 142.204 230.705 142.334 230.387 142.335Z" fill="#D1D1D1"/>
<path d="M303.992 333.996L298.371 333.995L295.696 311.609L303.994 311.609L303.992 333.996Z" fill="#D6A1A1"/>
<path d="M304.19 340.05L286.902 340.05V339.824C286.902 337.981 287.611 336.215 288.873 334.912C290.135 333.609 291.846 332.877 293.631 332.877L296.789 330.404L302.681 332.877L304.19 332.878L304.19 340.05Z" fill="#2F2E41"/>
<path d="M349.952 326.564L344.914 329.14L332.892 310.306L340.326 306.504L349.952 326.564Z" fill="#D6A1A1"/>
<path d="M352.732 331.898L337.242 339.821L337.145 339.619C336.352 337.968 336.228 336.06 336.798 334.314C337.369 332.569 338.588 331.129 340.187 330.31L341.953 326.647L348.296 326.163L349.648 325.471L352.732 331.898Z" fill="#2F2E41"/>
<path d="M287.338 213.664C287.338 213.664 280.939 222.874 285.558 238.786C290.177 254.698 287.584 268.923 288.88 271.776C290.177 274.628 292.787 277.337 290.63 279.5C288.473 281.663 287.338 283.421 289.041 284.007C290.745 284.594 296.422 325.627 296.422 325.627L306.075 326.213C306.075 326.213 309.571 307.152 305.836 291.769C305.836 291.769 306.656 280.602 304.946 277.322C303.236 274.042 303.571 277.001 303.687 272.884C303.752 269.906 304.172 266.948 304.939 264.077C305.507 261.732 305.836 238.1 305.836 238.1L315.232 269.461C315.609 270.541 315.75 271.694 315.646 272.837C315.414 274.453 315.412 276.867 315.697 277.712C315.982 278.556 316.299 278.734 316.14 280.404C315.982 282.073 334.893 317.272 334.893 317.272L344.289 310.764L335.031 279.904C334.112 278.852 333.347 277.667 332.76 276.387C331.625 274.042 331.581 273.913 332.17 272.219C332.76 270.525 332.76 267.225 332.76 266.237C332.76 265.249 333.35 220.407 325.958 213.812C318.566 207.216 287.338 213.664 287.338 213.664Z" fill="#2F2E41"/>
<path d="M322.048 142.324L320.124 136.671L314.871 131.247L305.182 130.053L298.874 134.335L293.032 140.281L284.403 214.226C284.403 214.226 325.158 230.449 330.498 216.834L322.048 142.324Z" fill="#CBD5F2"/>
<path d="M325.352 142.324L319.691 136.479C319.691 136.479 316.987 173.832 318.139 176.459C319.291 179.086 320.648 178.415 319.181 179.835C317.715 181.255 316.139 179.846 317.715 182.449C318.644 183.908 319.1 185.634 319.016 187.378C319.016 187.378 327.171 240.371 331.899 240.371C336.626 240.371 339.586 238.942 339.42 237.487C339.253 236.032 336.464 232.409 337.333 231.509C338.202 230.609 340.345 231.289 338.223 229.593C336.101 227.897 335.05 228.439 335.576 226.27C336.101 224.1 332.085 195.977 332.085 195.977L331.693 149.003L325.352 142.324Z" fill="#3F3D56"/>
<path d="M298.875 134.335L291.543 135.406L282.828 138.84C282.828 138.84 286.809 185.201 285.978 186.753C285.147 188.306 283.67 187.336 284.933 188.906C286.197 190.475 287.334 189.779 285.978 191.212C284.621 192.644 282.338 190.83 283.742 193.364C285.146 195.899 278.38 230.794 280.202 232.666C282.024 234.538 286.718 233.373 286.72 231.991C286.577 230.501 286.032 229.083 285.147 227.897C284.892 227.596 284.753 227.211 284.753 226.812C284.753 226.413 284.892 226.028 285.147 225.728C285.891 224.988 286.402 224.035 286.614 222.991C286.722 221.931 287.525 220.629 287.912 219.653C288.298 218.677 298.039 152.624 298.039 152.624L298.875 134.335Z" fill="#3F3D56"/>
<path d="M267.594 170.839L270.9 169.056C266.772 165.212 256.529 158.922 256.529 158.922L238.876 146.635C238.617 146.006 238.203 145.46 237.675 145.049C237.147 144.639 236.523 144.38 235.867 144.297C235.211 144.215 234.545 144.312 233.937 144.58C233.329 144.847 232.8 145.276 232.403 145.821C232.006 146.367 231.755 147.011 231.676 147.689C231.597 148.366 231.693 149.054 231.952 149.681C232.212 150.308 232.628 150.854 233.157 151.263C233.686 151.672 234.31 151.93 234.967 152.011L254.751 170.31L267.594 170.839Z" fill="#D6A1A1"/>
<path d="M291.758 157.28L291.794 142.293L283.73 138.311L263.391 160.534L261.815 159.449H258.138L249.208 170.296C249.208 170.296 253.964 173.206 256.314 172.022C258.664 170.839 258.443 172.54 258.443 172.54C258.791 172.992 259.277 173.31 259.822 173.443C260.368 173.575 260.94 173.514 261.447 173.269C263.391 172.466 267.069 174.635 267.069 174.635L291.758 157.28Z" fill="#3F3D56"/>
<path d="M311.086 126.61C317.581 126.61 322.846 121.175 322.846 114.469C322.846 107.764 317.581 102.328 311.086 102.328C304.591 102.328 299.326 107.764 299.326 114.469C299.326 121.175 304.591 126.61 311.086 126.61Z" fill="#D6A1A1"/>
<path d="M325.282 117.552C324.172 119.795 322.682 121.815 320.882 123.516C320.366 124.122 319.707 124.581 318.969 124.848C318.598 124.973 318.196 124.96 317.834 124.81C317.471 124.661 317.171 124.385 316.985 124.031L316.767 123.723C317.398 123.524 317.992 123.221 318.528 122.825C318.794 122.625 319.01 122.363 319.158 122.059C319.306 121.756 319.382 121.421 319.379 121.081C319.36 120.742 319.214 120.424 318.973 120.193C318.731 119.962 318.412 119.837 318.083 119.844C317.348 119.935 316.691 120.82 316.033 120.479C315.502 120.2 315.578 119.401 315.73 118.798C316.549 115.649 316.206 110.769 315.028 110.599C313.857 110.352 312.741 109.881 311.739 109.209C310.736 108.535 309.615 108.07 308.439 107.839C308.355 107.827 308.269 107.821 308.178 107.813C308.144 107.164 308.034 106.521 307.851 105.899C307.724 106.556 307.528 107.197 307.269 107.811C306.251 107.955 305.223 108.008 304.195 107.972C303.101 107.841 299.955 110.474 299.931 110.112C299.898 109.463 299.788 108.82 299.605 108.198C299.477 108.855 299.282 109.496 299.023 110.11C299.011 110.135 299.006 110.156 298.994 110.181C298.659 109.339 298.563 108.398 298.572 109.101C297.869 104.627 299.262 101.933 302.819 99.2801C303.529 98.6949 304.372 98.3056 305.268 98.1485C305.715 98.0746 306.174 98.121 306.599 98.2832C307.024 98.4453 307.401 98.7177 307.694 99.0741C309.06 98.3283 310.594 97.9732 312.137 98.0454C313.68 98.1176 315.177 98.6145 316.471 99.4847C319.029 101.254 321.047 102.431 320.707 105.595C323.132 105.837 325.18 107.847 325.946 110.23C326.705 112.617 326.311 115.28 325.282 117.552Z" fill="#2F2E41"/>
<path d="M340.293 180.815L331.856 179.568C329.002 184.494 327.988 197.605 327.988 197.605L319.732 217.866C319.185 218.25 318.745 218.775 318.458 219.39C318.17 220.004 318.044 220.686 318.093 221.367C318.142 222.047 318.364 222.703 318.736 223.267C319.108 223.831 319.617 224.284 320.213 224.58C320.808 224.876 321.469 225.005 322.128 224.954C322.787 224.903 323.422 224.673 323.967 224.288C324.513 223.904 324.952 223.377 325.238 222.762C325.524 222.147 325.648 221.465 325.598 220.784L339.155 197.201L340.293 180.815Z" fill="#D6A1A1"/>
<path d="M320.867 150.612L324.442 145.528L331.691 149.006L337.72 173.017C337.72 173.017 342.123 175.975 341.184 178.062C340.245 180.149 339.745 181.832 340.716 183.028C341.687 184.224 344.515 184.312 342.409 186.261C340.302 188.211 342.105 193.305 342.105 193.305L340.087 197.956L327.479 197.414L320.867 150.612Z" fill="#3F3D56"/>
<path d="M29.2798 225.081C30.0756 224.437 30.5964 223.497 30.7313 222.462C30.8662 221.427 30.6046 220.379 30.0022 219.54C29.8771 219.371 29.7387 219.214 29.5885 219.069L34.9719 206.234L29.6252 201.123L24.0917 219.527C23.5577 220.217 23.2599 221.07 23.2448 221.953C23.2296 222.835 23.4979 223.699 24.0078 224.407C24.3018 224.808 24.6692 225.145 25.0892 225.398C25.5091 225.652 25.9734 225.818 26.4555 225.887C26.9376 225.955 27.4281 225.925 27.8989 225.798C28.3697 225.671 28.8117 225.449 29.1995 225.146C29.2266 225.125 29.2534 225.103 29.2798 225.081Z" fill="#FFB6B6"/>
<path d="M60.5557 141.823C60.5557 141.823 56.5707 134.002 47.3263 142.448C38.0819 150.895 27.158 193.174 27.3701 194.763C27.5822 196.352 29.8418 195.724 26.9838 198.012C24.1259 200.301 22.5457 198.245 24.1259 200.301C25.7061 202.357 29.2398 204.535 26.1109 204.841C22.9821 205.147 34.4521 210.241 34.4521 210.241C34.4521 210.241 36.2562 209.794 36.8098 205.496C37.1206 203.083 36.0672 201.712 37.9216 201.31C39.776 200.907 38.0378 196.542 38.3048 195.855C38.5717 195.168 53.3788 165.169 53.3788 165.169L60.5557 141.823Z" fill="#465DA3"/>
<path d="M78.7545 332.84L85.448 332.84L88.633 306.181L78.7529 306.182L78.7545 332.84Z" fill="#FFB6B6"/>
<path d="M78.5179 340.05L99.1038 340.049V339.781C99.1037 337.587 98.2594 335.483 96.7568 333.931C95.2542 332.38 93.2163 331.509 91.0912 331.508H91.0907L87.3304 328.563L80.3146 331.509L78.5176 331.509L78.5179 340.05Z" fill="#2F2E41"/>
<path d="M31.832 320.127L37.3079 324.102L54.7661 304.187L46.6831 298.319L31.832 320.127Z" fill="#FFB6B6"/>
<path d="M27.6221 325.885L44.462 338.109L44.6118 337.889C45.834 336.095 46.3156 333.872 45.9507 331.711C45.5859 329.549 44.4044 327.626 42.6662 326.364L41.2307 321.722L33.8505 319.965L32.3805 318.898L27.6221 325.885Z" fill="#2F2E41"/>
<path d="M52.0823 200.215L51.5261 201.442C47.8698 209.506 46.935 218.521 48.3558 227.303C48.4615 227.646 48.4413 228.017 48.2992 228.345C47.418 229.412 48.8005 234.048 49.5929 236.637L50.3072 241.215C50.3072 241.215 49.1228 245.466 50.9218 245.154C52.7208 244.841 50.0419 249.376 51.7579 250.512L56.2093 279.041L37.6377 310.642L44.5161 320.939L72.0296 284.367L72.3735 251.345L76.5005 277.976L76.8445 319.874L89.3579 318.501L93.9426 277.88L89.5695 221.703L82.6911 197.345L52.0823 200.215Z" fill="#2F2E41"/>
<path d="M60.6793 127.077L70.8027 127.574L75.6437 136.209C77.7904 136.874 79.7651 138.028 81.422 139.586C83.0788 141.144 84.3756 143.067 85.2165 145.212L88.3687 153.252L84.7827 199.741C84.7827 199.741 84.0639 202.553 85.3875 202.142C86.711 201.732 86.1715 205.255 86.1715 205.255L91.0496 224.626L46.6994 220.644L49.162 200.121C49.162 200.121 45.7381 200.235 48.1455 197.75C50.553 195.264 51.7238 196.056 49.4111 193.118C47.0984 190.179 46.7545 188.049 46.7545 188.049L45.7228 173.491L44.0218 153.003C43.7519 149.752 44.2689 146.483 45.5263 143.489C46.7838 140.496 48.7422 137.872 51.2255 135.854L60.6793 127.077Z" fill="#465DA3"/>
<path d="M65.9291 124.679C73.0195 124.679 78.7674 118.745 78.7674 111.425C78.7674 104.104 73.0195 98.1699 65.9291 98.1699C58.8387 98.1699 53.0908 104.104 53.0908 111.425C53.0908 118.745 58.8387 124.679 65.9291 124.679Z" fill="#FFB6B6"/>
<path d="M60.9687 123.593C64.6528 123.468 64.9875 122.463 68.6716 122.338C69.8447 122.299 71.2289 122.133 71.7961 121.072C71.9611 120.674 72.0346 120.243 72.0108 119.811C71.9869 119.379 71.8664 118.959 71.6586 118.584C71.2383 117.838 70.8593 117.069 70.5237 116.279C70.3215 115.659 70.2685 114.998 70.3692 114.353C70.4699 113.707 70.7213 113.097 71.1017 112.574C71.4821 112.052 71.9801 111.633 72.5525 111.353C73.125 111.074 73.7547 110.943 74.3873 110.971C75.5084 111.021 76.5613 111.565 77.6794 111.665C79.2127 111.801 82.6032 106.575 81.8973 105.163C81.2101 103.788 79.8272 102.751 79.6098 101.221C79.4677 100.22 79.8679 99.2259 79.9225 98.2159C80.0036 96.7183 76.3267 100.095 77.0001 98.7659C78.6519 95.5057 63.0861 91.4639 60.5234 95.5477C59.5656 97.0739 57.8587 96.9698 56.3374 97.8864C55.3403 98.4872 52.8224 100.56 52.25 101.852C51.7241 103.17 51.4755 104.588 51.5209 106.013C51.4979 112.639 52.4757 118.735 57.6528 122.652" fill="#2F2E41"/>
<path d="M97.4145 224.512C96.6574 223.819 96.1919 222.849 96.1171 221.808C96.0423 220.766 96.364 219.736 97.0139 218.935C97.1485 218.775 97.2957 218.626 97.454 218.491L92.8223 205.347L98.455 200.575L102.915 219.287C103.408 220.009 103.656 220.878 103.62 221.761C103.584 222.643 103.266 223.488 102.716 224.164C102.4 224.545 102.013 224.859 101.579 225.086C101.145 225.314 100.672 225.451 100.187 225.49C99.702 225.529 99.2141 225.468 98.7515 225.312C98.2889 225.156 97.8605 224.908 97.4909 224.581C97.4651 224.558 97.4397 224.535 97.4145 224.512Z" fill="#FFB6B6"/>
<path d="M71.0088 139.475C71.0088 139.475 75.4389 131.913 84.1784 140.914C92.9179 149.915 101.378 192.791 101.074 194.365C100.771 195.939 98.5514 195.172 101.272 197.632C103.992 200.093 105.689 198.138 103.992 200.093C102.296 202.048 98.6429 204.004 101.748 204.502C104.854 205.001 93.1099 209.379 93.1099 209.379C93.1099 209.379 91.3348 208.822 91.0308 204.498C90.86 202.069 91.9909 200.765 90.163 200.25C88.3351 199.734 90.3226 195.483 90.0959 194.781C89.8691 194.079 76.823 163.221 76.823 163.221L71.0088 139.475Z" fill="#465DA3"/>
<path d="M201.426 67.8713C201.426 70.1266 200.732 72.3314 199.43 74.2069C198.129 76.0824 196.279 77.5444 194.114 78.408C191.949 79.2715 189.567 79.4979 187.268 79.0585C184.97 78.6191 182.858 77.5336 181.201 75.9392C179.544 74.3449 178.415 72.3134 177.957 70.1016C177.499 67.8897 177.733 65.597 178.629 63.5131C179.526 61.4293 181.044 59.6481 182.992 58.3946C184.94 57.1412 187.231 56.4719 189.574 56.4713C191.131 56.4693 192.672 56.7628 194.111 57.3349C195.549 57.907 196.856 58.7466 197.957 59.8055C199.058 60.8644 199.931 62.1219 200.526 63.5059C201.121 64.89 201.427 66.3734 201.426 67.8713Z" fill="#465DA3"/>
<path d="M189.551 68.9698C191.582 68.9698 193.228 67.2701 193.228 65.1734C193.228 63.0767 191.582 61.377 189.551 61.377C187.52 61.377 185.874 63.0767 185.874 65.1734C185.874 67.2701 187.52 68.9698 189.551 68.9698Z" fill="white"/>
<path d="M193.493 71.4122H185.613C185.126 71.4127 184.658 71.6129 184.314 71.9688C183.969 72.3246 183.775 72.8071 183.774 73.3104C183.887 74.9362 184.133 76.5491 184.51 78.1318C186.09 78.9725 187.851 79.3852 189.628 79.3312C191.405 79.2771 193.14 78.758 194.669 77.8227C195.007 76.3393 195.228 74.8304 195.331 73.3104C195.331 72.8071 195.137 72.3246 194.792 71.9688C194.447 71.6129 193.98 71.4127 193.493 71.4122Z" fill="white"/>
<path d="M2.76682e-06 340.355C-0.000242065 340.439 0.015764 340.523 0.0470945 340.602C0.078425 340.68 0.124458 340.752 0.182558 340.812C0.240658 340.872 0.309677 340.919 0.385634 340.951C0.461591 340.984 0.542993 341 0.625156 341H376.375C376.541 341 376.7 340.932 376.817 340.811C376.934 340.69 377 340.526 377 340.355C377 340.183 376.934 340.019 376.817 339.898C376.7 339.777 376.541 339.709 376.375 339.709H0.625156C0.542994 339.709 0.46159 339.725 0.385634 339.758C0.309678 339.79 0.240666 339.838 0.182566 339.898C0.124467 339.958 0.078426 340.029 0.0470945 340.107C0.015763 340.186 -0.000239276 340.27 2.76682e-06 340.355Z" fill="#CCCCCC"/>
</g>
<defs>
<clipPath id="clip0_4058_1277">
<rect width="377" height="341" fill="white"/>
</clipPath>
</defs>
</svg>
