<svg width="457" height="262" viewBox="0 0 457 262" fill="none" xmlns="http://www.w3.org/2000/svg">
<g clip-path="url(#clip0_4058_1086)">
<path d="M261.407 86.947C261.172 87.1995 260.954 87.4747 260.755 87.77L232.724 83.8674L229.891 76.1507L219.931 79.724L223.875 93.9663C224.193 95.1169 224.805 96.1146 225.618 96.8096C226.431 97.5047 227.402 97.8595 228.384 97.8208L260.396 96.5626C261.074 97.8096 262.042 98.7783 263.17 99.3399C264.299 99.9014 265.535 100.029 266.713 99.706C267.892 99.3829 268.957 98.6243 269.768 97.5311C270.578 96.4379 271.096 95.062 271.251 93.5863C271.407 92.1107 271.193 90.6053 270.638 89.2705C270.083 87.9356 269.213 86.8345 268.144 86.1137C267.076 85.3929 265.859 85.0865 264.656 85.2353C263.452 85.3842 262.32 85.9811 261.408 86.9468L261.407 86.947Z" fill="#FFB6B6"/>
<path d="M267.201 42.4242C267.206 41.3997 267.475 40.4107 267.96 39.6324C268.446 38.8541 269.116 38.337 269.854 38.1726L315.198 27.9564C315.633 27.8576 316.078 27.8848 316.504 28.0361L327.131 31.806L333.228 33.9717L344.481 37.9625C345.16 38.2046 345.761 38.7491 346.191 39.5107C346.62 40.2722 346.853 41.2078 346.854 42.1707V93.1612C346.85 94.155 346.6 95.1175 346.144 95.8899C345.688 96.6622 345.054 97.1981 344.346 97.4091L298.16 110.892C297.943 110.956 297.722 110.987 297.5 110.986C297.177 110.987 296.855 110.92 296.547 110.787L269.107 98.8976C268.459 98.6204 267.894 98.064 267.495 97.3112C267.096 96.5584 266.884 95.6491 266.892 94.7184L267.201 42.4242Z" fill="white"/>
<path d="M315.741 31.537C315.774 31.5369 315.807 31.5428 315.839 31.5543L343.909 41.444C343.994 41.474 344.069 41.5417 344.123 41.6364C344.177 41.7311 344.206 41.8474 344.206 41.9672V92.7676C344.206 92.8913 344.174 93.0112 344.117 93.1073C344.06 93.2035 343.981 93.2702 343.892 93.2965L297.552 106.729C297.484 106.748 297.415 106.744 297.349 106.716L269.817 94.8708C269.736 94.8363 269.665 94.7671 269.615 94.6734C269.565 94.5796 269.539 94.4665 269.54 94.3507L269.848 42.2508C269.849 42.1234 269.883 42.0003 269.944 41.9035C270.005 41.8067 270.089 41.7424 270.181 41.722L315.676 31.544C315.698 31.5394 315.719 31.5371 315.741 31.537Z" fill="#465DA3"/>
<path d="M267.201 42.4242C267.206 41.3997 267.475 40.4107 267.96 39.6324C268.446 38.8541 269.116 38.337 269.854 38.1726L315.198 27.9564C315.633 27.8576 316.078 27.8848 316.504 28.0361L327.131 31.806L333.228 33.9717L344.481 37.9625C345.16 38.2046 345.761 38.7491 346.191 39.5107C346.62 40.2722 346.853 41.2078 346.854 42.1707V93.1612C346.85 94.155 346.6 95.1175 346.144 95.8899C345.688 96.6622 345.054 97.1981 344.346 97.4091L298.16 110.892C297.943 110.956 297.722 110.987 297.5 110.986C297.177 110.987 296.855 110.92 296.547 110.787L269.107 98.8976C268.459 98.6204 267.894 98.064 267.495 97.3112C267.096 96.5584 266.884 95.6491 266.892 94.7184L267.201 42.4242ZM269.344 97.8619L296.784 109.751C297.176 109.918 297.592 109.946 297.993 109.831L344.182 96.3481C344.713 96.1893 345.188 95.7871 345.53 95.2077C345.872 94.6283 346.059 93.9064 346.062 93.1612V42.1707C346.061 41.5034 345.912 40.8522 345.633 40.305C345.355 39.7578 344.961 39.3409 344.504 39.1106C344.432 39.0732 344.358 39.0418 344.283 39.0164L332.378 34.7938L325.339 32.295L316.306 29.0899C316.113 29.019 315.913 28.9837 315.712 28.9849C315.583 28.9848 315.454 28.9994 315.327 29.0284L269.983 39.2446C269.618 39.3267 269.272 39.5243 268.972 39.8216C268.673 40.1189 268.428 40.5078 268.257 40.9576C268.085 41.4135 267.995 41.9185 267.993 42.4315L267.684 94.7257C267.678 95.4239 267.837 96.1059 268.136 96.6708C268.435 97.2357 268.858 97.6534 269.344 97.8619Z" fill="#3F3D56"/>
<path d="M268.672 40.8607C268.703 40.8878 268.736 40.9081 268.772 40.9208L282.015 45.753L286.137 47.2564L297.863 51.5332C297.896 51.5443 297.931 51.5503 297.965 51.5509C297.989 51.5503 298.012 51.548 298.036 51.5438L345.316 39.909L345.473 39.8701C345.576 39.8443 345.666 39.7647 345.725 39.6487C345.785 39.5328 345.807 39.39 345.789 39.2515C345.77 39.113 345.711 38.9902 345.626 38.9099C345.54 38.8296 345.434 38.7984 345.332 38.8231L344.38 39.0565L297.981 50.4755L287.875 46.7895L282.222 44.7271L269.183 39.9692L268.976 39.8949C268.887 39.8631 268.792 39.8746 268.708 39.9277C268.624 39.9807 268.557 40.0717 268.517 40.185C268.507 40.212 268.499 40.2405 268.494 40.2699C268.472 40.3811 268.478 40.4988 268.51 40.6053C268.542 40.7118 268.599 40.8014 268.672 40.8607Z" fill="#3F3D56"/>
<path d="M281.72 103.981L285.901 105.528L287.663 46.8299L332.629 34.5825C332.673 34.5718 332.717 34.5572 332.759 34.5388C333.105 34.4041 333.407 34.1129 333.615 33.7128L327.475 31.537L325.67 32.0282L283.003 43.6462C282.779 43.7069 282.567 43.8332 282.382 44.0166C282.196 44.2 282.042 44.4361 281.93 44.7087C281.797 45.0252 281.722 103.603 281.72 103.981Z" fill="#3F3D56"/>
<path d="M327.937 78.2361C327.988 78.236 328.038 78.2284 328.087 78.2136L342.09 73.9683C342.265 73.9149 342.417 73.7704 342.513 73.5665C342.608 73.3626 342.64 73.116 342.601 72.8809C342.561 72.6457 342.454 72.4412 342.302 72.3123C342.15 72.1834 341.967 72.1406 341.791 72.1933L327.789 76.4386C327.626 76.4879 327.483 76.6159 327.386 76.7982C327.289 76.9804 327.246 77.2042 327.264 77.4266C327.283 77.649 327.362 77.8545 327.486 78.0038C327.61 78.1531 327.771 78.2358 327.937 78.2361Z" fill="white"/>
<path d="M342.929 77.8832L328.932 81.9098C328.795 81.9491 328.646 81.8854 328.516 81.7327C328.387 81.58 328.288 81.3507 328.242 81.0955C328.196 80.8402 328.206 80.5798 328.269 80.3716C328.333 80.1633 328.446 80.0242 328.582 79.9849L342.579 75.9584C342.716 75.9191 342.865 75.9828 342.995 76.1355C343.124 76.2882 343.223 76.5174 343.269 76.7726C343.315 77.0279 343.306 77.2883 343.242 77.4966C343.178 77.7049 343.065 77.8439 342.929 77.8832Z" fill="white"/>
<path d="M6.96298 179.099C-3.32111 152.009 -2.94191 117.672 13.0186 94.8124C18.3583 126.511 32.941 154.938 54.1865 175.065C62.4036 182.792 72.2186 190.367 74.4633 202.546C75.8602 210.124 73.8803 218.139 70.4575 224.739C67.0345 231.341 62.2632 236.77 57.5463 242.122L57.0171 243.953C36.492 227.03 17.2471 206.189 6.96298 179.099Z" fill="#CBD5F2"/>
<path d="M13.4629 95.1429C9.7898 119.096 12.5185 144.601 21.4465 166.546C23.3767 171.29 25.6814 175.903 28.7672 179.719C31.799 183.411 35.6056 186.069 39.7916 187.416C43.6735 188.766 47.7754 189.611 51.3141 192.061C55.0441 194.643 57.359 198.976 58.2607 203.945C59.364 210.025 58.5672 216.214 57.6113 222.235C56.55 228.919 55.3586 235.842 56.8966 242.562C57.083 243.376 56.0112 243.673 55.8252 242.86C53.1494 231.169 58.3518 219.638 57.6246 207.884C57.2853 202.4 55.556 197.004 51.6071 193.826C48.1539 191.047 43.9246 190.171 39.9842 188.845C35.8468 187.452 32.1311 185.325 28.9693 181.797C25.7349 178.188 23.2739 173.673 21.2503 169.008C16.7278 158.389 13.6354 146.989 12.0865 135.226C10.2562 121.813 10.3661 108.125 12.4115 94.7563C12.5384 93.9289 13.589 94.3209 13.4629 95.1429Z" fill="white"/>
<path d="M18.2289 159.595C14.8971 160.866 11.2943 160.686 8.06385 159.087C4.83337 157.487 2.18559 154.572 0.593375 150.861C0.273366 150.109 1.2396 149.482 1.56004 150.235C3.03735 153.693 5.50399 156.408 8.51476 157.891C11.5255 159.373 14.8821 159.525 17.9787 158.319C18.6518 158.058 18.8982 159.335 18.2289 159.595Z" fill="white"/>
<path d="M37.7474 187.04C41.0766 179.502 41.8978 170.747 40.0471 162.52C39.8632 161.705 40.9348 161.408 41.1185 162.222C43.031 170.787 42.1609 179.897 38.682 187.732C38.3499 188.478 37.4172 187.783 37.7474 187.04Z" fill="white"/>
<path d="M11.6706 122.238C13.0458 122.066 14.3636 121.49 15.5056 120.562C16.6476 119.633 17.5781 118.381 18.2135 116.919C18.5374 116.168 19.4698 116.864 19.148 117.61C18.4397 119.222 17.4107 120.603 16.1508 121.632C14.891 122.662 13.4387 123.308 11.9208 123.514C11.7791 123.548 11.6319 123.516 11.5092 123.425C11.3864 123.335 11.2973 123.192 11.26 123.025C11.2275 122.856 11.2525 122.679 11.3294 122.531C11.4063 122.384 11.5289 122.279 11.6706 122.238Z" fill="white"/>
<path d="M97.5428 95.0778C97.3518 95.5537 97.1607 96.0296 96.9741 96.5152C94.4333 102.929 92.3343 109.578 90.6977 116.397C90.5641 116.922 90.4354 117.456 90.3148 117.985C86.5189 134.463 85.3249 151.637 86.7936 168.634C87.3832 175.397 88.4041 182.097 89.8472 188.675C91.8408 197.76 94.6093 207.422 93.9846 216.493C93.9283 217.441 93.8228 218.383 93.6687 219.315L58.9344 244.58C58.8313 244.59 58.7326 244.61 58.6291 244.621L57.281 245.705C57.1866 245.372 57.0948 245.024 57.0005 244.691C56.9451 244.498 56.8974 244.299 56.842 244.106C56.8076 243.976 56.7734 243.845 56.7361 243.73C56.7244 243.687 56.7132 243.643 56.7064 243.609C56.6691 243.494 56.6446 243.382 56.6121 243.276C56.0943 241.333 55.5871 239.382 55.0905 237.424C55.0856 237.415 55.0856 237.415 55.0885 237.399C51.3363 222.467 48.598 207.03 47.9142 191.588C47.8937 191.124 47.868 190.65 47.8635 190.174C47.5877 183.212 47.7902 176.234 48.4689 169.311C48.8508 165.522 49.3936 161.758 50.0951 158.034C51.9232 148.416 55.0103 139.2 59.2432 130.724C67.6836 113.83 80.5671 100.337 96.335 95.438C96.7385 95.313 97.1346 95.1933 97.5428 95.0778Z" fill="#CBD5F2"/>
<path d="M97.734 95.6596C82.6916 112.151 71.9758 134.472 68.0096 158.395C67.1521 163.567 66.6603 168.903 67.1949 174.162C67.7491 179.283 69.4448 184.135 72.1058 188.212C74.5229 192.073 77.3707 195.689 78.9576 200.182C80.6302 204.918 80.2878 210.038 78.4957 214.652C76.3029 220.297 72.5376 224.668 68.7307 228.789C64.5039 233.365 60.0526 238.039 57.8834 244.507C57.6206 245.291 56.6148 244.759 56.8773 243.977C60.6514 232.723 70.6346 227.247 75.9964 217.341C78.4983 212.718 79.8457 207.17 78.2992 201.801C76.947 197.107 74.0129 193.375 71.5372 189.491C68.9377 185.412 67.0463 181.05 66.3056 175.966C65.5478 170.765 65.8656 165.395 66.6083 160.22C68.3659 148.499 71.6601 137.179 76.3703 126.677C81.6903 114.655 88.6979 103.805 97.09 94.5969C97.6096 94.0272 98.2502 95.0937 97.734 95.6596Z" fill="white"/>
<path d="M68.9538 150.538C65.6507 149.164 62.8652 146.437 61.0946 142.844C59.3241 139.25 58.6838 135.024 59.2882 130.92C59.4128 130.09 60.5016 130.282 60.3767 131.113C59.808 134.933 60.4048 138.87 62.0593 142.212C63.7138 145.554 66.317 148.082 69.3991 149.339C70.0687 149.614 69.6195 150.81 68.9538 150.538Z" fill="white"/>
<path d="M70.6633 186.447C77.1325 182.815 82.2146 176.413 84.8963 168.517C85.1614 167.735 86.1672 168.266 85.9024 169.047C83.0989 177.258 77.7988 183.907 71.0598 187.669C70.4173 188.027 70.0243 186.803 70.6633 186.447Z" fill="white"/>
<path d="M82.6042 116.009C83.7892 116.857 85.1327 117.342 86.514 117.419C87.8952 117.497 89.271 117.165 90.5178 116.452C91.1562 116.085 91.5486 117.309 90.9143 117.675C89.5338 118.454 88.014 118.819 86.4878 118.737C84.9615 118.656 83.4753 118.13 82.1589 117.207C82.0287 117.132 81.9272 117.001 81.8751 116.841C81.823 116.68 81.8242 116.502 81.8785 116.343C81.9381 116.184 82.0478 116.06 82.1837 115.998C82.3196 115.935 82.4707 115.939 82.6042 116.009Z" fill="white"/>
<path d="M220.418 80.3626L227.142 87.2701L236.548 96.9265L240.703 71.6117L241.137 68.9794L241.48 66.8903L231.948 47.1184L224.002 47.6617L223.459 47.7005L223.449 47.8428L223.324 49.1687L221.694 66.6186L221.656 67.039L220.418 80.3626Z" fill="#E6E6E6"/>
<path d="M264.365 253.488H271.024L274.192 222.903H264.364L264.365 253.488Z" fill="#FFB6B6"/>
<path d="M194.848 254.135H201.506L204.674 223.55H194.847L194.848 254.135Z" fill="#FFB6B6"/>
<path d="M189.21 241.382L207.178 244.397L233.32 146.435L261.084 245L281.23 241.985L255.094 127.431V118.387L251.555 104.822L251.925 101.15L254.501 75.4717L255.617 64.3358L255.69 63.6165C255.75 63.0128 255.606 62.4057 255.284 61.9135C254.963 61.4212 254.488 61.079 253.951 60.9534L245.566 59H231.863L223.777 61.4659L223.222 61.6347L222.971 61.7131L223.096 62.8707L224.991 80.4639L225.095 81.4285L226.924 98.3886L227.327 102.109C211.537 114.77 210.992 127.431 210.992 127.431L189.21 241.382Z" fill="#2F2E41"/>
<path d="M240.555 36.8348C247.922 36.8348 253.894 29.7227 253.894 20.9494C253.894 12.1761 247.922 5.06396 240.555 5.06396C233.188 5.06396 227.216 12.1761 227.216 20.9494C227.216 29.7227 233.188 36.8348 240.555 36.8348Z" fill="#FFB6B6"/>
<path d="M226.545 96.6109L226.052 101.1L252.439 105.21L252.932 100.721L226.545 96.6109Z" fill="#C80000"/>
<path d="M101.844 261.141H46.3649C45.3727 261.14 44.4216 260.67 43.7201 259.834C43.0186 258.999 42.6241 257.866 42.623 256.685V215.493C42.6268 211.542 43.9463 207.755 46.2922 204.961C48.638 202.168 51.8185 200.596 55.1359 200.592H101.844C102.836 200.593 103.787 201.063 104.488 201.899C105.19 202.734 105.584 203.867 105.586 205.048V256.685C105.585 257.866 105.19 258.999 104.489 259.834C103.787 260.67 102.836 261.14 101.844 261.141ZM55.1359 201.886C52.1065 201.89 49.2021 203.325 47.06 205.876C44.9178 208.427 43.7128 211.885 43.7093 215.493V256.685C43.71 257.523 43.99 258.327 44.4879 258.92C44.9857 259.513 45.6607 259.847 46.3649 259.848H101.844C102.548 259.847 103.223 259.513 103.721 258.92C104.219 258.327 104.499 257.523 104.499 256.685V205.048C104.499 204.21 104.219 203.406 103.721 202.813C103.223 202.22 102.548 201.887 101.844 201.886H55.1359Z" fill="#3F3D56"/>
<path d="M56.9707 203.523C53.9254 203.527 51.0058 204.969 48.8524 207.534C46.6991 210.098 45.4878 213.575 45.4844 217.202V254.977C45.4852 255.834 45.7716 256.656 46.2807 257.262C46.7897 257.868 47.48 258.209 48.1999 258.21H100.008C100.728 258.209 101.418 257.868 101.927 257.262C102.436 256.656 102.723 255.834 102.723 254.977V206.757C102.723 205.899 102.436 205.077 101.927 204.471C101.418 203.865 100.728 203.524 100.008 203.523H56.9707Z" fill="#465DA3"/>
<path d="M78.0963 215.861H70.4027C70.0427 215.861 69.6976 215.69 69.443 215.387C69.1885 215.084 69.0453 214.673 69.0449 214.244V199.318H79.4541V214.244C79.4537 214.673 79.3105 215.084 79.056 215.387C78.8014 215.69 78.4563 215.861 78.0963 215.861Z" fill="#3F3D56"/>
<path d="M386.205 186.514L388.58 178.972L388.665 178.914L407.803 165.891C408.009 165.751 408.232 165.65 408.464 165.592C408.997 165.458 409.553 165.557 410.031 165.869C410.508 166.181 410.876 166.687 411.067 167.294C411.258 167.901 411.261 168.57 411.074 169.18C410.886 169.789 410.522 170.298 410.047 170.615L386.205 186.514Z" fill="#3F3D56"/>
<path d="M315.827 186.514L291.988 170.616C291.513 170.299 291.148 169.79 290.961 169.18C290.774 168.571 290.776 167.902 290.968 167.295C291.159 166.687 291.527 166.181 292.004 165.869C292.482 165.557 293.038 165.458 293.571 165.592C293.803 165.65 294.026 165.751 294.232 165.891L313.455 178.972L315.827 186.514Z" fill="#3F3D56"/>
<path d="M388.107 187.451H313.927L307.688 152.776H394.346L388.107 187.451Z" fill="#3F3D56"/>
<path d="M390.55 184.72H311.484L306.045 155.213C305.879 154.315 305.885 153.384 306.062 152.489C306.238 151.594 306.581 150.757 307.065 150.04C307.549 149.324 308.161 148.746 308.858 148.348C309.554 147.951 310.316 147.745 311.088 147.745H390.945C391.717 147.745 392.48 147.951 393.176 148.348C393.872 148.746 394.485 149.324 394.969 150.04C395.453 150.757 395.796 151.594 395.972 152.489C396.149 153.384 396.154 154.315 395.989 155.213L390.55 184.72ZM312.357 183.427H389.676L394.928 154.935C395.059 154.226 395.054 153.491 394.915 152.784C394.776 152.077 394.505 151.416 394.123 150.851C393.741 150.285 393.257 149.828 392.707 149.515C392.157 149.201 391.555 149.038 390.945 149.038H311.088C310.479 149.038 309.877 149.201 309.327 149.515C308.777 149.829 308.293 150.285 307.911 150.851C307.529 151.417 307.258 152.077 307.119 152.784C306.979 153.491 306.975 154.226 307.106 154.936L312.357 183.427Z" fill="#3F3D56"/>
<path opacity="0.1" d="M388.107 187.451H313.927L307.688 152.776H394.346L388.107 187.451Z" fill="black"/>
<path d="M387.388 261.238H314.645C313.658 261.237 312.712 260.77 312.014 259.939C311.317 259.108 310.924 257.981 310.923 256.806V182.735H391.11V256.806C391.109 257.981 390.716 259.108 390.018 259.939C389.321 260.77 388.375 261.237 387.388 261.238ZM312.009 184.029V256.806C312.01 257.639 312.288 258.436 312.782 259.025C313.276 259.613 313.946 259.944 314.645 259.945H387.388C388.087 259.944 388.757 259.613 389.251 259.025C389.745 258.436 390.023 257.639 390.024 256.806V184.029H312.009Z" fill="#3F3D56"/>
<path d="M313.852 185.71V254.706C313.853 255.649 314.168 256.553 314.728 257.22C315.287 257.887 316.047 258.262 316.839 258.263H385.195C385.987 258.262 386.746 257.887 387.306 257.22C387.866 256.553 388.181 255.649 388.182 254.706V185.71H313.852Z" fill="#3F3D56"/>
<path d="M394.618 153.099H307.416V152.775C307.417 151.673 307.785 150.617 308.44 149.837C309.094 149.058 309.981 148.619 310.907 148.618H391.127C392.052 148.619 392.94 149.058 393.594 149.837C394.249 150.617 394.617 151.673 394.618 152.775V153.099Z" fill="#465DA3"/>
<path d="M120.465 215.37C117.788 215.373 115.223 216.641 113.33 218.895C111.438 221.148 110.373 224.204 110.37 227.391V254.978C110.371 255.835 110.657 256.657 111.166 257.263C111.675 257.87 112.366 258.211 113.086 258.212H152.551C153.271 258.211 153.962 257.87 154.471 257.263C154.98 256.657 155.266 255.835 155.267 254.978V218.604C155.266 217.746 154.98 216.924 154.471 216.318C153.962 215.712 153.271 215.371 152.551 215.37H120.465Z" fill="#3F3D56"/>
<path d="M161.395 212.61H121.506C120.494 212.609 119.524 212.13 118.808 211.278C118.092 210.425 117.69 209.27 117.688 208.065V168.191C117.69 166.986 118.092 165.83 118.808 164.978C119.524 164.126 120.494 163.646 121.506 163.645H157.102C160.146 163.649 163.065 165.091 165.218 167.655C167.371 170.219 168.582 173.695 168.586 177.321V204.047C168.584 206.317 167.825 208.494 166.477 210.099C165.129 211.705 163.301 212.608 161.395 212.61ZM121.506 164.939C120.782 164.94 120.088 165.283 119.576 165.892C119.064 166.502 118.776 167.329 118.775 168.191V208.065C118.776 208.927 119.064 209.754 119.576 210.363C120.088 210.973 120.782 211.316 121.506 211.317H161.395C163.013 211.315 164.565 210.548 165.709 209.185C166.854 207.822 167.498 205.974 167.5 204.047V177.321C167.496 174.038 166.4 170.891 164.451 168.57C162.501 166.248 159.858 164.942 157.102 164.939L121.506 164.939Z" fill="#3F3D56"/>
<path d="M154.449 261.273H111.187C110.175 261.272 109.204 260.793 108.489 259.94C107.773 259.088 107.37 257.933 107.369 256.727V225.642C107.372 222.107 108.553 218.717 110.652 216.218C112.751 213.718 115.597 212.312 118.566 212.308H154.449C155.461 212.309 156.431 212.789 157.147 213.641C157.863 214.493 158.265 215.649 158.266 216.854V256.727C158.265 257.933 157.863 259.088 157.147 259.94C156.431 260.793 155.461 261.272 154.449 261.273ZM118.566 213.601C115.885 213.605 113.315 214.875 111.42 217.132C109.525 219.389 108.458 222.45 108.455 225.642V256.727C108.456 257.59 108.744 258.416 109.256 259.026C109.768 259.636 110.463 259.979 111.187 259.98H154.449C155.173 259.979 155.867 259.636 156.379 259.026C156.891 258.416 157.179 257.59 157.18 256.727V216.854C157.179 215.992 156.891 215.165 156.379 214.555C155.867 213.945 155.173 213.602 154.449 213.601H118.566Z" fill="#3F3D56"/>
<path d="M123.404 166.707C122.684 166.708 121.994 167.049 121.485 167.655C120.976 168.262 120.689 169.084 120.688 169.941V206.315C120.689 207.172 120.976 207.994 121.485 208.601C121.994 209.207 122.684 209.548 123.404 209.549H159.496C161.111 209.547 162.659 208.782 163.8 207.423C164.942 206.063 165.584 204.22 165.585 202.297V179.071C165.582 175.793 164.487 172.65 162.541 170.332C160.595 168.015 157.956 166.711 155.203 166.707H123.404Z" fill="#E6E6E6"/>
<path d="M146.055 176.328H140.449C140.089 176.328 139.743 176.157 139.489 175.854C139.234 175.551 139.091 175.14 139.091 174.711V163.15H147.412V174.711C147.412 175.14 147.269 175.551 147.014 175.854C146.76 176.157 146.415 176.328 146.055 176.328Z" fill="#3F3D56"/>
<path d="M264.09 246.999L272.056 246.433V250.497L279.629 256.725C280.003 257.033 280.285 257.475 280.433 257.987C280.581 258.498 280.588 259.053 280.453 259.57C280.317 260.087 280.047 260.539 279.681 260.859C279.315 261.18 278.872 261.353 278.417 261.353H268.934L267.3 257.333L266.661 261.353H263.086L264.09 246.999Z" fill="#2F2E41"/>
<path d="M194.573 246.999L202.538 246.433V250.497L210.111 256.725C210.485 257.033 210.767 257.475 210.915 257.987C211.063 258.498 211.07 259.053 210.935 259.57C210.8 260.087 210.529 260.539 210.163 260.859C209.797 261.18 209.354 261.353 208.9 261.353H199.417L197.782 257.333L197.144 261.353H193.568L194.573 246.999Z" fill="#2F2E41"/>
<path d="M59.7016 248.759H44.9415C44.7975 248.759 44.6594 248.691 44.5575 248.569C44.4557 248.448 44.3984 248.284 44.3984 248.112C44.3984 247.94 44.4557 247.776 44.5575 247.655C44.6594 247.533 44.7975 247.465 44.9415 247.465H59.7016C59.8457 247.465 59.9838 247.533 60.0857 247.655C60.1875 247.776 60.2448 247.94 60.2448 248.112C60.2448 248.284 60.1875 248.448 60.0857 248.569C59.9838 248.691 59.8457 248.759 59.7016 248.759Z" fill="white"/>
<path d="M124.875 247.465H110.114C109.97 247.465 109.832 247.397 109.73 247.276C109.629 247.155 109.571 246.99 109.571 246.819C109.571 246.647 109.629 246.482 109.73 246.361C109.832 246.24 109.97 246.172 110.114 246.172H124.875C125.019 246.172 125.157 246.24 125.259 246.361C125.36 246.482 125.418 246.647 125.418 246.819C125.418 246.99 125.36 247.155 125.259 247.276C125.157 247.397 125.019 247.465 124.875 247.465Z" fill="white"/>
<path d="M329.082 242.597H314.321C314.177 242.597 314.039 242.529 313.937 242.407C313.836 242.286 313.778 242.122 313.778 241.95C313.778 241.778 313.836 241.614 313.937 241.493C314.039 241.371 314.177 241.303 314.321 241.303H329.082C329.226 241.303 329.364 241.371 329.466 241.493C329.567 241.614 329.625 241.778 329.625 241.95C329.625 242.122 329.567 242.286 329.466 242.407C329.364 242.529 329.226 242.597 329.082 242.597Z" fill="white"/>
<path d="M335.056 236.129H320.296C320.152 236.129 320.014 236.061 319.912 235.94C319.81 235.818 319.753 235.654 319.753 235.482C319.753 235.311 319.81 235.146 319.912 235.025C320.014 234.904 320.152 234.835 320.296 234.835H335.056C335.2 234.835 335.338 234.904 335.44 235.025C335.542 235.146 335.599 235.311 335.599 235.482C335.599 235.654 335.542 235.818 335.44 235.94C335.338 236.061 335.2 236.129 335.056 236.129Z" fill="white"/>
<path d="M135.193 200.898H120.433C120.289 200.898 120.151 200.829 120.049 200.708C119.947 200.587 119.89 200.422 119.89 200.251C119.89 200.079 119.947 199.915 120.049 199.793C120.151 199.672 120.289 199.604 120.433 199.604H135.193C135.337 199.604 135.475 199.672 135.577 199.793C135.679 199.915 135.736 200.079 135.736 200.251C135.736 200.422 135.679 200.587 135.577 200.708C135.475 200.829 135.337 200.898 135.193 200.898Z" fill="#3F3D56"/>
<path d="M135.193 195.723H120.433C120.289 195.723 120.151 195.655 120.049 195.534C119.947 195.413 119.89 195.248 119.89 195.077C119.89 194.905 119.947 194.741 120.049 194.619C120.151 194.498 120.289 194.43 120.433 194.43H135.193C135.337 194.43 135.475 194.498 135.577 194.619C135.679 194.741 135.736 194.905 135.736 195.077C135.736 195.248 135.679 195.413 135.577 195.534C135.475 195.655 135.337 195.723 135.193 195.723Z" fill="#3F3D56"/>
<path d="M354.037 163.837H348.431C348.071 163.837 347.726 163.666 347.471 163.363C347.217 163.06 347.074 162.649 347.073 162.22V150.659H355.395V162.22C355.394 162.649 355.251 163.06 354.997 163.363C354.742 163.666 354.397 163.837 354.037 163.837Z" fill="#465DA3"/>
<path d="M415.87 259.681H2.28516V262H415.87V259.681Z" fill="#CCCCCC"/>
<path d="M135.735 224.696H130.129C129.769 224.695 129.424 224.525 129.17 224.221C128.915 223.918 128.772 223.507 128.771 223.079V211.517H137.093V223.079C137.093 223.507 136.95 223.918 136.695 224.221C136.44 224.525 136.095 224.695 135.735 224.696Z" fill="#3F3D56"/>
<path d="M300.606 110.986C300.7 110.986 300.789 110.93 300.855 110.829C300.921 110.729 300.959 110.593 300.959 110.45L301.312 51.4903C301.313 51.3469 301.277 51.2088 301.211 51.1064C301.146 51.0041 301.056 50.9458 300.963 50.9445H300.959C300.866 50.9445 300.777 51.0008 300.711 51.1011C300.645 51.2015 300.607 51.3379 300.606 51.4805L300.253 110.44C300.253 110.584 300.289 110.722 300.355 110.824C300.42 110.927 300.51 110.985 300.603 110.986H300.606Z" fill="#3F3D56"/>
<path d="M293.258 86.0114C293.045 86.295 292.853 86.5957 292.683 86.9106L263.133 89.595L259.237 83.1623L249.353 88.6573L255.212 100.817C255.685 101.799 256.444 102.576 257.373 103.031C258.302 103.485 259.353 103.594 260.367 103.339L293.404 95.0408C294.262 96.0311 295.386 96.7019 296.626 96.9641C297.866 97.2263 299.163 97.0674 300.345 96.5085C301.527 95.9496 302.537 95.0172 303.242 93.8354C303.947 92.6535 304.312 91.2783 304.29 89.8926C304.268 88.5068 303.859 87.1764 303.118 86.0781C302.376 84.9798 301.338 84.1659 300.14 83.7445C298.942 83.3231 297.643 83.3142 296.413 83.7191C295.184 84.124 294.084 84.9234 293.259 86.011L293.258 86.0114Z" fill="#FFB6B6"/>
<path d="M248.181 51.1608L252.797 46.9568C254.046 46.3928 255.756 47.9949 256.056 49.5439L262.573 81.2358L248.996 92.8777L247.095 89.3205L248.181 51.1608Z" fill="#E6E6E6"/>
<path d="M250.777 7.79718C253.271 7.43305 256.009 7.69046 257.953 9.5868C259.898 11.4831 260.526 15.4259 258.684 17.4632C257.055 19.2671 254.506 18.8428 252.323 19.3557C250.442 19.8576 248.758 21.0963 247.538 22.8737C246.319 24.651 245.635 26.8641 245.597 29.1588C245.63 35.7391 250.933 40.7225 251.885 47.2038C252.537 51.6278 250.969 56.2832 248.26 59.4084C245.552 62.5337 241.828 64.2224 238.076 64.6797C234.324 65.1369 230.531 64.4384 226.885 63.2904C223.224 62.1378 219.619 60.5021 216.548 57.8652C213.476 55.2283 210.957 51.51 209.971 47.156C208.985 42.8019 209.693 37.8094 212.235 34.4663C215.145 30.638 219.987 29.3218 222.505 25.1165C225.329 20.4028 224.282 13.6906 226.567 8.58042C228.092 5.16869 230.98 2.8416 234.057 1.61532C237.135 0.389033 240.422 0.147138 243.666 0.0287782C245.371 -0.0358992 247.128 -0.0546514 248.717 0.685905C250.305 1.42646 251.704 3.11324 251.784 5.14282C251.865 7.17239 250.777 7.79718 250.777 7.79718Z" fill="#2F2E41"/>
</g>
<defs>
<clipPath id="clip0_4058_1086">
<rect width="457" height="262" fill="white"/>
</clipPath>
</defs>
</svg>
