<svg width="435" height="269" viewBox="0 0 435 269" fill="none" xmlns="http://www.w3.org/2000/svg">
<g clip-path="url(#clip0_4058_1044)">
<path d="M42.5186 245.725C44.2029 246.539 46.0113 246.742 47.7696 246.317C49.5279 245.891 51.1768 244.851 52.5574 243.295C56.0735 239.24 57.1773 232.56 58.0729 226.374L60.7259 208.077L55.1715 213.332C51.1769 217.111 47.0927 221.012 44.3267 226.486C41.5607 231.96 40.3536 239.433 42.5757 245.356" fill="#CBD5F2"/>
<path d="M42.993 267.877C42.4308 262.25 41.8527 256.552 42.2469 250.864C42.5973 245.814 43.7184 240.881 46.0019 236.836C47.2138 234.693 48.6885 232.856 50.3596 231.41C50.7955 231.033 51.1962 231.981 50.7626 232.357C47.8712 234.868 45.6348 238.575 44.3758 242.945C42.9852 247.805 42.762 253.103 43.0035 258.265C43.1485 261.386 43.4554 264.487 43.7651 267.585C43.79 267.725 43.775 267.873 43.7232 267.999C43.6713 268.124 43.5865 268.218 43.4861 268.26C43.3839 268.298 43.2751 268.279 43.1831 268.207C43.0911 268.136 43.0234 268.017 42.9948 267.877L42.993 267.877Z" fill="#F2F2F2"/>
<path d="M412.734 238.566C410.94 239.433 409.013 239.65 407.14 239.197C405.267 238.743 403.51 237.635 402.039 235.978C398.293 231.657 397.118 224.541 396.163 217.951L393.336 198.457L399.254 204.056C403.51 208.082 407.862 212.238 410.808 218.07C413.755 223.902 415.04 231.864 412.673 238.175" fill="#CBD5F2"/>
<path d="M411.822 263.525C412.567 256.068 413.333 248.515 412.809 240.979C412.345 234.286 410.859 227.75 407.833 222.388C406.227 219.548 404.273 217.115 402.059 215.198C401.481 214.697 400.95 215.954 401.525 216.453C405.357 219.78 408.32 224.694 409.989 230.485C411.832 236.924 412.127 243.945 411.81 250.786C411.618 254.923 411.21 259.032 410.801 263.137C410.769 263.323 410.789 263.519 410.858 263.685C410.926 263.851 411.038 263.974 411.171 264.031C411.306 264.081 411.45 264.056 411.572 263.961C411.694 263.866 411.783 263.709 411.821 263.524L411.822 263.525Z" fill="#F2F2F2"/>
<path d="M406.459 251.56C405.69 253.168 404.632 254.476 403.388 255.358C402.143 256.241 400.755 256.669 399.355 256.6C395.758 256.365 392.76 252.917 390.062 249.642L382.079 239.957L387.362 239.61C391.162 239.36 395.059 239.125 398.678 240.737C402.297 242.349 405.634 246.222 406.295 251.369" fill="#CBD5F2"/>
<path d="M413.926 267.811C410.34 259.092 406.181 249.403 398.749 246.306C396.682 245.448 394.516 245.141 392.365 245.4C391.687 245.481 391.857 246.916 392.533 246.836C396.138 246.425 399.735 247.733 402.721 250.539C405.593 253.226 407.83 256.961 409.723 260.922C410.882 263.348 411.921 265.877 412.959 268.403C413.291 269.21 414.262 268.627 413.926 267.811Z" fill="#F2F2F2"/>
<path d="M312.14 162.322H132.376V109.528H312.14V162.322Z" fill="white"/>
<path d="M158.08 149.444C164.891 149.444 170.412 143.311 170.412 135.745C170.412 128.18 164.891 122.046 158.08 122.046C151.269 122.046 145.747 128.18 145.747 135.745C145.747 143.311 151.269 149.444 158.08 149.444Z" fill="#465DA3"/>
<path d="M182.696 126.984C182.265 126.984 181.851 127.219 181.546 127.639C181.241 128.058 181.069 128.626 181.069 129.219C181.069 129.812 181.241 130.381 181.546 130.8C181.851 131.219 182.265 131.454 182.696 131.454H301.468C301.898 131.453 302.311 131.217 302.615 130.798C302.92 130.379 303.091 129.811 303.091 129.219C303.091 128.627 302.92 128.06 302.615 127.641C302.311 127.222 301.898 126.985 301.468 126.984H182.696Z" fill="#465DA3"/>
<path d="M182.697 140.396C182.265 140.395 181.851 140.629 181.545 141.047C181.24 141.466 181.067 142.034 181.066 142.626C181.066 143.219 181.236 143.788 181.54 144.208C181.845 144.628 182.258 144.865 182.69 144.866H257.778C257.992 144.867 258.204 144.809 258.402 144.697C258.599 144.585 258.779 144.421 258.93 144.213C259.082 144.005 259.202 143.759 259.284 143.487C259.366 143.216 259.408 142.925 259.408 142.631C259.408 142.337 259.366 142.046 259.284 141.775C259.202 141.504 259.082 141.257 258.93 141.049C258.779 140.842 258.599 140.677 258.402 140.565C258.204 140.453 257.992 140.396 257.778 140.396H182.697Z" fill="#465DA3"/>
<path d="M313.918 164.389H130.052V107.102H313.918V164.389ZM135.121 158.551H309.395V113.299H135.121V158.551Z" fill="#CCCCCC"/>
<path d="M362.763 149.209C362.588 148.503 362.528 147.753 362.588 147.012C362.647 146.271 362.824 145.556 363.105 144.919C363.387 144.282 363.767 143.738 364.219 143.324C364.67 142.911 365.182 142.639 365.719 142.527L367.753 131.213L373.058 131.236L370.022 147.157C370.099 148.407 369.84 149.653 369.293 150.659C368.746 151.665 367.95 152.36 367.056 152.613C366.161 152.866 365.23 152.659 364.438 152.031C363.647 151.404 363.051 150.4 362.763 149.209Z" fill="#FFB7B7"/>
<path d="M375.122 139.484L366.714 138.419L371.717 106.743L370.132 71.6115L378.785 67.3456L383.342 106.459L383.325 106.53L375.122 139.484Z" fill="#3F3D56"/>
<path d="M309.434 136.949C309.423 136.21 309.548 135.478 309.8 134.804C310.051 134.129 310.423 133.529 310.889 133.045C311.355 132.561 311.905 132.205 312.498 132.003C313.092 131.8 313.715 131.756 314.325 131.873L319.388 122.046L325.129 124.271L317.817 138.028C317.585 139.24 316.989 140.308 316.143 141.029C315.296 141.751 314.258 142.076 313.225 141.943C312.192 141.81 311.235 141.228 310.536 140.308C309.838 139.387 309.446 138.192 309.434 136.949Z" fill="#FFB7B7"/>
<path d="M336.339 264.018H331.781L329.613 241.602L336.34 241.602L336.339 264.018Z" fill="#FFB7B7"/>
<path d="M338.582 269L322.887 268.999V268.686C322.887 266.127 323.531 263.673 324.676 261.863C325.822 260.054 327.376 259.037 328.996 259.037L338.583 259.038L338.582 269Z" fill="#2F2E41"/>
<path d="M368.588 262.152H364.266L362.21 239.245L368.589 239.245L368.588 262.152Z" fill="#FFB7B7"/>
<path d="M372.216 269L358.763 268.999V268.686C358.763 266.127 359.315 263.673 360.297 261.863C361.279 260.054 362.61 259.037 363.999 259.037L372.216 259.038L372.216 269Z" fill="#2F2E41"/>
<path d="M361.005 42.3426C367.197 42.3426 372.217 36.2093 372.217 28.6435C372.217 21.0777 367.197 14.9445 361.005 14.9445C354.813 14.9445 349.794 21.0777 349.794 28.6435C349.794 36.2093 354.813 42.3426 361.005 42.3426Z" fill="#FFB8B8"/>
<path d="M361.901 27.9678C360.269 28.869 358.442 28.9358 356.775 28.1552C355.108 27.3746 353.721 25.8025 352.884 23.7452C352.047 21.688 351.82 19.293 352.247 17.0268C352.674 14.7607 353.725 12.7858 355.195 11.487C358.102 8.9188 362.443 9.76882 365.26 12.7473C367.16 11.6064 369.285 11.2933 371.329 11.8532C373.372 12.4131 375.228 13.817 376.627 15.8618C379.347 20.0164 379.644 26.6111 377.662 31.4543C376.795 33.9792 376.411 36.7462 376.542 39.513C376.673 42.2798 377.316 44.9618 378.415 47.3241C377.562 47.2782 375.685 47.0696 373.336 46.802C372.656 46.7245 372.362 44.0884 371.617 44.0036C370.96 43.9288 369.857 46.4059 369.168 46.3291C364.067 45.76 358.356 45.1818 355.767 45.2949C357.718 39.2667 359.668 33.2385 361.901 27.9678Z" fill="#2F2E41"/>
<path d="M375.067 132.263C375.067 132.263 378.784 137.037 376.267 161.452L374.212 213.331L371.096 257.791L362.127 256.546L354.99 152.565L343.535 191.143L336.978 255.06L328.32 254.231L327.415 190.586L331.657 141.455L375.067 132.263Z" fill="#2F2E41"/>
<path d="M338.267 144.463C333.931 144.463 332.184 143.782 332.057 143.729L331.855 143.646L331.891 143.375C331.92 143.152 334.833 120.946 338.83 109.289L341.641 62.012C341.721 60.6074 342.163 59.2798 342.895 58.2457C343.626 57.2115 344.604 56.5316 345.669 56.3169L352.818 54.8495L357.192 49.8148L367.669 50.5723L368.593 56.3663C369.846 56.8242 378.115 60.1373 378.933 68.071L378.943 68.1704L378.908 68.259L363.759 106.359C365.039 108.01 375.156 121.597 375.842 138.967L375.859 139.384L375.547 139.291C375.518 139.283 372.28 138.479 355.256 142.242C347.382 143.982 341.91 144.463 338.267 144.463Z" fill="#3F3D56"/>
<path d="M320.099 136.991L313.918 130.924L327.715 95.7476L340.547 61.2711C340.726 60.7893 341.017 60.389 341.38 60.1238C341.743 59.8586 342.16 59.7413 342.577 59.7876C342.994 59.834 343.39 60.0417 343.711 60.3829C344.033 60.7241 344.265 61.1825 344.376 61.6966L347.552 76.3805L337.62 109.312L320.099 136.991Z" fill="#3F3D56"/>
<path d="M434.542 269H260.268C260.147 269 260.03 268.934 259.945 268.816C259.859 268.698 259.811 268.538 259.811 268.371C259.811 268.205 259.859 268.045 259.945 267.927C260.03 267.809 260.147 267.743 260.268 267.743H434.542C434.664 267.743 434.78 267.809 434.866 267.927C434.952 268.045 435 268.205 435 268.371C435 268.538 434.952 268.698 434.866 268.816C434.78 268.934 434.664 269 434.542 269Z" fill="#CBCBCB"/>
<path d="M253.376 87.176H201.804V29.8889H227.59V34.3169H205.79V82.748H249.39V58.5324H253.376V87.176Z" fill="#3F3D56"/>
<path d="M226.469 69.7407L213.24 54.0873L216.379 51.06L226.469 62.2685L252.725 30.4252L255.619 33.625L226.469 69.7407Z" fill="#465DA3"/>
<path d="M72.0153 43.089L72.4219 39.0369C72.4219 39.0369 83.401 33.7853 85.3992 41.5704L72.0153 43.089Z" fill="#E6E6E6"/>
<path d="M94.1758 261.528H100.253L103.144 231.639H94.1748L94.1758 261.528Z" fill="#D6A1A1"/>
<path d="M91.9326 259.038L104.258 259.037H104.258C106.342 259.037 108.339 260.054 109.812 261.863C111.285 263.673 112.113 266.127 112.113 268.686V268.999L91.933 269L91.9326 259.038Z" fill="#2F2E41"/>
<path d="M60.542 261.528H66.6189L69.5101 231.639H60.541L60.542 261.528Z" fill="#D6A1A1"/>
<path d="M58.2988 259.038L71.9936 259.037H71.9941C74.3087 259.037 76.5285 260.054 78.1651 261.863C79.8018 263.673 80.7214 266.127 80.7215 268.686V268.999L58.2993 269L58.2988 259.038Z" fill="#2F2E41"/>
<path d="M64.1801 60.642L56.8859 59.6985L51.8119 85.9357L52.0901 109.885L58.8828 141.946L68.9627 134.963L64.1759 102.145L64.1801 60.642Z" fill="#3F3D56"/>
<path d="M58.6768 137.688L60.4075 154.426L62.0324 193.481L58.2988 251.68L71.6521 250.867L78.1968 190.292L82.1942 162.396L87.8165 194.278L91.3307 254.056L105.035 252.81V194.068L105.386 151.238L100.467 134.5L58.6768 137.688Z" fill="#2F2E41"/>
<path d="M86.5641 44.146C86.5641 44.146 81.9217 36.3199 73.3 41.7982L69.3208 48.0591L56.7198 59.0156L59.3727 95.7983L56.0566 141.972L103.144 141.19L95.1858 95.0157V45.7112L86.5641 44.146Z" fill="#3F3D56"/>
<path opacity="0.25" d="M59.6112 72.2314L56.0566 124.537L60.5412 96.1891L59.6112 72.2314Z" fill="black"/>
<path d="M144.697 114.246C144.034 114.536 143.33 114.636 142.635 114.537C141.94 114.439 141.269 114.145 140.671 113.677C140.074 113.209 139.563 112.577 139.175 111.827C138.787 111.077 138.531 110.226 138.426 109.335L127.81 105.954L127.83 97.1389L142.771 102.185C143.945 102.056 145.114 102.487 146.058 103.395C147.002 104.304 147.654 105.627 147.891 107.113C148.129 108.6 147.935 110.147 147.346 111.462C146.757 112.777 145.814 113.767 144.697 114.246Z" fill="#D6A1A1"/>
<path d="M133.086 98.0866L131.201 110.594L135.924 111.549L137.809 99.0418L133.086 98.0866Z" fill="#E6E6E6"/>
<path d="M81.8433 34.8704C89.8927 34.8704 96.4181 27.6219 96.4181 18.6805C96.4181 9.73915 89.8927 2.49072 81.8433 2.49072C73.7939 2.49072 67.2686 9.73915 67.2686 18.6805C67.2686 27.6219 73.7939 34.8704 81.8433 34.8704Z" fill="#D6A1A1"/>
<path d="M80.7266 34.3907C77.2179 35.3959 73.5214 34.8091 70.3549 32.7443C67.1884 30.6795 64.778 27.2841 63.5918 23.2174C62.4055 19.1508 62.5282 14.7031 63.9358 10.7383C65.3435 6.77348 67.9357 3.57445 71.209 1.76249C73.7298 0.41993 76.4865 -0.170415 79.2412 0.042418C83.5303 0.311517 87.6991 2.20326 91.9925 2.06386L92.6148 3.25755L94.9601 2.5788L95.4627 4.80079L96.0804 4.77527C97.187 7.22927 95.4066 10.7426 93.0715 10.7129C92.1532 10.5865 91.2478 10.3512 90.3687 10.0103C89.4647 9.77912 88.4001 9.83673 87.7767 10.6515C86.9665 11.7104 87.3192 13.3628 87.4881 14.7824C87.6571 16.202 87.2352 18.1142 86.0342 18.1605C85.4208 18.1842 84.8373 17.6592 84.2345 17.7972C83.5324 17.958 83.1774 18.9697 83.2799 19.814C83.4538 20.6425 83.7374 21.4325 84.12 22.1542C84.9319 24.2671 85.0611 26.6634 84.4827 28.883C83.9043 31.1026 82.6591 32.989 80.9863 34.1798" fill="#2F2E41"/>
<path d="M91.7008 48.8014L94.9263 45.6044C94.9263 45.6044 101.661 44.7431 101.862 52.759L114.196 90.0383L135.266 97.223L133.122 113.509L103.276 102.467L87.2589 75.5817L91.7008 48.8014Z" fill="#3F3D56"/>
<path d="M174.732 269H0.457413C0.3361 269 0.219755 268.934 0.133973 268.816C0.0481913 268.698 0 268.538 0 268.371C0 268.205 0.0481913 268.045 0.133973 267.927C0.219755 267.809 0.3361 267.743 0.457413 267.743H174.732C174.853 267.743 174.97 267.809 175.055 267.927C175.141 268.045 175.189 268.205 175.189 268.371C175.189 268.538 175.141 268.698 175.055 268.816C174.97 268.934 174.853 269 174.732 269Z" fill="#CBCBCB"/>
</g>
<defs>
<clipPath id="clip0_4058_1044">
<rect width="435" height="269" fill="white"/>
</clipPath>
</defs>
</svg>
