<svg width="80" height="80" viewBox="0 0 80 80" fill="none" xmlns="http://www.w3.org/2000/svg">
<path d="M10 36.6666V42.6666C10 44.5522 10 45.4951 10.5858 46.0808C11.1716 46.6666 12.1144 46.6666 14 46.6666H25.2251C25.9209 46.6666 26.2687 46.6666 26.5306 46.8554C26.7925 47.0441 26.9025 47.3742 27.1225 48.0342L29.5442 55.2991C29.7642 55.9591 29.8742 56.2891 30.136 56.4779C30.3979 56.6666 30.7458 56.6666 31.4415 56.6666H48.5585C49.2542 56.6666 49.6021 56.6666 49.864 56.4779C50.1258 56.2891 50.2358 55.9591 50.4558 55.2991L52.8775 48.0342C53.0975 47.3742 53.2075 47.0441 53.4694 46.8554C53.7313 46.6666 54.0791 46.6666 54.7748 46.6666H66C67.8856 46.6666 68.8284 46.6666 69.4142 46.0808C70 45.4951 70 44.5522 70 42.6666V36.6666" stroke="#465DA3" stroke-width="4"/>
<path d="M26.667 30L40.0003 40M40.0003 40L53.3337 30M40.0003 40L40.0003 6.66667" stroke="#465DA3" stroke-width="4"/>
<path d="M53.3333 16.6666H66C67.8856 16.6666 68.8284 16.6666 69.4142 17.2524C70 17.8382 70 18.781 70 20.6666V66C70 67.8856 70 68.8284 69.4142 69.4142C68.8284 70 67.8856 70 66 70H14C12.1144 70 11.1716 70 10.5858 69.4142C10 68.8284 10 67.8856 10 66V20.6666C10 18.781 10 17.8382 10.5858 17.2524C11.1716 16.6666 12.1144 16.6666 14 16.6666H26.6667" stroke="#465DA3" stroke-width="4"/>
</svg>
