<svg width="80" height="80" viewBox="0 0 80 80" fill="none" xmlns="http://www.w3.org/2000/svg">
<path d="M21.667 31.6667L12.5105 40.8232C12.1992 41.1345 12.0436 41.2902 11.9322 41.4718C11.8335 41.6329 11.7608 41.8085 11.7167 41.9921C11.667 42.1993 11.667 42.4194 11.667 42.8597V65.4534C11.667 66.4615 11.667 66.9656 11.8632 67.3506C12.0358 67.6893 12.3111 67.9647 12.6498 68.1372C13.0349 68.3334 13.5389 68.3334 14.547 68.3334H65.4537C66.4618 68.3334 66.9658 68.3334 67.3508 68.1372C67.6895 67.9647 67.9649 67.6893 68.1375 67.3506C68.3337 66.9656 68.3337 66.4615 68.3337 65.4534V42.8597C68.3337 42.4194 68.3337 42.1993 68.2839 41.9921C68.2398 41.8085 68.1671 41.6329 68.0684 41.4718C67.9571 41.2902 67.8014 41.1345 67.4901 40.8232L58.3337 31.6667" stroke="#465DA3" stroke-width="4"/>
<path d="M68.3337 48.3333H56.4418C55.7461 48.3333 55.3983 48.3333 55.1364 48.522C54.8745 48.7108 54.7645 49.0408 54.5445 49.7008L52.1228 56.9657C51.9028 57.6257 51.7928 57.9557 51.5309 58.1445C51.2691 58.3333 50.9212 58.3333 50.2255 58.3333H29.7752C29.0795 58.3333 28.7316 58.3333 28.4697 58.1445C28.2078 57.9557 28.0978 57.6257 27.8778 56.9657L25.4562 49.7008C25.2362 49.0408 25.1262 48.7108 24.8643 48.522C24.6024 48.3333 24.2545 48.3333 23.5588 48.3333H11.667" stroke="#465DA3" stroke-width="4"/>
<path d="M58.3337 48.3333V25.6627C58.3337 25.4182 58.3337 25.2959 58.306 25.1808C58.2815 25.0787 58.2411 24.9812 58.1863 24.8917C58.1245 24.7908 58.038 24.7043 57.865 24.5314L48.8023 15.4686C48.6293 15.2957 48.5429 15.2092 48.4419 15.1474C48.3525 15.0925 48.2549 15.0521 48.1529 15.0276C48.0378 15 47.9155 15 47.6709 15H24.067C23.2269 15 22.8069 15 22.486 15.1635C22.2038 15.3073 21.9743 15.5368 21.8305 15.819C21.667 16.1399 21.667 16.5599 21.667 17.4V48.3333" stroke="#465DA3" stroke-width="4"/>
<path d="M45 14.9999L45 26.7333C45 27.2933 45 27.5733 45.109 27.7872C45.2049 27.9754 45.3578 28.1284 45.546 28.2243C45.7599 28.3333 46.0399 28.3333 46.6 28.3333L58.3333 28.3333" stroke="#465DA3" stroke-width="4"/>
</svg>
