<svg width="85" height="85" viewBox="0 0 85 85" fill="none" xmlns="http://www.w3.org/2000/svg">
<path d="M17.708 42.4999V21.7082C17.708 19.8226 17.708 18.8798 18.2938 18.294C18.8796 17.7083 19.8224 17.7083 21.708 17.7083H37.3012C38.1187 17.7083 38.5274 17.7083 38.8949 17.8605C39.2625 18.0127 39.5515 18.3018 40.1296 18.8798L48.4114 27.1617C48.9895 27.7397 49.2785 28.0288 49.6461 28.181C50.0136 28.3333 50.4224 28.3333 51.2399 28.3333H70.3747C72.2603 28.3333 73.2031 28.3333 73.7889 28.919C74.3747 29.5048 74.3747 30.4476 74.3747 32.3333V63.2916C74.3747 65.1772 74.3747 66.12 73.7889 66.7058C73.2031 67.2916 72.2603 67.2916 70.3747 67.2916H56.6663" stroke="#465DA3" stroke-width="4"/>
<path d="M14.167 58.4376H46.042M46.042 58.4376L33.6462 46.0417M46.042 58.4376L33.6462 70.8334" stroke="#465DA3" stroke-width="4"/>
</svg>
