<svg width="80" height="80" viewBox="0 0 80 80" fill="none" xmlns="http://www.w3.org/2000/svg">
<circle cx="40.0003" cy="26.6666" r="11.3333" stroke="#465DA3" stroke-width="4" stroke-linecap="round"/>
<path d="M49.7388 26C50.7997 24.1625 52.547 22.8217 54.5964 22.2726C56.6459 21.7234 58.8295 22.0109 60.667 23.0718C62.5045 24.1327 63.8453 25.88 64.3944 27.9294C64.9435 29.9789 64.6561 32.1625 63.5952 34C62.5343 35.8375 60.787 37.1783 58.7375 37.7274C56.6881 38.2766 54.5045 37.9891 52.667 36.9282C50.8295 35.8673 49.4887 34.12 48.9396 32.0706C48.3904 30.0211 48.6779 27.8375 49.7388 26L49.7388 26Z" stroke="#465DA3" stroke-width="4"/>
<path d="M16.4048 26C17.4657 24.1625 19.213 22.8217 21.2625 22.2726C23.3119 21.7234 25.4955 22.0109 27.333 23.0718C29.1705 24.1327 30.5113 25.88 31.0604 27.9294C31.6096 29.9789 31.3221 32.1625 30.2612 34C29.2003 35.8375 27.453 37.1783 25.4036 37.7274C23.3541 38.2766 21.1705 37.9891 19.333 36.9282C17.4955 35.8673 16.1547 34.12 15.6056 32.0706C15.0565 30.0211 15.3439 27.8375 16.4048 26L16.4048 26Z" stroke="#465DA3" stroke-width="4"/>
<path d="M56.2722 60.0001L54.3116 60.395L54.6348 62.0001H56.2722V60.0001ZM69.7967 58.892L71.7503 58.4637L71.7503 58.4637L69.7967 58.892ZM49.2695 49.0352L48.0598 47.4425L45.7467 49.1995L48.2133 50.7335L49.2695 49.0352ZM68.8673 58.0001H56.2722V62.0001H68.8673V58.0001ZM67.8431 59.3203C67.6735 58.5469 68.3104 58.0001 68.8673 58.0001V62.0001C70.6273 62.0001 72.1774 60.4122 71.7503 58.4637L67.8431 59.3203ZM56.6668 48.6667C60.7218 48.6667 63.2767 50.5271 64.9691 52.7806C66.7162 55.1071 67.5193 57.8438 67.8431 59.3203L71.7503 58.4637C71.3725 56.7408 70.4102 53.3649 68.1675 50.3786C65.87 47.3193 62.2108 44.6667 56.6668 44.6667V48.6667ZM50.4792 50.6279C51.989 49.4811 53.9775 48.6667 56.6668 48.6667V44.6667C53.0898 44.6667 50.2543 45.7757 48.0598 47.4425L50.4792 50.6279ZM48.2133 50.7335C52.1366 53.1736 53.7017 57.3667 54.3116 60.395L58.2328 59.6052C57.5355 56.1426 55.6278 50.6344 50.3258 47.3369L48.2133 50.7335Z" fill="#465DA3"/>
<path d="M30.7307 49.0351L31.7869 50.7335L34.2535 49.1994L31.9404 47.4425L30.7307 49.0351ZM10.2035 58.892L12.1571 59.3203L12.1571 59.3203L10.2035 58.892ZM23.7279 60.0001V62.0001H25.3653L25.6885 60.395L23.7279 60.0001ZM23.3334 48.6667C26.0227 48.6667 28.0112 49.4811 29.5209 50.6278L31.9404 47.4425C29.7459 45.7757 26.9105 44.6667 23.3334 44.6667V48.6667ZM12.1571 59.3203C12.4808 57.8438 13.284 55.1071 15.0312 52.7806C16.7235 50.5271 19.2785 48.6667 23.3334 48.6667V44.6667C17.7895 44.6667 14.1302 47.3193 11.8327 50.3786C9.59003 53.3648 8.62767 56.7408 8.24993 58.4637L12.1571 59.3203ZM11.1328 58.0001C11.6898 58.0001 12.3267 58.5469 12.1571 59.3203L8.24993 58.4637C7.82273 60.4122 9.37288 62.0001 11.1328 62.0001V58.0001ZM23.7279 58.0001H11.1328V62.0001H23.7279V58.0001ZM25.6885 60.395C26.2984 57.3667 27.8635 53.1736 31.7869 50.7335L29.6744 47.3368C24.3723 50.6343 22.4646 56.1426 21.7673 59.6052L25.6885 60.395Z" fill="#465DA3"/>
<path d="M39.9997 46.6667C54.1937 46.6667 56.2995 58.755 56.6119 62.3418C56.6598 62.892 56.2186 63.3334 55.6663 63.3334H24.333C23.7807 63.3334 23.3395 62.892 23.3874 62.3418C23.6998 58.755 25.8056 46.6667 39.9997 46.6667Z" stroke="#465DA3" stroke-width="4" stroke-linecap="round"/>
</svg>
