<svg width="909" height="130" viewBox="0 0 909 130" fill="none" xmlns="http://www.w3.org/2000/svg">
<path d="M17.3097 10.2756C17.196 9.12973 16.7083 8.23958 15.8466 7.60511C14.9848 6.97064 13.8153 6.65341 12.3381 6.65341C11.3343 6.65341 10.4867 6.79545 9.79545 7.07955C9.10417 7.35417 8.57386 7.73769 8.20455 8.23011C7.8447 8.72254 7.66477 9.28125 7.66477 9.90625C7.64583 10.4271 7.75473 10.8816 7.99148 11.2699C8.23769 11.6581 8.57386 11.9943 9 12.2784C9.42614 12.553 9.91856 12.7945 10.4773 13.0028C11.036 13.2017 11.6326 13.3722 12.267 13.5142L14.8807 14.1392C16.1496 14.4233 17.3144 14.8021 18.375 15.2756C19.4356 15.7491 20.3542 16.3314 21.1307 17.0227C21.9072 17.714 22.5085 18.5284 22.9347 19.4659C23.3703 20.4034 23.5928 21.4782 23.6023 22.6903C23.5928 24.4706 23.1383 26.0142 22.2386 27.321C21.3485 28.6184 20.0606 29.6269 18.375 30.3466C16.6989 31.0568 14.6771 31.4119 12.3097 31.4119C9.96117 31.4119 7.91572 31.0521 6.1733 30.3324C4.44034 29.6127 3.08617 28.5473 2.1108 27.1364C1.14489 25.7159 0.638258 23.9593 0.590909 21.8665H6.54261C6.6089 22.8419 6.88826 23.6562 7.38068 24.3097C7.88258 24.9536 8.55019 25.4413 9.38352 25.7727C10.2263 26.0947 11.178 26.2557 12.2386 26.2557C13.2803 26.2557 14.1847 26.1042 14.9517 25.8011C15.7282 25.4981 16.3295 25.0767 16.7557 24.5369C17.1818 23.9972 17.3949 23.3769 17.3949 22.6761C17.3949 22.0227 17.2008 21.4735 16.8125 21.0284C16.4337 20.5833 15.875 20.2045 15.1364 19.892C14.4072 19.5795 13.5123 19.2955 12.4517 19.0398L9.28409 18.2443C6.83144 17.6477 4.89489 16.715 3.47443 15.446C2.05398 14.1771 1.34848 12.4678 1.35795 10.3182C1.34848 8.55682 1.81723 7.01799 2.7642 5.7017C3.72064 4.38542 5.0322 3.35795 6.69886 2.61932C8.36553 1.88068 10.2595 1.51136 12.3807 1.51136C14.5398 1.51136 16.4242 1.88068 18.0341 2.61932C19.6534 3.35795 20.9129 4.38542 21.8125 5.7017C22.7121 7.01799 23.1761 8.54261 23.2045 10.2756H17.3097ZM37.5689 31.4261C35.3246 31.4261 33.3928 30.9716 31.7734 30.0625C30.1636 29.1439 28.9231 27.8466 28.0518 26.1705C27.1806 24.4848 26.745 22.4915 26.745 20.1903C26.745 17.946 27.1806 15.9763 28.0518 14.2812C28.9231 12.5862 30.1494 11.2652 31.7308 10.3182C33.3217 9.37121 35.1873 8.89773 37.3274 8.89773C38.7668 8.89773 40.1068 9.12973 41.3473 9.59375C42.5973 10.0483 43.6863 10.7348 44.6143 11.6534C45.5518 12.572 46.281 13.7273 46.8018 15.1193C47.3227 16.5019 47.5831 18.1212 47.5831 19.9773V21.6392H29.1598V17.8892H41.8871C41.8871 17.018 41.6977 16.2462 41.3189 15.5739C40.9401 14.9015 40.4145 14.3759 39.7422 13.9972C39.0793 13.6089 38.3075 13.4148 37.4268 13.4148C36.5083 13.4148 35.6939 13.6278 34.9837 14.054C34.2829 14.4706 33.7337 15.0341 33.3359 15.7443C32.9382 16.4451 32.7346 17.2263 32.7251 18.0881V21.6534C32.7251 22.733 32.924 23.6657 33.3217 24.4517C33.7289 25.2377 34.3018 25.8438 35.0405 26.2699C35.7791 26.696 36.6551 26.9091 37.6683 26.9091C38.3407 26.9091 38.9562 26.8144 39.5149 26.625C40.0736 26.4356 40.5518 26.1515 40.9496 25.7727C41.3473 25.3939 41.6503 24.9299 41.8587 24.3807L47.4553 24.75C47.1712 26.0947 46.5888 27.2689 45.7081 28.2727C44.8369 29.267 43.71 30.0436 42.3274 30.6023C40.9543 31.1515 39.3681 31.4261 37.5689 31.4261ZM51.532 31V9.18182H57.3984V12.9886H57.6257C58.0234 11.6345 58.6911 10.6117 59.6286 9.92045C60.5661 9.2197 61.6456 8.86932 62.8672 8.86932C63.1702 8.86932 63.4969 8.88826 63.8473 8.92614C64.1977 8.96402 64.5054 9.0161 64.7706 9.08239V14.4517C64.4865 14.3665 64.0935 14.2907 63.5916 14.2244C63.0897 14.1581 62.6304 14.125 62.2138 14.125C61.3236 14.125 60.5282 14.3191 59.8274 14.7074C59.1361 15.0862 58.5869 15.6165 58.1797 16.2983C57.782 16.9801 57.5831 17.7661 57.5831 18.6562V31H51.532ZM88.9041 9.18182L81.2763 31H74.4581L66.8303 9.18182H73.2223L77.7536 24.7926H77.9808L82.4979 9.18182H88.9041ZM101.241 31.4261C98.9964 31.4261 97.0646 30.9716 95.4453 30.0625C93.8355 29.1439 92.5949 27.8466 91.7237 26.1705C90.8525 24.4848 90.4169 22.4915 90.4169 20.1903C90.4169 17.946 90.8525 15.9763 91.7237 14.2812C92.5949 12.5862 93.8213 11.2652 95.4027 10.3182C96.9936 9.37121 98.8591 8.89773 100.999 8.89773C102.439 8.89773 103.779 9.12973 105.019 9.59375C106.269 10.0483 107.358 10.7348 108.286 11.6534C109.224 12.572 109.953 13.7273 110.474 15.1193C110.995 16.5019 111.255 18.1212 111.255 19.9773V21.6392H92.8317V17.8892H105.559C105.559 17.018 105.37 16.2462 104.991 15.5739C104.612 14.9015 104.086 14.3759 103.414 13.9972C102.751 13.6089 101.979 13.4148 101.099 13.4148C100.18 13.4148 99.3658 13.6278 98.6555 14.054C97.9548 14.4706 97.4055 15.0341 97.0078 15.7443C96.6101 16.4451 96.4065 17.2263 96.397 18.0881V21.6534C96.397 22.733 96.5959 23.6657 96.9936 24.4517C97.4008 25.2377 97.9737 25.8438 98.7124 26.2699C99.451 26.696 100.327 26.9091 101.34 26.9091C102.013 26.9091 102.628 26.8144 103.187 26.625C103.746 26.4356 104.224 26.1515 104.621 25.7727C105.019 25.3939 105.322 24.9299 105.531 24.3807L111.127 24.75C110.843 26.0947 110.261 27.2689 109.38 28.2727C108.509 29.267 107.382 30.0436 105.999 30.6023C104.626 31.1515 103.04 31.4261 101.241 31.4261ZM130.683 31.4119C129.291 31.4119 128.051 31.1705 126.962 30.6875C125.873 30.1951 125.011 29.4706 124.376 28.5142C123.751 27.5483 123.439 26.3456 123.439 24.9062C123.439 23.6941 123.661 22.6761 124.107 21.8523C124.552 21.0284 125.158 20.3655 125.925 19.8636C126.692 19.3617 127.563 18.983 128.538 18.7273C129.523 18.4716 130.555 18.2917 131.635 18.1875C132.904 18.0549 133.927 17.9318 134.703 17.8182C135.48 17.6951 136.043 17.5152 136.393 17.2784C136.744 17.0417 136.919 16.6913 136.919 16.2273V16.142C136.919 15.2424 136.635 14.5464 136.067 14.054C135.508 13.5616 134.713 13.3153 133.68 13.3153C132.591 13.3153 131.725 13.5568 131.081 14.0398C130.437 14.5133 130.011 15.1098 129.803 15.8295L124.206 15.375C124.49 14.0492 125.049 12.9034 125.882 11.9375C126.715 10.9621 127.79 10.214 129.107 9.69318C130.432 9.16288 131.966 8.89773 133.709 8.89773C134.921 8.89773 136.081 9.03977 137.189 9.32386C138.306 9.60795 139.296 10.0483 140.158 10.6449C141.029 11.2415 141.715 12.0085 142.217 12.946C142.719 13.8741 142.97 14.9867 142.97 16.2841V31H137.232V27.9744H137.061C136.711 28.6562 136.242 29.2576 135.655 29.7784C135.068 30.2898 134.362 30.6922 133.538 30.9858C132.714 31.2699 131.763 31.4119 130.683 31.4119ZM132.416 27.2358C133.306 27.2358 134.092 27.0606 134.774 26.7102C135.456 26.3504 135.991 25.8674 136.379 25.2614C136.768 24.6553 136.962 23.9687 136.962 23.2017V20.8864C136.772 21.0095 136.512 21.1231 136.18 21.2273C135.858 21.322 135.494 21.4119 135.087 21.4972C134.679 21.5729 134.272 21.6439 133.865 21.7102C133.458 21.767 133.089 21.8191 132.757 21.8665C132.047 21.9706 131.427 22.1364 130.896 22.3636C130.366 22.5909 129.954 22.8987 129.661 23.2869C129.367 23.6657 129.22 24.1392 129.22 24.7074C129.22 25.5312 129.518 26.161 130.115 26.5966C130.721 27.0227 131.488 27.2358 132.416 27.2358ZM165.818 15.4034L160.278 15.7443C160.184 15.2708 159.98 14.8447 159.668 14.4659C159.355 14.0777 158.943 13.7699 158.432 13.5426C157.93 13.3059 157.329 13.1875 156.628 13.1875C155.69 13.1875 154.9 13.3864 154.256 13.7841C153.612 14.1723 153.29 14.6932 153.29 15.3466C153.29 15.8674 153.498 16.3078 153.915 16.6676C154.331 17.0275 155.046 17.3163 156.06 17.5341L160.009 18.3295C162.13 18.7652 163.711 19.4659 164.753 20.4318C165.795 21.3977 166.315 22.6667 166.315 24.2386C166.315 25.6686 165.894 26.9233 165.051 28.0028C164.218 29.0824 163.072 29.9252 161.614 30.5312C160.165 31.1278 158.493 31.4261 156.599 31.4261C153.711 31.4261 151.41 30.8248 149.696 29.6222C147.991 28.41 146.992 26.7623 146.699 24.679L152.651 24.3665C152.83 25.2472 153.266 25.9195 153.957 26.3835C154.649 26.8381 155.534 27.0653 156.614 27.0653C157.674 27.0653 158.527 26.8617 159.17 26.4545C159.824 26.0379 160.155 25.5028 160.165 24.8494C160.155 24.3002 159.923 23.8504 159.469 23.5C159.014 23.1402 158.313 22.8655 157.366 22.6761L153.588 21.9233C151.457 21.4972 149.871 20.7585 148.83 19.7074C147.797 18.6562 147.281 17.3163 147.281 15.6875C147.281 14.286 147.66 13.0786 148.418 12.0653C149.185 11.0521 150.259 10.2708 151.642 9.72159C153.034 9.17235 154.663 8.89773 156.528 8.89773C159.284 8.89773 161.453 9.48011 163.034 10.6449C164.625 11.8097 165.553 13.3958 165.818 15.4034ZM190.989 9.18182V13.7273H177.849V9.18182H190.989ZM180.832 3.95455H186.884V24.2955C186.884 24.8542 186.969 25.2898 187.139 25.6023C187.31 25.9053 187.546 26.1184 187.849 26.2415C188.162 26.3646 188.522 26.4261 188.929 26.4261C189.213 26.4261 189.497 26.4025 189.781 26.3551C190.065 26.2983 190.283 26.2557 190.435 26.2273L191.386 30.7301C191.083 30.8248 190.657 30.9337 190.108 31.0568C189.559 31.1894 188.891 31.2699 188.105 31.2983C186.647 31.3551 185.368 31.161 184.27 30.7159C183.181 30.2708 182.333 29.5795 181.727 28.642C181.121 27.7045 180.823 26.5208 180.832 25.0909V3.95455ZM201.45 18.3864V31H195.399V1.90909H201.28V13.0312H201.536C202.028 11.7434 202.823 10.7348 203.922 10.0057C205.02 9.26705 206.398 8.89773 208.055 8.89773C209.571 8.89773 210.892 9.22917 212.018 9.89205C213.155 10.5455 214.036 11.4877 214.661 12.7188C215.295 13.9403 215.607 15.4034 215.598 17.108V31H209.547V18.1875C209.556 16.8428 209.215 15.7964 208.524 15.0483C207.842 14.3002 206.886 13.9261 205.655 13.9261C204.831 13.9261 204.102 14.1013 203.467 14.4517C202.842 14.8021 202.35 15.3134 201.99 15.9858C201.64 16.6487 201.46 17.4489 201.45 18.3864ZM230.303 31.4261C228.059 31.4261 226.127 30.9716 224.508 30.0625C222.898 29.1439 221.657 27.8466 220.786 26.1705C219.915 24.4848 219.479 22.4915 219.479 20.1903C219.479 17.946 219.915 15.9763 220.786 14.2812C221.657 12.5862 222.884 11.2652 224.465 10.3182C226.056 9.37121 227.922 8.89773 230.062 8.89773C231.501 8.89773 232.841 9.12973 234.082 9.59375C235.332 10.0483 236.421 10.7348 237.349 11.6534C238.286 12.572 239.015 13.7273 239.536 15.1193C240.057 16.5019 240.317 18.1212 240.317 19.9773V21.6392H221.894V17.8892H234.621C234.621 17.018 234.432 16.2462 234.053 15.5739C233.674 14.9015 233.149 14.3759 232.477 13.9972C231.814 13.6089 231.042 13.4148 230.161 13.4148C229.243 13.4148 228.428 13.6278 227.718 14.054C227.017 14.4706 226.468 15.0341 226.07 15.7443C225.673 16.4451 225.469 17.2263 225.46 18.0881V21.6534C225.46 22.733 225.658 23.6657 226.056 24.4517C226.463 25.2377 227.036 25.8438 227.775 26.2699C228.513 26.696 229.389 26.9091 230.403 26.9091C231.075 26.9091 231.691 26.8144 232.249 26.625C232.808 26.4356 233.286 26.1515 233.684 25.7727C234.082 25.3939 234.385 24.9299 234.593 24.3807L240.19 24.75C239.906 26.0947 239.323 27.2689 238.442 28.2727C237.571 29.267 236.444 30.0436 235.062 30.6023C233.689 31.1515 232.103 31.4261 230.303 31.4261ZM259.575 1.90909V31H253.524V1.90909H259.575ZM270.644 31.4119C269.252 31.4119 268.012 31.1705 266.923 30.6875C265.834 30.1951 264.972 29.4706 264.337 28.5142C263.712 27.5483 263.4 26.3456 263.4 24.9062C263.4 23.6941 263.622 22.6761 264.067 21.8523C264.513 21.0284 265.119 20.3655 265.886 19.8636C266.653 19.3617 267.524 18.983 268.499 18.7273C269.484 18.4716 270.516 18.2917 271.596 18.1875C272.865 18.0549 273.888 17.9318 274.664 17.8182C275.441 17.6951 276.004 17.5152 276.354 17.2784C276.705 17.0417 276.88 16.6913 276.88 16.2273V16.142C276.88 15.2424 276.596 14.5464 276.028 14.054C275.469 13.5616 274.674 13.3153 273.641 13.3153C272.552 13.3153 271.686 13.5568 271.042 14.0398C270.398 14.5133 269.972 15.1098 269.763 15.8295L264.167 15.375C264.451 14.0492 265.01 12.9034 265.843 11.9375C266.676 10.9621 267.751 10.214 269.067 9.69318C270.393 9.16288 271.927 8.89773 273.67 8.89773C274.882 8.89773 276.042 9.03977 277.15 9.32386C278.267 9.60795 279.257 10.0483 280.119 10.6449C280.99 11.2415 281.676 12.0085 282.178 12.946C282.68 13.8741 282.931 14.9867 282.931 16.2841V31H277.192V27.9744H277.022C276.672 28.6562 276.203 29.2576 275.616 29.7784C275.029 30.2898 274.323 30.6922 273.499 30.9858C272.675 31.2699 271.724 31.4119 270.644 31.4119ZM272.377 27.2358C273.267 27.2358 274.053 27.0606 274.735 26.7102C275.417 26.3504 275.952 25.8674 276.34 25.2614C276.728 24.6553 276.923 23.9687 276.923 23.2017V20.8864C276.733 21.0095 276.473 21.1231 276.141 21.2273C275.819 21.322 275.455 21.4119 275.048 21.4972C274.64 21.5729 274.233 21.6439 273.826 21.7102C273.419 21.767 273.049 21.8191 272.718 21.8665C272.008 21.9706 271.388 22.1364 270.857 22.3636C270.327 22.5909 269.915 22.8987 269.621 23.2869C269.328 23.6657 269.181 24.1392 269.181 24.7074C269.181 25.5312 269.479 26.161 270.076 26.5966C270.682 27.0227 271.449 27.2358 272.377 27.2358ZM287.739 31V1.90909H293.79V12.8466H293.975C294.24 12.2595 294.624 11.6629 295.126 11.0568C295.637 10.4413 296.3 9.92992 297.114 9.52273C297.938 9.10606 298.961 8.89773 300.183 8.89773C301.773 8.89773 303.241 9.31439 304.586 10.1477C305.931 10.9716 307.005 12.2169 307.81 13.8835C308.615 15.5407 309.018 17.6193 309.018 20.1193C309.018 22.553 308.625 24.608 307.839 26.2841C307.062 27.9508 306.002 29.215 304.657 30.0767C303.322 30.929 301.826 31.3551 300.168 31.3551C298.994 31.3551 297.995 31.161 297.171 30.7727C296.357 30.3845 295.689 29.8968 295.168 29.3097C294.647 28.7131 294.25 28.1117 293.975 27.5057H293.705V31H287.739ZM293.663 20.0909C293.663 21.3883 293.843 22.5199 294.202 23.4858C294.562 24.4517 295.083 25.2045 295.765 25.7443C296.447 26.2746 297.275 26.5398 298.251 26.5398C299.236 26.5398 300.069 26.2699 300.751 25.7301C301.433 25.1809 301.949 24.4233 302.299 23.4574C302.659 22.482 302.839 21.3598 302.839 20.0909C302.839 18.8314 302.664 17.7235 302.313 16.767C301.963 15.8106 301.447 15.0625 300.765 14.5227C300.083 13.983 299.245 13.7131 298.251 13.7131C297.266 13.7131 296.433 13.9735 295.751 14.4943C295.078 15.0152 294.562 15.7538 294.202 16.7102C293.843 17.6667 293.663 18.7936 293.663 20.0909ZM322.913 31.4261C320.707 31.4261 318.799 30.9574 317.189 30.0199C315.589 29.0729 314.353 27.7566 313.482 26.071C312.61 24.3759 312.175 22.411 312.175 20.1761C312.175 17.9223 312.61 15.9527 313.482 14.267C314.353 12.572 315.589 11.2557 317.189 10.3182C318.799 9.37121 320.707 8.89773 322.913 8.89773C325.12 8.89773 327.023 9.37121 328.624 10.3182C330.233 11.2557 331.474 12.572 332.345 14.267C333.216 15.9527 333.652 17.9223 333.652 20.1761C333.652 22.411 333.216 24.3759 332.345 26.071C331.474 27.7566 330.233 29.0729 328.624 30.0199C327.023 30.9574 325.12 31.4261 322.913 31.4261ZM322.942 26.7386C323.946 26.7386 324.784 26.4545 325.456 25.8864C326.128 25.3087 326.635 24.5227 326.976 23.5284C327.326 22.5341 327.501 21.4025 327.501 20.1335C327.501 18.8646 327.326 17.733 326.976 16.7386C326.635 15.7443 326.128 14.9583 325.456 14.3807C324.784 13.803 323.946 13.5142 322.942 13.5142C321.929 13.5142 321.076 13.803 320.385 14.3807C319.703 14.9583 319.187 15.7443 318.837 16.7386C318.496 17.733 318.325 18.8646 318.325 20.1335C318.325 21.4025 318.496 22.5341 318.837 23.5284C319.187 24.5227 319.703 25.3087 320.385 25.8864C321.076 26.4545 321.929 26.7386 322.942 26.7386ZM337.587 31V9.18182H343.453V12.9886H343.68C344.078 11.6345 344.746 10.6117 345.683 9.92045C346.621 9.2197 347.7 8.86932 348.922 8.86932C349.225 8.86932 349.552 8.88826 349.902 8.92614C350.252 8.96402 350.56 9.0161 350.825 9.08239V14.4517C350.541 14.3665 350.148 14.2907 349.646 14.2244C349.144 14.1581 348.685 14.125 348.268 14.125C347.378 14.125 346.583 14.3191 345.882 14.7074C345.191 15.0862 344.642 15.6165 344.234 16.2983C343.837 16.9801 343.638 17.7661 343.638 18.6562V31H337.587ZM369.433 31.4119C368.041 31.4119 366.801 31.1705 365.712 30.6875C364.623 30.1951 363.761 29.4706 363.126 28.5142C362.501 27.5483 362.189 26.3456 362.189 24.9062C362.189 23.6941 362.411 22.6761 362.857 21.8523C363.302 21.0284 363.908 20.3655 364.675 19.8636C365.442 19.3617 366.313 18.983 367.288 18.7273C368.273 18.4716 369.305 18.2917 370.385 18.1875C371.654 18.0549 372.677 17.9318 373.453 17.8182C374.23 17.6951 374.793 17.5152 375.143 17.2784C375.494 17.0417 375.669 16.6913 375.669 16.2273V16.142C375.669 15.2424 375.385 14.5464 374.817 14.054C374.258 13.5616 373.463 13.3153 372.43 13.3153C371.341 13.3153 370.475 13.5568 369.831 14.0398C369.187 14.5133 368.761 15.1098 368.553 15.8295L362.956 15.375C363.24 14.0492 363.799 12.9034 364.632 11.9375C365.465 10.9621 366.54 10.214 367.857 9.69318C369.182 9.16288 370.716 8.89773 372.459 8.89773C373.671 8.89773 374.831 9.03977 375.939 9.32386C377.056 9.60795 378.046 10.0483 378.908 10.6449C379.779 11.2415 380.465 12.0085 380.967 12.946C381.469 13.8741 381.72 14.9867 381.72 16.2841V31H375.982V27.9744H375.811C375.461 28.6562 374.992 29.2576 374.405 29.7784C373.818 30.2898 373.112 30.6922 372.288 30.9858C371.464 31.2699 370.513 31.4119 369.433 31.4119ZM371.166 27.2358C372.056 27.2358 372.842 27.0606 373.524 26.7102C374.206 26.3504 374.741 25.8674 375.129 25.2614C375.518 24.6553 375.712 23.9687 375.712 23.2017V20.8864C375.522 21.0095 375.262 21.1231 374.93 21.2273C374.608 21.322 374.244 21.4119 373.837 21.4972C373.429 21.5729 373.022 21.6439 372.615 21.7102C372.208 21.767 371.839 21.8191 371.507 21.8665C370.797 21.9706 370.177 22.1364 369.646 22.3636C369.116 22.5909 368.704 22.8987 368.411 23.2869C368.117 23.6657 367.97 24.1392 367.97 24.7074C367.97 25.5312 368.268 26.161 368.865 26.5966C369.471 27.0227 370.238 27.2358 371.166 27.2358ZM394.455 31.3551C392.797 31.3551 391.296 30.929 389.952 30.0767C388.616 29.215 387.556 27.9508 386.77 26.2841C385.993 24.608 385.605 22.553 385.605 20.1193C385.605 17.6193 386.008 15.5407 386.812 13.8835C387.617 12.2169 388.688 10.9716 390.023 10.1477C391.367 9.31439 392.84 8.89773 394.44 8.89773C395.662 8.89773 396.68 9.10606 397.494 9.52273C398.318 9.92992 398.981 10.4413 399.483 11.0568C399.994 11.6629 400.383 12.2595 400.648 12.8466H400.832V1.90909H406.869V31H400.903V27.5057H400.648C400.364 28.1117 399.961 28.7131 399.44 29.3097C398.929 29.8968 398.261 30.3845 397.438 30.7727C396.623 31.161 395.629 31.3551 394.455 31.3551ZM396.372 26.5398C397.348 26.5398 398.171 26.2746 398.844 25.7443C399.526 25.2045 400.046 24.4517 400.406 23.4858C400.776 22.5199 400.96 21.3883 400.96 20.0909C400.96 18.7936 400.78 17.6667 400.42 16.7102C400.061 15.7538 399.54 15.0152 398.858 14.4943C398.176 13.9735 397.348 13.7131 396.372 13.7131C395.378 13.7131 394.54 13.983 393.858 14.5227C393.176 15.0625 392.66 15.8106 392.31 16.767C391.959 17.7235 391.784 18.8314 391.784 20.0909C391.784 21.3598 391.959 22.482 392.31 23.4574C392.67 24.4233 393.186 25.1809 393.858 25.7301C394.54 26.2699 395.378 26.5398 396.372 26.5398ZM411.844 31V9.18182H417.612V13.0312H417.867C418.322 11.7528 419.079 10.7443 420.14 10.0057C421.201 9.26705 422.469 8.89773 423.947 8.89773C425.443 8.89773 426.717 9.27178 427.768 10.0199C428.819 10.7585 429.52 11.7623 429.87 13.0312H430.097C430.542 11.7812 431.347 10.7822 432.512 10.0341C433.686 9.27652 435.074 8.89773 436.674 8.89773C438.71 8.89773 440.362 9.5464 441.631 10.8438C442.91 12.1316 443.549 13.9593 443.549 16.3267V31H437.512V17.5199C437.512 16.3078 437.19 15.3987 436.546 14.7926C435.902 14.1866 435.097 13.8835 434.131 13.8835C433.033 13.8835 432.176 14.2339 431.56 14.9347C430.945 15.6259 430.637 16.5398 430.637 17.6761V31H424.771V17.392C424.771 16.322 424.463 15.4697 423.847 14.8352C423.241 14.2008 422.441 13.8835 421.447 13.8835C420.774 13.8835 420.168 14.054 419.629 14.3949C419.098 14.7263 418.677 15.1951 418.364 15.8011C418.052 16.3977 417.896 17.0985 417.896 17.9034V31H411.844ZM448.329 31V9.18182H454.38V31H448.329ZM451.369 6.36932C450.469 6.36932 449.697 6.07102 449.053 5.47443C448.419 4.86837 448.102 4.14394 448.102 3.30114C448.102 2.4678 448.419 1.75284 449.053 1.15625C449.697 0.550188 450.469 0.247158 451.369 0.247158C452.268 0.247158 453.035 0.550188 453.67 1.15625C454.314 1.75284 454.636 2.4678 454.636 3.30114C454.636 4.14394 454.314 4.86837 453.67 5.47443C453.035 6.07102 452.268 6.36932 451.369 6.36932ZM465.278 18.3864V31H459.227V9.18182H464.994V13.0312H465.25C465.733 11.7623 466.543 10.7585 467.679 10.0199C468.815 9.27178 470.193 8.89773 471.812 8.89773C473.328 8.89773 474.649 9.22917 475.776 9.89205C476.902 10.5549 477.778 11.5019 478.403 12.733C479.028 13.9545 479.341 15.4129 479.341 17.108V31H473.29V18.1875C473.299 16.8523 472.958 15.8106 472.267 15.0625C471.576 14.3049 470.624 13.9261 469.412 13.9261C468.598 13.9261 467.878 14.1013 467.253 14.4517C466.637 14.8021 466.154 15.3134 465.804 15.9858C465.463 16.6487 465.288 17.4489 465.278 18.3864ZM484.11 31V9.18182H490.161V31H484.11ZM487.15 6.36932C486.25 6.36932 485.478 6.07102 484.835 5.47443C484.2 4.86837 483.883 4.14394 483.883 3.30114C483.883 2.4678 484.2 1.75284 484.835 1.15625C485.478 0.550188 486.25 0.247158 487.15 0.247158C488.049 0.247158 488.817 0.550188 489.451 1.15625C490.095 1.75284 490.417 2.4678 490.417 3.30114C490.417 4.14394 490.095 4.86837 489.451 5.47443C488.817 6.07102 488.049 6.36932 487.15 6.36932ZM513.162 15.4034L507.622 15.7443C507.527 15.2708 507.324 14.8447 507.011 14.4659C506.699 14.0777 506.287 13.7699 505.776 13.5426C505.274 13.3059 504.672 13.1875 503.972 13.1875C503.034 13.1875 502.243 13.3864 501.599 13.7841C500.955 14.1723 500.634 14.6932 500.634 15.3466C500.634 15.8674 500.842 16.3078 501.259 16.6676C501.675 17.0275 502.39 17.3163 503.403 17.5341L507.352 18.3295C509.473 18.7652 511.055 19.4659 512.097 20.4318C513.138 21.3977 513.659 22.6667 513.659 24.2386C513.659 25.6686 513.238 26.9233 512.395 28.0028C511.562 29.0824 510.416 29.9252 508.957 30.5312C507.509 31.1278 505.837 31.4261 503.943 31.4261C501.055 31.4261 498.754 30.8248 497.04 29.6222C495.335 28.41 494.336 26.7623 494.043 24.679L499.994 24.3665C500.174 25.2472 500.61 25.9195 501.301 26.3835C501.992 26.8381 502.878 27.0653 503.957 27.0653C505.018 27.0653 505.87 26.8617 506.514 26.4545C507.168 26.0379 507.499 25.5028 507.509 24.8494C507.499 24.3002 507.267 23.8504 506.812 23.5C506.358 23.1402 505.657 22.8655 504.71 22.6761L500.932 21.9233C498.801 21.4972 497.215 20.7585 496.173 19.7074C495.141 18.6562 494.625 17.3163 494.625 15.6875C494.625 14.286 495.004 13.0786 495.761 12.0653C496.528 11.0521 497.603 10.2708 498.986 9.72159C500.378 9.17235 502.007 8.89773 503.872 8.89773C506.628 8.89773 508.796 9.48011 510.378 10.6449C511.969 11.8097 512.897 13.3958 513.162 15.4034ZM529.075 9.18182V13.7273H515.935V9.18182H529.075ZM518.918 3.95455H524.969V24.2955C524.969 24.8542 525.055 25.2898 525.225 25.6023C525.396 25.9053 525.632 26.1184 525.935 26.2415C526.248 26.3646 526.608 26.4261 527.015 26.4261C527.299 26.4261 527.583 26.4025 527.867 26.3551C528.151 26.2983 528.369 26.2557 528.521 26.2273L529.472 30.7301C529.169 30.8248 528.743 30.9337 528.194 31.0568C527.645 31.1894 526.977 31.2699 526.191 31.2983C524.733 31.3551 523.454 31.161 522.356 30.7159C521.267 30.2708 520.419 29.5795 519.813 28.642C519.207 27.7045 518.909 26.5208 518.918 25.0909V3.95455ZM533.016 31V9.18182H538.883V12.9886H539.11C539.508 11.6345 540.175 10.6117 541.113 9.92045C542.05 9.2197 543.13 8.86932 544.352 8.86932C544.655 8.86932 544.981 8.88826 545.332 8.92614C545.682 8.96402 545.99 9.0161 546.255 9.08239V14.4517C545.971 14.3665 545.578 14.2907 545.076 14.2244C544.574 14.1581 544.115 14.125 543.698 14.125C542.808 14.125 542.013 14.3191 541.312 14.7074C540.621 15.0862 540.071 15.6165 539.664 16.2983C539.266 16.9801 539.067 17.7661 539.067 18.6562V31H533.016ZM554.98 31.4119C553.588 31.4119 552.348 31.1705 551.259 30.6875C550.17 30.1951 549.308 29.4706 548.673 28.5142C548.048 27.5483 547.736 26.3456 547.736 24.9062C547.736 23.6941 547.958 22.6761 548.403 21.8523C548.848 21.0284 549.455 20.3655 550.222 19.8636C550.989 19.3617 551.86 18.983 552.835 18.7273C553.82 18.4716 554.852 18.2917 555.932 18.1875C557.201 18.0549 558.223 17.9318 559 17.8182C559.777 17.6951 560.34 17.5152 560.69 17.2784C561.041 17.0417 561.216 16.6913 561.216 16.2273V16.142C561.216 15.2424 560.932 14.5464 560.364 14.054C559.805 13.5616 559.009 13.3153 557.977 13.3153C556.888 13.3153 556.022 13.5568 555.378 14.0398C554.734 14.5133 554.308 15.1098 554.099 15.8295L548.503 15.375C548.787 14.0492 549.346 12.9034 550.179 11.9375C551.012 10.9621 552.087 10.214 553.403 9.69318C554.729 9.16288 556.263 8.89773 558.006 8.89773C559.218 8.89773 560.378 9.03977 561.486 9.32386C562.603 9.60795 563.593 10.0483 564.455 10.6449C565.326 11.2415 566.012 12.0085 566.514 12.946C567.016 13.8741 567.267 14.9867 567.267 16.2841V31H561.528V27.9744H561.358C561.008 28.6562 560.539 29.2576 559.952 29.7784C559.365 30.2898 558.659 30.6922 557.835 30.9858C557.011 31.2699 556.06 31.4119 554.98 31.4119ZM556.713 27.2358C557.603 27.2358 558.389 27.0606 559.071 26.7102C559.753 26.3504 560.288 25.8674 560.676 25.2614C561.064 24.6553 561.259 23.9687 561.259 23.2017V20.8864C561.069 21.0095 560.809 21.1231 560.477 21.2273C560.155 21.322 559.791 21.4119 559.384 21.4972C558.976 21.5729 558.569 21.6439 558.162 21.7102C557.755 21.767 557.385 21.8191 557.054 21.8665C556.344 21.9706 555.723 22.1364 555.193 22.3636C554.663 22.5909 554.251 22.8987 553.957 23.2869C553.664 23.6657 553.517 24.1392 553.517 24.7074C553.517 25.5312 553.815 26.161 554.412 26.5966C555.018 27.0227 555.785 27.2358 556.713 27.2358ZM583.567 9.18182V13.7273H570.428V9.18182H583.567ZM573.411 3.95455H579.462V24.2955C579.462 24.8542 579.547 25.2898 579.717 25.6023C579.888 25.9053 580.125 26.1184 580.428 26.2415C580.74 26.3646 581.1 26.4261 581.507 26.4261C581.791 26.4261 582.075 26.4025 582.359 26.3551C582.643 26.2983 582.861 26.2557 583.013 26.2273L583.964 30.7301C583.661 30.8248 583.235 30.9337 582.686 31.0568C582.137 31.1894 581.469 31.2699 580.683 31.2983C579.225 31.3551 577.946 31.161 576.848 30.7159C575.759 30.2708 574.911 29.5795 574.305 28.642C573.699 27.7045 573.401 26.5208 573.411 25.0909V3.95455ZM587.509 31V9.18182H593.56V31H587.509ZM590.548 6.36932C589.649 6.36932 588.877 6.07102 588.233 5.47443C587.598 4.86837 587.281 4.14394 587.281 3.30114C587.281 2.4678 587.598 1.75284 588.233 1.15625C588.877 0.550188 589.649 0.247158 590.548 0.247158C591.448 0.247158 592.215 0.550188 592.849 1.15625C593.493 1.75284 593.815 2.4678 593.815 3.30114C593.815 4.14394 593.493 4.86837 592.849 5.47443C592.215 6.07102 591.448 6.36932 590.548 6.36932ZM608.265 31.4261C606.058 31.4261 604.15 30.9574 602.54 30.0199C600.94 29.0729 599.704 27.7566 598.833 26.071C597.962 24.3759 597.526 22.411 597.526 20.1761C597.526 17.9223 597.962 15.9527 598.833 14.267C599.704 12.572 600.94 11.2557 602.54 10.3182C604.15 9.37121 606.058 8.89773 608.265 8.89773C610.471 8.89773 612.375 9.37121 613.975 10.3182C615.585 11.2557 616.826 12.572 617.697 14.267C618.568 15.9527 619.004 17.9223 619.004 20.1761C619.004 22.411 618.568 24.3759 617.697 26.071C616.826 27.7566 615.585 29.0729 613.975 30.0199C612.375 30.9574 610.471 31.4261 608.265 31.4261ZM608.293 26.7386C609.297 26.7386 610.135 26.4545 610.808 25.8864C611.48 25.3087 611.987 24.5227 612.327 23.5284C612.678 22.5341 612.853 21.4025 612.853 20.1335C612.853 18.8646 612.678 17.733 612.327 16.7386C611.987 15.7443 611.48 14.9583 610.808 14.3807C610.135 13.803 609.297 13.5142 608.293 13.5142C607.28 13.5142 606.428 13.803 605.737 14.3807C605.055 14.9583 604.539 15.7443 604.188 16.7386C603.847 17.733 603.677 18.8646 603.677 20.1335C603.677 21.4025 603.847 22.5341 604.188 23.5284C604.539 24.5227 605.055 25.3087 605.737 25.8864C606.428 26.4545 607.28 26.7386 608.293 26.7386ZM628.989 18.3864V31H622.938V9.18182H628.705V13.0312H628.961C629.444 11.7623 630.254 10.7585 631.39 10.0199C632.526 9.27178 633.904 8.89773 635.523 8.89773C637.039 8.89773 638.36 9.22917 639.487 9.89205C640.613 10.5549 641.489 11.5019 642.114 12.733C642.739 13.9545 643.052 15.4129 643.052 17.108V31H637.001V18.1875C637.01 16.8523 636.669 15.8106 635.978 15.0625C635.287 14.3049 634.335 13.9261 633.123 13.9261C632.308 13.9261 631.589 14.1013 630.964 14.4517C630.348 14.8021 629.865 15.3134 629.515 15.9858C629.174 16.6487 628.999 17.4489 628.989 18.3864ZM663.3 31.4119C661.908 31.4119 660.668 31.1705 659.579 30.6875C658.49 30.1951 657.628 29.4706 656.994 28.5142C656.369 27.5483 656.056 26.3456 656.056 24.9062C656.056 23.6941 656.279 22.6761 656.724 21.8523C657.169 21.0284 657.775 20.3655 658.542 19.8636C659.309 19.3617 660.18 18.983 661.156 18.7273C662.14 18.4716 663.173 18.2917 664.252 18.1875C665.521 18.0549 666.544 17.9318 667.32 17.8182C668.097 17.6951 668.66 17.5152 669.011 17.2784C669.361 17.0417 669.536 16.6913 669.536 16.2273V16.142C669.536 15.2424 669.252 14.5464 668.684 14.054C668.125 13.5616 667.33 13.3153 666.298 13.3153C665.209 13.3153 664.342 13.5568 663.698 14.0398C663.054 14.5133 662.628 15.1098 662.42 15.8295L656.823 15.375C657.107 14.0492 657.666 12.9034 658.499 11.9375C659.333 10.9621 660.407 10.214 661.724 9.69318C663.049 9.16288 664.584 8.89773 666.326 8.89773C667.538 8.89773 668.698 9.03977 669.806 9.32386C670.924 9.60795 671.913 10.0483 672.775 10.6449C673.646 11.2415 674.333 12.0085 674.835 12.946C675.336 13.8741 675.587 14.9867 675.587 16.2841V31H669.849V27.9744H669.678C669.328 28.6562 668.859 29.2576 668.272 29.7784C667.685 30.2898 666.979 30.6922 666.156 30.9858C665.332 31.2699 664.38 31.4119 663.3 31.4119ZM665.033 27.2358C665.924 27.2358 666.71 27.0606 667.391 26.7102C668.073 26.3504 668.608 25.8674 668.996 25.2614C669.385 24.6553 669.579 23.9687 669.579 23.2017V20.8864C669.389 21.0095 669.129 21.1231 668.798 21.2273C668.476 21.322 668.111 21.4119 667.704 21.4972C667.297 21.5729 666.889 21.6439 666.482 21.7102C666.075 21.767 665.706 21.8191 665.374 21.8665C664.664 21.9706 664.044 22.1364 663.513 22.3636C662.983 22.5909 662.571 22.8987 662.278 23.2869C661.984 23.6657 661.837 24.1392 661.837 24.7074C661.837 25.5312 662.136 26.161 662.732 26.5966C663.338 27.0227 664.105 27.2358 665.033 27.2358ZM686.333 18.3864V31H680.282V9.18182H686.049V13.0312H686.305C686.788 11.7623 687.597 10.7585 688.734 10.0199C689.87 9.27178 691.248 8.89773 692.867 8.89773C694.382 8.89773 695.703 9.22917 696.83 9.89205C697.957 10.5549 698.833 11.5019 699.458 12.733C700.083 13.9545 700.396 15.4129 700.396 17.108V31H694.344V18.1875C694.354 16.8523 694.013 15.8106 693.322 15.0625C692.63 14.3049 691.679 13.9261 690.467 13.9261C689.652 13.9261 688.933 14.1013 688.308 14.4517C687.692 14.8021 687.209 15.3134 686.859 15.9858C686.518 16.6487 686.343 17.4489 686.333 18.3864ZM713.205 31.3551C711.547 31.3551 710.046 30.929 708.702 30.0767C707.366 29.215 706.306 27.9508 705.52 26.2841C704.743 24.608 704.355 22.553 704.355 20.1193C704.355 17.6193 704.758 15.5407 705.562 13.8835C706.367 12.2169 707.438 10.9716 708.773 10.1477C710.117 9.31439 711.59 8.89773 713.19 8.89773C714.412 8.89773 715.43 9.10606 716.244 9.52273C717.068 9.92992 717.731 10.4413 718.233 11.0568C718.744 11.6629 719.133 12.2595 719.398 12.8466H719.582V1.90909H725.619V31H719.653V27.5057H719.398C719.114 28.1117 718.711 28.7131 718.19 29.3097C717.679 29.8968 717.011 30.3845 716.188 30.7727C715.373 31.161 714.379 31.3551 713.205 31.3551ZM715.122 26.5398C716.098 26.5398 716.921 26.2746 717.594 25.7443C718.276 25.2045 718.796 24.4517 719.156 23.4858C719.526 22.5199 719.71 21.3883 719.71 20.0909C719.71 18.7936 719.53 17.6667 719.17 16.7102C718.811 15.7538 718.29 15.0152 717.608 14.4943C716.926 13.9735 716.098 13.7131 715.122 13.7131C714.128 13.7131 713.29 13.983 712.608 14.5227C711.926 15.0625 711.41 15.8106 711.06 16.767C710.709 17.7235 710.534 18.8314 710.534 20.0909C710.534 21.3598 710.709 22.482 711.06 23.4574C711.42 24.4233 711.936 25.1809 712.608 25.7301C713.29 26.2699 714.128 26.5398 715.122 26.5398ZM739.852 31V9.18182H745.719V12.9886H745.946C746.344 11.6345 747.011 10.6117 747.949 9.92045C748.886 9.2197 749.966 8.86932 751.188 8.86932C751.491 8.86932 751.817 8.88826 752.168 8.92614C752.518 8.96402 752.826 9.0161 753.091 9.08239V14.4517C752.807 14.3665 752.414 14.2907 751.912 14.2244C751.41 14.1581 750.951 14.125 750.534 14.125C749.644 14.125 748.848 14.3191 748.148 14.7074C747.456 15.0862 746.907 15.6165 746.5 16.2983C746.102 16.9801 745.903 17.7661 745.903 18.6562V31H739.852ZM765.147 31.4261C762.903 31.4261 760.971 30.9716 759.352 30.0625C757.742 29.1439 756.501 27.8466 755.63 26.1705C754.759 24.4848 754.323 22.4915 754.323 20.1903C754.323 17.946 754.759 15.9763 755.63 14.2812C756.501 12.5862 757.728 11.2652 759.309 10.3182C760.9 9.37121 762.765 8.89773 764.906 8.89773C766.345 8.89773 767.685 9.12973 768.925 9.59375C770.175 10.0483 771.264 10.7348 772.192 11.6534C773.13 12.572 773.859 13.7273 774.38 15.1193C774.901 16.5019 775.161 18.1212 775.161 19.9773V21.6392H756.738V17.8892H769.465C769.465 17.018 769.276 16.2462 768.897 15.5739C768.518 14.9015 767.993 14.3759 767.32 13.9972C766.657 13.6089 765.886 13.4148 765.005 13.4148C764.086 13.4148 763.272 13.6278 762.562 14.054C761.861 14.4706 761.312 15.0341 760.914 15.7443C760.516 16.4451 760.313 17.2263 760.303 18.0881V21.6534C760.303 22.733 760.502 23.6657 760.9 24.4517C761.307 25.2377 761.88 25.8438 762.619 26.2699C763.357 26.696 764.233 26.9091 765.246 26.9091C765.919 26.9091 766.534 26.8144 767.093 26.625C767.652 26.4356 768.13 26.1515 768.528 25.7727C768.925 25.3939 769.228 24.9299 769.437 24.3807L775.033 24.75C774.749 26.0947 774.167 27.2689 773.286 28.2727C772.415 29.267 771.288 30.0436 769.906 30.6023C768.532 31.1515 766.946 31.4261 765.147 31.4261ZM785.161 1.90909V31H779.11V1.90909H785.161ZM796.23 31.4119C794.838 31.4119 793.598 31.1705 792.509 30.6875C791.42 30.1951 790.558 29.4706 789.923 28.5142C789.298 27.5483 788.986 26.3456 788.986 24.9062C788.986 23.6941 789.208 22.6761 789.653 21.8523C790.098 21.0284 790.705 20.3655 791.472 19.8636C792.239 19.3617 793.11 18.983 794.085 18.7273C795.07 18.4716 796.102 18.2917 797.182 18.1875C798.451 18.0549 799.473 17.9318 800.25 17.8182C801.027 17.6951 801.59 17.5152 801.94 17.2784C802.291 17.0417 802.466 16.6913 802.466 16.2273V16.142C802.466 15.2424 802.182 14.5464 801.614 14.054C801.055 13.5616 800.259 13.3153 799.227 13.3153C798.138 13.3153 797.272 13.5568 796.628 14.0398C795.984 14.5133 795.558 15.1098 795.349 15.8295L789.753 15.375C790.037 14.0492 790.596 12.9034 791.429 11.9375C792.262 10.9621 793.337 10.214 794.653 9.69318C795.979 9.16288 797.513 8.89773 799.256 8.89773C800.468 8.89773 801.628 9.03977 802.736 9.32386C803.853 9.60795 804.843 10.0483 805.705 10.6449C806.576 11.2415 807.262 12.0085 807.764 12.946C808.266 13.8741 808.517 14.9867 808.517 16.2841V31H802.778V27.9744H802.608C802.258 28.6562 801.789 29.2576 801.202 29.7784C800.615 30.2898 799.909 30.6922 799.085 30.9858C798.261 31.2699 797.31 31.4119 796.23 31.4119ZM797.963 27.2358C798.853 27.2358 799.639 27.0606 800.321 26.7102C801.003 26.3504 801.538 25.8674 801.926 25.2614C802.314 24.6553 802.509 23.9687 802.509 23.2017V20.8864C802.319 21.0095 802.059 21.1231 801.727 21.2273C801.405 21.322 801.041 21.4119 800.634 21.4972C800.226 21.5729 799.819 21.6439 799.412 21.7102C799.005 21.767 798.635 21.8191 798.304 21.8665C797.594 21.9706 796.973 22.1364 796.443 22.3636C795.913 22.5909 795.501 22.8987 795.207 23.2869C794.914 23.6657 794.767 24.1392 794.767 24.7074C794.767 25.5312 795.065 26.161 795.662 26.5966C796.268 27.0227 797.035 27.2358 797.963 27.2358ZM824.817 9.18182V13.7273H811.678V9.18182H824.817ZM814.661 3.95455H820.712V24.2955C820.712 24.8542 820.797 25.2898 820.967 25.6023C821.138 25.9053 821.375 26.1184 821.678 26.2415C821.99 26.3646 822.35 26.4261 822.757 26.4261C823.041 26.4261 823.325 26.4025 823.609 26.3551C823.893 26.2983 824.111 26.2557 824.263 26.2273L825.214 30.7301C824.911 30.8248 824.485 30.9337 823.936 31.0568C823.387 31.1894 822.719 31.2699 821.933 31.2983C820.475 31.3551 819.196 31.161 818.098 30.7159C817.009 30.2708 816.161 29.5795 815.555 28.642C814.949 27.7045 814.651 26.5208 814.661 25.0909V3.95455ZM828.759 31V9.18182H834.81V31H828.759ZM831.798 6.36932C830.899 6.36932 830.127 6.07102 829.483 5.47443C828.848 4.86837 828.531 4.14394 828.531 3.30114C828.531 2.4678 828.848 1.75284 829.483 1.15625C830.127 0.550188 830.899 0.247158 831.798 0.247158C832.698 0.247158 833.465 0.550188 834.099 1.15625C834.743 1.75284 835.065 2.4678 835.065 3.30114C835.065 4.14394 834.743 4.86837 834.099 5.47443C833.465 6.07102 832.698 6.36932 831.798 6.36932ZM849.515 31.4261C847.308 31.4261 845.4 30.9574 843.79 30.0199C842.19 29.0729 840.954 27.7566 840.083 26.071C839.212 24.3759 838.776 22.411 838.776 20.1761C838.776 17.9223 839.212 15.9527 840.083 14.267C840.954 12.572 842.19 11.2557 843.79 10.3182C845.4 9.37121 847.308 8.89773 849.515 8.89773C851.721 8.89773 853.625 9.37121 855.225 10.3182C856.835 11.2557 858.076 12.572 858.947 14.267C859.818 15.9527 860.254 17.9223 860.254 20.1761C860.254 22.411 859.818 24.3759 858.947 26.071C858.076 27.7566 856.835 29.0729 855.225 30.0199C853.625 30.9574 851.721 31.4261 849.515 31.4261ZM849.543 26.7386C850.547 26.7386 851.385 26.4545 852.058 25.8864C852.73 25.3087 853.237 24.5227 853.577 23.5284C853.928 22.5341 854.103 21.4025 854.103 20.1335C854.103 18.8646 853.928 17.733 853.577 16.7386C853.237 15.7443 852.73 14.9583 852.058 14.3807C851.385 13.803 850.547 13.5142 849.543 13.5142C848.53 13.5142 847.678 13.803 846.987 14.3807C846.305 14.9583 845.789 15.7443 845.438 16.7386C845.097 17.733 844.927 18.8646 844.927 20.1335C844.927 21.4025 845.097 22.5341 845.438 23.5284C845.789 24.5227 846.305 25.3087 846.987 25.8864C847.678 26.4545 848.53 26.7386 849.543 26.7386ZM870.239 18.3864V31H864.188V9.18182H869.955V13.0312H870.211C870.694 11.7623 871.504 10.7585 872.64 10.0199C873.776 9.27178 875.154 8.89773 876.773 8.89773C878.289 8.89773 879.61 9.22917 880.737 9.89205C881.863 10.5549 882.739 11.5019 883.364 12.733C883.989 13.9545 884.302 15.4129 884.302 17.108V31H878.251V18.1875C878.26 16.8523 877.919 15.8106 877.228 15.0625C876.537 14.3049 875.585 13.9261 874.373 13.9261C873.558 13.9261 872.839 14.1013 872.214 14.4517C871.598 14.8021 871.115 15.3134 870.765 15.9858C870.424 16.6487 870.249 17.4489 870.239 18.3864ZM907.224 15.4034L901.685 15.7443C901.59 15.2708 901.386 14.8447 901.074 14.4659C900.761 14.0777 900.349 13.7699 899.838 13.5426C899.336 13.3059 898.735 13.1875 898.034 13.1875C897.097 13.1875 896.306 13.3864 895.662 13.7841C895.018 14.1723 894.696 14.6932 894.696 15.3466C894.696 15.8674 894.904 16.3078 895.321 16.6676C895.738 17.0275 896.453 17.3163 897.466 17.5341L901.415 18.3295C903.536 18.7652 905.117 19.4659 906.159 20.4318C907.201 21.3977 907.722 22.6667 907.722 24.2386C907.722 25.6686 907.3 26.9233 906.457 28.0028C905.624 29.0824 904.478 29.9252 903.02 30.5312C901.571 31.1278 899.9 31.4261 898.006 31.4261C895.117 31.4261 892.816 30.8248 891.102 29.6222C889.398 28.41 888.399 26.7623 888.105 24.679L894.057 24.3665C894.237 25.2472 894.672 25.9195 895.364 26.3835C896.055 26.8381 896.94 27.0653 898.02 27.0653C899.08 27.0653 899.933 26.8617 900.577 26.4545C901.23 26.0379 901.562 25.5028 901.571 24.8494C901.562 24.3002 901.33 23.8504 900.875 23.5C900.42 23.1402 899.72 22.8655 898.773 22.6761L894.994 21.9233C892.864 21.4972 891.277 20.7585 890.236 19.7074C889.204 18.6562 888.688 17.3163 888.688 15.6875C888.688 14.286 889.066 13.0786 889.824 12.0653C890.591 11.0521 891.666 10.2708 893.048 9.72159C894.44 9.17235 896.069 8.89773 897.935 8.89773C900.69 8.89773 902.859 9.48011 904.44 10.6449C906.031 11.8097 906.959 13.3958 907.224 15.4034ZM9.45455 76.3551C7.79735 76.3551 6.2964 75.929 4.9517 75.0767C3.61648 74.215 2.55587 72.9508 1.76989 71.2841C0.993371 69.608 0.605114 67.553 0.605114 65.1193C0.605114 62.6193 1.00758 60.5407 1.8125 58.8835C2.61742 57.2169 3.6875 55.9716 5.02273 55.1477C6.36742 54.3144 7.83996 53.8977 9.44034 53.8977C10.6619 53.8977 11.6799 54.1061 12.4943 54.5227C13.3182 54.9299 13.9811 55.4413 14.483 56.0568C14.9943 56.6629 15.3826 57.2595 15.6477 57.8466H15.8324V46.9091H21.8693V76H15.9034V72.5057H15.6477C15.3636 73.1117 14.9612 73.7131 14.4403 74.3097C13.929 74.8968 13.2614 75.3845 12.4375 75.7727C11.6231 76.161 10.6288 76.3551 9.45455 76.3551ZM11.3722 71.5398C12.3475 71.5398 13.1714 71.2746 13.8438 70.7443C14.5256 70.2045 15.0464 69.4517 15.4062 68.4858C15.7756 67.5199 15.9602 66.3883 15.9602 65.0909C15.9602 63.7936 15.7803 62.6667 15.4205 61.7102C15.0606 60.7538 14.5398 60.0152 13.858 59.4943C13.1761 58.9735 12.3475 58.7131 11.3722 58.7131C10.3778 58.7131 9.53977 58.983 8.85795 59.5227C8.17614 60.0625 7.66004 60.8106 7.30966 61.767C6.95928 62.7235 6.78409 63.8314 6.78409 65.0909C6.78409 66.3598 6.95928 67.482 7.30966 68.4574C7.66951 69.4233 8.18561 70.1809 8.85795 70.7301C9.53977 71.2699 10.3778 71.5398 11.3722 71.5398ZM36.7876 76.4261C34.5433 76.4261 32.6115 75.9716 30.9922 75.0625C29.3823 74.1439 28.1418 72.8466 27.2706 71.1705C26.3994 69.4848 25.9638 67.4915 25.9638 65.1903C25.9638 62.946 26.3994 60.9763 27.2706 59.2812C28.1418 57.5862 29.3681 56.2652 30.9496 55.3182C32.5405 54.3712 34.406 53.8977 36.5462 53.8977C37.9856 53.8977 39.3255 54.1297 40.5661 54.5938C41.8161 55.0483 42.9051 55.7348 43.8331 56.6534C44.7706 57.572 45.4998 58.7273 46.0206 60.1193C46.5414 61.5019 46.8018 63.1212 46.8018 64.9773V66.6392H28.3786V62.8892H41.1058C41.1058 62.018 40.9164 61.2462 40.5376 60.5739C40.1589 59.9015 39.6333 59.3759 38.9609 58.9972C38.2981 58.6089 37.5263 58.4148 36.6456 58.4148C35.727 58.4148 34.9126 58.6278 34.2024 59.054C33.5017 59.4706 32.9524 60.0341 32.5547 60.7443C32.157 61.4451 31.9534 62.2263 31.9439 63.0881V66.6534C31.9439 67.733 32.1428 68.6657 32.5405 69.4517C32.9477 70.2377 33.5206 70.8438 34.2592 71.2699C34.9979 71.696 35.8738 71.9091 36.8871 71.9091C37.5594 71.9091 38.175 71.8144 38.7337 71.625C39.2924 71.4356 39.7706 71.1515 40.1683 70.7727C40.5661 70.3939 40.8691 69.9299 41.0774 69.3807L46.674 69.75C46.3899 71.0947 45.8075 72.2689 44.9268 73.2727C44.0556 74.267 42.9287 75.0436 41.5462 75.6023C40.1731 76.1515 38.5869 76.4261 36.7876 76.4261ZM50.7507 84.1818V54.1818H56.7166V57.8466H56.9865C57.2517 57.2595 57.6352 56.6629 58.1371 56.0568C58.6484 55.4413 59.3113 54.9299 60.1257 54.5227C60.9496 54.1061 61.9723 53.8977 63.1939 53.8977C64.7848 53.8977 66.2526 54.3144 67.5973 55.1477C68.942 55.9716 70.0168 57.2169 70.8217 58.8835C71.6267 60.5407 72.0291 62.6193 72.0291 65.1193C72.0291 67.553 71.6361 69.608 70.8501 71.2841C70.0736 72.9508 69.013 74.215 67.6683 75.0767C66.3331 75.929 64.8369 76.3551 63.1797 76.3551C62.0054 76.3551 61.0064 76.161 60.1825 75.7727C59.3681 75.3845 58.7005 74.8968 58.1797 74.3097C57.6589 73.7131 57.2611 73.1117 56.9865 72.5057H56.8018V84.1818H50.7507ZM56.674 65.0909C56.674 66.3883 56.8539 67.5199 57.2138 68.4858C57.5736 69.4517 58.0945 70.2045 58.7763 70.7443C59.4581 71.2746 60.2867 71.5398 61.2621 71.5398C62.2469 71.5398 63.0803 71.2699 63.7621 70.7301C64.4439 70.1809 64.96 69.4233 65.3104 68.4574C65.6702 67.482 65.8501 66.3598 65.8501 65.0909C65.8501 63.8314 65.675 62.7235 65.3246 61.767C64.9742 60.8106 64.4581 60.0625 63.7763 59.5227C63.0945 58.983 62.2564 58.7131 61.2621 58.7131C60.2772 58.7131 59.4439 58.9735 58.7621 59.4943C58.0897 60.0152 57.5736 60.7538 57.2138 61.7102C56.8539 62.6667 56.674 63.7936 56.674 65.0909ZM82.2848 76.4119C80.8928 76.4119 79.6522 76.1705 78.5632 75.6875C77.4742 75.1951 76.6125 74.4706 75.978 73.5142C75.353 72.5483 75.0405 71.3456 75.0405 69.9062C75.0405 68.6941 75.263 67.6761 75.7081 66.8523C76.1532 66.0284 76.7592 65.3655 77.5263 64.8636C78.2933 64.3617 79.1645 63.983 80.1399 63.7273C81.1248 63.4716 82.157 63.2917 83.2365 63.1875C84.5054 63.0549 85.5282 62.9318 86.3047 62.8182C87.0812 62.6951 87.6447 62.5152 87.995 62.2784C88.3454 62.0417 88.5206 61.6913 88.5206 61.2273V61.142C88.5206 60.2424 88.2365 59.5464 87.6683 59.054C87.1096 58.5616 86.3142 58.3153 85.282 58.3153C84.1929 58.3153 83.3265 58.5568 82.6825 59.0398C82.0386 59.5133 81.6125 60.1098 81.4041 60.8295L75.8075 60.375C76.0916 59.0492 76.6503 57.9034 77.4837 56.9375C78.317 55.9621 79.3918 55.214 80.7081 54.6932C82.0339 54.1629 83.5679 53.8977 85.3104 53.8977C86.5225 53.8977 87.6825 54.0398 88.7905 54.3239C89.9079 54.608 90.8975 55.0483 91.7592 55.6449C92.6304 56.2415 93.317 57.0085 93.8189 57.946C94.3208 58.8741 94.5717 59.9867 94.5717 61.2841V76H88.8331V72.9744H88.6626C88.3123 73.6562 87.8435 74.2576 87.2564 74.7784C86.6693 75.2898 85.9638 75.6922 85.1399 75.9858C84.3161 76.2699 83.3643 76.4119 82.2848 76.4119ZM84.0178 72.2358C84.9079 72.2358 85.6939 72.0606 86.3757 71.7102C87.0575 71.3504 87.5926 70.8674 87.9808 70.2614C88.3691 69.6553 88.5632 68.9687 88.5632 68.2017V65.8864C88.3738 66.0095 88.1134 66.1231 87.782 66.2273C87.46 66.322 87.0954 66.4119 86.6882 66.4972C86.281 66.5729 85.8738 66.6439 85.4666 66.7102C85.0594 66.767 84.6901 66.8191 84.3587 66.8665C83.6484 66.9706 83.0282 67.1364 82.4979 67.3636C81.9676 67.5909 81.5556 67.8987 81.2621 68.2869C80.9685 68.6657 80.8217 69.1392 80.8217 69.7074C80.8217 70.5312 81.12 71.161 81.7166 71.5966C82.3227 72.0227 83.0897 72.2358 84.0178 72.2358ZM99.2663 76V54.1818H105.133V57.9886H105.36C105.758 56.6345 106.425 55.6117 107.363 54.9205C108.3 54.2197 109.38 53.8693 110.602 53.8693C110.905 53.8693 111.231 53.8883 111.582 53.9261C111.932 53.964 112.24 54.0161 112.505 54.0824V59.4517C112.221 59.3665 111.828 59.2907 111.326 59.2244C110.824 59.1581 110.365 59.125 109.948 59.125C109.058 59.125 108.263 59.3191 107.562 59.7074C106.871 60.0862 106.321 60.6165 105.914 61.2983C105.516 61.9801 105.317 62.7661 105.317 63.6562V76H99.2663ZM128.332 54.1818V58.7273H115.193V54.1818H128.332ZM118.176 48.9545H124.227V69.2955C124.227 69.8542 124.313 70.2898 124.483 70.6023C124.653 70.9053 124.89 71.1184 125.193 71.2415C125.506 71.3646 125.866 71.4261 126.273 71.4261C126.557 71.4261 126.841 71.4025 127.125 71.3551C127.409 71.2983 127.627 71.2557 127.778 71.2273L128.73 75.7301C128.427 75.8248 128.001 75.9337 127.452 76.0568C126.902 76.1894 126.235 76.2699 125.449 76.2983C123.991 76.3551 122.712 76.161 121.614 75.7159C120.525 75.2708 119.677 74.5795 119.071 73.642C118.465 72.7045 118.167 71.5208 118.176 70.0909V48.9545ZM132.274 76V54.1818H138.041V58.0312H138.297C138.751 56.7528 139.509 55.7443 140.57 55.0057C141.63 54.267 142.899 53.8977 144.376 53.8977C145.873 53.8977 147.146 54.2718 148.197 55.0199C149.249 55.7585 149.949 56.7623 150.3 58.0312H150.527C150.972 56.7812 151.777 55.7822 152.942 55.0341C154.116 54.2765 155.503 53.8977 157.104 53.8977C159.14 53.8977 160.792 54.5464 162.061 55.8438C163.339 57.1316 163.979 58.9593 163.979 61.3267V76H157.942V62.5199C157.942 61.3078 157.62 60.3987 156.976 59.7926C156.332 59.1866 155.527 58.8835 154.561 58.8835C153.463 58.8835 152.606 59.2339 151.99 59.9347C151.375 60.6259 151.067 61.5398 151.067 62.6761V76H145.2V62.392C145.2 61.322 144.893 60.4697 144.277 59.8352C143.671 59.2008 142.871 58.8835 141.876 58.8835C141.204 58.8835 140.598 59.054 140.058 59.3949C139.528 59.7263 139.107 60.1951 138.794 60.8011C138.482 61.3977 138.325 62.0985 138.325 62.9034V76H132.274ZM178.702 76.4261C176.457 76.4261 174.526 75.9716 172.906 75.0625C171.296 74.1439 170.056 72.8466 169.185 71.1705C168.313 69.4848 167.878 67.4915 167.878 65.1903C167.878 62.946 168.313 60.9763 169.185 59.2812C170.056 57.5862 171.282 56.2652 172.864 55.3182C174.455 54.3712 176.32 53.8977 178.46 53.8977C179.9 53.8977 181.24 54.1297 182.48 54.5938C183.73 55.0483 184.819 55.7348 185.747 56.6534C186.685 57.572 187.414 58.7273 187.935 60.1193C188.455 61.5019 188.716 63.1212 188.716 64.9773V66.6392H170.293V62.8892H183.02C183.02 62.018 182.83 61.2462 182.452 60.5739C182.073 59.9015 181.547 59.3759 180.875 58.9972C180.212 58.6089 179.44 58.4148 178.56 58.4148C177.641 58.4148 176.827 58.6278 176.116 59.054C175.416 59.4706 174.866 60.0341 174.469 60.7443C174.071 61.4451 173.867 62.2263 173.858 63.0881V66.6534C173.858 67.733 174.057 68.6657 174.455 69.4517C174.862 70.2377 175.435 70.8438 176.173 71.2699C176.912 71.696 177.788 71.9091 178.801 71.9091C179.473 71.9091 180.089 71.8144 180.648 71.625C181.206 71.4356 181.685 71.1515 182.082 70.7727C182.48 70.3939 182.783 69.9299 182.991 69.3807L188.588 69.75C188.304 71.0947 187.722 72.2689 186.841 73.2727C185.97 74.267 184.843 75.0436 183.46 75.6023C182.087 76.1515 180.501 76.4261 178.702 76.4261ZM198.716 63.3864V76H192.665V54.1818H198.432V58.0312H198.688C199.17 56.7623 199.98 55.7585 201.116 55.0199C202.253 54.2718 203.631 53.8977 205.25 53.8977C206.765 53.8977 208.086 54.2292 209.213 54.892C210.34 55.5549 211.216 56.5019 211.841 57.733C212.466 58.9545 212.778 60.4129 212.778 62.108V76H206.727V63.1875C206.737 61.8523 206.396 60.8106 205.705 60.0625C205.013 59.3049 204.062 58.9261 202.849 58.9261C202.035 58.9261 201.315 59.1013 200.69 59.4517C200.075 59.8021 199.592 60.3134 199.241 60.9858C198.901 61.6487 198.725 62.4489 198.716 63.3864ZM229.153 54.1818V58.7273H216.013V54.1818H229.153ZM218.996 48.9545H225.048V69.2955C225.048 69.8542 225.133 70.2898 225.303 70.6023C225.474 70.9053 225.71 71.1184 226.013 71.2415C226.326 71.3646 226.686 71.4261 227.093 71.4261C227.377 71.4261 227.661 71.4025 227.945 71.3551C228.229 71.2983 228.447 71.2557 228.599 71.2273L229.55 75.7301C229.247 75.8248 228.821 75.9337 228.272 76.0568C227.723 76.1894 227.055 76.2699 226.269 76.2983C224.811 76.3551 223.532 76.161 222.434 75.7159C221.345 75.2708 220.497 74.5795 219.891 73.642C219.285 72.7045 218.987 71.5208 218.996 70.0909V48.9545ZM248.574 76.4119C247.182 76.4119 245.941 76.1705 244.852 75.6875C243.763 75.1951 242.902 74.4706 242.267 73.5142C241.642 72.5483 241.33 71.3456 241.33 69.9062C241.33 68.6941 241.552 67.6761 241.997 66.8523C242.442 66.0284 243.048 65.3655 243.815 64.8636C244.582 64.3617 245.454 63.983 246.429 63.7273C247.414 63.4716 248.446 63.2917 249.526 63.1875C250.795 63.0549 251.817 62.9318 252.594 62.8182C253.37 62.6951 253.934 62.5152 254.284 62.2784C254.634 62.0417 254.81 61.6913 254.81 61.2273V61.142C254.81 60.2424 254.526 59.5464 253.957 59.054C253.399 58.5616 252.603 58.3153 251.571 58.3153C250.482 58.3153 249.616 58.5568 248.972 59.0398C248.328 59.5133 247.902 60.1098 247.693 60.8295L242.097 60.375C242.381 59.0492 242.939 57.9034 243.773 56.9375C244.606 55.9621 245.681 55.214 246.997 54.6932C248.323 54.1629 249.857 53.8977 251.599 53.8977C252.812 53.8977 253.972 54.0398 255.08 54.3239C256.197 54.608 257.187 55.0483 258.048 55.6449C258.92 56.2415 259.606 57.0085 260.108 57.946C260.61 58.8741 260.861 59.9867 260.861 61.2841V76H255.122V72.9744H254.952C254.601 73.6562 254.133 74.2576 253.545 74.7784C252.958 75.2898 252.253 75.6922 251.429 75.9858C250.605 76.2699 249.653 76.4119 248.574 76.4119ZM250.307 72.2358C251.197 72.2358 251.983 72.0606 252.665 71.7102C253.347 71.3504 253.882 70.8674 254.27 70.2614C254.658 69.6553 254.852 68.9687 254.852 68.2017V65.8864C254.663 66.0095 254.402 66.1231 254.071 66.2273C253.749 66.322 253.384 66.4119 252.977 66.4972C252.57 66.5729 252.163 66.6439 251.756 66.7102C251.348 66.767 250.979 66.8191 250.648 66.8665C249.938 66.9706 249.317 67.1364 248.787 67.3636C248.257 67.5909 247.845 67.8987 247.551 68.2869C247.258 68.6657 247.111 69.1392 247.111 69.7074C247.111 70.5312 247.409 71.161 248.006 71.5966C248.612 72.0227 249.379 72.2358 250.307 72.2358ZM283.709 60.4034L278.169 60.7443C278.074 60.2708 277.871 59.8447 277.558 59.4659C277.246 59.0777 276.834 58.7699 276.322 58.5426C275.821 58.3059 275.219 58.1875 274.518 58.1875C273.581 58.1875 272.79 58.3864 272.146 58.7841C271.502 59.1723 271.18 59.6932 271.18 60.3466C271.18 60.8674 271.389 61.3078 271.805 61.6676C272.222 62.0275 272.937 62.3163 273.95 62.5341L277.899 63.3295C280.02 63.7652 281.602 64.4659 282.643 65.4318C283.685 66.3977 284.206 67.6667 284.206 69.2386C284.206 70.6686 283.785 71.9233 282.942 73.0028C282.108 74.0824 280.963 74.9252 279.504 75.5312C278.055 76.1278 276.384 76.4261 274.49 76.4261C271.602 76.4261 269.301 75.8248 267.587 74.6222C265.882 73.41 264.883 71.7623 264.589 69.679L270.541 69.3665C270.721 70.2472 271.157 70.9195 271.848 71.3835C272.539 71.8381 273.425 72.0653 274.504 72.0653C275.565 72.0653 276.417 71.8617 277.061 71.4545C277.714 71.0379 278.046 70.5028 278.055 69.8494C278.046 69.3002 277.814 68.8504 277.359 68.5C276.905 68.1402 276.204 67.8655 275.257 67.6761L271.479 66.9233C269.348 66.4972 267.762 65.7585 266.72 64.7074C265.688 63.6562 265.172 62.3163 265.172 60.6875C265.172 59.286 265.551 58.0786 266.308 57.0653C267.075 56.0521 268.15 55.2708 269.533 54.7216C270.925 54.1723 272.554 53.8977 274.419 53.8977C277.175 53.8977 279.343 54.4801 280.925 55.6449C282.516 56.8097 283.444 58.3958 283.709 60.4034ZM309.007 54.1818V58.7273H295.541V54.1818H309.007ZM298.624 76V52.6051C298.624 51.0237 298.931 49.7121 299.547 48.6705C300.172 47.6288 301.024 46.8475 302.104 46.3267C303.183 45.8059 304.41 45.5455 305.783 45.5455C306.711 45.5455 307.558 45.6165 308.325 45.7585C309.102 45.9006 309.679 46.0284 310.058 46.142L308.979 50.6875C308.742 50.6117 308.448 50.5407 308.098 50.4744C307.757 50.4081 307.407 50.375 307.047 50.375C306.157 50.375 305.536 50.5833 305.186 51C304.836 51.4072 304.661 51.9801 304.661 52.7188V76H298.624ZM318.144 76.4119C316.752 76.4119 315.512 76.1705 314.423 75.6875C313.334 75.1951 312.472 74.4706 311.837 73.5142C311.212 72.5483 310.9 71.3456 310.9 69.9062C310.9 68.6941 311.122 67.6761 311.567 66.8523C312.013 66.0284 312.619 65.3655 313.386 64.8636C314.153 64.3617 315.024 63.983 315.999 63.7273C316.984 63.4716 318.016 63.2917 319.096 63.1875C320.365 63.0549 321.388 62.9318 322.164 62.8182C322.941 62.6951 323.504 62.5152 323.854 62.2784C324.205 62.0417 324.38 61.6913 324.38 61.2273V61.142C324.38 60.2424 324.096 59.5464 323.528 59.054C322.969 58.5616 322.174 58.3153 321.141 58.3153C320.052 58.3153 319.186 58.5568 318.542 59.0398C317.898 59.5133 317.472 60.1098 317.263 60.8295L311.667 60.375C311.951 59.0492 312.51 57.9034 313.343 56.9375C314.176 55.9621 315.251 55.214 316.567 54.6932C317.893 54.1629 319.427 53.8977 321.17 53.8977C322.382 53.8977 323.542 54.0398 324.65 54.3239C325.767 54.608 326.757 55.0483 327.619 55.6449C328.49 56.2415 329.176 57.0085 329.678 57.946C330.18 58.8741 330.431 59.9867 330.431 61.2841V76H324.692V72.9744H324.522C324.172 73.6562 323.703 74.2576 323.116 74.7784C322.529 75.2898 321.823 75.6922 320.999 75.9858C320.175 76.2699 319.224 76.4119 318.144 76.4119ZM319.877 72.2358C320.767 72.2358 321.553 72.0606 322.235 71.7102C322.917 71.3504 323.452 70.8674 323.84 70.2614C324.228 69.6553 324.423 68.9687 324.423 68.2017V65.8864C324.233 66.0095 323.973 66.1231 323.641 66.2273C323.319 66.322 322.955 66.4119 322.548 66.4972C322.14 66.5729 321.733 66.6439 321.326 66.7102C320.919 66.767 320.549 66.8191 320.218 66.8665C319.508 66.9706 318.888 67.1364 318.357 67.3636C317.827 67.5909 317.415 67.8987 317.121 68.2869C316.828 68.6657 316.681 69.1392 316.681 69.7074C316.681 70.5312 316.979 71.161 317.576 71.5966C318.182 72.0227 318.949 72.2358 319.877 72.2358ZM344.984 76.4261C342.749 76.4261 340.826 75.9527 339.217 75.0057C337.616 74.0492 336.385 72.7235 335.523 71.0284C334.671 69.3333 334.245 67.3826 334.245 65.1761C334.245 62.9413 334.676 60.9811 335.538 59.2955C336.409 57.6004 337.645 56.2794 339.245 55.3324C340.845 54.3759 342.749 53.8977 344.955 53.8977C346.859 53.8977 348.525 54.2434 349.955 54.9347C351.385 55.6259 352.517 56.5966 353.35 57.8466C354.183 59.0966 354.643 60.5644 354.728 62.25H349.018C348.857 61.161 348.431 60.285 347.739 59.6222C347.058 58.9498 346.163 58.6136 345.055 58.6136C344.117 58.6136 343.298 58.8693 342.597 59.3807C341.906 59.8826 341.366 60.6165 340.978 61.5824C340.59 62.5483 340.396 63.7178 340.396 65.0909C340.396 66.483 340.585 67.6667 340.964 68.642C341.352 69.6174 341.897 70.3608 342.597 70.8722C343.298 71.3835 344.117 71.6392 345.055 71.6392C345.746 71.6392 346.366 71.4972 346.915 71.2131C347.474 70.929 347.933 70.517 348.293 69.9773C348.663 69.428 348.904 68.7699 349.018 68.0028H354.728C354.633 69.6695 354.179 71.1373 353.364 72.4062C352.559 73.6657 351.447 74.6506 350.026 75.3608C348.606 76.071 346.925 76.4261 344.984 76.4261ZM358.602 76V54.1818H364.653V76H358.602ZM361.642 51.3693C360.742 51.3693 359.971 51.071 359.327 50.4744C358.692 49.8684 358.375 49.1439 358.375 48.3011C358.375 47.4678 358.692 46.7528 359.327 46.1562C359.971 45.5502 360.742 45.2472 361.642 45.2472C362.542 45.2472 363.309 45.5502 363.943 46.1562C364.587 46.7528 364.909 47.4678 364.909 48.3011C364.909 49.1439 364.587 49.8684 363.943 50.4744C363.309 51.071 362.542 51.3693 361.642 51.3693ZM375.552 46.9091V76H369.501V46.9091H375.552ZM380.399 76V54.1818H386.45V76H380.399ZM383.439 51.3693C382.539 51.3693 381.768 51.071 381.124 50.4744C380.489 49.8684 380.172 49.1439 380.172 48.3011C380.172 47.4678 380.489 46.7528 381.124 46.1562C381.768 45.5502 382.539 45.2472 383.439 45.2472C384.339 45.2472 385.106 45.5502 385.74 46.1562C386.384 46.7528 386.706 47.4678 386.706 48.3011C386.706 49.1439 386.384 49.8684 385.74 50.4744C385.106 51.071 384.339 51.3693 383.439 51.3693ZM402.903 54.1818V58.7273H389.763V54.1818H402.903ZM392.746 48.9545H398.798V69.2955C398.798 69.8542 398.883 70.2898 399.053 70.6023C399.224 70.9053 399.46 71.1184 399.763 71.2415C400.076 71.3646 400.436 71.4261 400.843 71.4261C401.127 71.4261 401.411 71.4025 401.695 71.3551C401.979 71.2983 402.197 71.2557 402.349 71.2273L403.3 75.7301C402.997 75.8248 402.571 75.9337 402.022 76.0568C401.473 76.1894 400.805 76.2699 400.019 76.2983C398.561 76.3551 397.282 76.161 396.184 75.7159C395.095 75.2708 394.247 74.5795 393.641 73.642C393.035 72.7045 392.737 71.5208 392.746 70.0909V48.9545ZM413.066 76.4119C411.674 76.4119 410.433 76.1705 409.344 75.6875C408.255 75.1951 407.394 74.4706 406.759 73.5142C406.134 72.5483 405.822 71.3456 405.822 69.9062C405.822 68.6941 406.044 67.6761 406.489 66.8523C406.934 66.0284 407.54 65.3655 408.308 64.8636C409.075 64.3617 409.946 63.983 410.921 63.7273C411.906 63.4716 412.938 63.2917 414.018 63.1875C415.287 63.0549 416.309 62.9318 417.086 62.8182C417.862 62.6951 418.426 62.5152 418.776 62.2784C419.127 62.0417 419.302 61.6913 419.302 61.2273V61.142C419.302 60.2424 419.018 59.5464 418.45 59.054C417.891 58.5616 417.095 58.3153 416.063 58.3153C414.974 58.3153 414.108 58.5568 413.464 59.0398C412.82 59.5133 412.394 60.1098 412.185 60.8295L406.589 60.375C406.873 59.0492 407.432 57.9034 408.265 56.9375C409.098 55.9621 410.173 55.214 411.489 54.6932C412.815 54.1629 414.349 53.8977 416.092 53.8977C417.304 53.8977 418.464 54.0398 419.572 54.3239C420.689 54.608 421.679 55.0483 422.54 55.6449C423.412 56.2415 424.098 57.0085 424.6 57.946C425.102 58.8741 425.353 59.9867 425.353 61.2841V76H419.614V72.9744H419.444C419.094 73.6562 418.625 74.2576 418.038 74.7784C417.451 75.2898 416.745 75.6922 415.921 75.9858C415.097 76.2699 414.146 76.4119 413.066 76.4119ZM414.799 72.2358C415.689 72.2358 416.475 72.0606 417.157 71.7102C417.839 71.3504 418.374 70.8674 418.762 70.2614C419.15 69.6553 419.344 68.9687 419.344 68.2017V65.8864C419.155 66.0095 418.895 66.1231 418.563 66.2273C418.241 66.322 417.877 66.4119 417.469 66.4972C417.062 66.5729 416.655 66.6439 416.248 66.7102C415.841 66.767 415.471 66.8191 415.14 66.8665C414.43 66.9706 413.809 67.1364 413.279 67.3636C412.749 67.5909 412.337 67.8987 412.043 68.2869C411.75 68.6657 411.603 69.1392 411.603 69.7074C411.603 70.5312 411.901 71.161 412.498 71.5966C413.104 72.0227 413.871 72.2358 414.799 72.2358ZM441.653 54.1818V58.7273H428.513V54.1818H441.653ZM431.496 48.9545H437.548V69.2955C437.548 69.8542 437.633 70.2898 437.803 70.6023C437.974 70.9053 438.21 71.1184 438.513 71.2415C438.826 71.3646 439.186 71.4261 439.593 71.4261C439.877 71.4261 440.161 71.4025 440.445 71.3551C440.729 71.2983 440.947 71.2557 441.099 71.2273L442.05 75.7301C441.747 75.8248 441.321 75.9337 440.772 76.0568C440.223 76.1894 439.555 76.2699 438.769 76.2983C437.311 76.3551 436.032 76.161 434.934 75.7159C433.845 75.2708 432.997 74.5795 432.391 73.642C431.785 72.7045 431.487 71.5208 431.496 70.0909V48.9545ZM445.594 76V54.1818H451.646V76H445.594ZM448.634 51.3693C447.735 51.3693 446.963 51.071 446.319 50.4744C445.684 49.8684 445.367 49.1439 445.367 48.3011C445.367 47.4678 445.684 46.7528 446.319 46.1562C446.963 45.5502 447.735 45.2472 448.634 45.2472C449.534 45.2472 450.301 45.5502 450.935 46.1562C451.579 46.7528 451.901 47.4678 451.901 48.3011C451.901 49.1439 451.579 49.8684 450.935 50.4744C450.301 51.071 449.534 51.3693 448.634 51.3693ZM462.544 63.3864V76H456.493V54.1818H462.26V58.0312H462.516C462.999 56.7623 463.808 55.7585 464.945 55.0199C466.081 54.2718 467.459 53.8977 469.078 53.8977C470.593 53.8977 471.914 54.2292 473.041 54.892C474.168 55.5549 475.044 56.5019 475.669 57.733C476.294 58.9545 476.607 60.4129 476.607 62.108V76H470.555V63.1875C470.565 61.8523 470.224 60.8106 469.533 60.0625C468.841 59.3049 467.89 58.9261 466.678 58.9261C465.863 58.9261 465.143 59.1013 464.518 59.4517C463.903 59.8021 463.42 60.3134 463.07 60.9858C462.729 61.6487 462.554 62.4489 462.544 63.3864ZM491.205 84.6364C489.245 84.6364 487.564 84.3665 486.163 83.8267C484.771 83.2964 483.663 82.572 482.839 81.6534C482.015 80.7348 481.48 79.7027 481.234 78.5568L486.83 77.804C487.001 78.2396 487.271 78.6468 487.64 79.0256C488.009 79.4044 488.497 79.7074 489.103 79.9347C489.719 80.1714 490.467 80.2898 491.347 80.2898C492.664 80.2898 493.748 79.9678 494.6 79.3239C495.462 78.6894 495.893 77.6241 495.893 76.1278V72.1364H495.637C495.372 72.7424 494.974 73.3153 494.444 73.8551C493.914 74.3949 493.232 74.8352 492.398 75.1761C491.565 75.517 490.571 75.6875 489.415 75.6875C487.777 75.6875 486.286 75.3087 484.941 74.5511C483.606 73.7841 482.54 72.6146 481.745 71.0426C480.959 69.4612 480.566 67.4631 480.566 65.0483C480.566 62.5767 480.969 60.5123 481.773 58.8551C482.578 57.1979 483.648 55.9574 484.984 55.1335C486.328 54.3097 487.801 53.8977 489.401 53.8977C490.623 53.8977 491.646 54.1061 492.469 54.5227C493.293 54.9299 493.956 55.4413 494.458 56.0568C494.969 56.6629 495.362 57.2595 495.637 57.8466H495.864V54.1818H501.873V76.2131C501.873 78.0691 501.418 79.6222 500.509 80.8722C499.6 82.1222 498.341 83.0597 496.731 83.6847C495.13 84.3191 493.289 84.6364 491.205 84.6364ZM491.333 71.142C492.308 71.142 493.132 70.9006 493.805 70.4176C494.487 69.9252 495.007 69.2244 495.367 68.3153C495.737 67.3968 495.921 66.2983 495.921 65.0199C495.921 63.7415 495.741 62.6335 495.381 61.696C495.022 60.7491 494.501 60.0152 493.819 59.4943C493.137 58.9735 492.308 58.7131 491.333 58.7131C490.339 58.7131 489.501 58.983 488.819 59.5227C488.137 60.053 487.621 60.7917 487.271 61.7386C486.92 62.6856 486.745 63.7794 486.745 65.0199C486.745 66.2794 486.92 67.3684 487.271 68.2869C487.63 69.196 488.147 69.9015 488.819 70.4034C489.501 70.8958 490.339 71.142 491.333 71.142ZM516.06 76V46.9091H522.111V57.8466H522.295C522.561 57.2595 522.944 56.6629 523.446 56.0568C523.957 55.4413 524.62 54.9299 525.435 54.5227C526.259 54.1061 527.281 53.8977 528.503 53.8977C530.094 53.8977 531.562 54.3144 532.906 55.1477C534.251 55.9716 535.326 57.2169 536.131 58.8835C536.936 60.5407 537.338 62.6193 537.338 65.1193C537.338 67.553 536.945 69.608 536.159 71.2841C535.383 72.9508 534.322 74.215 532.977 75.0767C531.642 75.929 530.146 76.3551 528.489 76.3551C527.314 76.3551 526.315 76.161 525.491 75.7727C524.677 75.3845 524.009 74.8968 523.489 74.3097C522.968 73.7131 522.57 73.1117 522.295 72.5057H522.026V76H516.06ZM521.983 65.0909C521.983 66.3883 522.163 67.5199 522.523 68.4858C522.883 69.4517 523.403 70.2045 524.085 70.7443C524.767 71.2746 525.596 71.5398 526.571 71.5398C527.556 71.5398 528.389 71.2699 529.071 70.7301C529.753 70.1809 530.269 69.4233 530.619 68.4574C530.979 67.482 531.159 66.3598 531.159 65.0909C531.159 63.8314 530.984 62.7235 530.634 61.767C530.283 60.8106 529.767 60.0625 529.085 59.5227C528.403 58.983 527.565 58.7131 526.571 58.7131C525.586 58.7131 524.753 58.9735 524.071 59.4943C523.399 60.0152 522.883 60.7538 522.523 61.7102C522.163 62.6667 521.983 63.7936 521.983 65.0909ZM551.234 76.4261C549.027 76.4261 547.119 75.9574 545.509 75.0199C543.909 74.0729 542.673 72.7566 541.802 71.071C540.931 69.3759 540.495 67.411 540.495 65.1761C540.495 62.9223 540.931 60.9527 541.802 59.267C542.673 57.572 543.909 56.2557 545.509 55.3182C547.119 54.3712 549.027 53.8977 551.234 53.8977C553.44 53.8977 555.344 54.3712 556.944 55.3182C558.554 56.2557 559.794 57.572 560.665 59.267C561.537 60.9527 561.972 62.9223 561.972 65.1761C561.972 67.411 561.537 69.3759 560.665 71.071C559.794 72.7566 558.554 74.0729 556.944 75.0199C555.344 75.9574 553.44 76.4261 551.234 76.4261ZM551.262 71.7386C552.266 71.7386 553.104 71.4545 553.776 70.8864C554.449 70.3087 554.955 69.5227 555.296 68.5284C555.647 67.5341 555.822 66.4025 555.822 65.1335C555.822 63.8646 555.647 62.733 555.296 61.7386C554.955 60.7443 554.449 59.9583 553.776 59.3807C553.104 58.803 552.266 58.5142 551.262 58.5142C550.249 58.5142 549.397 58.803 548.705 59.3807C548.023 59.9583 547.507 60.7443 547.157 61.7386C546.816 62.733 546.646 63.8646 546.646 65.1335C546.646 66.4025 546.816 67.5341 547.157 68.5284C547.507 69.5227 548.023 70.3087 548.705 70.8864C549.397 71.4545 550.249 71.7386 551.262 71.7386ZM573.947 76.3551C572.29 76.3551 570.789 75.929 569.444 75.0767C568.109 74.215 567.048 72.9508 566.262 71.2841C565.486 69.608 565.097 67.553 565.097 65.1193C565.097 62.6193 565.5 60.5407 566.305 58.8835C567.11 57.2169 568.18 55.9716 569.515 55.1477C570.86 54.3144 572.332 53.8977 573.933 53.8977C575.154 53.8977 576.172 54.1061 576.987 54.5227C577.81 54.9299 578.473 55.4413 578.975 56.0568C579.487 56.6629 579.875 57.2595 580.14 57.8466H580.325V46.9091H586.362V76H580.396V72.5057H580.14C579.856 73.1117 579.453 73.7131 578.933 74.3097C578.421 74.8968 577.754 75.3845 576.93 75.7727C576.115 76.161 575.121 76.3551 573.947 76.3551ZM575.864 71.5398C576.84 71.5398 577.664 71.2746 578.336 70.7443C579.018 70.2045 579.539 69.4517 579.898 68.4858C580.268 67.5199 580.452 66.3883 580.452 65.0909C580.452 63.7936 580.272 62.6667 579.913 61.7102C579.553 60.7538 579.032 60.0152 578.35 59.4943C577.668 58.9735 576.84 58.7131 575.864 58.7131C574.87 58.7131 574.032 58.983 573.35 59.5227C572.668 60.0625 572.152 60.8106 571.802 61.767C571.451 62.7235 571.276 63.8314 571.276 65.0909C571.276 66.3598 571.451 67.482 571.802 68.4574C572.162 69.4233 572.678 70.1809 573.35 70.7301C574.032 71.2699 574.87 71.5398 575.864 71.5398ZM595.072 84.1818C594.305 84.1818 593.586 84.1203 592.913 83.9972C592.25 83.8835 591.701 83.7367 591.266 83.5568L592.629 79.0398C593.339 79.2576 593.979 79.3759 594.547 79.3949C595.125 79.4138 595.622 79.2813 596.038 78.9972C596.464 78.7131 596.81 78.2301 597.075 77.5483L597.43 76.625L589.604 54.1818H595.967L600.484 70.2045H600.712L605.271 54.1818H611.678L603.197 78.358C602.79 79.5322 602.236 80.5549 601.536 81.4261C600.844 82.3068 599.968 82.9839 598.908 83.4574C597.847 83.9403 596.569 84.1818 595.072 84.1818ZM635.637 54.1818V58.7273H622.498V54.1818H635.637ZM625.481 48.9545H631.532V69.2955C631.532 69.8542 631.617 70.2898 631.788 70.6023C631.958 70.9053 632.195 71.1184 632.498 71.2415C632.81 71.3646 633.17 71.4261 633.577 71.4261C633.862 71.4261 634.146 71.4025 634.43 71.3551C634.714 71.2983 634.932 71.2557 635.083 71.2273L636.035 75.7301C635.732 75.8248 635.306 75.9337 634.756 76.0568C634.207 76.1894 633.54 76.2699 632.754 76.2983C631.295 76.3551 630.017 76.161 628.918 75.7159C627.829 75.2708 626.982 74.5795 626.376 73.642C625.77 72.7045 625.471 71.5208 625.481 70.0909V48.9545ZM649.202 76.4261C646.996 76.4261 645.088 75.9574 643.478 75.0199C641.878 74.0729 640.642 72.7566 639.771 71.071C638.899 69.3759 638.464 67.411 638.464 65.1761C638.464 62.9223 638.899 60.9527 639.771 59.267C640.642 57.572 641.878 56.2557 643.478 55.3182C645.088 54.3712 646.996 53.8977 649.202 53.8977C651.409 53.8977 653.312 54.3712 654.913 55.3182C656.522 56.2557 657.763 57.572 658.634 59.267C659.505 60.9527 659.941 62.9223 659.941 65.1761C659.941 67.411 659.505 69.3759 658.634 71.071C657.763 72.7566 656.522 74.0729 654.913 75.0199C653.312 75.9574 651.409 76.4261 649.202 76.4261ZM649.231 71.7386C650.235 71.7386 651.073 71.4545 651.745 70.8864C652.417 70.3087 652.924 69.5227 653.265 68.5284C653.615 67.5341 653.79 66.4025 653.79 65.1335C653.79 63.8646 653.615 62.733 653.265 61.7386C652.924 60.7443 652.417 59.9583 651.745 59.3807C651.073 58.803 650.235 58.5142 649.231 58.5142C648.218 58.5142 647.365 58.803 646.674 59.3807C645.992 59.9583 645.476 60.7443 645.126 61.7386C644.785 62.733 644.614 63.8646 644.614 65.1335C644.614 66.4025 644.785 67.5341 645.126 68.5284C645.476 69.5227 645.992 70.3087 646.674 70.8864C647.365 71.4545 648.218 71.7386 649.231 71.7386Z" fill="black"/>
<path d="M691.287 60.4034L685.747 60.7443C685.652 60.2708 685.449 59.8447 685.136 59.4659C684.824 59.0777 684.412 58.7699 683.901 58.5426C683.399 58.3059 682.797 58.1875 682.097 58.1875C681.159 58.1875 680.368 58.3864 679.724 58.7841C679.08 59.1723 678.759 59.6932 678.759 60.3466C678.759 60.8674 678.967 61.3078 679.384 61.6676C679.8 62.0275 680.515 62.3163 681.528 62.5341L685.477 63.3295C687.598 63.7652 689.18 64.4659 690.222 65.4318C691.263 66.3977 691.784 67.6667 691.784 69.2386C691.784 70.6686 691.363 71.9233 690.52 73.0028C689.687 74.0824 688.541 74.9252 687.082 75.5312C685.634 76.1278 683.962 76.4261 682.068 76.4261C679.18 76.4261 676.879 75.8248 675.165 74.6222C673.46 73.41 672.461 71.7623 672.168 69.679L678.119 69.3665C678.299 70.2472 678.735 70.9195 679.426 71.3835C680.117 71.8381 681.003 72.0653 682.082 72.0653C683.143 72.0653 683.995 71.8617 684.639 71.4545C685.293 71.0379 685.624 70.5028 685.634 69.8494C685.624 69.3002 685.392 68.8504 684.938 68.5C684.483 68.1402 683.782 67.8655 682.835 67.6761L679.057 66.9233C676.926 66.4972 675.34 65.7585 674.298 64.7074C673.266 63.6562 672.75 62.3163 672.75 60.6875C672.75 59.286 673.129 58.0786 673.886 57.0653C674.653 56.0521 675.728 55.2708 677.111 54.7216C678.503 54.1723 680.132 53.8977 681.997 53.8977C684.753 53.8977 686.921 54.4801 688.503 55.6449C690.094 56.8097 691.022 58.3958 691.287 60.4034ZM705.538 76.4261C703.293 76.4261 701.362 75.9716 699.742 75.0625C698.132 74.1439 696.892 72.8466 696.021 71.1705C695.149 69.4848 694.714 67.4915 694.714 65.1903C694.714 62.946 695.149 60.9763 696.021 59.2812C696.892 57.5862 698.118 56.2652 699.7 55.3182C701.29 54.3712 703.156 53.8977 705.296 53.8977C706.736 53.8977 708.076 54.1297 709.316 54.5938C710.566 55.0483 711.655 55.7348 712.583 56.6534C713.521 57.572 714.25 58.7273 714.771 60.1193C715.291 61.5019 715.552 63.1212 715.552 64.9773V66.6392H697.129V62.8892H709.856C709.856 62.018 709.666 61.2462 709.288 60.5739C708.909 59.9015 708.383 59.3759 707.711 58.9972C707.048 58.6089 706.276 58.4148 705.396 58.4148C704.477 58.4148 703.663 58.6278 702.952 59.054C702.252 59.4706 701.702 60.0341 701.305 60.7443C700.907 61.4451 700.703 62.2263 700.694 63.0881V66.6534C700.694 67.733 700.893 68.6657 701.29 69.4517C701.698 70.2377 702.271 70.8438 703.009 71.2699C703.748 71.696 704.624 71.9091 705.637 71.9091C706.309 71.9091 706.925 71.8144 707.484 71.625C708.042 71.4356 708.521 71.1515 708.918 70.7727C709.316 70.3939 709.619 69.9299 709.827 69.3807L715.424 69.75C715.14 71.0947 714.558 72.2689 713.677 73.2727C712.806 74.267 711.679 75.0436 710.296 75.6023C708.923 76.1515 707.337 76.4261 705.538 76.4261ZM731.106 54.1818V58.7273H717.967V54.1818H731.106ZM720.95 48.9545H727.001V69.2955C727.001 69.8542 727.086 70.2898 727.256 70.6023C727.427 70.9053 727.664 71.1184 727.967 71.2415C728.279 71.3646 728.639 71.4261 729.046 71.4261C729.33 71.4261 729.614 71.4025 729.898 71.3551C730.183 71.2983 730.4 71.2557 730.552 71.2273L731.504 75.7301C731.201 75.8248 730.774 75.9337 730.225 76.0568C729.676 76.1894 729.008 76.2699 728.222 76.2983C726.764 76.3551 725.486 76.161 724.387 75.7159C723.298 75.2708 722.451 74.5795 721.844 73.642C721.238 72.7045 720.94 71.5208 720.95 70.0909V48.9545ZM746.653 54.1818V58.7273H733.513V54.1818H746.653ZM736.496 48.9545H742.548V69.2955C742.548 69.8542 742.633 70.2898 742.803 70.6023C742.974 70.9053 743.21 71.1184 743.513 71.2415C743.826 71.3646 744.186 71.4261 744.593 71.4261C744.877 71.4261 745.161 71.4025 745.445 71.3551C745.729 71.2983 745.947 71.2557 746.099 71.2273L747.05 75.7301C746.747 75.8248 746.321 75.9337 745.772 76.0568C745.223 76.1894 744.555 76.2699 743.769 76.2983C742.311 76.3551 741.032 76.161 739.934 75.7159C738.845 75.2708 737.997 74.5795 737.391 73.642C736.785 72.7045 736.487 71.5208 736.496 70.0909V48.9545ZM757.114 46.9091V76H751.063V46.9091H757.114ZM771.905 76.4261C769.661 76.4261 767.729 75.9716 766.109 75.0625C764.5 74.1439 763.259 72.8466 762.388 71.1705C761.517 69.4848 761.081 67.4915 761.081 65.1903C761.081 62.946 761.517 60.9763 762.388 59.2812C763.259 57.5862 764.485 56.2652 766.067 55.3182C767.658 54.3712 769.523 53.8977 771.663 53.8977C773.103 53.8977 774.443 54.1297 775.683 54.5938C776.933 55.0483 778.022 55.7348 778.95 56.6534C779.888 57.572 780.617 58.7273 781.138 60.1193C781.659 61.5019 781.919 63.1212 781.919 64.9773V66.6392H763.496V62.8892H776.223C776.223 62.018 776.034 61.2462 775.655 60.5739C775.276 59.9015 774.75 59.3759 774.078 58.9972C773.415 58.6089 772.643 58.4148 771.763 58.4148C770.844 58.4148 770.03 58.6278 769.32 59.054C768.619 59.4706 768.07 60.0341 767.672 60.7443C767.274 61.4451 767.071 62.2263 767.061 63.0881V66.6534C767.061 67.733 767.26 68.6657 767.658 69.4517C768.065 70.2377 768.638 70.8438 769.376 71.2699C770.115 71.696 770.991 71.9091 772.004 71.9091C772.677 71.9091 773.292 71.8144 773.851 71.625C774.41 71.4356 774.888 71.1515 775.286 70.7727C775.683 70.3939 775.986 69.9299 776.195 69.3807L781.791 69.75C781.507 71.0947 780.925 72.2689 780.044 73.2727C779.173 74.267 778.046 75.0436 776.663 75.6023C775.29 76.1515 773.704 76.4261 771.905 76.4261Z" fill="#1E1E1E"/>
<path d="M801.177 46.9091V76H795.126V46.9091H801.177ZM812.246 76.4119C810.854 76.4119 809.613 76.1705 808.524 75.6875C807.435 75.1951 806.573 74.4706 805.939 73.5142C805.314 72.5483 805.001 71.3456 805.001 69.9062C805.001 68.6941 805.224 67.6761 805.669 66.8523C806.114 66.0284 806.72 65.3655 807.487 64.8636C808.254 64.3617 809.125 63.983 810.101 63.7273C811.086 63.4716 812.118 63.2917 813.197 63.1875C814.466 63.0549 815.489 62.9318 816.266 62.8182C817.042 62.6951 817.606 62.5152 817.956 62.2784C818.306 62.0417 818.482 61.6913 818.482 61.2273V61.142C818.482 60.2424 818.197 59.5464 817.629 59.054C817.071 58.5616 816.275 58.3153 815.243 58.3153C814.154 58.3153 813.287 58.5568 812.643 59.0398C812 59.5133 811.573 60.1098 811.365 60.8295L805.768 60.375C806.053 59.0492 806.611 57.9034 807.445 56.9375C808.278 55.9621 809.353 55.214 810.669 54.6932C811.995 54.1629 813.529 53.8977 815.271 53.8977C816.483 53.8977 817.643 54.0398 818.751 54.3239C819.869 54.608 820.858 55.0483 821.72 55.6449C822.591 56.2415 823.278 57.0085 823.78 57.946C824.282 58.8741 824.533 59.9867 824.533 61.2841V76H818.794V72.9744H818.624C818.273 73.6562 817.804 74.2576 817.217 74.7784C816.63 75.2898 815.925 75.6922 815.101 75.9858C814.277 76.2699 813.325 76.4119 812.246 76.4119ZM813.979 72.2358C814.869 72.2358 815.655 72.0606 816.337 71.7102C817.018 71.3504 817.554 70.8674 817.942 70.2614C818.33 69.6553 818.524 68.9687 818.524 68.2017V65.8864C818.335 66.0095 818.074 66.1231 817.743 66.2273C817.421 66.322 817.056 66.4119 816.649 66.4972C816.242 66.5729 815.835 66.6439 815.428 66.7102C815.02 66.767 814.651 66.8191 814.32 66.8665C813.609 66.9706 812.989 67.1364 812.459 67.3636C811.929 67.5909 811.517 67.8987 811.223 68.2869C810.929 68.6657 810.783 69.1392 810.783 69.7074C810.783 70.5312 811.081 71.161 811.678 71.5966C812.284 72.0227 813.051 72.2358 813.979 72.2358ZM829.341 76V46.9091H835.392V57.8466H835.577C835.842 57.2595 836.225 56.6629 836.727 56.0568C837.239 55.4413 837.902 54.9299 838.716 54.5227C839.54 54.1061 840.563 53.8977 841.784 53.8977C843.375 53.8977 844.843 54.3144 846.188 55.1477C847.532 55.9716 848.607 57.2169 849.412 58.8835C850.217 60.5407 850.619 62.6193 850.619 65.1193C850.619 67.553 850.226 69.608 849.44 71.2841C848.664 72.9508 847.603 74.215 846.259 75.0767C844.923 75.929 843.427 76.3551 841.77 76.3551C840.596 76.3551 839.597 76.161 838.773 75.7727C837.958 75.3845 837.291 74.8968 836.77 74.3097C836.249 73.7131 835.851 73.1117 835.577 72.5057H835.307V76H829.341ZM835.264 65.0909C835.264 66.3883 835.444 67.5199 835.804 68.4858C836.164 69.4517 836.685 70.2045 837.366 70.7443C838.048 71.2746 838.877 71.5398 839.852 71.5398C840.837 71.5398 841.67 71.2699 842.352 70.7301C843.034 70.1809 843.55 69.4233 843.901 68.4574C844.26 67.482 844.44 66.3598 844.44 65.0909C844.44 63.8314 844.265 62.7235 843.915 61.767C843.564 60.8106 843.048 60.0625 842.366 59.5227C841.685 58.983 840.847 58.7131 839.852 58.7131C838.867 58.7131 838.034 58.9735 837.352 59.4943C836.68 60.0152 836.164 60.7538 835.804 61.7102C835.444 62.6667 835.264 63.7936 835.264 65.0909ZM864.515 76.4261C862.308 76.4261 860.4 75.9574 858.79 75.0199C857.19 74.0729 855.954 72.7566 855.083 71.071C854.212 69.3759 853.776 67.411 853.776 65.1761C853.776 62.9223 854.212 60.9527 855.083 59.267C855.954 57.572 857.19 56.2557 858.79 55.3182C860.4 54.3712 862.308 53.8977 864.515 53.8977C866.721 53.8977 868.625 54.3712 870.225 55.3182C871.835 56.2557 873.076 57.572 873.947 59.267C874.818 60.9527 875.254 62.9223 875.254 65.1761C875.254 67.411 874.818 69.3759 873.947 71.071C873.076 72.7566 871.835 74.0729 870.225 75.0199C868.625 75.9574 866.721 76.4261 864.515 76.4261ZM864.543 71.7386C865.547 71.7386 866.385 71.4545 867.058 70.8864C867.73 70.3087 868.237 69.5227 868.577 68.5284C868.928 67.5341 869.103 66.4025 869.103 65.1335C869.103 63.8646 868.928 62.733 868.577 61.7386C868.237 60.7443 867.73 59.9583 867.058 59.3807C866.385 58.803 865.547 58.5142 864.543 58.5142C863.53 58.5142 862.678 58.803 861.987 59.3807C861.305 59.9583 860.789 60.7443 860.438 61.7386C860.097 62.733 859.927 63.8646 859.927 65.1335C859.927 66.4025 860.097 67.5341 860.438 68.5284C860.789 69.5227 861.305 70.3087 861.987 70.8864C862.678 71.4545 863.53 71.7386 864.543 71.7386ZM879.188 76V54.1818H885.055V57.9886H885.282C885.68 56.6345 886.347 55.6117 887.285 54.9205C888.222 54.2197 889.302 53.8693 890.523 53.8693C890.826 53.8693 891.153 53.8883 891.504 53.9261C891.854 53.964 892.162 54.0161 892.427 54.0824V59.4517C892.143 59.3665 891.75 59.2907 891.248 59.2244C890.746 59.1581 890.287 59.125 889.87 59.125C888.98 59.125 888.184 59.3191 887.484 59.7074C886.792 60.0862 886.243 60.6165 885.836 61.2983C885.438 61.9801 885.239 62.7661 885.239 63.6562V76H879.188ZM908.485 61.6534V66.4545H895.218V61.6534H908.485ZM1.41477 121V99.1818H7.18182V103.031H7.4375C7.89205 101.753 8.64962 100.744 9.71023 100.006C10.7708 99.267 12.0398 98.8977 13.517 98.8977C15.0133 98.8977 16.2869 99.2718 17.3381 100.02C18.3892 100.759 19.09 101.762 19.4403 103.031H19.6676C20.1127 101.781 20.9176 100.782 22.0824 100.034C23.2566 99.2765 24.6439 98.8977 26.2443 98.8977C28.2803 98.8977 29.9328 99.5464 31.2017 100.844C32.4801 102.132 33.1193 103.959 33.1193 106.327V121H27.0824V107.52C27.0824 106.308 26.7604 105.399 26.1165 104.793C25.4725 104.187 24.6676 103.884 23.7017 103.884C22.6032 103.884 21.7462 104.234 21.1307 104.935C20.5152 105.626 20.2074 106.54 20.2074 107.676V121H14.3409V107.392C14.3409 106.322 14.0331 105.47 13.4176 104.835C12.8116 104.201 12.0114 103.884 11.017 103.884C10.3447 103.884 9.73864 104.054 9.19886 104.395C8.66856 104.726 8.24716 105.195 7.93466 105.801C7.62216 106.398 7.46591 107.098 7.46591 107.903V121H1.41477ZM44.1207 121.412C42.7287 121.412 41.4882 121.17 40.3991 120.688C39.3101 120.195 38.4484 119.471 37.8139 118.514C37.1889 117.548 36.8764 116.346 36.8764 114.906C36.8764 113.694 37.099 112.676 37.544 111.852C37.9891 111.028 38.5952 110.366 39.3622 109.864C40.1293 109.362 41.0005 108.983 41.9759 108.727C42.9607 108.472 43.9929 108.292 45.0724 108.188C46.3414 108.055 47.3641 107.932 48.1406 107.818C48.9171 107.695 49.4806 107.515 49.831 107.278C50.1813 107.042 50.3565 106.691 50.3565 106.227V106.142C50.3565 105.242 50.0724 104.546 49.5043 104.054C48.9455 103.562 48.1501 103.315 47.1179 103.315C46.0289 103.315 45.1624 103.557 44.5185 104.04C43.8745 104.513 43.4484 105.11 43.2401 105.83L37.6435 105.375C37.9276 104.049 38.4863 102.903 39.3196 101.938C40.1529 100.962 41.2277 100.214 42.544 99.6932C43.8698 99.1629 45.4039 98.8977 47.1463 98.8977C48.3584 98.8977 49.5185 99.0398 50.6264 99.3239C51.7438 99.608 52.7334 100.048 53.5952 100.645C54.4664 101.241 55.1529 102.009 55.6548 102.946C56.1567 103.874 56.4077 104.987 56.4077 106.284V121H50.669V117.974H50.4986C50.1482 118.656 49.6795 119.258 49.0923 119.778C48.5052 120.29 47.7997 120.692 46.9759 120.986C46.152 121.27 45.2003 121.412 44.1207 121.412ZM45.8537 117.236C46.7438 117.236 47.5298 117.061 48.2116 116.71C48.8935 116.35 49.4285 115.867 49.8168 115.261C50.205 114.655 50.3991 113.969 50.3991 113.202V110.886C50.2098 111.009 49.9493 111.123 49.6179 111.227C49.2959 111.322 48.9313 111.412 48.5241 111.497C48.117 111.573 47.7098 111.644 47.3026 111.71C46.8954 111.767 46.526 111.819 46.1946 111.866C45.4844 111.971 44.8641 112.136 44.3338 112.364C43.8035 112.591 43.3916 112.899 43.098 113.287C42.8045 113.666 42.6577 114.139 42.6577 114.707C42.6577 115.531 42.956 116.161 43.5526 116.597C44.1586 117.023 44.9257 117.236 45.8537 117.236ZM67.1534 108.386V121H61.1023V99.1818H66.8693V103.031H67.125C67.608 101.762 68.4176 100.759 69.554 100.02C70.6903 99.2718 72.0682 98.8977 73.6875 98.8977C75.2027 98.8977 76.5237 99.2292 77.6506 99.892C78.7775 100.555 79.6534 101.502 80.2784 102.733C80.9034 103.955 81.2159 105.413 81.2159 107.108V121H75.1648V108.188C75.1742 106.852 74.8333 105.811 74.142 105.062C73.4508 104.305 72.4991 103.926 71.2869 103.926C70.4725 103.926 69.7528 104.101 69.1278 104.452C68.5123 104.802 68.0294 105.313 67.679 105.986C67.3381 106.649 67.1629 107.449 67.1534 108.386ZM92.2067 121.412C90.8146 121.412 89.5741 121.17 88.4851 120.688C87.3961 120.195 86.5343 119.471 85.8999 118.514C85.2749 117.548 84.9624 116.346 84.9624 114.906C84.9624 113.694 85.1849 112.676 85.63 111.852C86.075 111.028 86.6811 110.366 87.4482 109.864C88.2152 109.362 89.0864 108.983 90.0618 108.727C91.0466 108.472 92.0788 108.292 93.1584 108.188C94.4273 108.055 95.45 107.932 96.2266 107.818C97.0031 107.695 97.5665 107.515 97.9169 107.278C98.2673 107.042 98.4425 106.691 98.4425 106.227V106.142C98.4425 105.242 98.1584 104.546 97.5902 104.054C97.0315 103.562 96.236 103.315 95.2038 103.315C94.1148 103.315 93.2483 103.557 92.6044 104.04C91.9605 104.513 91.5343 105.11 91.326 105.83L85.7294 105.375C86.0135 104.049 86.5722 102.903 87.4055 101.938C88.2389 100.962 89.3137 100.214 90.63 99.6932C91.9557 99.1629 93.4898 98.8977 95.2322 98.8977C96.4444 98.8977 97.6044 99.0398 98.7124 99.3239C99.8298 99.608 100.819 100.048 101.681 100.645C102.552 101.241 103.239 102.009 103.741 102.946C104.243 103.874 104.494 104.987 104.494 106.284V121H98.755V117.974H98.5845C98.2341 118.656 97.7654 119.258 97.1783 119.778C96.5911 120.29 95.8857 120.692 95.0618 120.986C94.2379 121.27 93.2862 121.412 92.2067 121.412ZM93.9396 117.236C94.8298 117.236 95.6158 117.061 96.2976 116.71C96.9794 116.35 97.5144 115.867 97.9027 115.261C98.291 114.655 98.4851 113.969 98.4851 113.202V110.886C98.2957 111.009 98.0353 111.123 97.7038 111.227C97.3819 111.322 97.0173 111.412 96.6101 111.497C96.2029 111.573 95.7957 111.644 95.3885 111.71C94.9813 111.767 94.612 111.819 94.2805 111.866C93.5703 111.971 92.95 112.136 92.4197 112.364C91.8894 112.591 91.4775 112.899 91.1839 113.287C90.8904 113.666 90.7436 114.139 90.7436 114.707C90.7436 115.531 91.0419 116.161 91.6385 116.597C92.2446 117.023 93.0116 117.236 93.9396 117.236ZM119.018 129.636C117.058 129.636 115.377 129.366 113.975 128.827C112.583 128.296 111.475 127.572 110.651 126.653C109.827 125.735 109.292 124.703 109.046 123.557L114.643 122.804C114.813 123.24 115.083 123.647 115.452 124.026C115.822 124.404 116.309 124.707 116.915 124.935C117.531 125.171 118.279 125.29 119.16 125.29C120.476 125.29 121.56 124.968 122.413 124.324C123.274 123.689 123.705 122.624 123.705 121.128V117.136H123.45C123.184 117.742 122.787 118.315 122.256 118.855C121.726 119.395 121.044 119.835 120.211 120.176C119.378 120.517 118.383 120.688 117.228 120.688C115.59 120.688 114.098 120.309 112.754 119.551C111.418 118.784 110.353 117.615 109.558 116.043C108.772 114.461 108.379 112.463 108.379 110.048C108.379 107.577 108.781 105.512 109.586 103.855C110.391 102.198 111.461 100.957 112.796 100.134C114.141 99.3097 115.613 98.8977 117.214 98.8977C118.435 98.8977 119.458 99.1061 120.282 99.5227C121.106 99.9299 121.769 100.441 122.271 101.057C122.782 101.663 123.175 102.259 123.45 102.847H123.677V99.1818H129.685V121.213C129.685 123.069 129.231 124.622 128.322 125.872C127.413 127.122 126.153 128.06 124.543 128.685C122.943 129.319 121.101 129.636 119.018 129.636ZM119.146 116.142C120.121 116.142 120.945 115.901 121.617 115.418C122.299 114.925 122.82 114.224 123.18 113.315C123.549 112.397 123.734 111.298 123.734 110.02C123.734 108.741 123.554 107.634 123.194 106.696C122.834 105.749 122.313 105.015 121.631 104.494C120.95 103.973 120.121 103.713 119.146 103.713C118.151 103.713 117.313 103.983 116.631 104.523C115.95 105.053 115.433 105.792 115.083 106.739C114.733 107.686 114.558 108.779 114.558 110.02C114.558 111.279 114.733 112.368 115.083 113.287C115.443 114.196 115.959 114.902 116.631 115.403C117.313 115.896 118.151 116.142 119.146 116.142ZM144.444 121.426C142.2 121.426 140.268 120.972 138.648 120.062C137.039 119.144 135.798 117.847 134.927 116.17C134.056 114.485 133.62 112.491 133.62 110.19C133.62 107.946 134.056 105.976 134.927 104.281C135.798 102.586 137.024 101.265 138.606 100.318C140.197 99.3712 142.062 98.8977 144.202 98.8977C145.642 98.8977 146.982 99.1297 148.222 99.5938C149.472 100.048 150.561 100.735 151.489 101.653C152.427 102.572 153.156 103.727 153.677 105.119C154.198 106.502 154.458 108.121 154.458 109.977V111.639H136.035V107.889H148.762C148.762 107.018 148.573 106.246 148.194 105.574C147.815 104.902 147.29 104.376 146.617 103.997C145.954 103.609 145.183 103.415 144.302 103.415C143.383 103.415 142.569 103.628 141.859 104.054C141.158 104.471 140.609 105.034 140.211 105.744C139.813 106.445 139.61 107.226 139.6 108.088V111.653C139.6 112.733 139.799 113.666 140.197 114.452C140.604 115.238 141.177 115.844 141.915 116.27C142.654 116.696 143.53 116.909 144.543 116.909C145.216 116.909 145.831 116.814 146.39 116.625C146.949 116.436 147.427 116.152 147.825 115.773C148.222 115.394 148.525 114.93 148.734 114.381L154.33 114.75C154.046 116.095 153.464 117.269 152.583 118.273C151.712 119.267 150.585 120.044 149.202 120.602C147.829 121.152 146.243 121.426 144.444 121.426ZM158.407 121V99.1818H164.174V103.031H164.43C164.884 101.753 165.642 100.744 166.702 100.006C167.763 99.267 169.032 98.8977 170.509 98.8977C172.005 98.8977 173.279 99.2718 174.33 100.02C175.381 100.759 176.082 101.762 176.433 103.031H176.66C177.105 101.781 177.91 100.782 179.075 100.034C180.249 99.2765 181.636 98.8977 183.237 98.8977C185.272 98.8977 186.925 99.5464 188.194 100.844C189.472 102.132 190.112 103.959 190.112 106.327V121H184.075V107.52C184.075 106.308 183.753 105.399 183.109 104.793C182.465 104.187 181.66 103.884 180.694 103.884C179.595 103.884 178.738 104.234 178.123 104.935C177.507 105.626 177.2 106.54 177.2 107.676V121H171.333V107.392C171.333 106.322 171.025 105.47 170.41 104.835C169.804 104.201 169.004 103.884 168.009 103.884C167.337 103.884 166.731 104.054 166.191 104.395C165.661 104.726 165.239 105.195 164.927 105.801C164.614 106.398 164.458 107.098 164.458 107.903V121H158.407ZM204.835 121.426C202.59 121.426 200.658 120.972 199.039 120.062C197.429 119.144 196.189 117.847 195.317 116.17C194.446 114.485 194.011 112.491 194.011 110.19C194.011 107.946 194.446 105.976 195.317 104.281C196.189 102.586 197.415 101.265 198.996 100.318C200.587 99.3712 202.453 98.8977 204.593 98.8977C206.032 98.8977 207.372 99.1297 208.613 99.5938C209.863 100.048 210.952 100.735 211.88 101.653C212.817 102.572 213.547 103.727 214.067 105.119C214.588 106.502 214.849 108.121 214.849 109.977V111.639H196.425V107.889H209.153C209.153 107.018 208.963 106.246 208.585 105.574C208.206 104.902 207.68 104.376 207.008 103.997C206.345 103.609 205.573 103.415 204.692 103.415C203.774 103.415 202.96 103.628 202.249 104.054C201.549 104.471 200.999 105.034 200.602 105.744C200.204 106.445 200 107.226 199.991 108.088V111.653C199.991 112.733 200.19 113.666 200.587 114.452C200.995 115.238 201.567 115.844 202.306 116.27C203.045 116.696 203.921 116.909 204.934 116.909C205.606 116.909 206.222 116.814 206.781 116.625C207.339 116.436 207.817 116.152 208.215 115.773C208.613 115.394 208.916 114.93 209.124 114.381L214.721 114.75C214.437 116.095 213.854 117.269 212.974 118.273C212.103 119.267 210.976 120.044 209.593 120.602C208.22 121.152 206.634 121.426 204.835 121.426ZM224.849 108.386V121H218.798V99.1818H224.565V103.031H224.82C225.303 101.762 226.113 100.759 227.249 100.02C228.386 99.2718 229.763 98.8977 231.383 98.8977C232.898 98.8977 234.219 99.2292 235.346 99.892C236.473 100.555 237.349 101.502 237.974 102.733C238.599 103.955 238.911 105.413 238.911 107.108V121H232.86V108.188C232.87 106.852 232.529 105.811 231.837 105.062C231.146 104.305 230.194 103.926 228.982 103.926C228.168 103.926 227.448 104.101 226.823 104.452C226.208 104.802 225.725 105.313 225.374 105.986C225.033 106.649 224.858 107.449 224.849 108.386ZM255.286 99.1818V103.727H242.146V99.1818H255.286ZM245.129 93.9545H251.18V114.295C251.18 114.854 251.266 115.29 251.436 115.602C251.607 115.905 251.843 116.118 252.146 116.241C252.459 116.365 252.819 116.426 253.226 116.426C253.51 116.426 253.794 116.402 254.078 116.355C254.362 116.298 254.58 116.256 254.732 116.227L255.683 120.73C255.38 120.825 254.954 120.934 254.405 121.057C253.856 121.189 253.188 121.27 252.402 121.298C250.944 121.355 249.665 121.161 248.567 120.716C247.478 120.271 246.63 119.58 246.024 118.642C245.418 117.705 245.12 116.521 245.129 115.091V93.9545ZM276.525 121.355C274.868 121.355 273.367 120.929 272.022 120.077C270.687 119.215 269.626 117.951 268.84 116.284C268.064 114.608 267.675 112.553 267.675 110.119C267.675 107.619 268.078 105.541 268.883 103.884C269.688 102.217 270.758 100.972 272.093 100.148C273.438 99.3144 274.91 98.8977 276.511 98.8977C277.732 98.8977 278.75 99.1061 279.565 99.5227C280.388 99.9299 281.051 100.441 281.553 101.057C282.065 101.663 282.453 102.259 282.718 102.847H282.903V91.9091H288.94V121H282.974V117.506H282.718C282.434 118.112 282.031 118.713 281.511 119.31C280.999 119.897 280.332 120.384 279.508 120.773C278.693 121.161 277.699 121.355 276.525 121.355ZM278.442 116.54C279.418 116.54 280.242 116.275 280.914 115.744C281.596 115.205 282.117 114.452 282.477 113.486C282.846 112.52 283.031 111.388 283.031 110.091C283.031 108.794 282.851 107.667 282.491 106.71C282.131 105.754 281.61 105.015 280.928 104.494C280.246 103.973 279.418 103.713 278.442 103.713C277.448 103.713 276.61 103.983 275.928 104.523C275.246 105.062 274.73 105.811 274.38 106.767C274.03 107.723 273.854 108.831 273.854 110.091C273.854 111.36 274.03 112.482 274.38 113.457C274.74 114.423 275.256 115.181 275.928 115.73C276.61 116.27 277.448 116.54 278.442 116.54ZM293.915 121V99.1818H299.966V121H293.915ZM296.955 96.3693C296.055 96.3693 295.283 96.071 294.639 95.4744C294.005 94.8684 293.688 94.1439 293.688 93.3011C293.688 92.4678 294.005 91.7528 294.639 91.1562C295.283 90.5502 296.055 90.2472 296.955 90.2472C297.854 90.2472 298.621 90.5502 299.256 91.1562C299.9 91.7528 300.222 92.4678 300.222 93.3011C300.222 94.1439 299.9 94.8684 299.256 95.4744C298.621 96.071 297.854 96.3693 296.955 96.3693ZM322.967 105.403L317.427 105.744C317.332 105.271 317.129 104.845 316.816 104.466C316.504 104.078 316.092 103.77 315.58 103.543C315.078 103.306 314.477 103.188 313.776 103.188C312.839 103.188 312.048 103.386 311.404 103.784C310.76 104.172 310.438 104.693 310.438 105.347C310.438 105.867 310.647 106.308 311.063 106.668C311.48 107.027 312.195 107.316 313.208 107.534L317.157 108.33C319.278 108.765 320.86 109.466 321.901 110.432C322.943 111.398 323.464 112.667 323.464 114.239C323.464 115.669 323.042 116.923 322.2 118.003C321.366 119.082 320.22 119.925 318.762 120.531C317.313 121.128 315.642 121.426 313.748 121.426C310.86 121.426 308.558 120.825 306.844 119.622C305.14 118.41 304.141 116.762 303.847 114.679L309.799 114.366C309.979 115.247 310.415 115.92 311.106 116.384C311.797 116.838 312.683 117.065 313.762 117.065C314.823 117.065 315.675 116.862 316.319 116.455C316.972 116.038 317.304 115.503 317.313 114.849C317.304 114.3 317.072 113.85 316.617 113.5C316.163 113.14 315.462 112.866 314.515 112.676L310.737 111.923C308.606 111.497 307.02 110.759 305.978 109.707C304.946 108.656 304.43 107.316 304.43 105.688C304.43 104.286 304.808 103.079 305.566 102.065C306.333 101.052 307.408 100.271 308.79 99.7216C310.183 99.1723 311.811 98.8977 313.677 98.8977C316.433 98.8977 318.601 99.4801 320.183 100.645C321.773 101.81 322.701 103.396 322.967 105.403ZM327.274 129.182V99.1818H333.24V102.847H333.51C333.775 102.259 334.159 101.663 334.661 101.057C335.172 100.441 335.835 99.9299 336.649 99.5227C337.473 99.1061 338.496 98.8977 339.717 98.8977C341.308 98.8977 342.776 99.3144 344.121 100.148C345.465 100.972 346.54 102.217 347.345 103.884C348.15 105.541 348.553 107.619 348.553 110.119C348.553 112.553 348.16 114.608 347.374 116.284C346.597 117.951 345.536 119.215 344.192 120.077C342.857 120.929 341.36 121.355 339.703 121.355C338.529 121.355 337.53 121.161 336.706 120.773C335.892 120.384 335.224 119.897 334.703 119.31C334.182 118.713 333.785 118.112 333.51 117.506H333.325V129.182H327.274ZM333.197 110.091C333.197 111.388 333.377 112.52 333.737 113.486C334.097 114.452 334.618 115.205 335.3 115.744C335.982 116.275 336.81 116.54 337.786 116.54C338.77 116.54 339.604 116.27 340.286 115.73C340.967 115.181 341.483 114.423 341.834 113.457C342.194 112.482 342.374 111.36 342.374 110.091C342.374 108.831 342.198 107.723 341.848 106.767C341.498 105.811 340.982 105.062 340.3 104.523C339.618 103.983 338.78 103.713 337.786 103.713C336.801 103.713 335.967 103.973 335.286 104.494C334.613 105.015 334.097 105.754 333.737 106.71C333.377 107.667 333.197 108.794 333.197 110.091ZM366.578 111.71V99.1818H372.629V121H366.82V117.037H366.592C366.1 118.315 365.281 119.343 364.135 120.119C362.999 120.896 361.611 121.284 359.973 121.284C358.515 121.284 357.232 120.953 356.124 120.29C355.016 119.627 354.149 118.685 353.524 117.463C352.909 116.241 352.596 114.778 352.587 113.074V99.1818H358.638V111.994C358.647 113.282 358.993 114.3 359.675 115.048C360.357 115.796 361.27 116.17 362.416 116.17C363.145 116.17 363.827 116.005 364.462 115.673C365.096 115.332 365.607 114.83 365.996 114.168C366.393 113.505 366.588 112.686 366.578 111.71ZM389.075 99.1818V103.727H375.935V99.1818H389.075ZM378.918 93.9545H384.969V114.295C384.969 114.854 385.055 115.29 385.225 115.602C385.396 115.905 385.632 116.118 385.935 116.241C386.248 116.365 386.608 116.426 387.015 116.426C387.299 116.426 387.583 116.402 387.867 116.355C388.151 116.298 388.369 116.256 388.521 116.227L389.472 120.73C389.169 120.825 388.743 120.934 388.194 121.057C387.645 121.189 386.977 121.27 386.191 121.298C384.733 121.355 383.454 121.161 382.356 120.716C381.267 120.271 380.419 119.58 379.813 118.642C379.207 117.705 378.909 116.521 378.918 115.091V93.9545ZM402.725 121.426C400.481 121.426 398.549 120.972 396.93 120.062C395.32 119.144 394.079 117.847 393.208 116.17C392.337 114.485 391.901 112.491 391.901 110.19C391.901 107.946 392.337 105.976 393.208 104.281C394.079 102.586 395.306 101.265 396.887 100.318C398.478 99.3712 400.344 98.8977 402.484 98.8977C403.923 98.8977 405.263 99.1297 406.504 99.5938C407.754 100.048 408.843 100.735 409.771 101.653C410.708 102.572 411.437 103.727 411.958 105.119C412.479 106.502 412.739 108.121 412.739 109.977V111.639H394.316V107.889H407.043C407.043 107.018 406.854 106.246 406.475 105.574C406.096 104.902 405.571 104.376 404.898 103.997C404.236 103.609 403.464 103.415 402.583 103.415C401.665 103.415 400.85 103.628 400.14 104.054C399.439 104.471 398.89 105.034 398.492 105.744C398.094 106.445 397.891 107.226 397.881 108.088V111.653C397.881 112.733 398.08 113.666 398.478 114.452C398.885 115.238 399.458 115.844 400.197 116.27C400.935 116.696 401.811 116.909 402.825 116.909C403.497 116.909 404.112 116.814 404.671 116.625C405.23 116.436 405.708 116.152 406.106 115.773C406.504 115.394 406.807 114.93 407.015 114.381L412.612 114.75C412.327 116.095 411.745 117.269 410.864 118.273C409.993 119.267 408.866 120.044 407.484 120.602C406.111 121.152 404.524 121.426 402.725 121.426ZM434.842 105.403L429.302 105.744C429.207 105.271 429.004 104.845 428.691 104.466C428.379 104.078 427.967 103.77 427.455 103.543C426.953 103.306 426.352 103.188 425.651 103.188C424.714 103.188 423.923 103.386 423.279 103.784C422.635 104.172 422.313 104.693 422.313 105.347C422.313 105.867 422.522 106.308 422.938 106.668C423.355 107.027 424.07 107.316 425.083 107.534L429.032 108.33C431.153 108.765 432.735 109.466 433.776 110.432C434.818 111.398 435.339 112.667 435.339 114.239C435.339 115.669 434.917 116.923 434.075 118.003C433.241 119.082 432.095 119.925 430.637 120.531C429.188 121.128 427.517 121.426 425.623 121.426C422.735 121.426 420.433 120.825 418.719 119.622C417.015 118.41 416.016 116.762 415.722 114.679L421.674 114.366C421.854 115.247 422.29 115.92 422.981 116.384C423.672 116.838 424.558 117.065 425.637 117.065C426.698 117.065 427.55 116.862 428.194 116.455C428.847 116.038 429.179 115.503 429.188 114.849C429.179 114.3 428.947 113.85 428.492 113.5C428.038 113.14 427.337 112.866 426.39 112.676L422.612 111.923C420.481 111.497 418.895 110.759 417.853 109.707C416.821 108.656 416.305 107.316 416.305 105.688C416.305 104.286 416.683 103.079 417.441 102.065C418.208 101.052 419.283 100.271 420.665 99.7216C422.058 99.1723 423.686 98.8977 425.552 98.8977C428.308 98.8977 430.476 99.4801 432.058 100.645C433.648 101.81 434.576 103.396 434.842 105.403ZM442.686 121.369C441.749 121.369 440.944 121.038 440.271 120.375C439.608 119.703 439.277 118.898 439.277 117.96C439.277 117.032 439.608 116.237 440.271 115.574C440.944 114.911 441.749 114.58 442.686 114.58C443.595 114.58 444.391 114.911 445.072 115.574C445.754 116.237 446.095 117.032 446.095 117.96C446.095 118.585 445.934 119.158 445.612 119.679C445.3 120.19 444.888 120.602 444.376 120.915C443.865 121.218 443.302 121.369 442.686 121.369Z" fill="#007BFF"/>
</svg>
