<svg width="28" height="27" viewBox="0 0 28 27" fill="none" xmlns="http://www.w3.org/2000/svg">
<path d="M15.1667 4.5H10.2667C8.30656 4.5 7.32647 4.5 6.57778 4.86785C5.91921 5.19143 5.38378 5.70773 5.04822 6.34278C4.66675 7.06473 4.66675 8.00982 4.66675 9.9V17.1C4.66675 18.9902 4.66675 19.9352 5.04822 20.6572C5.38378 21.2923 5.91921 21.8086 6.57778 22.1321C7.32647 22.5 8.30656 22.5 10.2667 22.5H17.7334C19.6936 22.5 20.6736 22.5 21.4224 22.1321C22.081 21.8086 22.6164 21.2923 22.9519 20.6572C23.3334 19.9352 23.3334 18.9902 23.3334 17.1V12.375" stroke="white" stroke-width="2" stroke-linecap="round" stroke-linejoin="round"/>
<path d="M4.66675 17.9998L9.67512 13.1703C10.1307 12.731 10.8694 12.731 11.325 13.1703L15.1667 16.8748M15.1667 16.8748L18.4251 13.7328C18.8807 13.2935 19.6194 13.2935 20.075 13.7328L23.3334 16.8748M15.1667 16.8748L17.7917 19.4061" stroke="white" stroke-width="2" stroke-linecap="round" stroke-linejoin="round"/>
<path d="M21.5834 3.375V6.1875M21.5834 6.1875V9M21.5834 6.1875H18.6667M21.5834 6.1875H24.5001" stroke="white" stroke-width="2" stroke-linecap="round" stroke-linejoin="round"/>
</svg>
