<svg width="40" height="40" viewBox="0 0 40 40" fill="none" xmlns="http://www.w3.org/2000/svg">
<path fill-rule="evenodd" clip-rule="evenodd" d="M35 20C35 28.2843 28.2843 35 20 35C11.7157 35 5 28.2843 5 20C5 11.7157 11.7157 5 20 5C28.2843 5 35 11.7157 35 20ZM20 29.3333C19.4477 29.3333 19 28.8856 19 28.3333V21H11.6667C11.1144 21 10.6667 20.5523 10.6667 20C10.6667 19.4477 11.1144 19 11.6667 19H19V11.6667C19 11.1144 19.4477 10.6667 20 10.6667C20.5523 10.6667 21 11.1144 21 11.6667V19H28.3333C28.8856 19 29.3333 19.4477 29.3333 20C29.3333 20.5523 28.8856 21 28.3333 21H21V28.3333C21 28.8856 20.5523 29.3333 20 29.3333Z" fill="#222222"/>
</svg>
