<svg width="35" height="35" viewBox="0 0 35 35" fill="none" xmlns="http://www.w3.org/2000/svg">
<path fill-rule="evenodd" clip-rule="evenodd" d="M30.625 17.5C30.625 10.2513 24.7487 4.375 17.5 4.375C10.2513 4.375 4.375 10.2513 4.375 17.5C4.375 24.7487 10.2513 30.625 17.5 30.625C24.7487 30.625 30.625 24.7487 30.625 17.5ZM17.5 8.20833C16.3954 8.20833 15.5 9.10376 15.5 10.2083V15.5H10.2083C9.10376 15.5 8.20833 16.3954 8.20833 17.5C8.20833 18.6046 9.10376 19.5 10.2083 19.5H15.5V24.7917C15.5 25.8962 16.3954 26.7917 17.5 26.7917C18.6046 26.7917 19.5 25.8962 19.5 24.7917V19.5H24.7917C25.8962 19.5 26.7917 18.6046 26.7917 17.5C26.7917 16.3954 25.8962 15.5 24.7917 15.5H19.5V10.2083C19.5 9.10376 18.6046 8.20833 17.5 8.20833Z" fill="#343434"/>
</svg>
