<svg width="345" height="173" viewBox="0 0 345 173" fill="none" xmlns="http://www.w3.org/2000/svg">
<g clip-path="url(#clip0_94_298)">
<path d="M113.616 173C103.205 173 92.8109 172.814 82.4319 172.441C67.6016 171.908 52.2663 171.357 38.0128 163.449C28.0418 157.918 19.2109 149.043 12.4751 137.784C7.97304 130.153 4.67192 121.874 2.68771 113.238C-1.01362 97.5154 -0.887546 81.1335 3.05532 65.4695C4.43705 60.099 6.34186 54.877 8.74242 49.8783C19.137 28.3466 38.0959 13.893 60.758 10.2238C60.9452 10.1995 61.1344 10.1954 61.3225 10.2117C61.4244 10.2172 61.526 10.223 61.6296 10.2187L61.7629 10.1763C62.1047 10.0575 62.4558 9.96732 62.8126 9.90682C97.7636 4.70202 134.712 15.2332 169.66 40.361C196.682 59.7923 232.494 70.2558 279.143 72.3493L279.805 72.384C292.791 73.1302 305.352 78.4856 316.132 87.872C326.772 97.1363 334.761 109.497 339.235 123.617C339.785 125.339 340.289 127.131 340.734 128.943C341.147 130.628 341.118 132.39 340.649 134.06C340.18 135.73 339.286 137.25 338.056 138.472V138.475L337.94 138.595C337.66 138.873 337.366 139.139 337.065 139.388L336.711 139.68C333.73 142.136 331.375 144.076 328.557 145.584C326.678 146.582 324.679 147.337 322.609 147.83C311.241 150.602 299.697 153.173 288.298 155.47C266.159 159.935 243.436 163.619 220.762 166.418C185.215 170.802 149.432 173.001 113.616 173ZM61.0574 10.9743C60.9878 10.9737 60.9182 10.9784 60.8493 10.9884C38.399 14.6234 19.6196 28.9351 9.32812 50.2537C6.95126 55.2028 5.06529 60.3731 3.6973 65.6904C-0.209636 81.2155 -0.33414 97.4518 3.33426 113.035C5.29905 121.588 8.56817 129.788 13.0268 137.346C19.6966 148.495 28.4372 157.281 38.3036 162.754C52.4293 170.591 67.6923 171.139 82.4528 171.669C128.619 173.319 174.842 171.307 220.69 165.651C243.35 162.853 266.058 159.172 288.182 154.71C299.574 152.414 311.11 149.846 322.47 147.075C324.49 146.594 326.441 145.858 328.275 144.883C331.036 143.407 333.369 141.485 336.321 139.052L336.675 138.76C336.933 138.547 337.187 138.318 337.43 138.081L337.5 138.008C339.926 135.561 340.87 132.334 340.089 129.153V129.153C339.649 127.36 339.15 125.587 338.606 123.883C329.466 95.0371 305.823 74.6517 279.773 73.1551L279.114 73.1204C257.806 72.1639 239.159 69.5145 222.112 65.0199C201.761 59.6548 183.995 51.5784 169.305 41.0156C134.49 15.9841 97.6963 5.49213 62.8979 10.6722C62.5729 10.7283 62.253 10.8113 61.9417 10.9202L61.7013 10.9875C61.5648 10.9936 61.428 10.992 61.2917 10.9826C61.2114 10.9785 61.1335 10.9743 61.0574 10.9743Z" fill="#F0F0F0"/>
<path d="M107.764 56.3655C106.8 55.4406 105.814 50.2828 104.584 49.7592C105.504 51.7925 104.836 52.3308 104.831 54.5622C104.843 55.8293 104.695 57.0928 104.391 58.3229H83.5483V42.0519C83.5483 40.5899 83.8361 39.1422 84.3954 37.7915C84.9547 36.4408 85.7745 35.2135 86.808 34.1797C87.8414 33.146 89.0683 32.3259 90.4186 31.7665C91.7689 31.207 93.2161 30.9191 94.6777 30.9191C95.2355 30.93 95.7898 31.0112 96.3273 31.1607C98.1188 31.6445 99.7516 32.5911 101.062 33.9054C102.372 35.2197 103.314 36.8556 103.793 38.649C105.382 44.4584 107.909 54.1287 107.764 56.3655Z" fill="#2F2E41"/>
<path d="M84.7715 76.3819L84.7818 63.6996L77.3291 64.3658L79.9593 72.3645L78.7283 92.4694C78.1313 92.6034 77.5861 92.9083 77.1593 93.3469C76.7325 93.7855 76.4425 94.3388 76.3247 94.9394C76.2068 95.54 76.2662 96.1619 76.4956 96.7294C76.725 97.2968 77.1145 97.7852 77.6166 98.135C78.1186 98.4848 78.7116 98.681 79.3232 98.6995C79.9348 98.718 80.5386 98.5581 81.0609 98.2394C81.5833 97.9206 82.0016 97.4566 82.2649 96.9042C82.5282 96.3517 82.6251 95.7345 82.5438 95.1278L84.7715 76.3819Z" fill="#FFB6B6"/>
<path d="M99.4383 167.01L102.449 167.009L103.882 155.392H99.4375L99.4383 167.01Z" fill="#FFB6B6"/>
<path d="M98.4185 165.524L103.178 165.24V167.28L107.703 170.406C107.927 170.56 108.095 170.782 108.184 171.039C108.272 171.296 108.276 171.574 108.196 171.833C108.115 172.093 107.953 172.32 107.734 172.481C107.516 172.642 107.251 172.728 106.979 172.728H101.313L100.336 170.711L99.9549 172.728H97.8184L98.4185 165.524Z" fill="#2F2E41"/>
<path d="M82.0287 167.01L85.0399 167.009L86.4719 155.392H82.0283L82.0287 167.01Z" fill="#FFB6B6"/>
<path d="M81.0088 165.524L85.7685 165.24V167.28L90.2936 170.406C90.5171 170.56 90.6854 170.782 90.774 171.039C90.8626 171.296 90.8667 171.574 90.7859 171.833C90.7051 172.093 90.5435 172.32 90.3247 172.481C90.1059 172.642 89.8414 172.728 89.5698 172.728H83.9033L82.9265 170.711L82.5452 172.728H80.4087L81.0088 165.524Z" fill="#2F2E41"/>
<path d="M96.7567 50.0038L90.5194 50.1262L86.1166 54.775L82.5868 55.2929C80.9901 55.5272 79.5221 56.3025 78.4283 57.4894C77.3344 58.6763 76.681 60.2029 76.5771 61.8138L77.1886 65.1738H80.8577L82.9802 77.64C82.1549 79.7437 82.0988 81.4042 83.7929 82.0565L89.0518 91.9659L104.584 84.9926C105.372 83.638 105.624 82.2774 104.819 80.9543L105.929 61.8706H109.663C109.663 58.3014 108.456 55.2924 104.91 54.8953C103.502 54.7428 102.087 54.6619 100.67 54.6527L96.7567 50.0038Z" fill="#E6E6E6"/>
<path d="M104.584 84.9926C104.584 84.9926 89.4185 87.6841 83.7927 82.0565C83.7927 82.0565 83.2216 83.0265 82.3609 84.635C82.1134 85.0976 81.6354 85.411 81.3467 85.9713C81.0843 86.4806 80.4095 87.1067 80.1237 87.6843C79.8938 88.1489 80.2626 88.7561 80.0234 89.2581C77.1423 95.303 73.7762 103.83 74.4979 109.46C74.9632 113.091 75.9244 121.54 76.9367 130.615C77.0158 131.324 76.3752 132.235 76.4547 132.949C76.5297 133.623 77.3247 134.101 77.3997 134.776C77.4495 135.225 76.8942 135.682 76.9439 136.13C76.9984 136.621 77.6577 137.103 77.7119 137.593C79.0986 150.123 80.3683 161.821 80.3683 161.821H87.4617L88.8001 135.103L87.7063 125.364L90.2747 105.668L93.8214 124.386L94.2776 134.92L98.0258 162.31H104.584V135.795L105.073 134.417L104.584 132.651L105.073 130.747L104.584 128.674V84.9926Z" fill="#2F2E41"/>
<path d="M98.6713 46.3857C97.7051 47.6696 96.3306 48.586 94.7742 48.9841C93.2177 49.3822 91.5722 49.2382 90.1085 48.5758C88.6448 47.9134 87.4503 46.7721 86.7217 45.3399C85.993 43.9077 85.7737 42.27 86.0999 40.6965C86.426 39.1229 87.2781 37.7074 88.5159 36.683C89.7537 35.6587 91.3034 35.0865 92.9097 35.0608C94.516 35.0351 96.0831 35.5573 97.353 36.5416C98.623 37.5258 99.5199 38.9133 99.8962 40.4756C99.9166 40.5604 99.9337 40.6447 99.9504 40.7322C100.149 41.7114 100.138 42.7217 99.9174 43.6963C99.6969 44.6708 99.2722 45.5875 98.6713 46.3857Z" fill="#FFB6B6"/>
<path d="M97.1973 42.3504C97.0473 41.5974 96.668 40.9093 96.1113 40.3807C96.1662 41.1023 96.0661 41.8273 95.8178 42.507C93.9583 42.6717 92.0904 42.3016 90.4341 41.4402C89.1867 40.5936 87.5992 40.667 85.75 41.4402C85.7499 40.5405 85.927 39.6496 86.2711 38.8183C86.6152 37.9871 87.1197 37.2318 87.7557 36.5956C88.3917 35.9594 89.1468 35.4548 89.9778 35.1105C90.8088 34.7663 91.6994 34.5891 92.5988 34.5892H93.8218C95.6382 34.5896 97.38 35.3115 98.6643 36.5962C99.9487 37.8809 100.67 39.6233 100.671 41.4402C99.5419 41.8452 98.3796 42.1497 97.1973 42.3504Z" fill="#2F2E41"/>
<path d="M43.6914 129.668C54.558 129.668 63.3671 120.857 63.3671 109.987C63.3671 99.1166 54.558 90.3047 43.6914 90.3047C32.8247 90.3047 24.0156 99.1166 24.0156 109.987C24.0156 120.857 32.8247 129.668 43.6914 129.668Z" fill="#F0F0F0"/>
<path d="M169.076 39.3636C179.942 39.3636 188.751 30.5518 188.751 19.6818C188.751 8.81184 179.942 0 169.076 0C158.209 0 149.4 8.81184 149.4 19.6818C149.4 30.5518 158.209 39.3636 169.076 39.3636Z" fill="#F0F0F0"/>
<path d="M325.324 132.756C336.191 132.756 345 123.944 345 113.074C345 102.204 336.191 93.3921 325.324 93.3921C314.458 93.3921 305.648 102.204 305.648 113.074C305.648 123.944 314.458 132.756 325.324 132.756Z" fill="#F0F0F0"/>
<path d="M204.569 21.8282V66.4581C204.57 67.3851 204.204 68.2747 203.552 68.9337C202.9 69.5926 202.015 69.9677 201.088 69.9773C201.075 69.9787 201.062 69.9792 201.05 69.9789H195.857C191.702 69.9789 187.717 68.3279 184.779 65.3891C181.841 62.4502 180.191 58.4643 180.191 54.3082V21.8282C180.191 20.8944 180.562 19.9988 181.222 19.3386C181.882 18.6783 182.777 18.3073 183.711 18.3073H185.815C184.84 21.1518 198.07 22.3493 198.796 18.3073H201.05C201.983 18.3073 202.878 18.6783 203.539 19.3386C204.199 19.9989 204.569 20.8944 204.569 21.8282Z" fill="#C80000"/>
<path d="M189.159 14.97C189.159 14.8477 189.208 14.7304 189.294 14.6439C189.381 14.5574 189.498 14.5087 189.62 14.5086H192.757C192.879 14.509 192.996 14.5577 193.082 14.6442C193.169 14.7307 193.217 14.8479 193.217 14.97C193.217 15.0922 193.169 15.2093 193.082 15.2958C192.996 15.3823 192.879 15.4311 192.757 15.4314H189.62C189.498 15.4313 189.381 15.3827 189.294 15.2962C189.208 15.2096 189.159 15.0924 189.159 14.97Z" fill="#3F3D56"/>
<path d="M202.127 75.6399H182.291C180.752 75.6381 179.277 75.0258 178.188 73.9373C177.1 72.8487 176.488 71.3728 176.486 69.8334V38.6353C176.377 38.5571 176.289 38.454 176.228 38.3346C176.166 38.2152 176.135 38.083 176.135 37.9488V34.8112C176.135 34.6771 176.166 34.5449 176.228 34.4255C176.289 34.3061 176.377 34.2031 176.486 34.1249V33.2828C176.377 33.2046 176.289 33.1015 176.228 32.9822C176.166 32.8628 176.135 32.7306 176.135 32.5965V29.4586C176.135 29.3245 176.166 29.1923 176.228 29.073C176.289 28.9536 176.377 28.8506 176.486 28.7724V27.2504C176.352 27.1781 176.239 27.0706 176.161 26.9395C176.083 26.8083 176.042 26.6584 176.042 26.5056V23.368C176.042 23.2153 176.083 23.0653 176.161 22.9341C176.239 22.8029 176.352 22.6954 176.486 22.6231V18.4526C176.488 16.9132 177.1 15.4373 178.188 14.3487C179.277 13.2602 180.752 12.6479 182.291 12.6462H202.127C203.666 12.6479 205.142 13.2602 206.23 14.3488C207.318 15.4373 207.93 16.9132 207.932 18.4527V27.5434C208.037 27.6088 208.123 27.6997 208.183 27.8076C208.242 27.9155 208.274 28.0368 208.274 28.1601V34.143C208.274 34.2664 208.242 34.3877 208.183 34.4956C208.123 34.6035 208.037 34.6945 207.932 34.7599V69.8334C207.93 71.3728 207.318 72.8487 206.23 73.9373C205.142 75.0258 203.666 75.6381 202.127 75.6399ZM182.291 13.418C180.957 13.4195 179.677 13.9504 178.734 14.8943C177.79 15.8381 177.259 17.1178 177.258 18.4527V23.2796L176.887 23.294C176.867 23.2947 176.849 23.3027 176.836 23.3165C176.822 23.3303 176.814 23.3487 176.814 23.368V26.5056C176.814 26.5249 176.822 26.5433 176.836 26.5571C176.849 26.5709 176.867 26.579 176.887 26.5797L177.258 26.5938V29.3143L176.964 29.3866C176.948 29.3906 176.934 29.3998 176.923 29.4128C176.913 29.4258 176.907 29.4419 176.906 29.4586V32.5965C176.907 32.6132 176.913 32.6293 176.923 32.6423C176.934 32.6554 176.948 32.6645 176.964 32.6685L177.258 32.7408V34.6668L176.964 34.7392C176.948 34.7431 176.934 34.7523 176.923 34.7653C176.913 34.7783 176.907 34.7945 176.906 34.8112V37.9488C176.907 37.9656 176.913 37.9817 176.923 37.9948C176.934 38.0078 176.948 38.017 176.964 38.021L177.258 38.0933V69.8334C177.259 71.1682 177.79 72.4479 178.734 73.3918C179.677 74.3356 180.957 74.8665 182.291 74.868H202.127C203.462 74.8665 204.741 74.3356 205.685 73.3917C206.628 72.4479 207.159 71.1682 207.16 69.8334V34.0991H207.502V28.2042H207.16V18.4526C207.159 17.1178 206.628 15.8381 205.685 14.8943C204.741 13.9504 203.462 13.4195 202.127 13.418L182.291 13.418Z" fill="#3F3D56"/>
<path d="M194.51 15.4314C194.765 15.4314 194.971 15.2249 194.971 14.97C194.971 14.7152 194.765 14.5086 194.51 14.5086C194.255 14.5086 194.049 14.7152 194.049 14.97C194.049 15.2249 194.255 15.4314 194.51 15.4314Z" fill="#3F3D56"/>
<path d="M94.1657 104.353H42.5508C41.8178 104.351 41.1154 104.059 40.5971 103.541C40.0787 103.022 39.7866 102.32 39.7847 101.587V76.429C39.7865 75.6958 40.0785 74.9931 40.5968 74.4746C41.1151 73.9561 41.8175 73.664 42.5504 73.662H94.1653C94.8983 73.6639 95.6007 73.9559 96.119 74.4744C96.6374 74.9928 96.9295 75.6954 96.9315 76.4286V101.586C96.9296 102.319 96.6376 103.022 96.1193 103.541C95.6011 104.059 94.8987 104.351 94.1657 104.353Z" fill="white"/>
<path d="M94.1657 104.353H42.5508C41.8178 104.351 41.1154 104.059 40.5971 103.541C40.0787 103.022 39.7866 102.32 39.7847 101.587V76.429C39.7865 75.6958 40.0785 74.9931 40.5968 74.4746C41.1151 73.9561 41.8175 73.664 42.5504 73.662H94.1653C94.8983 73.6639 95.6007 73.9559 96.119 74.4744C96.6374 74.9928 96.9295 75.6954 96.9315 76.4286V101.586C96.9296 102.319 96.6376 103.022 96.1193 103.541C95.6011 104.059 94.8987 104.351 94.1657 104.353ZM42.5508 74.4338C42.0222 74.4354 41.5158 74.6462 41.142 75.0201C40.7683 75.394 40.5577 75.9006 40.5563 76.4294V101.586C40.5578 102.115 40.7685 102.622 41.1423 102.995C41.5161 103.369 42.0226 103.58 42.5512 103.581H94.1649C94.6936 103.58 95.2001 103.369 95.574 102.995C95.9478 102.621 96.1584 102.115 96.1599 101.586V76.429C96.1583 75.9003 95.9476 75.3936 95.5738 75.0198C95.2 74.646 94.6935 74.4353 94.1649 74.4338L42.5508 74.4338Z" fill="#3F3D56"/>
<path d="M71.1249 100.635C60.9453 100.635 50.3308 100.538 46.3704 100.475C45.8493 100.464 45.3531 100.25 44.9877 99.8784C44.6222 99.5067 44.4166 99.0068 44.4146 98.4855V77.6607C44.4148 77.474 44.4889 77.295 44.6207 77.1629C44.7525 77.0307 44.9312 76.9561 45.1179 76.9554H91.5972C91.7838 76.9557 91.9627 77.0298 92.0948 77.1616C92.2269 77.2934 92.3015 77.4722 92.3022 77.6589V91.7881C92.2935 94.0945 91.3815 96.3056 89.7618 97.9471C88.1421 99.5886 85.9437 100.53 83.6383 100.569C79.9473 100.617 75.5766 100.635 71.1249 100.635Z" fill="#C80000"/>
<path d="M88.8381 90.49H46.8403C46.4886 90.489 46.1458 90.3797 45.8584 90.1771C45.5709 89.9744 45.3529 89.6881 45.2338 89.3571L40.4803 76.0173C40.3887 75.76 40.3601 75.4845 40.397 75.2139C40.4339 74.9433 40.5352 74.6855 40.6923 74.4622C40.8495 74.2388 41.0579 74.0565 41.3002 73.9304C41.5424 73.8044 41.8113 73.7383 42.0843 73.7378L94.5808 73.6647C94.8303 73.6644 95.0769 73.7189 95.3031 73.8243C95.5293 73.9297 95.7297 74.0835 95.89 74.2747C96.0504 74.466 96.1669 74.6901 96.2312 74.9313C96.2956 75.1724 96.3063 75.4248 96.2626 75.6706L96.3031 75.6877L96.1524 76.0395L96.1509 76.0431L90.4044 89.4558C90.2735 89.7629 90.0552 90.0246 89.7767 90.2085C89.4982 90.3924 89.1718 90.4903 88.8381 90.49ZM94.5832 74.4365L42.0858 74.5096C41.9362 74.5099 41.7889 74.546 41.6562 74.6151C41.5235 74.6841 41.4093 74.784 41.3232 74.9063C41.2371 75.0286 41.1816 75.1699 41.1614 75.3181C41.1412 75.4663 41.1568 75.6173 41.207 75.7582L45.9604 89.0974C46.0257 89.2788 46.1452 89.4356 46.3028 89.5467C46.4603 89.6577 46.6481 89.7176 46.8408 89.7181H88.8381C89.0207 89.7183 89.1993 89.6647 89.3517 89.564C89.5041 89.4634 89.6236 89.3201 89.6952 89.1521L95.4418 75.739C95.5027 75.5969 95.5274 75.4418 95.5137 75.2878C95.4999 75.1338 95.4482 74.9856 95.3631 74.8565C95.278 74.7274 95.1622 74.6215 95.0261 74.5482C94.89 74.4749 94.7378 74.4365 94.5832 74.4365Z" fill="#3F3D56"/>
<path d="M68.2798 93.3937C70.096 93.3937 71.5683 91.9209 71.5683 90.1041C71.5683 88.2874 70.096 86.8146 68.2798 86.8146C66.4635 86.8146 64.9912 88.2874 64.9912 90.1041C64.9912 91.9209 66.4635 93.3937 68.2798 93.3937Z" fill="white"/>
<path d="M192.507 64.8358C194.323 64.8358 195.795 63.363 195.795 61.5462C195.795 59.7294 194.323 58.2567 192.507 58.2567C190.691 58.2567 189.218 59.7294 189.218 61.5462C189.218 63.363 190.691 64.8358 192.507 64.8358Z" fill="white"/>
<path d="M316.887 109.261L308.102 100.586C307.674 100.16 307.167 99.8228 306.609 99.5937C306.051 99.3646 305.453 99.2479 304.85 99.2503H304.819C304.211 99.252 303.61 99.3744 303.049 99.6102C302.489 99.846 301.981 100.191 301.555 100.624C299.591 102.613 298.474 105.285 298.438 108.081C298.403 110.876 299.452 113.576 301.366 115.613C301.459 115.714 301.555 115.81 301.651 115.906C302.186 116.438 302.775 116.91 303.411 117.315C305.147 118.438 307.172 119.031 309.24 119.025H309.306C310.725 119.02 312.129 118.734 313.437 118.182C314.745 117.631 315.93 116.826 316.925 115.814C317.787 114.939 318.267 113.758 318.26 112.529C318.253 111.301 317.759 110.126 316.887 109.261ZM316.377 115.27C314.746 116.913 312.599 117.944 310.297 118.189C307.994 118.434 305.678 117.877 303.739 116.613C303.184 116.245 302.666 115.825 302.192 115.358C300.299 113.488 299.226 110.943 299.209 108.282C299.193 105.621 300.234 103.062 302.103 101.168C302.458 100.806 302.882 100.518 303.35 100.321C303.817 100.125 304.319 100.023 304.827 100.022H304.85C305.352 100.02 305.85 100.118 306.314 100.308C306.779 100.499 307.202 100.779 307.558 101.134L316.343 109.813C317.07 110.532 317.482 111.511 317.488 112.534C317.495 113.557 317.095 114.541 316.377 115.27Z" fill="#3F3D56"/>
<path d="M288.064 80.788L279.279 72.1087C278.415 71.2506 277.245 70.7704 276.027 70.7735H276C275.391 70.7759 274.789 70.8989 274.228 71.1354C273.667 71.3718 273.159 71.7171 272.732 72.1512C271.108 73.8008 270.055 75.9274 269.728 78.2192C269.4 80.511 269.815 82.8476 270.911 84.8864L270.915 84.8903C271.367 85.7242 271.929 86.4939 272.586 87.1788C272.659 87.2637 272.744 87.3486 272.829 87.4335C274.846 89.4366 277.575 90.5579 280.417 90.5517H280.487C281.906 90.5458 283.31 90.2586 284.618 89.7069C285.926 89.1551 287.111 88.3497 288.106 87.337C288.533 86.9042 288.871 86.3915 289.1 85.8282C289.329 85.2648 289.445 84.6618 289.441 84.0537C289.437 83.4456 289.314 82.8442 289.077 82.2838C288.841 81.7235 288.497 81.2152 288.064 80.788ZM287.555 86.7967C286.631 87.7364 285.531 88.4839 284.317 88.9959C283.103 89.5079 281.8 89.7744 280.483 89.7799H280.417C278.439 89.7791 276.505 89.1933 274.859 88.096C273.213 86.9987 271.928 85.439 271.165 83.613C270.403 81.787 270.197 79.7762 270.574 77.8336C270.951 75.891 271.894 74.1033 273.284 72.6953C274.003 71.9679 274.982 71.5557 276.004 71.5492C277.027 71.5427 278.011 71.9424 278.739 72.6606L287.524 81.336C288.25 82.0567 288.662 83.0363 288.668 84.06C288.673 85.0837 288.273 86.0679 287.555 86.7967Z" fill="#3F3D56"/>
<path d="M317.448 111.988L307.764 102.42C307.129 101.794 306.271 101.446 305.38 101.451C304.488 101.457 303.635 101.816 303.008 102.45C302.223 103.243 301.602 104.183 301.181 105.216C300.76 106.249 300.546 107.355 300.552 108.471C300.559 109.586 300.785 110.69 301.218 111.718C301.651 112.746 302.282 113.679 303.076 114.463C303.869 115.247 304.809 115.867 305.843 116.287C306.876 116.708 307.982 116.92 309.097 116.913C310.213 116.905 311.316 116.678 312.343 116.243C313.37 115.809 314.302 115.177 315.085 114.382L317.448 111.988Z" fill="#C80000"/>
<path d="M288.627 83.5139L278.942 73.9457C278.307 73.3196 277.45 72.9712 276.558 72.9767C275.667 72.9822 274.814 73.3413 274.186 73.9752C273.402 74.7681 272.781 75.708 272.36 76.7411C271.938 77.7742 271.725 78.8802 271.731 79.996C271.737 81.1117 271.963 82.2152 272.396 83.2435C272.829 84.2717 273.461 85.2046 274.254 85.9886C275.048 86.7726 275.988 87.3925 277.021 87.8128C278.055 88.2331 279.161 88.4455 280.276 88.438C281.391 88.4304 282.494 88.2031 283.522 87.7688C284.549 87.3346 285.481 86.7021 286.264 85.9074L288.627 83.5139Z" fill="#C80000"/>
<path d="M306.806 117.948L306.575 118.558C305.487 118.145 304.432 117.731 303.411 117.315C285.325 109.932 276.691 101.292 270.915 84.8903L270.911 84.8864C270.637 84.1146 270.371 83.3247 270.113 82.5169L270.722 82.3201C270.926 83.097 271.224 83.8461 271.61 84.5507C271.926 85.4499 272.251 86.3259 272.586 87.1788C278.014 101.022 286.019 108.933 301.366 115.613C302.138 115.949 302.929 116.282 303.739 116.613C304.68 117.226 305.716 117.677 306.806 117.948Z" fill="#3F3D56"/>
<path d="M279.118 89.8492L278.576 90.3985L298.613 110.195L299.156 109.646L279.118 89.8492Z" fill="#3F3D56"/>
<path d="M109.476 73.4457L109.486 60.7634L102.034 61.4296L104.664 69.4283L95.1164 83.9057C94.5194 84.0397 93.9743 84.3446 93.5475 84.7832C93.1207 85.2217 92.8307 85.7751 92.7128 86.3757C92.595 86.9763 92.6544 87.5982 92.8838 88.1656C93.1132 88.733 93.5027 89.2214 94.0047 89.5712C94.5068 89.9211 95.0998 90.1172 95.7114 90.1357C96.323 90.1543 96.9267 89.9944 97.4491 89.6756C97.9714 89.3568 98.3897 88.8929 98.653 88.3404C98.9163 87.7879 99.0133 87.1707 98.932 86.5641L109.476 73.4457Z" fill="#FFB6B6"/>
</g>
<defs>
<clipPath id="clip0_94_298">
<rect width="345" height="173" fill="white"/>
</clipPath>
</defs>
</svg>
