<svg width="27" height="24" viewBox="0 0 27 24" fill="none" xmlns="http://www.w3.org/2000/svg">
<path d="M13 10C15.2091 10 17 8.24812 17 6.08708C17 3.92604 15.2091 2 13 2C10.7909 2 9 3.92604 9 6.08708C9 8.24812 10.7909 10 13 10Z" stroke="white" stroke-width="2" stroke-linecap="round" stroke-linejoin="round"/>
<path d="M17.3456 22H11.85H6C6.01318 20.5654 6.34593 18.5579 6.96717 17.3092C7.58842 16.0605 8.47789 15.0111 9.55249 14.2592C10.6271 13.5073 11.8518 13.0773 13.1122 13.0095C13.2245 13.0034 13.3369 13.0003 13.4491 13C13.5613 13.0003 13.6736 13.0034 13.786 13.0095C15.0463 13.0773 16.271 13.5073 17.3456 14.2592C17.9636 14.6916 18.5203 15.2223 19 15.8328" stroke="white" stroke-width="2" stroke-linecap="round" stroke-linejoin="round"/>
<path d="M13.5066 18.9092H22.7434" stroke="white" stroke-width="2" stroke-linecap="round" stroke-linejoin="round"/>
</svg>
