<svg width="200" height="200" viewBox="0 0 200 200" fill="none" xmlns="http://www.w3.org/2000/svg">
<path d="M29.1665 125V39.9C29.1665 39.0599 29.1665 38.6399 29.33 38.319C29.4738 38.0368 29.7033 37.8073 29.9855 37.6635C30.3064 37.5 30.7264 37.5 31.5665 37.5H78.1389C78.5146 37.5 78.7024 37.5 78.873 37.5518C79.0239 37.5976 79.1643 37.6728 79.2862 37.773C79.4239 37.8861 79.5281 38.0425 79.7365 38.3551L95.2632 61.6483C95.4716 61.9609 95.5758 62.1172 95.7134 62.2304C95.8353 62.3305 95.9758 62.4057 96.1267 62.4516C96.2972 62.5033 96.4851 62.5033 96.8608 62.5033H151.766C152.607 62.5033 153.027 62.5033 153.347 62.6668C153.63 62.8106 153.859 63.0401 154.003 63.3224C154.166 63.6432 154.166 64.0633 154.166 64.9033V79.1667M87.4998 112.5H137.5" stroke="#222222" stroke-width="3" stroke-linecap="round"/>
<path d="M37.4998 154.167L152.437 154.17C153.059 154.17 153.37 154.17 153.634 154.066C153.868 153.974 154.075 153.825 154.236 153.632C154.418 153.414 154.517 153.119 154.714 152.529L178.114 82.3287C178.469 81.2622 178.647 80.7289 178.54 80.3045C178.447 79.9329 178.215 79.6112 177.892 79.4051C177.523 79.1698 176.961 79.1698 175.837 79.1697L72.5631 79.1666C71.941 79.1665 71.63 79.1665 71.3653 79.2706C71.1316 79.3625 70.9247 79.5116 70.7636 79.7043C70.5812 79.9224 70.4829 80.2175 70.2861 80.8076L46.5625 151.982C46.3002 152.769 46.1691 153.162 45.9259 153.453C45.7111 153.71 45.4352 153.909 45.1237 154.031C44.7708 154.17 44.3561 154.17 43.5267 154.17H32.3665C31.2464 154.17 30.6863 154.17 30.2585 153.952C29.8822 153.76 29.5762 153.454 29.3845 153.078C29.1665 152.65 29.1665 152.09 29.1665 150.97V120.833" stroke="#222222" stroke-width="3"/>
</svg>
