<svg width="200" height="200" viewBox="0 0 200 200" fill="none" xmlns="http://www.w3.org/2000/svg">
<path d="M41.667 100V45.6666C41.667 43.781 41.667 42.8382 42.2528 42.2524C42.8386 41.6666 43.7814 41.6666 45.667 41.6666H90.0101C90.8276 41.6666 91.2364 41.6666 91.6039 41.8189C91.9715 41.9711 92.2605 42.2601 92.8386 42.8382L115.495 65.4951C116.073 66.0731 116.363 66.3621 116.73 66.5144C117.098 66.6666 117.506 66.6666 118.324 66.6666H171C172.886 66.6666 173.829 66.6666 174.415 67.2524C175 67.8382 175 68.781 175 70.6666V154.333C175 156.219 175 157.162 174.415 157.748C173.829 158.333 172.886 158.333 171 158.333H100" stroke="black" stroke-width="8"/>
<path d="M33.333 137.5L54.1663 158.333L95.833 116.667" stroke="black" stroke-width="8"/>
</svg>
