<svg width="80" height="80" viewBox="0 0 80 80" fill="none" xmlns="http://www.w3.org/2000/svg">
<circle cx="40.0003" cy="26.6666" r="11.8333" stroke="#33363F" stroke-width="3" stroke-linecap="round"/>
<path d="M49.3058 25.75C50.4329 23.7977 52.2895 22.3731 54.467 21.7896C56.6446 21.2062 58.9647 21.5116 60.917 22.6388C62.8693 23.766 64.2939 25.6225 64.8774 27.8C65.4608 29.9776 65.1554 32.2977 64.0282 34.25C62.901 36.2023 61.0445 37.6269 58.867 38.2104C56.6894 38.7938 54.3693 38.4884 52.417 37.3612C50.4647 36.234 49.0401 34.3775 48.4566 32.2C47.8732 30.0224 48.1786 27.7023 49.3058 25.75L49.3058 25.75Z" stroke="#33363F" stroke-width="3"/>
<path d="M15.9718 25.75C17.099 23.7977 18.9555 22.3731 21.133 21.7896C23.3106 21.2062 25.6307 21.5116 27.583 22.6388C29.5353 23.766 30.9599 25.6225 31.5434 27.8C32.1268 29.9776 31.8214 32.2977 30.6942 34.25C29.5671 36.2023 27.7105 37.6269 25.533 38.2104C23.3554 38.7938 21.0353 38.4884 19.083 37.3612C17.1307 36.234 15.7061 34.3775 15.1226 32.2C14.5392 30.0224 14.8446 27.7023 15.9718 25.75L15.9718 25.75Z" stroke="#33363F" stroke-width="3"/>
<path d="M56.2722 60.0001L54.8017 60.2962L55.0442 61.5001H56.2722V60.0001ZM69.7967 58.892L71.2619 58.5708L71.2619 58.5708L69.7967 58.892ZM49.2695 49.0352L48.3622 47.8407L46.6274 49.1584L48.4773 50.3089L49.2695 49.0352ZM68.8673 58.5001H56.2722V61.5001H68.8673V58.5001ZM68.3315 59.2132C68.2911 59.0293 68.3464 58.8319 68.4635 58.6942C68.5749 58.5634 68.7277 58.5001 68.8673 58.5001V61.5001C70.3377 61.5001 71.6144 60.179 71.2619 58.5708L68.3315 59.2132ZM56.6668 48.1667C60.9079 48.1667 63.6009 50.1262 65.3689 52.4804C67.178 54.8893 68.001 57.7059 68.3315 59.2133L71.2619 58.5708C70.8909 56.8787 69.9485 53.5826 67.7677 50.6788C65.5459 47.7203 62.0247 45.1667 56.6668 45.1667V48.1667ZM50.1768 50.2297C51.7722 49.0179 53.8665 48.1667 56.6668 48.1667V45.1667C53.2007 45.1667 50.4711 46.2389 48.3622 47.8407L50.1768 50.2297ZM48.4773 50.3089C52.573 52.8562 54.1809 57.2137 54.8017 60.2962L57.7427 59.7039C57.0562 56.2956 55.1914 50.9518 50.0617 47.7614L48.4773 50.3089Z" fill="#33363F"/>
<path d="M30.7307 49.0351L31.5228 50.3089L33.3728 49.1583L31.6379 47.8406L30.7307 49.0351ZM10.2035 58.892L11.6687 59.2133L10.2035 58.892ZM23.7279 60.0001V61.5001H24.9559L25.1984 60.2962L23.7279 60.0001ZM23.3334 48.1667C26.1337 48.1667 28.228 49.0179 29.8234 50.2296L31.6379 47.8406C29.5291 46.2389 26.7995 45.1667 23.3334 45.1667V48.1667ZM11.6687 59.2133C11.9992 57.7059 12.8222 54.8893 14.6314 52.4804C16.3994 50.1262 19.0924 48.1667 23.3334 48.1667V45.1667C17.9756 45.1667 14.4544 47.7203 12.2325 50.6788C10.0518 53.5826 9.10932 56.8787 8.73833 58.5708L11.6687 59.2133ZM11.1328 58.5001C11.2724 58.5001 11.4253 58.5634 11.5367 58.6942C11.6538 58.8319 11.7091 59.0293 11.6687 59.2133L8.73833 58.5708C8.38572 60.179 9.6625 61.5001 11.1328 61.5001V58.5001ZM23.7279 58.5001H11.1328V61.5001H23.7279V58.5001ZM25.1984 60.2962C25.8192 57.2137 27.4271 52.8562 31.5228 50.3089L29.9385 47.7614C24.8087 50.9517 22.9439 56.2956 22.2574 59.7039L25.1984 60.2962Z" fill="#33363F"/>
<path d="M39.9997 46.6667C54.1937 46.6667 56.2995 58.755 56.6119 62.3418C56.6598 62.892 56.2186 63.3334 55.6663 63.3334H24.333C23.7807 63.3334 23.3395 62.892 23.3874 62.3418C23.6998 58.755 25.8056 46.6667 39.9997 46.6667Z" stroke="#33363F" stroke-width="3" stroke-linecap="round"/>
</svg>
