<svg width="307" height="72" viewBox="0 0 307 72" fill="none" xmlns="http://www.w3.org/2000/svg">
<path d="M9.78507 63.1639L11.2043 63.529C10.9013 64.6947 10.3602 65.5834 9.58105 66.1952C8.80683 66.8022 7.86065 67.1032 6.7425 67.0982C5.58528 67.0931 4.64396 66.8546 3.91853 66.3826C3.198 65.9058 2.64932 65.2198 2.27247 64.3246C1.9005 63.4293 1.71682 62.4691 1.72142 61.4437C1.72643 60.3255 1.9432 59.3523 2.37172 58.5242C2.80515 57.6911 3.41589 57.0615 4.20394 56.6353C4.9969 56.2042 5.867 55.9907 6.81426 55.9949C7.88847 55.9997 8.79055 56.2771 9.52052 56.8272C10.2505 57.3773 10.7573 58.1486 11.0409 59.1411L9.64053 59.4645C9.39501 58.6821 9.03623 58.1117 8.56421 57.7532C8.09218 57.3946 7.49728 57.2138 6.77951 57.2106C5.95432 57.207 5.26253 57.4017 4.70412 57.7947C4.15059 58.1878 3.76002 58.7183 3.53242 59.3862C3.30483 60.0493 3.18945 60.7348 3.18628 61.4428C3.18218 62.3559 3.31044 63.1548 3.57104 63.8396C3.83655 64.5195 4.24931 65.0291 4.80932 65.3685C5.36932 65.7079 5.97647 65.879 6.63076 65.8819C7.42665 65.8854 8.1015 65.6589 8.65531 65.2024C9.20913 64.7458 9.58571 64.0663 9.78507 63.1639ZM12.8271 57.7207L12.8339 56.2046L14.1522 56.2105L14.1454 57.7266L12.8271 57.7207ZM12.7857 66.9418L12.8206 59.1636L14.139 59.1694L14.1041 66.9477L12.7857 66.9418ZM19.0019 65.7901L19.1871 66.9555C18.8157 67.0319 18.4835 67.0695 18.1905 67.0682C17.712 67.0661 17.3412 66.9888 17.0782 66.8363C16.8153 66.6837 16.6306 66.4852 16.5243 66.2406C16.418 65.9911 16.3666 65.4708 16.3701 64.6798L16.3902 60.2048L15.4234 60.2005L15.428 59.1751L16.3948 59.1794L16.4034 57.2531L17.718 56.4679L17.7058 59.1852L19.0315 59.191L19.0269 60.2164L17.7012 60.2105L17.6808 64.7588C17.6791 65.1348 17.7 65.3766 17.7435 65.4842C17.7918 65.5919 17.8671 65.6776 17.9694 65.7416C18.0765 65.8055 18.2278 65.8379 18.4231 65.8388C18.5696 65.8394 18.7625 65.8232 19.0019 65.7901ZM20.221 69.9703L20.08 68.7319C20.3678 68.8113 20.6191 68.8515 20.8339 68.8524C21.1269 68.8537 21.3615 68.8059 21.5377 68.709C21.7139 68.6121 21.8585 68.4761 21.9716 68.3008C22.0552 68.1693 22.191 67.8428 22.3789 67.3211C22.4036 67.248 22.4431 67.1407 22.4975 66.9994L19.5808 59.1934L21.0017 59.1997L22.6001 63.7112C22.8075 64.2834 22.9928 64.8848 23.156 65.5155C23.3101 64.9107 23.4934 64.3206 23.7059 63.7454L25.3889 59.2191L26.7072 59.2249L23.7128 67.1219C23.3916 67.975 23.1423 68.5623 22.9651 68.8838C22.7288 69.3173 22.4588 69.6335 22.1552 69.8324C21.8515 70.0361 21.4898 70.137 21.0698 70.1352C20.8159 70.1341 20.533 70.0791 20.221 69.9703ZM37.1794 62.8381L37.185 61.5784L41.7334 61.5911L41.7155 65.5755C41.0148 66.129 40.2927 66.5458 39.5492 66.8257C38.8058 67.1007 38.0435 67.2365 37.2622 67.2331C36.2075 67.2284 35.2491 66.9996 34.3869 66.5465C33.5295 66.0886 32.883 65.4315 32.4474 64.575C32.0118 63.7186 31.7964 62.7631 31.8011 61.7084C31.8058 60.6635 32.0274 59.6903 32.4661 58.7889C32.9096 57.8827 33.5425 57.2117 34.3647 56.7758C35.187 56.34 36.1328 56.1245 37.2021 56.1292C37.9785 56.1326 38.6786 56.2627 39.3025 56.5193C39.9312 56.7711 40.4228 57.1224 40.7773 57.5732C41.1317 58.024 41.4 58.6111 41.5823 59.3346L40.299 59.6805C40.1404 59.1329 39.9421 58.7023 39.7042 58.3888C39.4664 58.0752 39.1257 57.8247 38.6822 57.6372C38.2387 57.4448 37.746 57.3474 37.204 57.345C36.5546 57.3421 35.9926 57.4398 35.5181 57.6379C35.0436 57.8311 34.6592 58.0882 34.3647 58.4091C34.0752 58.7301 33.849 59.0831 33.6862 59.4682C33.4098 60.131 33.2698 60.8506 33.2663 61.627C33.262 62.584 33.422 63.3855 33.7463 64.0315C34.0754 64.6775 34.5542 65.1581 35.1827 65.4734C35.8112 65.7887 36.4794 65.9479 37.1874 65.951C37.8026 65.9537 38.4037 65.8392 38.9907 65.6074C39.5777 65.3707 40.0232 65.1188 40.3271 64.8516L40.3361 62.8521L37.1794 62.8381ZM43.1691 63.1869C43.1756 61.7464 43.5807 60.6813 44.3846 59.9915C45.0561 59.4183 45.8728 59.1338 46.8347 59.1381C47.9041 59.1428 48.7765 59.4982 49.4521 60.2043C50.1276 60.9056 50.4627 61.8738 50.4571 63.1092C50.4526 64.1102 50.2977 64.898 49.9924 65.4729C49.692 66.0428 49.253 66.4852 48.6754 66.8001C48.1027 67.1149 47.477 67.2709 46.7983 67.2679C45.7094 67.2631 44.8297 66.91 44.159 66.2088C43.4932 65.5076 43.1632 64.5003 43.1691 63.1869ZM44.5241 63.1928C44.5196 64.1889 44.7335 64.9369 45.1659 65.4369C45.5982 65.932 46.144 66.181 46.8032 66.1839C47.4574 66.1868 48.003 65.9402 48.4398 65.444C48.8766 64.9479 49.0973 64.1896 49.1019 63.1691C49.1062 62.2072 48.8897 61.4787 48.4525 60.9836C48.0201 60.4836 47.4793 60.2322 46.8299 60.2294C46.1707 60.2265 45.6227 60.4706 45.1859 60.9619C44.7492 61.4531 44.5285 62.1968 44.5241 63.1928ZM54.1525 67.1246L51.2284 59.3333L52.62 59.3394L54.2691 64.0049C54.4475 64.5087 54.6111 65.0319 54.7601 65.5745C54.8791 65.1649 55.0449 64.6724 55.2574 64.0972L57.0072 59.3588L58.3622 59.3648L55.383 67.13L54.1525 67.1246ZM64.8277 64.6668L66.1893 64.8413C65.9708 65.6362 65.5701 66.2522 64.9871 66.689C64.4041 67.1259 63.6609 67.3424 62.7576 67.3384C61.6199 67.3333 60.7182 66.9802 60.0524 66.279C59.3915 65.573 59.0639 64.5877 59.0695 63.323C59.0754 62.0144 59.4169 61.0003 60.0939 60.2806C60.771 59.561 61.6466 59.2035 62.7208 59.2082C63.7609 59.2128 64.6089 59.5706 65.2649 60.2815C65.9209 60.9924 66.246 61.99 66.2402 63.2741C66.2399 63.3523 66.2369 63.4694 66.2313 63.6257L60.4306 63.6C60.4756 64.4547 60.7144 65.1101 61.1469 65.5661C61.5794 66.0221 62.1204 66.2516 62.7698 66.2544C63.2532 66.2566 63.6664 66.1314 64.0093 65.879C64.3522 65.6266 64.625 65.2226 64.8277 64.6668ZM60.5087 62.5164L64.8519 62.5356C64.7963 61.881 64.6324 61.3896 64.3605 61.0612C63.9428 60.5515 63.3996 60.2952 62.7306 60.2923C62.1251 60.2896 61.614 60.49 61.1971 60.8934C60.7852 61.2969 60.5557 61.8379 60.5087 62.5164ZM67.8267 67.185L67.8616 59.4067L69.0481 59.412L69.0428 60.5912C69.348 60.0408 69.628 59.6782 69.8827 59.5036C70.1422 59.3289 70.4258 59.2423 70.7334 59.2436C71.1778 59.2456 71.6288 59.3892 72.0865 59.6744L71.6269 60.8956C71.3055 60.7037 70.9837 60.6071 70.6614 60.6056C70.3733 60.6044 70.1142 60.6911 69.8839 60.8659C69.6536 61.0358 69.489 61.2743 69.3899 61.5815C69.2414 62.0496 69.1658 62.5619 69.1633 63.1186L69.1451 67.1908L67.8267 67.185ZM72.8364 67.2071L72.8713 59.4289L74.0578 59.4341L74.0529 60.5401C74.628 59.6881 75.4551 59.2645 76.5342 59.2693C77.0029 59.2713 77.4322 59.3587 77.8221 59.5313C78.2168 59.6991 78.5112 59.9201 78.7053 60.1944C78.8994 60.4687 79.0347 60.794 79.1111 61.1703C79.1589 61.4147 79.1813 61.842 79.1786 62.4524L79.1572 67.235L77.8388 67.2292L77.86 62.4978C77.8624 61.9607 77.813 61.5601 77.7116 61.296C77.6103 61.027 77.4281 60.8138 77.1652 60.6563C76.9071 60.4941 76.6023 60.4122 76.2507 60.4106C75.6892 60.4081 75.2026 60.5842 74.7908 60.9388C74.384 61.2935 74.1783 61.9688 74.1738 62.9649L74.1548 67.2129L72.8364 67.2071ZM81.186 67.244L81.2208 59.4658L82.4 59.471L82.3951 60.5623C82.641 60.1825 82.967 59.8787 83.3733 59.651C83.7797 59.4185 84.2416 59.3033 84.7592 59.3056C85.3354 59.3082 85.806 59.4299 86.1711 59.6707C86.5412 59.9116 86.8009 60.2473 86.9503 60.6776C87.5696 59.7721 88.3724 59.3216 89.3587 59.3259C90.1302 59.3293 90.7225 59.5468 91.1356 59.9783C91.5488 60.4049 91.7533 61.0626 91.7493 61.9513L91.7254 67.2906L90.4144 67.2848L90.4364 62.3849C90.4387 61.8576 90.3965 61.479 90.3096 61.2491C90.2277 61.0144 90.0747 60.8257 89.8507 60.6831C89.6267 60.5405 89.3634 60.4685 89.0607 60.4672C88.5138 60.4648 88.0589 60.6459 87.6959 61.0105C87.333 61.3702 87.1497 61.9505 87.1461 62.7512L87.1258 67.2702L85.8075 67.2644L85.8302 62.2108C85.8328 61.6248 85.7273 61.1849 85.5138 60.891C85.3003 60.5971 84.9494 60.449 84.4611 60.4469C84.09 60.4452 83.7453 60.5414 83.4271 60.7353C83.1137 60.9292 82.8854 61.2139 82.7421 61.5892C82.5988 61.9645 82.5256 62.5062 82.5224 63.2142L82.5043 67.2498L81.186 67.244ZM99.0168 64.8179L100.378 64.9923C100.16 65.7873 99.7592 66.4032 99.1762 66.8401C98.5932 67.277 97.85 67.4934 96.9467 67.4894C95.809 67.4844 94.9073 67.1313 94.2415 66.4301C93.5806 65.724 93.253 64.7387 93.2586 63.4741C93.2645 62.1655 93.606 61.1513 94.283 60.4317C94.9601 59.712 95.8357 59.3545 96.9099 59.3593C97.95 59.3639 98.798 59.7216 99.454 60.4325C100.11 61.1435 100.435 62.141 100.429 63.4252C100.429 63.5033 100.426 63.6205 100.42 63.7767L94.6197 63.7511C94.6647 64.6058 94.9035 65.2611 95.336 65.7171C95.7685 66.1732 96.3095 66.4026 96.9589 66.4055C97.4423 66.4076 97.8555 66.2825 98.1984 66.0301C98.5413 65.7777 98.8141 65.3736 99.0168 64.8179ZM94.6978 62.6674L99.041 62.6866C98.9854 62.0321 98.8216 61.5406 98.5496 61.2122C98.132 60.7026 97.5887 60.4463 96.9197 60.4433C96.3143 60.4406 95.8031 60.641 95.3863 61.0445C94.9743 61.4479 94.7448 61.9889 94.6978 62.6674ZM102.03 67.3361L102.065 59.5578L103.252 59.5631L103.247 60.669C103.822 59.8171 104.649 59.3935 105.728 59.3982C106.197 59.4003 106.626 59.4877 107.016 59.6603C107.411 59.828 107.705 60.0491 107.899 60.3234C108.093 60.5977 108.229 60.923 108.305 61.2993C108.353 61.5436 108.375 61.971 108.373 62.5813L108.351 67.364L107.033 67.3582L107.054 62.6268C107.056 62.0897 107.007 61.6891 106.906 61.4249C106.804 61.1559 106.622 60.9427 106.359 60.7853C106.101 60.623 105.796 60.5411 105.445 60.5396C104.883 60.5371 104.397 60.7132 103.985 61.0678C103.578 61.4225 103.372 62.0978 103.368 63.0939L103.349 67.3419L102.03 67.3361ZM113.264 66.2065L113.449 67.3719C113.077 67.4484 112.745 67.486 112.452 67.4847C111.974 67.4826 111.603 67.4052 111.34 67.2527C111.077 67.1002 110.892 66.9016 110.786 66.657C110.68 66.4075 110.628 65.8872 110.632 65.0962L110.652 60.6212L109.685 60.6169L109.69 59.5915L110.657 59.5958L110.665 57.6695L111.98 56.8843L111.968 59.6016L113.293 59.6074L113.289 60.6328L111.963 60.627L111.943 65.1753C111.941 65.5512 111.962 65.793 112.005 65.9006C112.054 66.0083 112.129 66.0941 112.231 66.158C112.338 66.2219 112.49 66.2543 112.685 66.2552C112.831 66.2559 113.024 66.2396 113.264 66.2065ZM118.256 63.5186C118.263 62.0782 118.668 61.013 119.472 60.3232C120.143 59.75 120.96 59.4655 121.922 59.4698C122.991 59.4745 123.864 59.8299 124.539 60.536C125.215 61.2373 125.55 62.2056 125.544 63.4409C125.54 64.4419 125.385 65.2298 125.08 65.8046C124.779 66.3746 124.34 66.817 123.763 67.1318C123.19 67.4467 122.564 67.6026 121.885 67.5996C120.797 67.5948 119.917 67.2418 119.246 66.5405C118.58 65.8394 118.25 64.832 118.256 63.5186ZM119.611 63.5246C119.607 64.5206 119.821 65.2687 120.253 65.7686C120.685 66.2637 121.231 66.5127 121.89 66.5156C122.545 66.5185 123.09 66.2719 123.527 65.7758C123.964 65.2796 124.184 64.5213 124.189 63.5008C124.193 62.5389 123.977 61.8104 123.54 61.3153C123.107 60.8154 122.566 60.5639 121.917 60.5611C121.258 60.5582 120.71 60.8023 120.273 61.2936C119.836 61.7848 119.616 62.5285 119.611 63.5246ZM127.394 67.4481L127.424 60.6953L126.26 60.6901L126.264 59.6647L127.429 59.6699L127.433 58.8423C127.435 58.3198 127.483 57.9318 127.577 57.6783C127.705 57.3371 127.929 57.0622 128.247 56.8537C128.57 56.6402 129.02 56.5348 129.596 56.5373C129.967 56.539 130.377 56.5847 130.826 56.6746L130.623 57.8236C130.35 57.7736 130.091 57.748 129.847 57.747C129.447 57.7452 129.163 57.8294 128.996 57.9996C128.83 58.1697 128.745 58.4892 128.743 58.9579L128.74 59.6757L130.256 59.6824L130.251 60.7078L128.735 60.7011L128.705 67.4539L127.394 67.4481ZM138.666 67.4979L134.554 56.7424L136.092 56.7491L138.847 64.5617C139.069 65.1877 139.255 65.7744 139.404 66.322C139.572 65.7368 139.768 65.1517 139.99 64.5667L142.925 56.7793L144.376 56.7857L140.123 67.5044L138.666 67.4979ZM149.4 66.5859C148.91 66.9987 148.437 67.2896 147.983 67.4585C147.533 67.6274 147.049 67.7107 146.531 67.7085C145.677 67.7047 145.021 67.4943 144.564 67.0772C144.107 66.6553 143.88 66.1196 143.883 65.4702C143.884 65.0893 143.971 64.743 144.144 64.4313C144.321 64.1147 144.549 63.8618 144.828 63.6726C145.112 63.4834 145.43 63.3408 145.782 63.2447C146.041 63.1774 146.432 63.1133 146.955 63.0521C148.02 62.9298 148.804 62.7819 149.308 62.6084C149.314 62.4277 149.317 62.313 149.317 62.2642C149.319 61.7271 149.196 61.3481 148.948 61.1273C148.613 60.8279 148.113 60.6768 147.449 60.6739C146.829 60.6711 146.369 60.779 146.071 60.9974C145.777 61.2109 145.558 61.5933 145.414 62.1444L144.125 61.9629C144.245 61.4117 144.44 60.9682 144.71 60.6325C144.98 60.2919 145.369 60.0324 145.878 59.8539C146.387 59.6706 146.975 59.5805 147.644 59.5834C148.308 59.5863 148.848 59.6669 149.262 59.8249C149.676 59.983 149.981 60.1821 150.175 60.4222C150.369 60.6575 150.504 60.9559 150.581 61.3176C150.624 61.5424 150.644 61.9478 150.641 62.5337L150.633 64.2915C150.628 65.5171 150.651 66.2935 150.704 66.6209C150.761 66.9434 150.872 67.254 151.036 67.5526L149.659 67.5465C149.524 67.2725 149.437 66.9522 149.4 66.5859ZM149.303 63.6411C148.824 63.8343 148.105 63.9971 147.148 64.1296C146.606 64.2053 146.222 64.2915 145.997 64.3882C145.772 64.4849 145.598 64.6281 145.475 64.818C145.352 65.003 145.29 65.2103 145.289 65.4398C145.287 65.7913 145.418 66.0849 145.68 66.3204C145.948 66.556 146.338 66.6749 146.851 66.6771C147.359 66.6794 147.811 66.5715 148.207 66.3535C148.604 66.1307 148.896 65.8268 149.083 65.4419C149.226 65.1447 149.299 64.7055 149.301 64.1245L149.303 63.6411ZM152.64 67.5597L152.688 56.8225L154.007 56.8283L153.959 67.5655L152.64 67.5597ZM161.345 65.0932L162.707 65.2677C162.488 66.0626 162.088 66.6785 161.505 67.1154C160.922 67.5523 160.179 67.7688 159.275 67.7648C158.138 67.7597 157.236 67.4066 156.57 66.7054C155.909 65.9994 155.581 65.014 155.587 63.7494C155.593 62.4408 155.934 61.4267 156.612 60.707C157.289 59.9874 158.164 59.6299 159.238 59.6346C160.278 59.6392 161.126 59.997 161.782 60.7079C162.438 61.4188 162.764 62.4163 162.758 63.7005C162.757 63.7786 162.755 63.8958 162.749 64.052L156.948 64.0264C156.993 64.8811 157.232 65.5365 157.665 65.9925C158.097 66.4485 158.638 66.678 159.287 66.6808C159.771 66.683 160.184 66.5578 160.527 66.3054C160.87 66.053 161.143 65.649 161.345 65.0932ZM157.026 62.9428L161.37 62.962C161.314 62.3074 161.15 61.816 160.878 61.4876C160.46 60.9779 159.917 60.7216 159.248 60.7187C158.643 60.716 158.132 60.9164 157.715 61.3198C157.303 61.7233 157.073 62.2643 157.026 62.9428ZM164.359 67.6114L164.394 59.8332L165.58 59.8384L165.575 60.9444C166.151 60.0924 166.978 59.6688 168.057 59.6736C168.525 59.6757 168.955 59.763 169.345 59.9356C169.739 60.1034 170.034 60.3244 170.228 60.5987C170.422 60.873 170.557 61.1983 170.634 61.5746C170.681 61.819 170.704 62.2463 170.701 62.8567L170.68 67.6394L169.361 67.6335L169.383 62.9021C169.385 62.365 169.336 61.9644 169.234 61.7003C169.133 61.4313 168.951 61.2181 168.688 61.0607C168.43 60.8984 168.125 60.8165 167.773 60.8149C167.212 60.8124 166.725 60.9885 166.313 61.3432C165.907 61.6978 165.701 62.3732 165.696 63.3693L165.677 67.6173L164.359 67.6114ZM172.013 67.6452L172.018 66.5759L176.994 60.9143C176.432 60.9411 175.937 60.9535 175.507 60.9516L172.336 60.9376L172.341 59.8683L178.698 59.8964L178.694 60.768L174.46 65.6858L173.643 66.5831C174.234 66.5418 174.789 66.5222 175.306 66.5245L178.902 66.5404L178.897 67.6757L172.013 67.6452ZM185.306 67.704L185.311 66.5614C184.702 67.4376 183.877 67.8734 182.837 67.8688C182.378 67.8668 181.949 67.777 181.549 67.5995C181.154 67.422 180.86 67.2009 180.666 66.9364C180.477 66.667 180.344 66.3393 180.267 65.9532C180.215 65.6942 180.19 65.2839 180.192 64.7224L180.214 59.9031L181.532 59.9089L181.513 64.2228C181.51 64.9113 181.535 65.3753 181.587 65.6148C181.669 65.9618 181.843 66.236 182.111 66.4374C182.379 66.6339 182.71 66.733 183.106 66.7348C183.501 66.7365 183.873 66.6381 184.22 66.4394C184.568 66.2359 184.813 65.9611 184.957 65.615C185.105 65.2641 185.18 64.7566 185.183 64.0926L185.202 59.9251L186.52 59.9309L186.485 67.7092L185.306 67.704ZM193.894 65.237L195.255 65.4115C195.037 66.2064 194.636 66.8223 194.053 67.2592C193.47 67.6961 192.727 67.9125 191.824 67.9086C190.686 67.9035 189.784 67.5504 189.119 66.8492C188.458 66.1432 188.13 65.1578 188.136 63.8932C188.142 62.5846 188.483 61.5705 189.16 60.8508C189.837 60.1311 190.713 59.7737 191.787 59.7784C192.827 59.783 193.675 60.1408 194.331 60.8517C194.987 61.5626 195.312 62.5601 195.306 63.8443C195.306 63.9224 195.303 64.0396 195.297 64.1958L189.497 64.1702C189.542 65.0249 189.78 65.6803 190.213 66.1363C190.646 66.5923 191.187 66.8217 191.836 66.8246C192.319 66.8267 192.732 66.7016 193.075 66.4492C193.418 66.1968 193.691 65.7928 193.894 65.237ZM189.575 63.0866L193.918 63.1057C193.862 62.4512 193.699 61.9597 193.427 61.6314C193.009 61.1217 192.466 60.8654 191.797 60.8625C191.191 60.8598 190.68 61.0602 190.263 61.4636C189.851 61.8671 189.622 62.408 189.575 63.0866ZM196.878 67.7551L196.926 57.0179L198.245 57.0237L198.197 67.7609L196.878 67.7551ZM205.327 66.8329C204.837 67.2458 204.365 67.5367 203.91 67.7056C203.46 67.8745 202.976 67.9578 202.458 67.9555C201.604 67.9518 200.948 67.7413 200.491 67.3243C200.034 66.9023 199.807 66.3667 199.81 65.7172C199.811 65.3364 199.898 64.9901 200.071 64.6784C200.248 64.3617 200.476 64.1088 200.755 63.9196C201.039 63.7305 201.357 63.5878 201.709 63.4917C201.968 63.4245 202.359 63.3603 202.882 63.2992C203.947 63.1769 204.731 63.029 205.235 62.8554C205.241 62.6748 205.244 62.5601 205.244 62.5112C205.246 61.9741 205.124 61.5952 204.876 61.3743C204.54 61.075 204.04 60.9239 203.376 60.9209C202.756 60.9182 202.297 61.026 201.998 61.2444C201.704 61.458 201.485 61.8403 201.341 62.3915L200.053 62.21C200.172 61.6587 200.367 61.2153 200.637 60.8795C200.907 60.5389 201.297 60.2794 201.805 60.101C202.314 59.9177 202.903 59.8275 203.572 59.8305C204.236 59.8334 204.775 59.9139 205.189 60.072C205.603 60.2301 205.908 60.4292 206.102 60.6693C206.296 60.9045 206.432 61.203 206.508 61.5647C206.551 61.7895 206.571 62.1948 206.569 62.7808L206.561 64.5386C206.555 65.7641 206.579 66.5406 206.631 66.868C206.688 67.1905 206.799 67.5011 206.964 67.7997L205.587 67.7936C205.451 67.5195 205.365 67.1993 205.327 66.8329ZM205.231 63.8881C204.751 64.0813 204.033 64.2442 203.075 64.3767C202.533 64.4524 202.149 64.5386 201.924 64.6353C201.699 64.7319 201.525 64.8752 201.402 65.0651C201.279 65.2501 201.217 65.4573 201.216 65.6868C201.215 66.0384 201.345 66.3319 201.608 66.5675C201.875 66.803 202.265 66.922 202.778 66.9242C203.286 66.9265 203.738 66.8186 204.134 66.6006C204.531 66.3778 204.823 66.0739 205.01 65.689C205.153 65.3917 205.226 64.9526 205.228 64.3715L205.231 63.8881Z" fill="black"/>
<path d="M2.15988 19.947L2.21415 7.59914L7.1821 7.62153C8.39409 7.627 9.31068 7.94913 9.93188 8.58794C10.5531 9.21474 10.8615 10.0381 10.857 11.0581C10.8537 11.8261 10.6587 12.4913 10.2723 13.0535C9.88583 13.6038 9.3441 13.9973 8.64705 14.2342L11.1058 19.9873L9.34181 19.9794L7.0798 14.5151L3.76783 14.5002L3.74386 19.9542L2.15988 19.947ZM3.77416 13.0602L7.10413 13.0752C7.74012 13.0781 8.24494 12.8944 8.61857 12.5241C9.0042 12.1538 9.19836 11.6627 9.20105 11.0507C9.20374 10.4387 9.02585 9.95787 8.66738 9.60825C8.30897 9.24663 7.79376 9.06431 7.12177 9.06128L3.7918 9.04627L3.77416 13.0602ZM15.8891 20.2249C14.7131 20.2196 13.8208 19.8316 13.2122 19.0608C12.6157 18.2781 12.3212 17.0108 12.3289 15.2588C12.3364 13.5548 12.6359 12.3082 13.2274 11.5188C13.8309 10.7175 14.7267 10.3196 15.9146 10.3249C16.9466 10.3296 17.7191 10.6811 18.232 11.3794C18.757 12.0658 19.016 13.2009 19.0091 14.7849L19.005 15.7209L13.875 15.6978C13.8822 16.8018 14.0526 17.6126 14.3863 18.1301C14.7201 18.6476 15.2349 18.9079 15.9309 18.9111C16.3989 18.9132 16.7837 18.7289 17.0854 18.3583C17.387 17.9756 17.5393 17.4543 17.5422 16.7943L19.0002 16.8009C18.9956 17.8569 18.7039 18.6956 18.1251 19.317C17.5585 19.9264 16.8131 20.2291 15.8891 20.2249ZM13.8988 14.3839L17.4628 14.3999C17.4667 13.4999 17.3377 12.8154 17.0758 12.3462C16.8138 11.877 16.4249 11.6412 15.9089 11.6389C15.2489 11.6359 14.7619 11.8677 14.4478 12.3343C14.1458 12.789 13.9628 13.4722 13.8988 14.3839ZM20.8273 23.1452L20.8826 10.5633L21.9986 10.5683L22.1918 11.6672L22.2818 11.6676C22.5117 11.2367 22.8071 10.914 23.1681 10.6996C23.5291 10.4732 23.9255 10.361 24.3575 10.363C25.2575 10.367 25.9698 10.7662 26.4943 11.5606C27.0189 12.343 27.2773 13.6042 27.2697 15.3442C27.2647 16.4841 27.1346 17.4196 26.8793 18.1504C26.6241 18.8813 26.2798 19.4197 25.8462 19.7658C25.4248 20.0999 24.95 20.2657 24.422 20.2634C23.966 20.2613 23.5584 20.1695 23.1992 19.9879C22.8401 19.7942 22.5772 19.535 22.4106 19.2103L22.3206 19.2099L22.3033 23.1518L20.8273 23.1452ZM24.0138 18.9475C24.5778 18.9501 24.9989 18.7 25.2771 18.1972C25.5674 17.6825 25.7151 16.8372 25.7203 15.6612L25.7233 14.9772C25.7284 13.8012 25.5881 12.9605 25.3024 12.4553C25.0286 11.938 24.6098 11.6781 24.0458 11.6756C23.4818 11.673 23.0546 11.9471 22.7641 12.4978C22.4857 13.0486 22.3441 13.8699 22.3393 14.9619L22.3363 15.6459C22.3315 16.7379 22.4659 17.5605 22.7395 18.1138C23.025 18.6671 23.4498 18.945 24.0138 18.9475ZM31.3889 20.2948C30.681 20.2916 30.1119 20.079 29.6817 19.6571C29.2636 19.2232 29.0569 18.4782 29.0615 17.4223L29.0915 10.6003L30.5675 10.607L30.538 17.3209C30.5351 17.9809 30.6532 18.4254 30.8922 18.6545C31.1432 18.8716 31.4667 18.9811 31.8627 18.9829C32.3307 18.985 32.7397 18.7588 33.0897 18.3044C33.4517 17.85 33.6345 17.2149 33.6381 16.3989L33.6635 10.6209L35.1395 10.6276L35.0979 20.0955L33.9819 20.0905L33.7887 18.9916L33.6807 18.9911C33.4146 19.4579 33.0832 19.7924 32.6863 19.9946C32.2894 20.1968 31.8569 20.2969 31.3889 20.2948ZM40.7318 20.3369C40.2998 20.3349 39.9043 20.2251 39.5453 20.0075C39.1863 19.7779 38.8937 19.4466 38.6676 19.0136L38.5776 19.0132L38.3748 20.1103L37.2588 20.1052L37.316 7.09135L38.792 7.098L38.7725 11.544L38.8625 11.5444C39.032 11.1971 39.2972 10.9283 39.658 10.7379C40.0189 10.5356 40.4274 10.4354 40.8833 10.4375C41.4113 10.4398 41.8846 10.616 42.303 10.9659C42.7336 11.3038 43.0732 11.8393 43.322 12.5725C43.5708 13.2936 43.6927 14.2302 43.6876 15.3822C43.68 17.1221 43.4104 18.3869 42.879 19.1765C42.3475 19.9542 41.6318 20.3409 40.7318 20.3369ZM40.4316 19.0215C40.9956 19.0241 41.4167 18.774 41.6949 18.2712C41.9852 17.7565 42.1329 16.9112 42.1381 15.7352L42.1411 15.0512C42.1462 13.8752 42.0059 13.0345 41.7202 12.5293C41.4464 12.012 41.0276 11.7521 40.4636 11.7496C39.8996 11.747 39.4723 12.0271 39.1819 12.5898C38.9034 13.1526 38.7617 13.9919 38.7568 15.1079L38.7541 15.7199C38.7493 16.8119 38.8837 17.6345 39.1573 18.1878C39.4428 18.7411 39.8676 19.019 40.4316 19.0215ZM45.2877 20.1414L45.3449 7.12754L46.8209 7.13419L46.7637 20.1481L45.2877 20.1414ZM48.9712 20.158L49.0128 10.6901L50.4888 10.6968L50.4472 20.1647L48.9712 20.158ZM48.9849 8.85396L48.9924 7.14398L50.5224 7.15087L50.5149 8.86086L48.9849 8.85396ZM55.6399 20.4041C54.5239 20.399 53.7037 19.9993 53.1792 19.205C52.6667 18.3987 52.4142 17.1435 52.4217 15.4395C52.4292 13.7355 52.6987 12.4887 53.2301 11.6991C53.7617 10.8975 54.5794 10.4992 55.6834 10.5042C56.7154 10.5088 57.452 10.8301 57.8932 11.4681C58.3464 12.1062 58.5703 13.0312 58.565 14.2432L57.035 14.2363C57.0386 13.4203 56.9453 12.8139 56.755 12.417C56.5648 12.0202 56.2056 11.8205 55.6776 11.8182C55.0896 11.8155 54.6564 12.0896 54.378 12.6403C54.1116 13.1911 53.976 14.0125 53.9712 15.1045L53.9682 15.7885C53.9634 16.8805 54.0918 17.7031 54.3533 18.2563C54.6269 18.8095 55.0577 19.0874 55.6457 19.0901C56.1737 19.0925 56.5466 18.8901 56.7644 18.4831C56.9822 18.0641 57.0928 17.4646 57.0963 16.6846L58.5543 16.6912C58.5513 17.3512 58.4527 17.9627 58.2582 18.5259C58.0637 19.089 57.7497 19.5436 57.3162 19.8896C56.8947 20.2357 56.3359 20.4072 55.6399 20.4041ZM67.3343 20.4568C66.2303 20.4518 65.3921 20.052 64.8195 19.2574C64.2471 18.4509 63.9646 17.1956 63.9721 15.4916C63.9796 13.7876 64.2731 12.5409 64.8525 11.7515C65.4321 10.9501 66.2738 10.5519 67.3778 10.5569C68.4818 10.5619 69.32 10.9676 69.8925 11.7742C70.465 12.5688 70.7475 13.8181 70.74 15.5221C70.7325 17.2261 70.439 18.4788 69.8595 19.2802C69.28 20.0696 68.4383 20.4618 67.3343 20.4568ZM67.3401 19.1428C67.9521 19.1456 68.4093 18.8716 68.7117 18.321C69.0261 17.7704 69.1857 16.9491 69.1905 15.8571L69.1935 15.1731C69.1983 14.0811 69.046 13.2584 68.7364 12.705C68.4388 12.1517 67.984 11.8736 67.372 11.8709C66.76 11.8681 66.2968 12.142 65.9824 12.6926C65.68 13.2433 65.5264 14.0646 65.5216 15.1566L65.5186 15.8406C65.5138 16.9325 65.6602 17.7552 65.9577 18.3086C66.2673 18.862 66.7281 19.14 67.3401 19.1428ZM72.4302 20.2638L72.466 12.1098L71.638 12.1061L71.6438 10.7921L72.4718 10.7958L72.4784 9.28386C72.48 8.92386 72.5356 8.57611 72.645 8.2406C72.7665 7.90514 72.9597 7.63601 73.2246 7.4332C73.5015 7.21845 73.88 7.11215 74.36 7.11432C74.576 7.11529 74.7979 7.14029 75.0257 7.18932C75.2535 7.22634 75.4453 7.27521 75.601 7.33591L75.5965 8.3619L74.8045 8.35833C74.2405 8.35579 73.9573 8.64252 73.9547 9.21851L73.9478 10.8025L75.5858 10.8099L75.58 12.1239L73.942 12.1165L73.9062 20.2704L72.4302 20.2638ZM82.3847 20.4886C81.9527 20.4867 81.6112 20.3771 81.3601 20.16C81.1211 19.9429 80.9483 19.6721 80.8417 19.3477C80.7472 19.0112 80.7007 18.663 80.7023 18.303L80.7293 12.1471L79.9194 12.1434L79.9251 10.8294L80.7351 10.8331L81.0707 8.20657L82.2227 8.21177L82.2111 10.8397L83.4891 10.8455L83.4833 12.1595L82.2053 12.1537L82.1781 18.3457C82.1756 18.9217 82.4563 19.2109 83.0203 19.2135L83.4523 19.2154L83.4478 20.2414C83.3275 20.3129 83.1652 20.3721 82.961 20.4192C82.7568 20.4663 82.5647 20.4894 82.3847 20.4886ZM84.8072 20.3195L84.8644 7.30566L86.3403 7.31232L86.3204 11.8483L86.4284 11.8488C86.6703 11.4298 86.9656 11.1252 87.3144 10.9347C87.6753 10.7444 88.0897 10.6502 88.5577 10.6523C89.2657 10.6555 89.8287 10.8741 90.2468 11.308C90.677 11.7299 90.8897 12.4689 90.8851 13.5249L90.8551 20.3468L89.3791 20.3401L89.4086 13.6262C89.4115 12.9662 89.2875 12.5277 89.0364 12.3105C88.7974 12.0814 88.4799 11.966 88.0839 11.9642C87.6159 11.9621 87.2009 12.1882 86.8389 12.6426C86.4889 13.097 86.3121 13.7323 86.3085 14.5482L86.2832 20.3262L84.8072 20.3195ZM96.2731 20.5872C95.0971 20.5819 94.2048 20.1939 93.5962 19.4231C92.9996 18.6404 92.7052 17.3731 92.7129 15.6211C92.7204 13.9171 93.0198 12.6705 93.6113 11.8811C94.2149 11.0798 95.1106 10.6819 96.2986 10.6872C97.3306 10.6919 98.103 11.0434 98.616 11.7417C99.141 12.4281 99.4 13.5632 99.393 15.1472L99.3889 16.0832L94.259 16.0601C94.2661 17.1641 94.4365 17.9749 94.7703 18.4924C95.104 19.0099 95.6189 19.2703 96.3149 19.2734C96.7829 19.2755 97.1677 19.0912 97.4693 18.7206C97.771 18.3379 97.9233 17.8166 97.9262 17.1566L99.3842 17.1632C99.3795 18.2192 99.0878 19.0579 98.5091 19.6793C97.9424 20.2887 97.1971 20.5914 96.2731 20.5872ZM94.2827 14.7462L97.8467 14.7623C97.8507 13.8623 97.7217 13.1777 97.4597 12.7085C97.1978 12.2393 96.8088 12.0035 96.2928 12.0012C95.6328 11.9982 95.1458 12.2301 94.8318 12.6966C94.5298 13.1513 94.3467 13.8345 94.2827 14.7462ZM105.501 20.4128L105.555 8.06493L109.965 8.0848C110.781 8.08848 111.458 8.24154 111.997 8.54397C112.548 8.84645 112.96 9.26832 113.233 9.80955C113.507 10.3508 113.642 10.9814 113.639 11.7014C113.636 12.4214 113.483 13.0567 113.181 13.6074C112.878 14.158 112.45 14.5881 111.897 14.8976C111.356 15.1951 110.701 15.3422 109.933 15.3387L107.107 15.326L107.085 20.4199L105.501 20.4128ZM107.113 13.886L109.885 13.8985C110.521 13.9014 111.026 13.6996 111.4 13.2933C111.786 12.8871 111.98 12.3539 111.983 11.6939C111.986 11.0219 111.808 10.4931 111.45 10.1075C111.092 9.7219 110.577 9.52758 109.905 9.52455L107.133 9.51205L107.113 13.886ZM115.164 20.4564L115.221 7.44249L116.697 7.44914L116.678 11.9851L116.786 11.9856C117.027 11.5667 117.323 11.262 117.672 11.0716C118.032 10.8812 118.447 10.7871 118.915 10.7892C119.623 10.7924 120.186 11.0109 120.604 11.4448C121.034 11.8667 121.247 12.6057 121.242 13.6617L121.212 20.4836L119.736 20.477L119.766 13.763C119.769 13.103 119.645 12.6645 119.394 12.4473C119.155 12.2183 118.837 12.1028 118.441 12.101C117.973 12.0989 117.558 12.3251 117.196 12.7794C116.846 13.2339 116.669 13.8691 116.666 14.6851L116.64 20.463L115.164 20.4564ZM123.607 20.4944L123.649 11.0265L125.125 11.0332L125.083 20.5011L123.607 20.4944ZM123.621 9.19037L123.628 7.48038L125.158 7.48728L125.151 9.19726L123.621 9.19037ZM127.289 20.511L127.346 7.49714L128.822 7.50379L128.765 20.5177L127.289 20.511ZM130.972 20.5276L131.014 11.0597L132.49 11.0664L132.448 20.5343L130.972 20.5276ZM130.986 9.22356L130.994 7.51358L132.524 7.52048L132.516 9.23046L130.986 9.22356ZM134.82 23.659L134.876 11.0771L135.992 11.0821L136.185 12.181L136.275 12.1814C136.505 11.7505 136.8 11.4278 137.161 11.2134C137.522 10.987 137.919 10.8748 138.351 10.8768C139.251 10.8808 139.963 11.28 140.487 12.0744C141.012 12.8568 141.27 14.118 141.263 15.858C141.258 16.9979 141.128 17.9334 140.872 18.6642C140.617 19.3951 140.273 19.9335 139.839 20.2796C139.418 20.6137 138.943 20.7795 138.415 20.7772C137.959 20.7751 137.551 20.6833 137.192 20.5017C136.833 20.308 136.57 20.0488 136.404 19.7241L136.314 19.7237L136.296 23.6656L134.82 23.659ZM138.007 19.4613C138.571 19.4639 138.992 19.2138 139.27 18.711C139.56 18.1963 139.708 17.351 139.713 16.175L139.716 15.491C139.721 14.315 139.581 13.4743 139.295 12.9691C139.022 12.4518 138.603 12.1919 138.039 12.1894C137.475 12.1868 137.048 12.4609 136.757 13.0116C136.479 13.5624 136.337 14.3837 136.332 15.4757L136.329 16.1597C136.324 17.2517 136.459 18.0743 136.732 18.6276C137.018 19.1809 137.443 19.4588 138.007 19.4613ZM143.029 23.696L143.085 11.1141L144.201 11.1191L144.394 12.218L144.484 12.2184C144.714 11.7875 145.009 11.4648 145.37 11.2504C145.731 11.024 146.127 10.9118 146.559 10.9138C147.459 10.9178 148.172 11.317 148.696 12.1114C149.221 12.8938 149.479 14.155 149.472 15.895C149.467 17.0349 149.336 17.9704 149.081 18.7012C148.826 19.4321 148.482 19.9705 148.048 20.3166C147.627 20.6507 147.152 20.8165 146.624 20.8142C146.168 20.8121 145.76 20.7203 145.401 20.5387C145.042 20.345 144.779 20.0858 144.613 19.7611L144.523 19.7607L144.505 23.7026L143.029 23.696ZM146.216 19.4983C146.78 19.5009 147.201 19.2507 147.479 18.748C147.769 18.2333 147.917 17.388 147.922 16.212L147.925 15.528C147.93 14.352 147.79 13.5113 147.504 13.0061C147.231 12.4888 146.812 12.2289 146.248 12.2264C145.684 12.2238 145.256 12.4979 144.966 13.0486C144.688 13.5994 144.546 14.4207 144.541 15.5127L144.538 16.1967C144.533 17.2887 144.668 18.1113 144.941 18.6646C145.227 19.2179 145.652 19.4958 146.216 19.4983ZM151.486 20.6201L151.527 11.1522L153.003 11.1588L152.962 20.6267L151.486 20.6201ZM151.499 9.31602L151.507 7.60604L153.037 7.61294L153.029 9.32292L151.499 9.31602ZM155.347 20.6375L155.389 11.1696L156.505 11.1746L156.698 12.2735L156.806 12.274C157.072 11.8072 157.404 11.4727 157.801 11.2704C158.198 11.0682 158.63 10.9682 159.098 10.9703C159.806 10.9735 160.369 11.192 160.787 11.6259C161.217 12.0479 161.43 12.7868 161.425 13.8428L161.395 20.6647L159.919 20.6581L159.949 13.9442C159.952 13.2842 159.828 12.8456 159.577 12.6285C159.338 12.3994 159.02 12.284 158.624 12.2822C158.156 12.2801 157.741 12.5062 157.379 12.9606C157.029 13.415 156.852 14.0502 156.849 14.8662L156.823 20.6441L155.347 20.6375ZM166.813 20.9052C165.637 20.8999 164.745 20.5118 164.136 19.7411C163.54 18.9584 163.245 17.6911 163.253 15.9391C163.261 14.2351 163.56 12.9884 164.152 12.1991C164.755 11.3978 165.651 10.9998 166.839 11.0052C167.871 11.0098 168.643 11.3613 169.156 12.0596C169.681 12.746 169.94 13.8812 169.933 15.4652L169.929 16.4012L164.799 16.378C164.806 17.4821 164.977 18.2929 165.311 18.8104C165.644 19.3279 166.159 19.5882 166.855 19.5913C167.323 19.5934 167.708 19.4092 168.01 19.0385C168.311 18.6559 168.464 18.1346 168.466 17.4746L169.924 17.4812C169.92 18.5371 169.628 19.3758 169.049 19.9972C168.483 20.6067 167.737 20.9093 166.813 20.9052ZM164.823 15.0641L168.387 15.0802C168.391 14.1802 168.262 13.4956 168 13.0264C167.738 12.5572 167.349 12.3215 166.833 12.3192C166.173 12.3162 165.686 12.548 165.372 13.0146C165.07 13.4692 164.887 14.1524 164.823 15.0641ZM174.32 20.939C173.6 20.9358 173.013 20.8011 172.558 20.5351C172.115 20.2571 171.793 19.9076 171.591 19.4867C171.388 19.0658 171.288 18.6213 171.291 18.1533C171.291 18.0213 171.292 17.9253 171.292 17.8653C171.304 17.8054 171.31 17.7694 171.31 17.7574L172.858 17.7644L172.857 17.9444C172.855 18.5324 173.003 18.965 173.302 19.2424C173.601 19.5077 173.966 19.6414 174.398 19.6433C174.782 19.6451 175.113 19.5266 175.39 19.2878C175.679 19.0491 175.824 18.7018 175.826 18.2458C175.828 17.8498 175.721 17.5433 175.506 17.3263C175.303 17.0974 175.04 16.9162 174.717 16.7827C174.393 16.6373 174.046 16.5037 173.674 16.382C173.303 16.2484 172.956 16.0848 172.632 15.8913C172.309 15.6979 172.04 15.4327 171.826 15.0957C171.623 14.7468 171.523 14.2903 171.526 13.7263C171.528 13.1623 171.651 12.6829 171.892 12.288C172.134 11.8811 172.477 11.5706 172.922 11.3566C173.367 11.1426 173.89 11.037 174.49 11.0397C175.078 11.0423 175.569 11.1645 175.964 11.4063C176.371 11.6362 176.676 11.9495 176.878 12.3464C177.092 12.7434 177.198 13.1759 177.196 13.6439C177.196 13.7039 177.19 13.7699 177.178 13.8418C177.177 13.9138 177.177 13.9618 177.177 13.9858L175.647 13.9789L175.648 13.8169C175.649 13.4449 175.555 13.1085 175.364 12.8076C175.185 12.4948 174.844 12.3373 174.34 12.335C173.992 12.3334 173.722 12.4042 173.529 12.5473C173.349 12.6905 173.222 12.864 173.149 13.0676C173.088 13.2594 173.057 13.4452 173.056 13.6252C173.055 13.9732 173.156 14.2437 173.359 14.4366C173.574 14.6296 173.843 14.7868 174.167 14.9082C174.49 15.0297 174.838 15.1573 175.209 15.2909C175.581 15.4126 175.928 15.5762 176.251 15.7817C176.574 15.9871 176.837 16.2703 177.039 16.6312C177.254 16.9802 177.36 17.4487 177.357 18.0367C177.354 18.7087 177.22 19.2601 176.954 19.6909C176.688 20.1217 176.327 20.438 175.87 20.64C175.425 20.842 174.908 20.9417 174.32 20.939Z" fill="black"/>
<path d="M26.5265 27.1868L21.6557 46.0688L16.4506 46.0458L13.4689 34.3402L10.4712 46.0194L5.26617 45.9964L0.564853 27.0721L5.49059 27.0939L8.03623 39.7879L11.2669 27.1194L15.9768 27.1402L18.9287 39.836L21.7277 27.1656L26.5265 27.1868ZM42.2538 39.0377C42.2433 41.3821 41.5918 43.2285 40.2993 44.5769C39.0152 45.917 37.201 46.5818 34.8567 46.5715C32.5292 46.5612 30.7211 45.8803 29.4322 44.5289C28.1518 43.1691 27.5169 41.317 27.5274 38.9726C27.538 36.6028 28.1895 34.7522 29.482 33.4206C30.7829 32.0807 32.5971 31.4158 34.9246 31.4261C37.2605 31.4364 39.0686 32.1215 40.349 33.4814C41.6294 34.8327 42.2644 36.6848 42.2538 39.0377ZM37.6961 39.0429C37.6999 38.1966 37.6311 37.4938 37.4898 36.9346C37.3569 36.3669 37.1685 35.9133 36.9246 35.5737C36.6638 35.217 36.3687 34.9703 36.0392 34.8334C35.7098 34.6881 35.3335 34.6145 34.9103 34.6126C34.5125 34.6109 34.1525 34.6727 33.8303 34.7983C33.5082 34.9153 33.2109 35.1468 32.9386 35.4926C32.6832 35.8215 32.478 36.2734 32.3231 36.8483C32.1682 37.4231 32.0888 38.1464 32.0848 39.0181C32.0809 39.8899 32.1497 40.5969 32.2912 41.1392C32.4326 41.673 32.6169 42.1013 32.844 42.4239C33.0795 42.755 33.3746 42.9975 33.7294 43.1514C34.0842 43.3053 34.4774 43.3832 34.909 43.3852C35.2645 43.3867 35.6245 43.3121 35.9892 43.1614C36.3622 43.0107 36.6595 42.7835 36.8809 42.4798C37.1449 42.117 37.3457 41.682 37.4834 41.1748C37.6212 40.6592 37.6921 39.9485 37.6961 39.0429ZM54.2004 36.1578L53.8323 36.1562C53.6633 36.0962 53.418 36.0528 53.0965 36.026C52.7751 35.9907 52.4197 35.9722 52.0304 35.9705C51.5649 35.9684 51.0737 36.034 50.5568 36.1671C50.0484 36.3003 49.5526 36.4589 49.0693 36.643L49.0265 46.1897L44.5832 46.1701L44.6471 31.9134L49.0904 31.933L49.0813 33.977C49.2852 33.7917 49.5656 33.5602 49.9223 33.2824C50.2875 32.9963 50.6186 32.7692 50.9156 32.6013C51.2381 32.408 51.6112 32.2446 52.035 32.1111C52.4672 31.9691 52.8738 31.899 53.2547 31.9007C53.3985 31.9013 53.5593 31.9062 53.737 31.9155C53.9147 31.9247 54.0755 31.9381 54.2193 31.9557L54.2004 36.1578ZM70.1259 46.2829L64.8447 46.2596L61.0132 40.0346L60.3235 40.9583L60.2998 46.2395L55.8565 46.2199L55.9451 26.4662L60.3884 26.4858L60.3388 37.556L64.5786 32.0015L69.8217 32.0246L64.8049 38.1471L70.1259 46.2829ZM78.8204 46.7022C76.129 46.6903 74.0668 46.038 72.6338 44.7452C71.2092 43.4524 70.5023 41.6169 70.513 39.2387C70.5234 36.9112 71.2003 35.0565 72.5438 33.6744C73.8872 32.2923 75.7608 31.6065 78.1644 31.6171C80.348 31.6268 81.9872 32.2223 83.0822 33.4035C84.1772 34.5848 84.7198 36.2715 84.7099 38.4635L84.7028 40.0631L74.9656 40.0201C75.0049 40.6804 75.1421 41.2354 75.377 41.685C75.612 42.1262 75.9236 42.4788 76.3118 42.7429C76.6914 43.0069 77.1349 43.1993 77.6422 43.32C78.1495 43.4323 78.7036 43.4898 79.3045 43.4924C79.8208 43.4947 80.3288 43.4419 80.8287 43.3341C81.3286 43.2178 81.7863 43.0675 82.2018 42.8831C82.5665 42.7239 82.9015 42.5519 83.2071 42.3671C83.521 42.1822 83.7757 42.0183 83.971 41.8753L84.4407 41.8774L84.4243 45.5463C84.0597 45.6886 83.7248 45.8225 83.4195 45.9481C83.1228 46.0653 82.7117 46.1862 82.1864 46.3108C81.7035 46.4357 81.2037 46.5308 80.6871 46.5962C80.1789 46.6701 79.5567 46.7055 78.8204 46.7022ZM80.3349 37.3651C80.3138 36.4255 80.0969 35.7094 79.6844 35.2167C79.2804 34.724 78.6552 34.4758 77.8088 34.472C76.9455 34.4682 76.2673 34.7234 75.7741 35.2375C75.2894 35.7516 75.0196 36.4529 74.9649 37.3413L80.3349 37.3651ZM96.577 36.345L96.2088 36.3434C96.0398 36.2834 95.7946 36.24 95.4731 36.2132C95.1516 36.1779 94.7962 36.1594 94.4069 36.1577C93.9414 36.1556 93.4502 36.2212 92.9333 36.3543C92.4249 36.4875 91.9291 36.6461 91.4458 36.8302L91.403 46.3769L86.9597 46.3573L87.0236 32.1006L91.467 32.1202L91.4578 34.1642C91.6618 33.9789 91.9421 33.7474 92.2988 33.4696C92.664 33.1835 92.9951 32.9564 93.2921 32.7885C93.6146 32.5952 93.9877 32.4318 94.4115 32.2983C94.8438 32.1563 95.2504 32.0862 95.6312 32.0879C95.7751 32.0885 95.9359 32.0934 96.1136 32.1027C96.2913 32.1119 96.452 32.1253 96.5958 32.1429L96.577 36.345ZM104.111 26.679L100.637 34.1412L97.793 34.1287L99.8197 26.66L104.111 26.679ZM109.733 46.8515C108.684 46.8468 107.69 46.7282 106.751 46.4955C105.821 46.2629 105.052 45.9929 104.444 45.6855L104.461 41.9277L104.829 41.9294C105.04 42.0911 105.281 42.2699 105.551 42.4658C105.821 42.6616 106.196 42.8664 106.678 43.0801C107.092 43.2766 107.556 43.4479 108.072 43.5941C108.596 43.7318 109.163 43.8021 109.772 43.8047C110.398 43.8075 110.949 43.7126 111.424 43.52C111.907 43.3275 112.15 43.0197 112.152 42.5965C112.153 42.2664 112.044 42.0163 111.825 41.846C111.606 41.6758 111.179 41.5131 110.545 41.3579C110.207 41.2718 109.78 41.1811 109.264 41.0857C108.748 40.9818 108.292 40.8656 107.894 40.7368C106.779 40.3849 105.939 39.8692 105.375 39.1896C104.819 38.5016 104.544 37.6032 104.549 36.4945C104.552 35.8597 104.698 35.2637 104.989 34.7064C105.287 34.1406 105.721 33.639 106.29 33.2014C106.859 32.7722 107.559 32.4326 108.39 32.1823C109.229 31.9321 110.173 31.8093 111.222 31.814C112.221 31.8184 113.139 31.924 113.976 32.1308C114.813 32.3292 115.519 32.5693 116.093 32.8511L116.077 36.4565L115.721 36.455C115.569 36.3358 115.329 36.1782 115 35.9821C114.671 35.7775 114.35 35.6026 114.037 35.4573C113.666 35.2864 113.247 35.1449 112.782 35.0328C112.326 34.9208 111.856 34.8637 111.374 34.8615C110.731 34.8587 110.184 34.9663 109.735 35.1844C109.294 35.4025 109.072 35.6935 109.071 36.0574C109.069 36.379 109.178 36.6334 109.397 36.8206C109.616 37.0078 110.094 37.1918 110.829 37.3728C111.21 37.4676 111.645 37.5626 112.136 37.6579C112.635 37.7447 113.112 37.8653 113.569 38.0197C114.591 38.3543 115.363 38.8444 115.885 39.4899C116.416 40.127 116.678 40.9746 116.674 42.0325C116.671 42.7011 116.511 43.3394 116.195 43.9474C115.88 44.5469 115.433 45.0527 114.856 45.4649C114.244 45.9108 113.523 46.2546 112.693 46.4964C111.871 46.7382 110.884 46.8566 109.733 46.8515ZM124.614 46.5237L131.084 27.6487L136.264 27.6716L142.565 46.603L137.677 46.5814L136.514 42.7168L130.572 42.6906L129.374 46.5447L124.614 46.5237ZM135.488 39.2845L133.586 33.0427L131.629 39.2675L135.488 39.2845ZM153.378 30.2482L153.036 30.2467C152.867 30.1952 152.6 30.1305 152.237 30.0528C151.882 29.9665 151.543 29.9227 151.222 29.9213C150.324 29.9174 149.71 30.0797 149.379 30.4083C149.055 30.7369 148.892 31.3541 148.888 32.2597L148.887 32.3739L152.417 32.3895L152.403 35.4871L149.026 35.4722L148.976 46.6313L144.532 46.6117L144.582 35.4526L142.805 35.4447L142.819 32.3471L144.596 32.355L144.598 31.9614C144.606 30.2179 145.069 28.9124 145.987 28.0447C146.905 27.177 148.29 26.7472 150.144 26.7554C150.787 26.7582 151.388 26.7863 151.946 26.8395C152.505 26.8843 152.987 26.9457 153.393 27.0237L153.378 30.2482ZM163.331 30.2922L162.989 30.2907C162.82 30.2392 162.553 30.1745 162.19 30.0967C161.835 30.0105 161.496 29.9667 161.175 29.9653C160.277 29.9613 159.663 30.1236 159.332 30.4523C159.008 30.7809 158.845 31.398 158.841 32.3036L158.84 32.4179L162.37 32.4335L162.356 35.5311L158.979 35.5162L158.929 46.6753L154.485 46.6556L154.535 35.4966L152.758 35.4887L152.772 32.3911L154.549 32.3989L154.551 32.0054C154.559 30.2619 155.022 28.9563 155.94 28.0886C156.858 27.2209 158.243 26.7912 160.097 26.7994C160.74 26.8022 161.341 26.8302 161.899 26.8835C162.458 26.9283 162.94 26.9897 163.346 27.0676L163.331 30.2922ZM171.971 43.0131L171.984 40.0424C171.23 40.1153 170.621 40.1803 170.155 40.2375C169.689 40.2862 169.232 40.39 168.782 40.5488C168.393 40.6825 168.087 40.8885 167.866 41.1668C167.653 41.4367 167.545 41.8002 167.543 42.2572C167.54 42.9258 167.716 43.3879 168.07 43.6433C168.433 43.8904 168.966 44.0155 169.668 44.0186C170.058 44.0203 170.456 43.9332 170.863 43.7572C171.27 43.5813 171.639 43.3333 171.971 43.0131ZM171.961 45.2221C171.655 45.4746 171.379 45.7019 171.133 45.904C170.895 46.106 170.572 46.3077 170.165 46.5091C169.766 46.702 169.376 46.8484 168.995 46.9482C168.622 47.0482 168.097 47.0966 167.42 47.0936C166.159 47.0881 165.111 46.6602 164.277 45.8102C163.452 44.9602 163.042 43.892 163.048 42.6055C163.052 41.5476 163.268 40.6937 163.694 40.0439C164.12 39.3941 164.732 38.8805 165.529 38.5032C166.335 38.1174 167.297 37.8508 168.414 37.7034C169.532 37.556 170.735 37.4428 172.021 37.3639L172.022 37.2877C172.025 36.5006 171.736 35.9576 171.153 35.6588C170.579 35.3516 169.712 35.1954 168.553 35.1903C168.028 35.188 167.414 35.2826 166.71 35.4742C166.007 35.6573 165.321 35.8954 164.651 36.1887L164.27 36.187L164.285 32.7466C164.726 32.6216 165.437 32.4767 166.42 32.3117C167.403 32.1383 168.393 32.0538 169.392 32.0582C171.846 32.0691 173.63 32.4875 174.744 33.3133C175.866 34.1308 176.423 35.3774 176.415 37.0532L176.372 46.7523L171.954 46.7328L171.961 45.2221ZM184.103 46.7865L179.66 46.7668L179.724 32.5101L184.167 32.5298L184.103 46.7865ZM184.303 30.4991L179.606 30.4784L179.622 27.0126L184.319 27.0333L184.303 30.4991ZM197.123 36.7892L196.755 36.7876C196.586 36.7276 196.34 36.6842 196.019 36.6574C195.698 36.6221 195.342 36.6036 194.953 36.6019C194.487 36.5998 193.996 36.6654 193.479 36.7985C192.971 36.9317 192.475 37.0903 191.992 37.2743L191.949 46.8211L187.506 46.8015L187.57 32.5448L192.013 32.5644L192.004 34.6084C192.208 34.4231 192.488 34.1915 192.845 33.9138C193.21 33.6277 193.541 33.4006 193.838 33.2327C194.16 33.0394 194.534 32.876 194.957 32.7425C195.39 32.6005 195.796 32.5304 196.177 32.532C196.321 32.5327 196.482 32.5376 196.659 32.5469C196.837 32.5561 196.998 32.5695 197.142 32.5871L197.123 36.7892ZM203.119 47.264C202.069 47.2594 201.076 47.1407 200.137 46.9081C199.207 46.6755 198.438 46.4055 197.83 46.0981L197.847 42.3403L198.215 42.3419C198.426 42.5037 198.666 42.6825 198.936 42.8783C199.206 43.0742 199.582 43.279 200.064 43.4927C200.477 43.6892 200.942 43.8605 201.458 44.0067C201.982 44.1444 202.549 44.2146 203.158 44.2173C203.784 44.2201 204.335 44.1252 204.81 43.9326C205.293 43.7401 205.536 43.4322 205.537 43.009C205.539 42.679 205.43 42.4288 205.211 42.2586C204.991 42.0883 204.565 41.9256 203.931 41.7705C203.593 41.6844 203.166 41.5936 202.65 41.4982C202.134 41.3944 201.677 41.2781 201.28 41.1494C200.165 40.7975 199.325 40.2817 198.761 39.6021C198.205 38.9141 197.93 38.0158 197.935 36.907C197.938 36.2723 198.084 35.6762 198.375 35.1189C198.673 34.5532 199.107 34.0515 199.676 33.6139C200.245 33.1848 200.945 32.8451 201.776 32.5949C202.615 32.3447 203.559 32.2219 204.608 32.2265C205.607 32.2309 206.525 32.3365 207.362 32.5434C208.199 32.7417 208.904 32.9818 209.479 33.2637L209.462 36.8691L209.107 36.8675C208.955 36.7484 208.715 36.5907 208.385 36.3946C208.056 36.19 207.736 36.0151 207.423 35.8698C207.051 35.6989 206.633 35.5574 206.168 35.4454C205.712 35.3333 205.242 35.2762 204.76 35.2741C204.116 35.2712 203.57 35.3789 203.12 35.5969C202.679 35.815 202.458 36.1061 202.456 36.47C202.455 36.7916 202.564 37.046 202.783 37.2332C203.002 37.4203 203.48 37.6044 204.215 37.7854C204.596 37.8802 205.031 37.9752 205.522 38.0705C206.02 38.1573 206.498 38.2779 206.954 38.4323C207.977 38.7669 208.749 39.2569 209.271 39.9025C209.801 40.5396 210.064 41.3871 210.06 42.445C210.057 43.1136 209.897 43.7519 209.581 44.3599C209.265 44.9595 208.819 45.4653 208.241 45.8775C207.63 46.3233 206.909 46.6672 206.079 46.9089C205.257 47.1508 204.27 47.2691 203.119 47.264ZM237.288 37.576C237.274 40.6313 236.447 43.0313 234.805 44.7761C233.164 46.5208 230.921 47.3869 228.078 47.3743C225.225 47.3617 222.991 46.4674 221.374 44.6913C219.757 42.9068 218.955 40.5081 218.969 37.4951C218.982 34.4567 219.805 32.0609 221.438 30.3077C223.071 28.546 225.314 27.6715 228.166 27.6841C231.01 27.6966 233.244 28.5867 234.87 30.3543C236.495 32.1135 237.301 34.5207 237.288 37.576ZM232.387 37.5417C232.392 36.416 232.278 35.4591 232.045 34.671C231.82 33.8744 231.514 33.2214 231.127 32.7118C230.723 32.1938 230.263 31.8236 229.748 31.6012C229.241 31.3705 228.713 31.2539 228.163 31.2515C227.579 31.2489 227.049 31.3523 226.574 31.5618C226.099 31.7629 225.641 32.129 225.198 32.6603C224.807 33.1494 224.486 33.7997 224.237 34.6111C223.997 35.4226 223.874 36.3911 223.869 37.5167C223.864 38.6762 223.974 39.6416 224.199 40.4128C224.424 41.1755 224.734 41.8158 225.13 42.3339C225.533 42.8604 225.993 43.2391 226.508 43.4699C227.024 43.6922 227.556 43.8046 228.106 43.807C228.665 43.8095 229.207 43.6934 229.733 43.4587C230.259 43.2156 230.713 42.841 231.096 42.3348C231.505 41.7865 231.821 41.1489 232.044 40.422C232.268 39.6867 232.382 38.7266 232.387 37.5417ZM248.998 30.6707L248.656 30.6691C248.487 30.6176 248.22 30.553 247.857 30.4752C247.502 30.389 247.163 30.3452 246.842 30.3437C245.945 30.3398 245.33 30.5021 244.999 30.8307C244.676 31.1594 244.512 31.7765 244.508 32.6821L244.507 32.7963L248.037 32.8119L248.023 35.9096L244.646 35.8946L244.596 47.0537L240.153 47.0341L240.203 35.875L238.425 35.8672L238.439 32.7695L240.216 32.7774L240.218 32.3838C240.226 30.6404 240.689 29.3348 241.607 28.4671C242.525 27.5994 243.911 27.1696 245.764 27.1778C246.407 27.1807 247.008 27.2087 247.566 27.2619C248.125 27.3067 248.607 27.3681 249.013 27.4461L248.998 30.6707ZM258.952 30.7146L258.609 30.7131C258.44 30.6616 258.173 30.5969 257.81 30.5191C257.455 30.4329 257.116 30.3891 256.795 30.3877C255.898 30.3837 255.283 30.5461 254.952 30.8747C254.629 31.2033 254.465 31.8205 254.461 32.7261L254.46 32.8403L257.99 32.8559L257.976 35.9535L254.599 35.9386L254.549 47.0977L250.106 47.078L250.156 35.919L248.378 35.9111L248.392 32.8135L250.17 32.8214L250.171 32.4278C250.179 30.6843 250.642 29.3787 251.56 28.511C252.478 27.6433 253.864 27.2136 255.717 27.2218C256.36 27.2246 256.961 27.2527 257.52 27.3059C258.078 27.3507 258.56 27.4121 258.966 27.49L258.952 30.7146ZM264.159 47.1401L259.716 47.1205L259.78 32.8638L264.223 32.8834L264.159 47.1401ZM264.359 30.8528L259.662 30.832L259.677 27.3662L264.375 27.387L264.359 30.8528ZM274.555 47.5669C273.378 47.5617 272.3 47.4088 271.32 47.1083C270.348 46.8078 269.503 46.347 268.787 45.726C268.078 45.105 267.528 44.3282 267.134 43.3954C266.74 42.4542 266.546 41.3489 266.552 40.0793C266.558 38.7167 266.779 37.5582 267.215 36.6037C267.651 35.6493 268.239 34.8647 268.978 34.2502C269.691 33.6609 270.527 33.2287 271.485 32.9536C272.451 32.6701 273.454 32.5307 274.495 32.5353C275.282 32.5387 276.069 32.6353 276.855 32.825C277.642 33.0062 278.432 33.2974 279.225 33.6987L279.208 37.5073L278.637 37.5048C278.46 37.3347 278.241 37.1476 277.979 36.9433C277.726 36.739 277.448 36.5516 277.144 36.381C276.823 36.2018 276.46 36.0521 276.054 35.9318C275.649 35.8031 275.196 35.7376 274.697 35.7354C273.563 35.7304 272.681 36.1243 272.051 36.9171C271.429 37.7015 271.116 38.7623 271.11 40.0995C271.103 41.5298 271.429 42.5977 272.086 43.303C272.751 44.0085 273.634 44.3636 274.734 44.3685C275.293 44.3709 275.784 44.3096 276.208 44.1845C276.631 44.0595 276.996 43.9087 277.302 43.7323C277.599 43.5559 277.853 43.3751 278.066 43.1898C278.278 42.9961 278.461 42.8234 278.614 42.6717L279.185 42.6742L279.168 46.4828C278.914 46.5917 278.617 46.7173 278.278 46.8597C277.947 47.0021 277.608 47.1191 277.261 47.2107C276.828 47.3273 276.422 47.4144 276.041 47.4719C275.668 47.538 275.173 47.5696 274.555 47.5669ZM288.57 47.6288C285.879 47.6169 283.817 46.9646 282.384 45.6718C280.959 44.379 280.252 42.5435 280.263 40.1653C280.273 37.8379 280.95 35.9831 282.294 34.601C283.637 33.2189 285.511 32.5331 287.914 32.5438C290.098 32.5534 291.737 33.1489 292.832 34.3302C293.927 35.5114 294.47 37.1981 294.46 39.3901L294.453 40.9897L284.715 40.9467C284.755 41.607 284.892 42.162 285.127 42.6116C285.362 43.0528 285.674 43.4054 286.062 43.6695C286.441 43.9335 286.885 44.1259 287.392 44.2466C287.899 44.3589 288.454 44.4164 289.054 44.419C289.571 44.4213 290.079 44.3685 290.579 44.2607C291.078 44.1444 291.536 43.9941 291.952 43.8098C292.316 43.6506 292.651 43.4785 292.957 43.2937C293.271 43.1089 293.526 42.945 293.721 42.8019L294.191 42.804L294.174 46.4729C293.81 46.6152 293.475 46.7491 293.169 46.8747C292.873 46.9919 292.462 47.1128 291.936 47.2375C291.453 47.3623 290.954 47.4574 290.437 47.5228C289.929 47.5968 289.307 47.6321 288.57 47.6288ZM290.085 38.2917C290.064 37.3521 289.847 36.636 289.434 36.1433C289.03 35.6506 288.405 35.4024 287.559 35.3987C286.695 35.3948 286.017 35.65 285.524 36.1641C285.039 36.6782 284.77 37.3795 284.715 38.268L290.085 38.2917Z" fill="black"/>
</svg>
