<svg width="68" height="77" viewBox="0 0 68 77" fill="none" xmlns="http://www.w3.org/2000/svg">
<path d="M36.884 9.56274H25.2421C19.9797 9.56274 17.3485 9.56274 15.7137 11.43C14.0789 13.2972 14.0789 16.3025 14.0789 22.3131V54.1888C14.0789 60.1994 14.0789 63.2047 15.7137 65.0719C17.3485 66.9391 19.9797 66.9391 25.242 66.9391H41.9867C47.2491 66.9391 49.8803 66.9391 51.5151 65.0719C53.1499 63.2047 53.1499 60.1994 53.1499 54.1888V28.1413C53.1499 26.8384 53.1499 26.1869 52.9374 25.6011C52.725 25.0154 52.3217 24.5547 51.5151 23.6334L40.8308 11.43C40.0241 10.5087 39.6208 10.048 39.108 9.80538C38.5951 9.56274 38.0247 9.56274 36.884 9.56274Z" stroke="#0D0C0C" stroke-width="3"/>
<path d="M25.242 41.4385L41.9867 41.4385" stroke="#0D0C0C" stroke-width="3" stroke-linecap="round"/>
<path d="M25.242 54.1887L36.4052 54.1887" stroke="#0D0C0C" stroke-width="3" stroke-linecap="round"/>
<path d="M36.4052 9.56274V22.3131C36.4052 25.3183 36.4052 26.821 37.2226 27.7546C38.04 28.6882 39.3556 28.6882 41.9867 28.6882H53.1499" stroke="#0D0C0C" stroke-width="3"/>
</svg>
