<svg width="16" height="16" viewBox="0 0 16 16" fill="none" xmlns="http://www.w3.org/2000/svg">
<g clip-path="url(#clip0_394_860)">
<path d="M5.71415 13.9884L0.571289 15.4284L2.01129 10.2856L11.4284 0.91417C11.5348 0.805317 11.662 0.718827 11.8023 0.659779C11.9426 0.60073 12.0933 0.570312 12.2456 0.570312C12.3978 0.570312 12.5485 0.60073 12.6889 0.659779C12.8291 0.718827 12.9563 0.805317 13.0627 0.91417L15.0856 2.94845C15.1927 3.05469 15.2777 3.18111 15.3357 3.32036C15.3938 3.45963 15.4236 3.60901 15.4236 3.75988C15.4236 3.91075 15.3938 4.06013 15.3357 4.1994C15.2777 4.33867 15.1927 4.46507 15.0856 4.57131L5.71415 13.9884Z" stroke="white" stroke-width="2" stroke-linecap="round" stroke-linejoin="round"/>
</g>
<defs>
<clipPath id="clip0_394_860">
<rect width="16" height="16" fill="white"/>
</clipPath>
</defs>
</svg>
