<svg width="12" height="12" viewBox="0 0 12 12" fill="none" xmlns="http://www.w3.org/2000/svg">
<g clip-path="url(#clip0_4123_850)">
<path d="M5.99972 11H11M7.66648 2.66709L9.33324 4.33367M8.22208 1.55616C8.44325 1.33501 9.02047 1 9.33325 1C9.64604 1 10.2233 1.33438 10.4444 1.55553C10.6656 1.77668 11 2.35383 11 2.66658C11 2.97933 10.6656 3.55714 10.4444 3.77829L3.77739 10.4446C3.64521 10.5768 3.20014 10.5917 3.02067 10.6439L1.35558 10.9883C1.30777 11.0023 1.25709 11.0031 1.20885 10.9908C1.16061 10.9784 1.11658 10.9533 1.08136 10.9181C1.04615 10.8829 1.02105 10.8389 1.00869 10.7906C0.996332 10.7424 0.997168 10.6917 1.01111 10.6439L1.35558 8.77804C1.40792 8.59879 1.42295 8.35452 1.55504 8.22251L8.22208 1.55616Z" stroke="#465DA3" stroke-linecap="round" stroke-linejoin="round"/>
</g>
<defs>
<clipPath id="clip0_4123_850">
<rect width="12" height="12" fill="white"/>
</clipPath>
</defs>
</svg>
