<svg width="14" height="14" viewBox="0 0 14 14" fill="none" xmlns="http://www.w3.org/2000/svg">
<g clip-path="url(#clip0_4127_854)">
<path d="M1.69054 7.33855C1.85556 7.19872 2.04998 7.0979 2.25933 7.04356C2.46869 6.98923 2.6876 6.98279 2.89979 7.02471C3.22809 7.08876 3.52224 7.26918 3.72812 7.5328L3.97254 6.93605C3.84773 6.82385 3.70914 6.72799 3.56012 6.6508C3.78966 6.45881 3.95459 6.20086 4.03252 5.91194C4.11044 5.62302 4.09761 5.31712 3.99575 5.03575C3.89388 4.75438 3.70793 4.51115 3.46311 4.33907C3.21829 4.16699 2.92647 4.07439 2.62722 4.07383C2.32798 4.07327 2.03581 4.16478 1.79035 4.33595C1.54489 4.50711 1.35803 4.74964 1.25512 5.03064C1.15221 5.31163 1.13823 5.61747 1.21508 5.90668C1.29193 6.19589 1.45589 6.45445 1.68471 6.6473C1.55345 6.71484 1.43002 6.79661 1.31662 6.89113C1.08688 7.08246 0.902081 7.32202 0.775355 7.59282C0.648629 7.86361 0.583084 8.15898 0.583375 8.45796V9.33296H1.16671V8.45796C1.16641 8.24435 1.2132 8.03329 1.30373 7.83981C1.39427 7.64633 1.52634 7.47519 1.69054 7.33855ZM1.75004 5.5413C1.75004 5.36824 1.80136 5.19907 1.89751 5.05517C1.99365 4.91128 2.13031 4.79913 2.29019 4.7329C2.45008 4.66668 2.62601 4.64935 2.79575 4.68311C2.96548 4.71687 3.12139 4.80021 3.24376 4.92258C3.36613 5.04495 3.44947 5.20086 3.48323 5.37059C3.51699 5.54033 3.49966 5.71626 3.43344 5.87614C3.36721 6.03603 3.25506 6.17269 3.11117 6.26883C2.96727 6.36498 2.7981 6.4163 2.62504 6.4163C2.39307 6.41599 2.17069 6.3237 2.00666 6.15967C1.84264 5.99565 1.75035 5.77327 1.75004 5.5413ZM12.3101 6.6508C12.5397 6.45888 12.7047 6.20098 12.7827 5.91209C12.8608 5.62319 12.848 5.31729 12.7462 5.03589C12.6445 4.75448 12.4586 4.5112 12.2138 4.33904C11.9691 4.16688 11.6773 4.07419 11.378 4.07354C11.0788 4.07289 10.7866 4.16431 10.5411 4.3354C10.2956 4.50649 10.1086 4.74896 10.0056 5.02992C9.90262 5.31088 9.88855 5.61672 9.96531 5.90595C10.0421 6.19518 10.2059 6.4538 10.4347 6.64671C10.3034 6.71442 10.18 6.79639 10.0666 6.89113C10.0515 6.90338 10.041 6.9203 10.0258 6.93313L10.2661 7.51996C10.4285 7.31765 10.6437 7.16427 10.888 7.07685C11.1322 6.98943 11.3959 6.97138 11.6498 7.02471C11.9919 7.10251 12.2966 7.29617 12.5123 7.57289C12.728 7.8496 12.8414 8.19237 12.8334 8.54313V9.33296H13.4167V8.54313C13.4214 8.15697 13.3209 7.77683 13.1259 7.44346C12.931 7.11009 12.649 6.83608 12.3101 6.6508ZM10.5 5.5413C10.5 5.36824 10.5514 5.19907 10.6475 5.05517C10.7437 4.91128 10.8803 4.79913 11.0402 4.7329C11.2001 4.66668 11.376 4.64935 11.5457 4.68311C11.7155 4.71687 11.8714 4.80021 11.9938 4.92258C12.1161 5.04495 12.1995 5.20086 12.2332 5.37059C12.267 5.54033 12.2497 5.71626 12.1834 5.87614C12.1172 6.03603 12.0051 6.17269 11.8612 6.26883C11.7173 6.36498 11.5481 6.4163 11.375 6.4163C11.1431 6.41599 10.9207 6.3237 10.7567 6.15967C10.5926 5.99565 10.5004 5.77327 10.5 5.5413ZM5.83337 5.24963V4.6663C5.83297 4.48961 5.87291 4.31516 5.95015 4.15625C6.02738 3.99734 6.13987 3.85815 6.27904 3.7493C6.42061 3.63863 6.58562 3.5618 6.76144 3.52469C6.93726 3.48759 7.11924 3.49119 7.29346 3.53521C7.55139 3.6104 7.77706 3.76907 7.9351 3.98633C8.09314 4.20359 8.1746 4.46717 8.16671 4.73571V5.24963H8.75004V4.7363C8.75168 4.42614 8.67535 4.12054 8.52807 3.84758C8.38078 3.57461 8.16726 3.34304 7.90713 3.17413C8.14426 2.98562 8.31681 2.72794 8.4008 2.43688C8.48479 2.14582 8.47605 1.83583 8.37581 1.54996C8.27556 1.2641 8.08878 1.01654 7.8414 0.841684C7.59403 0.666826 7.29834 0.573345 6.9954 0.574225C6.69247 0.575104 6.39733 0.670301 6.15097 0.846591C5.90461 1.02288 5.71927 1.27152 5.62069 1.55796C5.5221 1.84441 5.51517 2.15444 5.60085 2.44501C5.68653 2.73558 5.86056 2.99225 6.09879 3.17938C6.03627 3.21296 5.97587 3.25036 5.91796 3.29138C5.70935 3.45463 5.54075 3.66334 5.425 3.9016C5.30926 4.13987 5.24942 4.40141 5.25004 4.6663V5.24963H5.83337ZM6.12504 2.0413C6.12504 1.86824 6.17636 1.69907 6.27251 1.55517C6.36865 1.41128 6.50531 1.29913 6.66519 1.2329C6.82508 1.16668 7.00101 1.14935 7.17075 1.18311C7.34048 1.21687 7.49639 1.30021 7.61876 1.42258C7.74113 1.54495 7.82447 1.70086 7.85823 1.87059C7.89199 2.04033 7.87466 2.21626 7.80844 2.37614C7.74221 2.53603 7.63006 2.67269 7.48617 2.76883C7.34227 2.86498 7.1731 2.9163 7.00004 2.9163C6.76807 2.91599 6.54569 2.8237 6.38166 2.65967C6.21764 2.49565 6.12535 2.27327 6.12504 2.0413ZM11.6451 12.4305L11.105 12.6521L8.55404 6.4163H5.44604L2.89512 12.6521L2.35496 12.4305L4.90587 6.1958C4.94949 6.08836 5.02421 5.99642 5.12046 5.93176C5.21671 5.86711 5.33009 5.83271 5.44604 5.83296H8.55404C8.66977 5.83265 8.78296 5.86691 8.8791 5.93134C8.97523 5.99578 9.04993 6.08746 9.09362 6.19463L11.6451 12.4305Z" fill="#465DA3"/>
</g>
<defs>
<clipPath id="clip0_4127_854">
<rect width="14" height="14" fill="white"/>
</clipPath>
</defs>
</svg>
