<svg width="47" height="61" viewBox="0 0 47 61" fill="none" xmlns="http://www.w3.org/2000/svg">
<path d="M12 32L35.3333 32" stroke="#222222" stroke-width="3" stroke-linecap="round"/>
<path d="M12 42L25.3333 42" stroke="#222222" stroke-width="3" stroke-linecap="round"/>
<path d="M2 4.4C2 3.55992 2 3.13988 2.16349 2.81901C2.3073 2.53677 2.53677 2.3073 2.81901 2.16349C3.13988 2 3.55992 2 4.4 2H27.6726C28.0394 2 28.2229 2 28.3955 2.04145C28.5486 2.07819 28.6949 2.1388 28.8291 2.22104C28.9805 2.3138 29.1102 2.44352 29.3696 2.70294L44.6304 17.9637C44.8898 18.2232 45.0195 18.3529 45.1123 18.5042C45.1945 18.6384 45.2551 18.7848 45.2919 18.9378C45.3333 19.1105 45.3333 19.2939 45.3333 19.6608V56.2667C45.3333 57.1067 45.3333 57.5268 45.1698 57.8477C45.026 58.1299 44.7966 58.3594 44.5143 58.5032C44.1935 58.6667 43.7734 58.6667 42.9333 58.6667H4.4C3.55992 58.6667 3.13988 58.6667 2.81901 58.5032C2.53677 58.3594 2.3073 58.1299 2.16349 57.8477C2 57.5268 2 57.1067 2 56.2667V4.4Z" stroke="#222222" stroke-width="3"/>
<path d="M25.333 2V19.6C25.333 20.4401 25.333 20.8601 25.4965 21.181C25.6403 21.4632 25.8698 21.6927 26.152 21.8365C26.4729 22 26.8929 22 27.733 22H45.333" stroke="#222222" stroke-width="3"/>
</svg>
