<svg width="61" height="51" viewBox="0 0 61 51" fill="none" xmlns="http://www.w3.org/2000/svg">
<path d="M5.33301 25.3333V6C5.33301 4.11438 5.33301 3.17157 5.91879 2.58579C6.50458 2 7.44739 2 9.33301 2H23.6762C24.4937 2 24.9024 2 25.2699 2.15224C25.6375 2.30448 25.9265 2.59351 26.5046 3.17157L34.1614 10.8284C34.7395 11.4065 35.0285 11.6955 35.3961 11.8478C35.7636 12 36.1724 12 36.9899 12H54.6663C56.552 12 57.4948 12 58.0806 12.5858C58.6663 13.1716 58.6663 14.1144 58.6663 16V44.6667C58.6663 46.5523 58.6663 47.4951 58.0806 48.0809C57.4948 48.6667 56.552 48.6667 54.6663 48.6667H28.6663" stroke="#33363F" stroke-width="3"/>
<path d="M2 40.3333L10.3333 48.6667L27 32" stroke="#33363F" stroke-width="3"/>
</svg>
