<svg width="14" height="12" viewBox="0 0 14 12" fill="none" xmlns="http://www.w3.org/2000/svg">
<path d="M7 3.875C6.74239 3.8789 6.48669 3.91837 6.24069 3.99219C6.35448 4.18515 6.41507 4.40303 6.41667 4.625C6.41667 4.79736 6.38146 4.96803 6.31306 5.12727C6.24465 5.28651 6.1444 5.4312 6.018 5.55308C5.89161 5.67495 5.74157 5.77163 5.57643 5.83759C5.41129 5.90355 5.2343 5.9375 5.05555 5.9375C4.82536 5.93596 4.59941 5.87754 4.3993 5.76781C4.24142 6.29581 4.25982 6.85833 4.4519 7.37568C4.64398 7.89303 4.99999 8.339 5.46952 8.6504C5.93904 8.96181 6.49827 9.12286 7.068 9.11076C7.63772 9.09866 8.18906 8.914 8.6439 8.58296C9.09875 8.25192 9.43405 7.79127 9.60232 7.26626C9.77058 6.74125 9.76327 6.1785 9.58142 5.65772C9.39958 5.13694 9.05242 4.68453 8.58912 4.36457C8.12582 4.04462 7.56986 3.87334 7 3.875ZM13.9154 6.15781C12.5973 3.67789 9.98789 2 7 2C4.01211 2 1.40193 3.67906 0.0845702 6.15805C0.0289692 6.2641 0 6.38128 0 6.50012C0 6.61896 0.0289692 6.73613 0.0845702 6.84219C1.40266 9.32211 4.01211 11 7 11C9.98789 11 12.5981 9.32094 13.9154 6.84195C13.971 6.7359 14 6.61872 14 6.49988C14 6.38104 13.971 6.26387 13.9154 6.15781ZM7 9.875C4.60225 9.875 2.40405 8.58594 1.21697 6.5C2.40405 4.41406 4.60201 3.125 7 3.125C9.39799 3.125 11.5959 4.41406 12.783 6.5C11.5962 8.58594 9.39799 9.875 7 9.875Z" fill="#465DA3"/>
</svg>
