<svg width="24" height="24" viewBox="0 0 24 24" fill="none" xmlns="http://www.w3.org/2000/svg">
<path fill-rule="evenodd" clip-rule="evenodd" d="M20.77 12C20.77 11.6412 20.576 11.4056 20.1878 10.9343C18.7677 9.21014 15.6355 6 11.9998 6C8.36403 6 5.23183 9.21014 3.81174 10.9343C3.42357 11.4056 3.22949 11.6412 3.22949 12C3.22949 12.3588 3.42357 12.5944 3.81173 13.0657C5.23183 14.7899 8.36403 18 11.9998 18C15.6355 18 18.7677 14.7899 20.1878 13.0657C20.576 12.5944 20.77 12.3588 20.77 12ZM11.9998 15C13.6566 15 14.9998 13.6569 14.9998 12C14.9998 10.3431 13.6566 9 11.9998 9C10.3429 9 8.99977 10.3431 8.99977 12C8.99977 13.6569 10.3429 15 11.9998 15Z" fill="#33363F"/>
</svg>
